<svg xmlns="http://www.w3.org/2000/svg" width="43.625" height="49.858" viewBox="0 0 43.625 49.858">
  <path id="business_project_lamp" data-name="business project lamp" d="M24.928,28.045Q18.7,23.516,18.7,17.187a13.771,13.771,0,0,1,.828-4.723l-.877-.877-13,13,10.03,19.037H28.045a3.159,3.159,0,0,1,3.116,3.141,2.942,2.942,0,0,1-.925,2.191,3.036,3.036,0,0,1-2.191.9H3.116a3.036,3.036,0,0,1-2.191-.9A2.942,2.942,0,0,1,0,46.766,3.023,3.023,0,0,1,.925,44.55a3,3,0,0,1,2.191-.925h9.056l-8.861-16.7-.633.633a1.411,1.411,0,0,1-1.1.487,1.526,1.526,0,0,1-1.12-.463A1.526,1.526,0,0,1,0,26.462a1.486,1.486,0,0,1,.438-1.1L1.8,24,.242,21.033a1.407,1.407,0,0,1-.17-1.169,1.582,1.582,0,0,1,.73-.974,1.424,1.424,0,0,1,1.169-.17,1.558,1.558,0,0,1,.95.756L4.09,21.716,16.554,9.3a5.864,5.864,0,0,1-.974-3.9,5.753,5.753,0,0,1,1.7-3.652,5.995,5.995,0,0,1,8.473,0L28,3.992a14.053,14.053,0,0,1,4.723-.828q6.378,0,10.906,6.232Z" transform="translate(0 0.001)" fill="#d3a375"/>
</svg>
