<svg xmlns="http://www.w3.org/2000/svg" width="55.333" height="57.092" viewBox="0 0 55.333 57.092">
  <g id="certificated_icon" data-name="certificated icon" transform="translate(-26 -18.693)">
    <g id="Group_53" data-name="Group 53" transform="translate(26 18.693)">
      <path id="Path_212" data-name="Path 212" d="M109.116,88.31v48.116H61V88.31h4.032l-.011.007h42.732q.117,0,.235-.007ZM93.478,95.527V93.122H91.072v2.406Zm-4.812,0V93.122H86.261v2.406Zm-4.812,0V93.122H81.449v2.406Zm-4.812,0V93.122H76.638v2.406Z" transform="translate(-56.79 -79.936)" fill="#fff"/>
      <g id="Group_48" data-name="Group 48" transform="translate(4.21 8.374)">
        <g id="Group_47" data-name="Group 47">
          <g id="Group_46" data-name="Group 46">
            <path id="Path_213" data-name="Path 213" d="M62.413,112.518V89.663h4.032l-.011.007h42.681V88.31h-1.128q-.117.007-.235.007H65.021l.011-.007H61v48.116h1.413Z" transform="translate(-61 -88.31)" fill="#e6ffff"/>
          </g>
        </g>
      </g>
      <path id="Path_214" data-name="Path 214" d="M114.609,399.513a5.986,5.986,0,0,0,3.609-1.2v7.217l-3.609-2.406L111,405.527V398.31A5.986,5.986,0,0,0,114.609,399.513Z" transform="translate(-100.775 -352.646)" fill="#e1c1a3"/>
      <path id="Path_215" data-name="Path 215" d="M111.421,399.353a6.014,6.014,0,0,0,6.8.288V398.31a6.014,6.014,0,0,1-7.217,0v7.217l.421-.281Z" transform="translate(-100.775 -352.646)" fill="#d7ad84"/>
      <path id="Path_216" data-name="Path 216" d="M103.029,314.324a6.014,6.014,0,1,1-6.014-6.014A6.005,6.005,0,0,1,103.029,314.324Z" transform="translate(-83.181 -273.472)" fill="#e1c1a3"/>
      <path id="Path_217" data-name="Path 217" d="M91.922,316.169a6.014,6.014,0,0,1,10.854-3.57,6.014,6.014,0,1,0-10.6,5.294A6.006,6.006,0,0,1,91.922,316.169Z" transform="translate(-83.181 -273.472)" fill="#d7ad84"/>
      <path id="Path_218" data-name="Path 218" d="M38.741,23.88a4.548,4.548,0,0,1,2,3.769,4.471,4.471,0,0,1-2.1,3.817H34.609V54.32H31V29.059a5.139,5.139,0,0,1,5.579-5.346Z" transform="translate(-30.399 -23.091)" fill="#366196"/>
      <path id="Path_219" data-name="Path 219" d="M31.932,30.232a5.139,5.139,0,0,1,5.579-5.346l2.162.166a4.6,4.6,0,0,1,.494.39,4.578,4.578,0,0,0-1.426-1.563l-2.162-.166A5.139,5.139,0,0,0,31,29.059V54.32h.932Z" transform="translate(-30.399 -23.091)" fill="#294972"/>
      <path id="Path_220" data-name="Path 220" d="M139.915,26.372a3.848,3.848,0,0,1,1.095,2.7,3.773,3.773,0,0,1-3.534,3.761H94.52a4.471,4.471,0,0,0,2.1-3.817,4.548,4.548,0,0,0-2-3.769h42.621A3.723,3.723,0,0,1,139.915,26.372Z" transform="translate(-86.278 -24.461)" fill="#366196"/>
      <g id="Group_52" data-name="Group 52" transform="translate(8.242 0.789)">
        <g id="Group_51" data-name="Group 51">
          <g id="Group_49" data-name="Group 49" transform="translate(0 5.341)">
            <path id="Path_221" data-name="Path 221" d="M94.52,71.9h1.064a4.538,4.538,0,0,0,.752-2.244A4.4,4.4,0,0,1,94.52,71.9Z" transform="translate(-94.52 -69.654)" fill="#e2bf7f"/>
          </g>
          <g id="Group_50" data-name="Group 50" transform="translate(0.1)">
            <path id="Path_222" data-name="Path 222" d="M96.613,26.543H137.7a3.723,3.723,0,0,1,2.674,1.122,3.848,3.848,0,0,1,1.095,2.7c0,.038,0,.076,0,.114a3.748,3.748,0,0,0,.273-1.407,3.848,3.848,0,0,0-1.095-2.7,3.723,3.723,0,0,0-2.674-1.122H95.35A4.585,4.585,0,0,1,96.613,26.543Z" transform="translate(-95.35 -25.25)" fill="#294972"/>
          </g>
        </g>
      </g>
      <rect id="Rectangle_60" data-name="Rectangle 60" width="2.406" height="2.406" transform="translate(34.283 13.186)" fill="#d3a375"/>
      <rect id="Rectangle_61" data-name="Rectangle 61" width="2.406" height="2.406" transform="translate(29.471 13.186)" fill="#d3a375"/>
      <rect id="Rectangle_62" data-name="Rectangle 62" width="2.406" height="2.406" transform="translate(24.659 13.186)" fill="#d3a375"/>
      <rect id="Rectangle_63" data-name="Rectangle 63" width="2.406" height="2.406" transform="translate(19.848 13.186)" fill="#d3a375"/>
      <path id="Path_223" data-name="Path 223" d="M104.717,132.629H56.6a.6.6,0,0,1-.6-.6V83.911a.6.6,0,0,1,.6-.6h48.116a.6.6,0,0,1,.6.6v48.116A.6.6,0,0,1,104.717,132.629Zm-47.515-1.2h46.913V84.513H57.2Z" transform="translate(-52.391 -75.537)" fill="#1e194d"/>
      <path id="Path_224" data-name="Path 224" d="M132.763,29.046H90.031a.6.6,0,0,1,0-1.2h42.732q.1,0,.2-.006a3.169,3.169,0,0,0,2.97-3.161,3.239,3.239,0,0,0-.923-2.281,3.116,3.116,0,0,0-2.244-.942H90.142a.6.6,0,0,1,0-1.2h42.621a4.31,4.31,0,0,1,3.1,1.3,4.434,4.434,0,0,1,1.266,3.122,4.374,4.374,0,0,1-4.1,4.362C132.945,29.043,132.853,29.046,132.763,29.046Z" transform="translate(-81.8 -20.063)" fill="#1e194d"/>
      <path id="Path_225" data-name="Path 225" d="M30.21,50.524H26.6a.6.6,0,0,1-.6-.6V24.661a6.107,6.107,0,0,1,1.916-4.515,5.583,5.583,0,0,1,4.317-1.43l2.155.165a.6.6,0,0,1,.293.1,5.16,5.16,0,0,1,2.258,4.266.6.6,0,1,1-1.2,0,3.957,3.957,0,0,0-1.606-3.182l-2-.153a4.4,4.4,0,0,0-3.406,1.118A4.9,4.9,0,0,0,27.2,24.661V49.321H30.21a.6.6,0,0,1,0,1.2Z" transform="translate(-26 -18.693)" fill="#1e194d"/>
      <path id="Path_226" data-name="Path 226" d="M90.064,56.6a.6.6,0,0,1-.342-1.095l.032-.021a3.88,3.88,0,0,0,1.808-3.3.6.6,0,1,1,1.2,0,5.09,5.09,0,0,1-2.38,4.328A.607.607,0,0,1,90.064,56.6Z" transform="translate(-81.827 -47.624)" fill="#1e194d"/>
      <path id="Path_227" data-name="Path 227" d="M149.08,184.513H116.6a.6.6,0,0,1,0-1.2H149.08a.6.6,0,0,1,0,1.2Z" transform="translate(-105.174 -163.508)" fill="#1e194d"/>
      <path id="Path_228" data-name="Path 228" d="M149.08,224.513H116.6a.6.6,0,1,1,0-1.2H149.08a.6.6,0,1,1,0,1.2Z" transform="translate(-105.174 -198.697)" fill="#1e194d"/>
      <path id="Path_229" data-name="Path 229" d="M219.457,264.513H196.6a.6.6,0,1,1,0-1.2h22.855a.6.6,0,1,1,0,1.2Z" transform="translate(-175.551 -233.885)" fill="#1e194d"/>
      <path id="Path_230" data-name="Path 230" d="M228.254,304.513H206.6a.6.6,0,1,1,0-1.2h21.652a.6.6,0,0,1,0,1.2Z" transform="translate(-184.348 -269.073)" fill="#1e194d"/>
      <path id="Path_231" data-name="Path 231" d="M245.848,344.513H226.6a.6.6,0,1,1,0-1.2h19.246a.6.6,0,1,1,0,1.2Z" transform="translate(-201.942 -304.262)" fill="#1e194d"/>
      <path id="Path_232" data-name="Path 232" d="M113.818,401.729a.6.6,0,0,1-.334-.1l-3.275-2.183-3.275,2.183a.6.6,0,0,1-.935-.5V393.91a.6.6,0,1,1,1.2,0V400l2.674-1.782a.6.6,0,0,1,.667,0L113.217,400v-6.094a.6.6,0,1,1,1.2,0v7.217a.6.6,0,0,1-.6.6Z" transform="translate(-96.376 -348.246)" fill="#1e194d"/>
      <path id="Path_233" data-name="Path 233" d="M92.616,316.542a6.616,6.616,0,1,1,3.97-1.323A6.56,6.56,0,0,1,92.616,316.542Zm0-12.029a5.413,5.413,0,0,0-3.247,9.744,5.413,5.413,0,0,0,8.661-4.331A5.419,5.419,0,0,0,92.616,304.513Z" transform="translate(-78.783 -269.073)" fill="#1e194d"/>
    </g>
  </g>
</svg>
