<svg id="clearing_bad_energy_icon" data-name="clearing bad energy icon" xmlns="http://www.w3.org/2000/svg" xmlns:xlink="http://www.w3.org/1999/xlink" width="333.899" height="276.389" viewBox="0 0 333.899 276.389">
  <defs>
    <clipPath id="clip-path">
      <rect id="Rectangle_135" data-name="Rectangle 135" width="333.899" height="268.943" fill="none"/>
    </clipPath>
  </defs>
  <g id="Layer_4" data-name="Layer 4" transform="translate(39.007 16.505)">
    <path id="Path_772" data-name="Path 772" d="M277.73,163.208c-18.876,4.822-33.566,14.346-49.594,22.272a73.466,73.466,0,0,1-28.153,7.747c-11.946.7-22.6-.915-31.4-4.219-.023-.291.328-.354.485-.485a104.933,104.933,0,0,1,14.387-9.961c1.179-.692,2.611-1.576,4.012-2.352a6.654,6.654,0,0,1,1.383-.692,11.2,11.2,0,0,1,2.145.208,90.125,90.125,0,0,0,15.7.138,77.2,77.2,0,0,0,29.328-8.16,71.45,71.45,0,0,0,11.621-7.471A133.309,133.309,0,0,1,277.73,163.208Z" transform="translate(-120.023 -160.218)" fill="#e6cbb2" fill-rule="evenodd"/>
    <path id="Path_773" data-name="Path 773" d="M244.47,160.3c.247.059-.214.381-.345.484-.558.434-1.238.881-1.867,1.314a69.388,69.388,0,0,1-20.2,9.338,85.82,85.82,0,0,1-30.366,2.7,4.476,4.476,0,0,1,1.313-.761,128.049,128.049,0,0,1,43.162-12.384c1.226-.135,2.467-.258,3.735-.345C241.419,160.544,242.917,160.382,244.47,160.3Z" transform="translate(-120.033 -160.218)" fill="#e6cbb2" fill-rule="evenodd"/>
    <path id="Path_774" data-name="Path 774" d="M298.545,169.642c-10.625,1.929-20.054,4.949-27.53,9.9-3.319,2.2-7.525,5.515-8.438,10.237a9.608,9.608,0,0,0,1.591,7.471,9.1,9.1,0,0,0,6.018,3.32,26.479,26.479,0,0,0,8.714-.138,55.437,55.437,0,0,0,7.54-1.8c9.67-2.964,18.192-6.355,29.743-7.609a82.338,82.338,0,0,1,13.28-.484,18.035,18.035,0,0,1,4.22.415,7.477,7.477,0,0,1,1.869,1.522,130.575,130.575,0,0,1,10.1,9.822,8.861,8.861,0,0,1,1.452,1.73,120.045,120.045,0,0,0-12.173-1.937,130.041,130.041,0,0,0-13.557-.553c-8.807,0-17.638,1.613-25.109,3.113-7.776,1.559-15.464,3.348-23.172,5.05-7.8,1.72-15.656,3.215-23.725,4.5-15.493,2.46-35.277,4.393-52.154,1.521-16.074-2.734-29.764-7.961-40.74-15.7a93.884,93.884,0,0,1,10.582-9.823,75.474,75.474,0,0,0,32.441,4.773,78.511,78.511,0,0,0,29.47-7.96c4.164-2.047,8.228-4.27,12.312-6.433s8.12-4.464,12.312-6.432c4.269-2.005,8.634-3.828,13.143-5.6a84.666,84.666,0,0,1,14.453-4.22,6.128,6.128,0,0,1,2.628.415A133.741,133.741,0,0,1,298.545,169.642Zm-55.682,28.222a28.141,28.141,0,0,1-9.754.415,6.671,6.671,0,0,0-3.6.138,3.114,3.114,0,0,0-1.314,3.735c.38,1.015,1.54,1.662,2.629,2.283a16.967,16.967,0,0,0,3.39,1.521,30.35,30.35,0,0,0,17.224-.345c2.146-.794,5-2.372,4.979-4.842a3.687,3.687,0,0,0-1.936-3.044c-1.533-.96-4.156-1.116-5.948-.968A40.823,40.823,0,0,0,242.863,197.863Z" transform="translate(-120.018 -160.22)" fill="#e6cbb2" fill-rule="evenodd"/>
    <path id="Path_775" data-name="Path 775" d="M331.31,188.943a89.821,89.821,0,0,0-32.994,4.151c-4.679,1.433-9.273,3.137-14.319,4.5-4.416,1.19-11.695,2.626-16.186.484-2.327-1.109-3.91-3.717-3.6-7.332a9.439,9.439,0,0,1,2.213-4.911c3.076-3.873,7.827-6.618,12.521-8.715a84.044,84.044,0,0,1,22.2-6.087,5.386,5.386,0,0,1,2.489.762A130.632,130.632,0,0,1,324.6,183.828c1.191.821,2.393,1.637,3.527,2.491A29.846,29.846,0,0,1,331.31,188.943Z" transform="translate(-120.065 -160.223)" fill="#e6cbb2" fill-rule="evenodd"/>
    <path id="Path_776" data-name="Path 776" d="M249.254,198.432c1.871-.1,5.352.294,5.465,2.282.06,1.05-1.106,1.906-1.937,2.421-4.254,2.638-12.777,2.769-18.26,1.107-1.373-.417-3.345-.947-4.289-2.145a1.539,1.539,0,0,1-.415-1.59c.447-1.2,3.319-.544,4.635-.415a28.985,28.985,0,0,0,9.961-.831A26.576,26.576,0,0,1,249.254,198.432Z" transform="translate(-120.05 -160.234)" fill="#e6cbb2" fill-rule="evenodd"/>
    <path id="Path_777" data-name="Path 777" d="M155.219,201.268c11.312,7.844,25.006,13.365,41.433,16.048a131.5,131.5,0,0,0,27.045,1.313c18.3-.865,34.24-3.923,50.149-7.332,7.869-1.686,15.639-3.625,23.517-5.188a129.967,129.967,0,0,1,25.8-2.906,115.819,115.819,0,0,1,22.827,2.352,16.855,16.855,0,0,1,2.9.623c.712.31,1.547,1.63,2.075,2.283a15.207,15.207,0,0,1,1.659,2.145c.016.027.34.218,0,.208-10.557-1.756-20.491-4.234-32.648-3.528a85.412,85.412,0,0,0-15.632,2.559,119.184,119.184,0,0,0-13.694,4.5,152.8,152.8,0,0,0-24.689,11.69c-3.786,2.277-7.39,4.757-11,7.2-7.241,4.889-14.694,9.655-23.1,13.35a46.212,46.212,0,0,1-14.25,3.942,56.444,56.444,0,0,1-16.739-.9c-20.028-4.029-34.326-14.146-48.211-24.555-1.745-1.308-3.413-2.677-5.119-4.012a50.859,50.859,0,0,1-4.981-4.08A131.725,131.725,0,0,1,155.219,201.268Z" transform="translate(-120.012 -160.236)" fill="#e6cbb2" fill-rule="evenodd"/>
    <path id="Path_778" data-name="Path 778" d="M364.587,229.147C358.445,242.375,349.023,252.1,337.611,260c-7.525,5.21-16.245,9.423-24.971,13.557-6.556,3.108-12.755,6.384-18.192,10.652-5.308,4.168-10.4,9.005-13.555,15.287a15.056,15.056,0,0,0-1.8,7.886,9.814,9.814,0,0,0,3.112,6.5c3.218,3.15,8.4,4.539,15.01,3.666a71.871,71.871,0,0,0,15.218-4.081c9.514-3.442,17.729-7.9,26.423-12.1q6.476-3.137,13-6.225c2.165-1.021,4.285-2.119,6.5-3.113a102.2,102.2,0,0,1,21.373-7.332,94.147,94.147,0,0,1,0,10.583,83.7,83.7,0,0,0-17.638,3.6,232.416,232.416,0,0,0-30.226,12.1c-4.8,2.235-9.415,4.732-14.111,7.056-4.729,2.338-9.425,4.734-14.25,6.986a216.37,216.37,0,0,1-65.642,19.092,186.348,186.348,0,0,1-40.048.76,117.922,117.922,0,0,1-17.915-3.25c-19.345-5.13-35.842-13.519-50.978-23.1-1.562-.99-3.218-2.089-4.842-3.113-.636-.4-1.574-.669-1.868-1.313a14.848,14.848,0,0,1-.484-2.837A128.135,128.135,0,0,1,120,290.084c9.978,2.721,17.529,7.838,25.177,12.728,3.843,2.458,7.567,5.079,11.344,7.61a104.851,104.851,0,0,0,11.759,7.2,64.227,64.227,0,0,0,13.973,4.979,38.673,38.673,0,0,0,8.507.97,29.717,29.717,0,0,0,8.3-1.176,22.672,22.672,0,0,0,11.621-7.332,17.106,17.106,0,0,0,3.047-14.8,28.248,28.248,0,0,0-6.571-12.383c-11.789-13.57-30.315-20.254-44.959-30.85-1.84-1.332-3.556-2.746-5.257-4.22a54.835,54.835,0,0,1-12.866-15.562,52.487,52.487,0,0,1-5.118-13.765c-.027-.125-.143-.432-.139-.484a8.21,8.21,0,0,1,1.314-2.283c.506-.818.962-1.444,1.383-2.213A274.274,274.274,0,0,0,169.6,238.832,93.4,93.4,0,0,0,191.663,249c8.033,2.467,17.774,4.562,28.152,2.975,9.173-1.4,16.262-5.269,23.1-9.2,3.413-1.961,6.734-4,9.961-6.156,6.475-4.336,12.854-8.727,19.781-12.452a177.37,177.37,0,0,1,22.481-9.753,88.508,88.508,0,0,1,26.768-5.464c8.983-.418,16.9,1.193,24.416,2.49,1.236.214,2.562.394,3.874.623a29.072,29.072,0,0,1,3.735.692,1.174,1.174,0,0,1,.693.415,22.122,22.122,0,0,1,1.313,1.937A111.013,111.013,0,0,1,364.587,229.147ZM326.4,213.376a20.487,20.487,0,0,0-3.182,1.107,27.092,27.092,0,0,0-13.211,12.589,31.808,31.808,0,0,0-3.528,9.337c-.213,1.148-.277,2.422-.553,3.735a12.906,12.906,0,0,1-2.7,5.879c-1.378,1.687-3.088,2.835-3.805,4.842-1.117,3.126,1.345,6.757,3.391,7.747,3.16,1.529,7.319.765,10.306-.347,6.215-2.311,10.022-6.511,13.35-11.551,1.666-2.525,3.123-5.227,4.912-7.54,1.723-2.228,4.116-4.059,6.3-6.156a15.113,15.113,0,0,0,4.634-7.817,10.875,10.875,0,0,0-.139-5.534c-1.41-4.585-6.334-7.176-11.895-6.847a21.143,21.143,0,0,0-3.876.556Zm-36.869,9.061a19.1,19.1,0,0,0-3.181,2.767c-1.572,1.731-3.9,4.95-4.151,7.817a5.646,5.646,0,0,0,.139,1.937c1.01,2.9,5,1.752,7.125.416a20.8,20.8,0,0,0,6.155-6.363,11.8,11.8,0,0,0,1.8-4.5c.4-2.781-1.223-4.259-3.666-3.943a9.754,9.754,0,0,0-4.218,1.869Z" transform="translate(-120.002 -160.239)" fill="#e6cbb2" fill-rule="evenodd"/>
    <path id="Path_779" data-name="Path 779" d="M330.012,214.556c4.664-.345,8.731,1.405,10.238,4.566a8.048,8.048,0,0,1,.76,3.527,11.707,11.707,0,0,1-2.213,6.71,25.586,25.586,0,0,1-4.427,4.5,29.3,29.3,0,0,0-4.427,4.5c-1.209,1.606-2.343,3.5-3.527,5.4-3.554,5.685-7,10.487-13.834,12.933-1.99.714-5.193,1.649-7.61.969-.169-.048-.4-.236-.693-.346a4.749,4.749,0,0,1-.968-.346,6.742,6.742,0,0,1-1.66-1.937,4.823,4.823,0,0,1-.762-2.836c.179-1.933,2.45-3.587,3.527-4.843a13.722,13.722,0,0,0,2.836-5.465c.689-2.4.906-4.911,1.452-6.917a31.141,31.141,0,0,1,2.352-5.948,27.7,27.7,0,0,1,7.2-9.476,22.122,22.122,0,0,1,8.1-4.358A18.73,18.73,0,0,1,330.012,214.556Z" transform="translate(-120.081 -160.241)" fill="#e6cbb2" fill-rule="evenodd"/>
    <path id="Path_780" data-name="Path 780" d="M294.175,222.237c1.172-.113,1.81.364,1.658,2.006a9.589,9.589,0,0,1-1.658,4.012,18.155,18.155,0,0,1-5.6,5.741c-.926.571-3.258,1.71-4.219.9-.99-.836-.029-3.2.415-4.15a15.987,15.987,0,0,1,2.005-3.321,16.463,16.463,0,0,1,5.88-4.842A5.054,5.054,0,0,1,294.175,222.237Z" transform="translate(-120.074 -160.245)" fill="#e6cbb2" fill-rule="evenodd"/>
    <path id="Path_781" data-name="Path 781" d="M137.5,225.005c.058-.013.065.028.069.07,4.99,19.947,18.455,30.956,34.308,40.182,11.595,6.75,24.2,13,33.132,22.756a27.982,27.982,0,0,1,6.848,11.76,17.509,17.509,0,0,1,.346,8.3c-1.654,7.2-7.885,11.263-14.94,13-5.452,1.345-11.381.7-16.393-.553a57.254,57.254,0,0,1-13.35-5.256c-8.069-4.337-15.093-9.833-22.619-14.666s-15.24-9.707-24.9-12.312a124.89,124.89,0,0,1,2.144-21.443c.13-.243.284.244.415.415,1.041,1.359,2.186,2.83,3.39,4.15,1.368,1.5,2.919,2.85,4.357,4.288,2.887,2.887,5.975,5.708,9.061,8.231a54.205,54.205,0,0,0,10.307,6.986c3.369,1.693,9.071,4.151,13.694,2.283,2.874-1.161,4.17-4.027,2.767-7.679a23.256,23.256,0,0,0-4.635-6.986,77.914,77.914,0,0,0-5.948-5.741c-2.041-1.854-4.06-3.739-6.087-5.534-4.007-3.547-8.184-7.313-11.482-11.828a59.3,59.3,0,0,1-7.124-13.211,10.679,10.679,0,0,1-.762-2.145,8.131,8.131,0,0,1,.831-2.005A136.413,136.413,0,0,1,137.5,225.005Z" transform="translate(-120.002 -160.246)" fill="#e6cbb2" fill-rule="evenodd"/>
    <path id="Path_782" data-name="Path 782" d="M379.736,282.972a113.653,113.653,0,0,0-27.6,10.169c-4.208,2.117-8.5,4.033-12.728,6.155-8.4,4.222-16.628,8.342-25.8,11.895a76.283,76.283,0,0,1-14.525,4.357,27.871,27.871,0,0,1-8.646.415,12.467,12.467,0,0,1-6.5-2.9,7.94,7.94,0,0,1-3.113-6.3,15.337,15.337,0,0,1,2.07-7.324,39.807,39.807,0,0,1,8.507-10.375,69.5,69.5,0,0,1,10.8-8.1,128.088,128.088,0,0,1,12.45-6.432c4.252-2,8.522-4.056,12.59-6.225,12.424-6.629,22.965-14.83,31.2-25.455a56.322,56.322,0,0,0,5.534-8.576c.517-1,.984-2.084,1.591-3.113.029-.05.026-.323.138-.139A129.483,129.483,0,0,1,379.736,282.972Z" transform="translate(-120.072 -160.249)" fill="#e6cbb2" fill-rule="evenodd"/>
    <path id="Path_783" data-name="Path 783" d="M129.065,242.443c.059-.013.066.026.069.069a64.11,64.11,0,0,0,7.2,13.487,69.473,69.473,0,0,0,9.961,10.722c3.512,3.224,7.207,6.413,10.86,9.822,2.657,2.479,5.255,5.023,6.986,8.577a6.505,6.505,0,0,1,.831,4.151c-.378,1.7-2,2.628-3.943,2.837a16.044,16.044,0,0,1-7.124-1.176c-6-2.137-10.78-6-15.079-9.684-3.018-2.591-5.88-5.259-8.577-7.956a56.372,56.372,0,0,1-7.678-8.853A136.2,136.2,0,0,1,129.065,242.443Z" transform="translate(-120.003 -160.254)" fill="#e6cbb2" fill-rule="evenodd"/>
    <path id="Path_784" data-name="Path 784" d="M379.528,297.042c.319.3.089.782.07,1.107a123.563,123.563,0,0,1-6.71,33.962c-.926,2.626-1.784,5.185-2.835,7.679a134.4,134.4,0,0,1-10.8,20.681c-1.7-1.184-3.893-1.475-6.087-1.8-2.257-.333-4.656-.647-7.055-.762a100.155,100.155,0,0,0-14.941.623c-9.38,1-18.548,2.613-27.251,4.081-8.857,1.5-17.846,3.037-26.907,4.427-9.156,1.4-18.416,2.747-27.738,3.6-18.592,1.694-40.175,2.886-59.693,1.175a155.682,155.682,0,0,1-44.131-10.722,56.973,56.973,0,0,1-5.534-2.282,1.745,1.745,0,0,1-.692-.485,16.536,16.536,0,0,1-.83-1.452,98.767,98.767,0,0,1-5.4-10.1,38.264,38.264,0,0,1,12.244,2.282c3.683,1.165,7.328,2.369,10.859,3.666a54.31,54.31,0,0,0,5.465,1.8,13.674,13.674,0,0,0,6.364.345,4.18,4.18,0,0,0,3.527-3.734c.112-2.047-1.312-3.6-2.629-4.636-2.591-2.047-6.4-3.306-10.1-4.425-3.64-1.1-7.688-2.269-11.275-3.252-6.536-1.789-13.3-3.556-18.745-6.709-.317-.183-.721-.453-1.107-.692-.647-.4-1.1-.518-1.314-1.107-.734-2.061-1.311-4.315-1.937-6.571-.638-2.3-1.114-4.686-1.59-6.918-.031-.285.3.014.277,0,.9.452,1.913,1.23,2.836,1.8,7.547,4.645,15.211,9.348,23.517,13.42a154.333,154.333,0,0,0,30.784,11.406,129.481,129.481,0,0,0,17.984,3.182c20.01,2.049,41.014-.231,57.965-3.805a214.988,214.988,0,0,0,47.379-15.977c4.8-2.252,9.56-4.491,14.25-6.849,4.651-2.34,9.307-4.715,14.041-7.054,4.712-2.332,9.611-4.435,14.594-6.5a147.675,147.675,0,0,1,23.725-7.954A84.45,84.45,0,0,1,379.528,297.042Z" transform="translate(-120.003 -160.278)" fill="#e6cbb2" fill-rule="evenodd"/>
    <path id="Path_785" data-name="Path 785" d="M127.338,333.375c-.013-.059.027-.066.069-.07,6.16,3.851,14.294,5.578,22.2,7.885,3.745,1.093,7.923,2.156,11.621,3.459A29.257,29.257,0,0,1,166.42,347c1.339.791,3.5,2.238,3.389,4.081-.1,1.6-1.852,2.287-3.735,2.352a15.784,15.784,0,0,1-5.188-.83c-2.986-.88-5.934-2.081-8.923-3.114-6.2-2.139-11.716-4.315-19.712-4.426a4.783,4.783,0,0,1-.762-1.315C130.029,340.5,128.644,336.852,127.338,333.375Z" transform="translate(-120.005 -160.294)" fill="#e6cbb2" fill-rule="evenodd"/>
    <path id="Path_786" data-name="Path 786" d="M347.239,376.278c.238.071-.062.267-.07.275q-.946,1.156-2.005,2.215a130.538,130.538,0,0,1-17.915,15.978c-4.067-2.5-9.03-4.747-12.935-7.748a12.8,12.8,0,0,1-3.458-3.39,4.977,4.977,0,0,1,.691-5.4c2.127-2.522,6.1-4.024,10.307-4.219,4.139-.192,8.5.746,12.657,1.314A99.74,99.74,0,0,0,347.239,376.278Z" transform="translate(-120.085 -160.311)" fill="#e6cbb2" fill-rule="evenodd"/>
    <path id="Path_787" data-name="Path 787" d="M318.056,400.9a131.548,131.548,0,0,1-23.449,11.417c-1.7-3.666-4.7-6.5-7.817-9a40.159,40.159,0,0,0-10.72-6.087,89.665,89.665,0,0,0-28.153-5.464c-22.49-1.025-38.36,6.914-49.249,17.846a127.667,127.667,0,0,1-26.975-15.632,30.385,30.385,0,0,1-3.321-2.7,171.1,171.1,0,0,1,45.86-9.823c2.464-.19,4.957-.226,7.539-.347a185.015,185.015,0,0,1,27.876,1.245,203.94,203.94,0,0,1,24.762,4.219c7.854,1.844,15.262,4.227,22.481,6.5A174.424,174.424,0,0,1,318.056,400.9Z" transform="translate(-120.023 -160.314)" fill="#e6cbb2" fill-rule="evenodd"/>
    <path id="Path_788" data-name="Path 788" d="M293.032,412.806a109.163,109.163,0,0,1-14.873,4.288,2.3,2.3,0,0,1-.484-1.038c-.8-2.255-2.127-4.871-4.012-6.156a6.788,6.788,0,0,0-6.639-.624,6.328,6.328,0,0,0-1.384,1.039c-2.217,2.188-2.7,5.977-3.873,9.337a126.021,126.021,0,0,1-20.129.277c1.452-4.415,6.107-6.3,10.168-8.3a24.9,24.9,0,0,0,3.942-2.144,3.7,3.7,0,0,0,1.73-3.528,4.226,4.226,0,0,0-1.867-2.56c-2.515-1.644-7.018-2.135-11-1.8-12.014,1.018-19.991,6.512-24,15.217a132.141,132.141,0,0,1-20.129-6.364c.084-.444.539-.678.83-.968a54.149,54.149,0,0,1,16.879-11.138,61.183,61.183,0,0,1,17.915-4.5c2.25-.242,4.575-.3,7.055-.415a85.887,85.887,0,0,1,16.255,1.175,72.076,72.076,0,0,1,13.9,3.389,42.43,42.43,0,0,1,11.412,5.88C288.017,406.407,291.132,409.159,293.032,412.806Z" transform="translate(-120.037 -160.32)" fill="#e6cbb2" fill-rule="evenodd"/>
    <path id="Path_789" data-name="Path 789" d="M239.85,419.8a125.731,125.731,0,0,1-17.5-2.559,22.979,22.979,0,0,1,8.715-9.9,25.535,25.535,0,0,1,6.64-2.7c4.2-1.178,9.3-2.093,14.181-.9,1.5.368,3.926,1.172,3.942,2.7.014,1.35-1.892,2.188-3.045,2.767C247.549,411.845,241.729,413.942,239.85,419.8Z" transform="translate(-120.047 -160.324)" fill="#e6cbb2" fill-rule="evenodd"/>
    <path id="Path_790" data-name="Path 790" d="M276.388,417.516a121.023,121.023,0,0,1-12.658,1.937c.807-2.866,1.371-6.346,3.321-8.1a3.961,3.961,0,0,1,3.182-.968C273.869,410.765,275.306,414.406,276.388,417.516Z" transform="translate(-120.065 -160.327)" fill="#e6cbb2" fill-rule="evenodd"/>
    <path id="Path_791" data-name="Path 791" d="M141.108,361.259c.014-.079.07-.038.069,0a162.242,162.242,0,0,0,49.457,12.38c19.292,1.609,40.367.521,58.932-1.313,18.492-1.828,36.225-4.991,53.951-7.886,8.6-1.4,17.616-3.062,26.838-4.081a94.453,94.453,0,0,1,14.594-.69c2.442.116,4.8.313,7.124.622,2.181.291,4.427.4,6.225,1.452a1.886,1.886,0,0,1-.415.9A117.188,117.188,0,0,1,350,373.087c-.426.5-.893,1.335-1.314,1.452a12.831,12.831,0,0,1-2.628,0c-5.874,0-11.456-.961-16.531-1.659a37.7,37.7,0,0,0-9.615-.485,16,16,0,0,0-7.54,2.837c-2.083,1.463-4.046,3.561-3.873,6.569.169,2.952,2.428,4.755,4.218,6.156,3.9,3.052,8.532,5.3,12.935,7.817a9.539,9.539,0,0,1-1.452,1.106c-1.42,1-2.966,2.052-4.566,2.975a112.33,112.33,0,0,0-16.531-6.5,292.5,292.5,0,0,0-35.9-10.1c-6.428-1.293-13.1-2.176-20.059-2.9a190.956,190.956,0,0,0-43.438.484,171.392,171.392,0,0,0-36.8,9.2,2.115,2.115,0,0,1-.968-.623,134.7,134.7,0,0,1-19.091-20.058C144.832,366.746,142.909,363.953,141.108,361.259Z" transform="translate(-120.011 -160.305)" fill="#e6cbb2" fill-rule="evenodd"/>
  </g>
  <g id="OBJECTS" transform="translate(0 0)">
    <g id="Group_2657" data-name="Group 2657">
      <g id="Group_2656" data-name="Group 2656" clip-path="url(#clip-path)">
        <g id="Group_2654" data-name="Group 2654" transform="translate(94.987 -13.794)">
          <g id="Group_2650" data-name="Group 2650" transform="translate(0 12.402)">
            <ellipse id="Ellipse_65" data-name="Ellipse 65" cx="4.685" cy="8.275" rx="4.685" ry="8.275" transform="translate(18.363 72.389) rotate(-13.144)" fill="#294972"/>
            <path id="Path_7281" data-name="Path 7281" d="M193.219,205.645c.67,1.39.594,3.034-.17,3.669s-1.925.025-2.595-1.365-.594-3.034.17-3.669S192.549,204.255,193.219,205.645Z" transform="translate(-176.012 -142.34)" fill="#294972"/>
            <path id="Path_7282" data-name="Path 7282" d="M236.519,289.951s-21.956-23.154-23.525-34.724-1.726-35.6-9.142-45.888S186,191.327,183.614,179.89s-1.521-32.839-7.608-37.577H334.019s-6.955,14.989-7.825,26.426-7.58,24.016-15.853,31.736-11.69,22.159-14.763,39.958S277.946,281.6,268.6,287.5,242.5,296.655,236.519,289.951Z" transform="translate(-176.006 -142.313)" fill="#294972"/>
            <path id="Path_7283" data-name="Path 7283" d="M311,219.371c-.9,3.393-2.939,5.541-4.553,4.8s-2.2-4.092-1.3-7.484,2.938-5.541,4.553-4.8S311.9,215.979,311,219.371Z" transform="translate(-176.062 -142.343)" fill="#294972"/>
          </g>
          <g id="Group_2652" data-name="Group 2652" transform="translate(14.686 6.823)">
            <path id="Path_7284" data-name="Path 7284" d="M240.662,288.315s-13-10.879-15.457-26.486-.291-37.909-5.939-50.2-12.213-12.58-18.821-28.877-5.3-44.032-5.3-44.032l126.744-1.429s-9.432,11.7-8.948,30.022c.635,24.016-14.365,23.859-20.051,36.025s-3.632,39.314-11.172,51.892S255.1,302.1,240.662,288.315Z" transform="translate(-190.701 -136.732)" fill="#a76aeb" opacity="0.45" style="mix-blend-mode: screen;isolation: isolate"/>
            <g id="Group_2651" data-name="Group 2651" opacity="0.25" style="mix-blend-mode: screen;isolation: isolate">
              <path id="Path_7285" data-name="Path 7285" d="M227.569,275.339a.414.414,0,0,1-.364-.274c-.1-.233-10.375-23.478-9.913-41.3.262-10.042-.323-35.417-11.362-54.108-9.455-16.008-13.867-28.263-15.228-42.3a.545.545,0,0,1,.365-.62c.23-.036.442.176.471.48,1.34,13.823,5.7,25.922,15.058,41.76,11.208,18.977,11.8,44.663,11.538,54.826-.455,17.5,9.695,40.473,9.8,40.7a.659.659,0,0,1-.15.759A.349.349,0,0,1,227.569,275.339Z" transform="translate(-190.699 -136.732)" fill="#a76aeb" opacity="0.45" style="mix-blend-mode: screen;isolation: isolate"/>
            </g>
            <path id="Path_7286" data-name="Path 7286" d="M265.9,270.069a.37.37,0,0,1-.283-.143.684.684,0,0,1-.029-.783c.253-.367,25.294-36.889,27.631-55.92,2.362-19.235,3.9-27.112,11.858-39.976,7.3-11.808,15.559-28.123,16.42-36.04.033-.3.248-.512.477-.47a.549.549,0,0,1,.357.627c-.884,8.126-9.225,24.66-16.6,36.582C297.9,186.6,296.39,194.383,294.054,213.4c-2.377,19.354-26.8,54.98-27.838,56.486A.384.384,0,0,1,265.9,270.069Z" transform="translate(-190.731 -136.732)" fill="#a76aeb" opacity="0.45" style="mix-blend-mode: screen;isolation: isolate"/>
          </g>
          <path id="Path_7287" data-name="Path 7287" d="M246.318,279.6s-21.632-29.125-20.544-47.521-6.323-36.471-14.075-58.487a98.12,98.12,0,0,1-5.43-40.6l100.819-3.088s-14.14,16.24-14.025,35.111-1.864,45.312-9.239,58.878-10.959,42.7-16.793,49.768S246.318,279.6,246.318,279.6Z" transform="translate(-176.019 -129.906)" fill="#ca97ff" opacity="0.45" style="mix-blend-mode: screen;isolation: isolate"/>
          <g id="Group_2653" data-name="Group 2653" transform="translate(34.509)">
            <path id="Path_7288" data-name="Path 7288" d="M246.111,300.478s21.062-47.935,27.331-60.962,14.363-30.182,11.947-47.337,3.621-37.919,9.079-48.409,6.324-13.864,6.324-13.864H290.156s-10.285,20.815-12.43,33.11,2.383,26.59,1.532,38.027-8.769,33.461-14.184,45.845S248.373,288.978,246.111,300.478Z" transform="translate(-210.546 -129.906)" fill="#ca97ff" opacity="0.45" style="mix-blend-mode: screen;isolation: isolate"/>
            <path id="Path_7289" data-name="Path 7289" d="M244.623,271.923s-14.468-19.7-15.018-37.712,4.855-26.3-3.716-38.312-16.3-42.03-15.263-56.612l10.454-2s-5.58,27.162,4.132,44.318,11.431,25.762,9.485,39.614S232.805,243.872,244.623,271.923Z" transform="translate(-210.531 -129.909)" fill="#ca97ff" opacity="0.45" style="mix-blend-mode: screen;isolation: isolate"/>
            <path id="Path_7290" data-name="Path 7290" d="M260.662,189.255s5.263-16.886,1.25-31.6-4.468-21.835-4.468-21.835l8.006-1.153s-2.02,7.31.114,19.37S265.712,181.624,260.662,189.255Z" transform="translate(-210.551 -129.908)" fill="#ca97ff" opacity="0.45" style="mix-blend-mode: screen;isolation: isolate"/>
          </g>
        </g>
        <g id="Group_2655" data-name="Group 2655" transform="translate(72.489 3.696)">
          <path id="Path_7291" data-name="Path 7291" d="M213.229,251.575a1.391,1.391,0,1,1-1.358-1.094A1.248,1.248,0,0,1,213.229,251.575Z" transform="translate(-153.523 -147.448)" fill="#fff"/>
          <ellipse id="Ellipse_66" data-name="Ellipse 66" cx="2.93" cy="2.36" rx="2.93" ry="2.36" transform="translate(47.219 73.014)" fill="#fff"/>
          <ellipse id="Ellipse_67" data-name="Ellipse 67" cx="0.862" cy="0.694" rx="0.862" ry="0.694" transform="translate(53.079 63.297)" fill="#fff"/>
          <path id="Path_7292" data-name="Path 7292" d="M231.6,178.788a.882.882,0,1,1-.862-.694A.792.792,0,0,1,231.6,178.788Z" transform="translate(-153.531 -147.417)" fill="#fff"/>
          <path id="Path_7293" data-name="Path 7293" d="M172.806,191.146a2.293,2.293,0,1,1-2.241-1.8A2.059,2.059,0,0,1,172.806,191.146Z" transform="translate(-153.505 -147.422)" fill="#fff"/>
          <path id="Path_7294" data-name="Path 7294" d="M168.669,167.539a1.235,1.235,0,1,1-1.206-.972A1.109,1.109,0,0,1,168.669,167.539Z" transform="translate(-153.504 -147.412)" fill="#fff"/>
          <ellipse id="Ellipse_68" data-name="Ellipse 68" cx="1.379" cy="1.11" rx="1.379" ry="1.11" transform="translate(32.399)" fill="#fff"/>
          <path id="Path_7295" data-name="Path 7295" d="M218.668,166.29a1.058,1.058,0,1,1-1.035-.834A.95.95,0,0,1,218.668,166.29Z" transform="translate(-153.526 -147.411)" fill="#fff"/>
          <path id="Path_7296" data-name="Path 7296" d="M217.288,157.957a1.411,1.411,0,1,1-1.378-1.111A1.266,1.266,0,0,1,217.288,157.957Z" transform="translate(-153.525 -147.407)" fill="#fff"/>
          <ellipse id="Ellipse_69" data-name="Ellipse 69" cx="1.034" cy="0.833" rx="1.034" ry="0.833" transform="translate(117.532 71.07)" fill="#fff"/>
          <path id="Path_7297" data-name="Path 7297" d="M156.945,150.18a1.764,1.764,0,1,1-1.723-1.388A1.583,1.583,0,0,1,156.945,150.18Z" transform="translate(-153.498 -147.404)" fill="#fff"/>
          <path id="Path_7298" data-name="Path 7298" d="M268.322,205.451a.706.706,0,1,1-.69-.555A.633.633,0,0,1,268.322,205.451Z" transform="translate(-153.548 -147.428)" fill="#fff"/>
          <path id="Path_7299" data-name="Path 7299" d="M316.941,197.673a2.117,2.117,0,1,1-2.068-1.665A1.9,1.9,0,0,1,316.941,197.673Z" transform="translate(-153.568 -147.425)" fill="#fff"/>
          <ellipse id="Ellipse_70" data-name="Ellipse 70" cx="0.862" cy="0.694" rx="0.862" ry="0.694" transform="translate(146.14 7.496)" fill="#fff"/>
          <path id="Path_7300" data-name="Path 7300" d="M285.218,152.541a1.587,1.587,0,1,1-1.551-1.249A1.425,1.425,0,0,1,285.218,152.541Z" transform="translate(-153.554 -147.405)" fill="#fff"/>
          <path id="Path_7301" data-name="Path 7301" d="M281.08,251.139a.882.882,0,1,1-.862-.694A.792.792,0,0,1,281.08,251.139Z" transform="translate(-153.553 -147.448)" fill="#fff"/>
          <path id="Path_7302" data-name="Path 7302" d="M296.941,231.28a1.764,1.764,0,1,1-1.723-1.388A1.583,1.583,0,0,1,296.941,231.28Z" transform="translate(-153.559 -147.439)" fill="#fff"/>
          <path id="Path_7303" data-name="Path 7303" d="M295.563,218.5a1.058,1.058,0,1,1-1.035-.833A.95.95,0,0,1,295.563,218.5Z" transform="translate(-153.559 -147.434)" fill="#fff"/>
          <path id="Path_7304" data-name="Path 7304" d="M329.7,192.814a.882.882,0,1,1-.862-.695A.792.792,0,0,1,329.7,192.814Z" transform="translate(-153.574 -147.423)" fill="#fff"/>
          <path id="Path_7305" data-name="Path 7305" d="M327.975,169.066a1.764,1.764,0,1,1-1.723-1.388A1.583,1.583,0,0,1,327.975,169.066Z" transform="translate(-153.573 -147.412)" fill="#fff"/>
          <path id="Path_7306" data-name="Path 7306" d="M353.148,165.179a.706.706,0,1,1-.69-.556A.634.634,0,0,1,353.148,165.179Z" transform="translate(-153.585 -147.411)" fill="#fff"/>
          <path id="Path_7307" data-name="Path 7307" d="M352.113,173.232a1.764,1.764,0,1,1-1.723-1.388A1.583,1.583,0,0,1,352.113,173.232Z" transform="translate(-153.583 -147.414)" fill="#fff"/>
          <ellipse id="Ellipse_71" data-name="Ellipse 71" cx="1.379" cy="1.11" rx="1.379" ry="1.11" transform="translate(187.845 1.11)" fill="#fff"/>
        </g>
      </g>
    </g>
    <path id="Path_792" data-name="Path 792" d="M211.31,329.275s2.25-22.141,2.244-21.921c-.094.087,20.94-3.156,28.636-13.24,12.888-16.771,26.617-25.326,34.351-45.011.716-1.842,3.573-6.118,4.256-7.972.208-.565,4.373-5.767,4.726-6.551-1.678-2.3,11.468,18.621,11.468,18.621-3.636,13.685-16.964,25.429-24.3,37.54-7.7,12.489-33.671,25.386-33.671,25.386-6.057,5.927-9.061,6.009-16.261,10.48-3.025,1.892-7.734,2.134-11.038,3.479C211.718,330.086,212.454,329.705,211.31,329.275Z" transform="translate(-81.035 -143.746)" fill="#2e578a"/>
    <g id="Group_224" data-name="Group 224" transform="translate(53.842 30.533)">
      <path id="Path_834" data-name="Path 834" d="M244.3,181.966c.426,1.165-.009,2.492-.217,3.849-.728,4.743-2.733,11.769-7.6,16.331a50.853,50.853,0,0,0,5.319,8.182c.654.838,1.732,1.525,1.827,2.65a34.039,34.039,0,0,1-13.313-18.035,30.739,30.739,0,0,1-.006-20.691,12.418,12.418,0,0,1,2.674,4.449,32.911,32.911,0,0,1,2.712,15.248c.08.088.036.2.154.28C237.056,190.163,240.873,184.473,244.3,181.966Z" transform="translate(-134.884 -174.252)" fill="#294972" fill-rule="evenodd"/>
      <path id="Path_835" data-name="Path 835" d="M213.584,355.272a8.5,8.5,0,0,0-1.957,1.564c-4.054,3.541-9.143,6.35-15.033,6.327a24.779,24.779,0,0,1,9.243-9.244c3.43-2.129,7.232-3.993,11.519-4.273.791,1.51.834,3.807.654,6.049-.585,7.275-4.865,17.345-10.182,20.812-.124-.018-.108-.1-.084-.184l-.269-.1C207.326,370.312,209.972,361.514,213.584,355.272Z" transform="translate(-134.87 -174.329)" fill="#366196" fill-rule="evenodd"/>
      <path id="Path_836" data-name="Path 836" d="M164.246,181.974h.43c2.438,2.76,3.515,10.181,1,13.747-5.158-1.1-9.049-3.457-10.453-8.305,3.946-.41,6.076,2.227,8.305,4.01A12.733,12.733,0,0,1,164.246,181.974Z" transform="translate(-134.852 -174.255)" fill="#366196" fill-rule="evenodd"/>
      <path id="Path_837" data-name="Path 837" d="M139.647,268.349c1.7,2.039,4.065,3.441,7.018,4.938a11.252,11.252,0,0,1-2.486.6,15.633,15.633,0,0,0-8.385,6.4c-.382.557-1,1.087-.948,1.83a5.571,5.571,0,0,0,4.083.518c4.236-.838,8.648-4.235,10.2-8.212,5.41,1.855,10.978,2.882,15.593,1.543.513-.148,1.541-.077,1.625-.9-1.07-.743-2.4-.108-3.685-.166a36.7,36.7,0,0,1-12.455-3.4,62.492,62.492,0,0,1-8.34-5.187C141.157,267.088,140.312,267.434,139.647,268.349Z" transform="translate(-134.843 -174.292)" fill="#366196" fill-rule="evenodd"/>
      <path id="Path_838" data-name="Path 838" d="M333.273,272.439l.181-.155a9.979,9.979,0,0,1,1.687,7.952c3.318-2.219,7.254-4.428,10.585-3.177-1.313,4.434-7.044,7.9-11.2,8.1a4.789,4.789,0,0,1-2.254-.25c-.787-.666-.9-2.68-.979-3.859a15.825,15.825,0,0,1,.026-3.785A23.952,23.952,0,0,1,333.273,272.439Z" transform="translate(-134.929 -174.295)" fill="#366196" fill-rule="evenodd"/>
      <path id="Path_839" data-name="Path 839" d="M398.813,394.424c0-.123.008-.246.011-.369a32.94,32.94,0,0,0-18.292-7.2,40.618,40.618,0,0,0-22.842,4.8c-.376.214-.865.542-1.253.82-.371.265-1.087.449-.892,1.076a15.43,15.43,0,0,0,3.1-.884,60.706,60.706,0,0,1,10.014-2.508,27.926,27.926,0,0,0,8.155,9.824,34.518,34.518,0,0,0,6.605,4.5,6.569,6.569,0,0,0,2.673.82,29.844,29.844,0,0,0-9.162-12.921C383.141,394.977,391.937,396.371,398.813,394.424Z" transform="translate(-134.939 -174.345)" fill="#366196" fill-rule="evenodd"/>
      <path id="Path_840" data-name="Path 840" d="M314.488,357.361c-1.143-6.317,1.02-11.154,5.14-15.083a12.332,12.332,0,0,1,4.738-3.3c.995,4.066-.206,7.074-1.409,10.081,4.58-3.036,12.122-5.6,16.9-4.947-.048.834-1.095,1.986-1.961,3.015C333.379,352.492,323.119,358.757,314.488,357.361Z" transform="translate(-134.921 -174.324)" fill="#294972" fill-rule="evenodd"/>
      <path id="Path_841" data-name="Path 841" d="M255.832,396.128c1.8,3.119,1.366,8.09-.229,10.967a6.821,6.821,0,0,1-2.627,2.971c-1.794-2.053-1.5-7.4-.343-9.939a11.971,11.971,0,0,1-7.425,1.143,5.592,5.592,0,0,1,1.484-2.057C248.63,397.4,252.291,395.543,255.832,396.128Z" transform="translate(-134.891 -174.349)" fill="#294972" fill-rule="evenodd"/>
      <path id="Path_842" data-name="Path 842" d="M143.677,235.763c2.416-.752,5.276.309,6.791,1.376-.527-1.837-.431-5.017.558-6.418.484.028.779.535,1.094.926,1.49,1.849,2.754,6.241.413,8.466a8.59,8.59,0,0,1-7.4-2.2A5.052,5.052,0,0,1,143.677,235.763Z" transform="translate(-134.847 -174.277)" fill="#294972" fill-rule="evenodd"/>
      <path id="Path_843" data-name="Path 843" d="M364.511,290.942c.406-1.117,2.389-1.628,3.588-1.928,4.92-1.23,10.3-.446,14.17.484,1.445-3.857,4.8-8.712,10.56-10.087a5.1,5.1,0,0,1,3.486.064c.15,1.141-.711,2.177-1.24,3.118a15.822,15.822,0,0,1-9.731,7.556c2.178,1.227,5.535,2.17,7.721,4.253-.276,1.033-1.307,1.683-2.051,2.479-2.8-1.347-5.569-3.052-8.717-4.077a43.787,43.787,0,0,0-9.725-2.09,28.5,28.5,0,0,0-6.205.375C365.8,291.158,364.964,291.558,364.511,290.942Z" transform="translate(-134.943 -174.298)" fill="#294972" fill-rule="evenodd"/>
    </g>
    <g id="Group_2671" data-name="Group 2671" transform="translate(72.632 41.169)">
      <ellipse id="Ellipse_72" data-name="Ellipse 72" cx="84.523" cy="7.755" rx="84.523" ry="7.755" transform="translate(9.764 169.074)" fill="#2e578a"/>
      <g id="Group_2670" data-name="Group 2670">
        <g id="Group_2658" data-name="Group 2658" transform="translate(95.299 144.361)">
          <path id="Path_7308" data-name="Path 7308" d="M248.982,333.2v28.435s17.116-2.464,34.318-5.1c4.8-.735,9.6-1.482,14.044-2.19,5.45-.875,10.357-1.7,14.037-2.364a48.513,48.513,0,0,0,6.625-1.462c3.486-1.676,14.217-10.471,13.442-13.055-.588-1.964-1.7-5.7-3.385-7.333a2.354,2.354,0,0,0-1.783-.808c-.935.04-7.292.507-15.218,1.1-4.388.321-9.263.688-13.971,1.042-11.419.855-23,2.418-23,2.418Z" transform="translate(-248.982 -329.318)" fill="#efbba8"/>
          <path id="Path_7309" data-name="Path 7309" d="M279.5,341.6l3.813,14.932c4.8-.735,9.6-1.482,14.044-2.19,5.45-.875,10.357-1.7,14.037-2.364l9.551-19.9Z" transform="translate(-248.995 -329.319)" fill="#ce8c7a"/>
        </g>
        <g id="Group_2659" data-name="Group 2659" transform="translate(12.796 144.361)">
          <path id="Path_7310" data-name="Path 7310" d="M248.949,333.2v28.435s-17.117-2.464-34.319-5.1c-4.8-.735-9.6-1.482-14.044-2.19-5.449-.875-10.357-1.7-14.037-2.364a48.444,48.444,0,0,1-6.624-1.462c-3.486-1.676-14.218-10.471-13.443-13.055.588-1.964,1.7-5.7,3.386-7.333a2.356,2.356,0,0,1,1.783-.808c.935.04,7.293.507,15.219,1.1,4.387.321,9.262.688,13.97,1.042,11.42.855,21.823,1.643,21.823,1.643Z" transform="translate(-166.442 -329.318)" fill="#efbba8"/>
          <path id="Path_7311" data-name="Path 7311" d="M218.448,341.6l-3.813,14.931c-4.8-.735-9.6-1.482-14.044-2.19-5.449-.875-10.358-1.7-14.037-2.364L176.7,333.589Z" transform="translate(-166.447 -329.319)" fill="#ce8c7a"/>
        </g>
        <g id="Group_2660" data-name="Group 2660" transform="translate(46.939 146.507)">
          <path id="Path_7312" data-name="Path 7312" d="M297.323,354.343a28.349,28.349,0,0,1-1.763-4.307,24.3,24.3,0,0,1-.908-11.346,22.593,22.593,0,0,1,2.417-7.226c-11.419.855-23,2.418-23,2.418l-15.108-.715-10,.033-10-.033-16.288-.06s-10.4-.789-21.823-1.643a22.614,22.614,0,0,1,2.418,7.226,24.3,24.3,0,0,1-.909,11.346,28.239,28.239,0,0,1-1.763,4.307c18.779,3,44.035,6.664,47.868,7.219l.492.073h0l.491-.073C253.288,361.007,278.544,357.348,297.323,354.343Z" transform="translate(-200.601 -331.464)" fill="#8c6c4e"/>
          <path id="Path_7313" data-name="Path 7313" d="M295.275,349.034a24.189,24.189,0,0,1-.623-10.344c.032-.206.074-.4.111-.6l-.008,0-25.243,4.168,6.245-6.194a11.78,11.78,0,0,0-5.729,2.306l4.037-4.486-15.108-.715-1.235,0-8.758,3.855v-.962l-10-2.9-16.288-.06a46.173,46.173,0,0,1,10.424,6.537l-9.476-2.618a23.419,23.419,0,0,1,7.239,5.229l-27.593-3.566a24.3,24.3,0,0,1-.909,11.346l13.162,6.5,32.943,5.029.495.073v-.948c.112-.015,33.347-4.355,35.411-5.129C286.128,354.9,293.163,350.4,295.275,349.034Z" transform="translate(-200.602 -331.465)" fill="#a47e5b"/>
        </g>
        <g id="Group_2661" data-name="Group 2661" transform="translate(8.175 144.911)">
          <path id="Path_7314" data-name="Path 7314" d="M248.947,356.459v6.985s-60.536-2.718-65.318-3.88-21.67-14.864-21.8-16.541a21.452,21.452,0,0,1,1.262-5.709,12.481,12.481,0,0,1,1.456-3.34,53.542,53.542,0,0,1,5.61-4.107s1.415.662,3.692,1.6c2.411.989,5.776,2.284,9.436,3.413,7.112,2.2,31.54,13.182,38,15.64S248.947,356.459,248.947,356.459Z" transform="translate(-161.819 -329.867)" fill="#efbba8"/>
          <path id="Path_7315" data-name="Path 7315" d="M191.828,358.283s26.8,1.465,28.952.776,19.732-4.049,19.732-4.049l-2.462,4.953-14.3,1.55S193.723,360.524,191.828,358.283Z" transform="translate(-161.832 -329.878)" fill="#ce8c7a"/>
          <path id="Path_7316" data-name="Path 7316" d="M173.846,331.463s-2.11,5.269-4.695,7.593-6.464,5.857-6.116,0c.04-.648.053-1.221.053-1.742a12.479,12.479,0,0,1,1.456-3.34,53.539,53.539,0,0,1,5.61-4.107S171.569,330.529,173.846,331.463Z" transform="translate(-161.82 -329.867)" fill="#ce8c7a"/>
        </g>
        <g id="Group_2662" data-name="Group 2662" transform="translate(0 64.188)">
          <path id="Path_7317" data-name="Path 7317" d="M229.036,250.184l-2.244,21.583s-.428,1.116-1.148,2.992c-1.99,5.182-6.224,16.161-9.837,25.316-3.119,7.894-5.763,14.432-6.117,14.732-.9.775-26.024,11.593-30.158,13.53s-9.777,5.47-10.811,5.729c-1,.254-7.994,1.542-9.476,1.322a.644.644,0,0,1-.134-.027c-1.122-.347-4.828-3.445-4.955-4.441s-.515-4.48-.515-4.48a11.434,11.434,0,0,1,2.839.821,12.792,12.792,0,0,0,2.671,1.636,8.188,8.188,0,0,0,2.671.515c1.17-.254,2.719-2.324,2.719-2.324a7.978,7.978,0,0,0-2.585-.909,34.224,34.224,0,0,0-4.528.909c-1.809.387-2.711-1.683-2.711-1.683,1.422-.127,6.077-1.809,7.5-2.2s5.943,2.2,5.943,2.2c10.084-3.358,34.9-18.478,34.9-18.478s10.337-46.018,12.8-49.764,10.758-8.053,10.758-8.053l2.337,1.035Z" transform="translate(-153.641 -249.109)" fill="#efbba8"/>
          <path id="Path_7318" data-name="Path 7318" d="M225.671,257.68v17.083c-1.99,5.182-6.224,16.161-9.837,25.316,1.749-11.138,6.759-34.06,7.842-35.689C225.091,262.265,225.671,257.68,225.671,257.68Z" transform="translate(-153.668 -249.113)" fill="#ce8c7a"/>
        </g>
        <g id="Group_2663" data-name="Group 2663" transform="translate(64.104 145.172)">
          <path id="Path_7319" data-name="Path 7319" d="M333.754,341.3c.174,2.237-9.99,13.269-18.611,16.715-6.465,2.585-30.892,4.2-46.172,4.989-5.082.267-9.149.441-11.212.528-8.274.341-25.337,1.549-29.818,1.723s-6.2,2.063-6.891,1.889c-.134-.033-.328-.067-.562-.1-.975-.147-2.577-.341-2.711-.762-.174-.514,4.307-5.342,7.58-6.2s8.614-1.375,14.819-5,11.032-6.377,13.79-6.377a19.9,19.9,0,0,1,5.689,1.036s.514,2.758,2.584,3.272a17.686,17.686,0,0,0,8.441-.34c2.585-.862,25.51-12.582,31.714-14.992,4.741-1.85,17.208-5.282,22.832-6.8,1.742-.468,2.825-.755,2.825-.755s3.239,5.222,4.841,8.681A9.118,9.118,0,0,1,333.754,341.3Z" transform="translate(-217.773 -330.128)" fill="#efbba8"/>
          <path id="Path_7320" data-name="Path 7320" d="M332.94,338.809c-4.207-1.609-7.666-7.927-7.666-7.927,1.742-.468,2.825-.755,2.825-.755S331.337,335.35,332.94,338.809Z" transform="translate(-217.82 -330.128)" fill="#ce8c7a"/>
          <path id="Path_7321" data-name="Path 7321" d="M268.973,363.017c-5.082.267-9.149.441-11.212.528-8.274.341-25.337,1.549-29.818,1.723s-6.2,2.063-6.891,1.889c-.134-.033-.328-.067-.562-.1,1.169-.982,3.333-2.645,4.782-2.825,2.07-.261,21.029-2.585,23.614-3.532s8.527.948,10.164,1.115C259.924,361.908,264.706,362.489,268.973,363.017Z" transform="translate(-217.774 -330.141)" fill="#ce8c7a"/>
          <path id="Path_7322" data-name="Path 7322" d="M266.482,360.61s22.575-1.723,27.315-2.327,17.061-2.068,17.061-2.068-5.429,2.844-9.909,3.447-25.592,1.9-27.4,1.723S266.482,360.61,266.482,360.61Z" transform="translate(-217.794 -330.139)" fill="#ce8c7a"/>
        </g>
        <g id="Group_2664" data-name="Group 2664" transform="translate(117.239 64.188)">
          <path id="Path_7323" data-name="Path 7323" d="M346.326,326.44s-.388,3.492-.515,4.48-3.833,4.094-4.955,4.441-8.574-1.035-9.61-1.3-6.678-3.793-10.811-5.729-29.256-12.755-30.158-13.53c-.354-.3-2.986-6.791-6.077-14.645-4.928-12.481-11.025-28.395-11.025-28.395l-.461-4.461-1.783-17.123.087-.04,2.337-1.035s8.3,4.307,10.758,8.053,12.8,49.764,12.8,49.764,24.815,15.119,34.9,18.478c0,0,4.528-2.585,5.943-2.2s6.077,2.07,7.5,2.2c0,0-.9,2.07-2.711,1.683a34.223,34.223,0,0,0-4.528-.909,7.978,7.978,0,0,0-2.585.909s1.549,2.07,2.719,2.324a8.188,8.188,0,0,0,2.671-.515,12.794,12.794,0,0,0,2.671-1.636A11.433,11.433,0,0,1,346.326,326.44Z" transform="translate(-270.931 -249.109)" fill="#efbba8"/>
          <path id="Path_7324" data-name="Path 7324" d="M284.2,300.167c-4.928-12.481-11.025-28.395-11.025-28.395l-.461-4.461,2.438-6.892s4.861,18.632,5.376,21.05C280.882,283.125,282.94,293.689,284.2,300.167Z" transform="translate(-270.932 -249.114)" fill="#ce8c7a"/>
        </g>
        <g id="Group_2665" data-name="Group 2665" transform="translate(69.017 58.485)">
          <path id="Path_7325" data-name="Path 7325" d="M268.76,297.361c.127,2.331,5.316,36.482,5.316,36.482-30.265,7.506-51.388-.775-51.388-.775s8.4-32.99,8.027-34.926-8.027-20.829-8.027-25.751,3.954-23.286,3.954-23.286l8.287-2.157,13.616-3.546c1.783.154,3.692.381,5.59.635l12.468,3.039,6.731,1.642s3.213,20.315,3.213,22.385S268.64,295.037,268.76,297.361Z" transform="translate(-222.688 -243.403)" fill="#d3a375"/>
          <path id="Path_7326" data-name="Path 7326" d="M224.438,280.044c.563,1.8,1.212,3.733,1.877,5.642l12.745,6.586,29.764,4.465v0c.311-1.764,1.671-6.079,3.166-10.686v0L274.042,272l-19.385,6.884-10.986,4.524,5.445-4.524-26.354-5.529v.013Z" transform="translate(-222.688 -243.416)" fill="#dcb793" opacity="0.5"/>
          <path id="Path_7327" data-name="Path 7327" d="M266.608,247.076c-.488,3.385-2.5,15.3-7.119,18.738-5.4,4.02-17.335,1.262-22.043-3.792-4.074-4.368-2.906-12.855-2.511-15.072l13.616-3.546c1.783.154,3.692.381,5.59.635Z" transform="translate(-222.693 -243.403)" fill="#efbba8"/>
        </g>
        <g id="Group_2669" data-name="Group 2669" transform="translate(78.264)">
          <g id="Group_2666" data-name="Group 2666" transform="translate(6.567 50.525)">
            <path id="Path_7328" data-name="Path 7328" d="M260.352,248.5a25.434,25.434,0,0,1-9.95,2.845c-5.691.387-11.894-2.585-11.894-2.585,1.983-2.644,3.226-7.346,3.866-10.4.361-1.722.528-2.918.528-2.918h12.281a16.562,16.562,0,0,0,.828,4.273A37.781,37.781,0,0,0,260.352,248.5Z" transform="translate(-238.509 -235.44)" fill="#efbba8"/>
            <path id="Path_7329" data-name="Path 7329" d="M256.013,239.713c-2.571,2.257-6.183,4.929-7.813,3.827a48.921,48.921,0,0,1-5.823-5.183c.361-1.722.528-2.918.528-2.918h12.281A16.563,16.563,0,0,0,256.013,239.713Z" transform="translate(-238.511 -235.44)" fill="#ce8c7a"/>
          </g>
          <g id="Group_2668" data-name="Group 2668">
            <path id="Path_7330" data-name="Path 7330" d="M239.068,198.54s3.361-18.7,20.077-12.322c0,0,9.306,3.016,11.46,16.372l-1.464-1.637s1.9,10.426.69,18.871,1.378,23.524,7.238,26.109a16.427,16.427,0,0,1-12.581-6.118A8.687,8.687,0,0,0,265.866,243S240.275,225.855,239.068,198.54Z" transform="translate(-231.943 -184.893)" fill="#5e4c2a"/>
            <path id="Path_7331" data-name="Path 7331" d="M262.538,202.668c-1.171,3.018-5.14,4.292-8.867,2.847s-5.8-5.062-4.631-8.079,5.14-4.291,8.867-2.847S263.707,199.652,262.538,202.668Z" transform="translate(-231.947 -184.897)" fill="#ffbf82"/>
            <path id="Path_7332" data-name="Path 7332" d="M235.275,217.267s.668,10.685,1.335,13.356,9.393,10.361,12.237,10.49,9.435-5.558,11.762-10.081,3.618-16.028,3.489-19.259-12.925-13.7-20.551-8.789S235.275,217.267,235.275,217.267Z" transform="translate(-231.941 -184.9)" fill="#efbba8"/>
            <g id="Group_2667" data-name="Group 2667" transform="translate(7.783 31.807)">
              <path id="Path_7333" data-name="Path 7333" d="M249.725,230.473a.334.334,0,0,1-.158-.628c.341-.184,1-.72.871-1.2-.113-.094-.483.059-.743.247a.334.334,0,0,1-.53-.263l-.032-1.551a.335.335,0,0,1,.327-.341h.007a.334.334,0,0,1,.334.327l.02.994a1.17,1.17,0,0,1,.818-.092.7.7,0,0,1,.443.5c.248.911-.675,1.684-1.2,1.965A.324.324,0,0,1,249.725,230.473Z" transform="translate(-239.73 -216.718)" fill="#222"/>
              <path id="Path_7334" data-name="Path 7334" d="M249.255,234.225a5.274,5.274,0,0,1-2.9-.91.334.334,0,0,1,.4-.533,4.227,4.227,0,0,0,4.756.083.334.334,0,1,1,.361.562A4.776,4.776,0,0,1,249.255,234.225Z" transform="translate(-239.728 -216.721)" fill="#f77980"/>
              <path id="Path_7335" data-name="Path 7335" d="M255.521,223.829a3.53,3.53,0,0,1-2.209-.816.334.334,0,0,1,.454-.49,2.785,2.785,0,0,0,3.762-.174.334.334,0,1,1,.424.517A3.793,3.793,0,0,1,255.521,223.829Z" transform="translate(-239.731 -216.716)" fill="#222"/>
              <path id="Path_7336" data-name="Path 7336" d="M253.249,218.48a.333.333,0,0,1-.21-.593,6.709,6.709,0,0,1,5.552-.972.335.335,0,0,1,.251.4.329.329,0,0,1-.4.25,6.119,6.119,0,0,0-4.982.84A.332.332,0,0,1,253.249,218.48Z" transform="translate(-239.731 -216.714)" fill="#222"/>
              <path id="Path_7337" data-name="Path 7337" d="M243.056,223.829a3.8,3.8,0,0,1-2.432-.963.334.334,0,0,1,.423-.517,2.766,2.766,0,0,0,3.761.175.334.334,0,0,1,.456.489A3.529,3.529,0,0,1,243.056,223.829Z" transform="translate(-239.726 -216.716)" fill="#222"/>
              <path id="Path_7338" data-name="Path 7338" d="M245.326,218.48a.332.332,0,0,1-.208-.073,6.155,6.155,0,0,0-4.984-.841.334.334,0,1,1-.149-.651,6.7,6.7,0,0,1,5.552.972.334.334,0,0,1-.211.593Z" transform="translate(-239.726 -216.714)" fill="#222"/>
            </g>
            <path id="Path_7339" data-name="Path 7339" d="M235.474,220.169s14.146-1.806,21.514-10.208c0,0-2.138,5.237-6.207,7.627,0,0,6.336-2.133,10.085-6.851,0,0,.916,6.68,2.623,8.7l1.384,1.184s3.424-9.5,2.779-14.153a10.746,10.746,0,0,0-9.921-8.983s-6.623-5.106-14.8-2.132-14.186,12.536-9.145,24.816Z" transform="translate(-231.939 -184.897)" fill="#7a6236"/>
            <path id="Path_7340" data-name="Path 7340" d="M238.064,205.717s2.273-3.141,4.594-4.3,3.016-1.082,3.016-1.082l-1.738,2.511a18.252,18.252,0,0,1,5.486-1.429s-5.183,1.97-6.763,3.361a16.18,16.18,0,0,1,1.085-3.091A29.094,29.094,0,0,0,238.064,205.717Z" transform="translate(-231.942 -184.9)" fill="#978462"/>
            <path id="Path_7341" data-name="Path 7341" d="M235.948,220.535s-2.533-2.18-3.475-.354,1.061,6.6,3.77,7.306Z" transform="translate(-231.94 -184.908)" fill="#efbba8"/>
            <path id="Path_7342" data-name="Path 7342" d="M262.207,220.535s2.534-2.18,3.476-.354-1.061,6.6-3.77,7.306Z" transform="translate(-231.953 -184.908)" fill="#efbba8"/>
            <path id="Path_7343" data-name="Path 7343" d="M234.474,219.149a46.526,46.526,0,0,1-.233,12.473,32.882,32.882,0,0,0,2.132-12.279Z" transform="translate(-231.94 -184.908)" fill="#7a6236"/>
            <path id="Path_7344" data-name="Path 7344" d="M262.3,216.5s.129,12.344,1.421,16.028c0,0-.453-11.7.323-14.865Z" transform="translate(-231.953 -184.907)" fill="#7a6236"/>
          </g>
        </g>
      </g>
    </g>
    <path id="Path_793" data-name="Path 793" d="M248.361,387.326c.287-2.426.842-6.917,1.107-9.182.516-4.4.47-3.748.983-8.146.088-.76.523-4.374.619-5.132-.013-.433.172-.5.589-.621,3.038-.989,9.641-9.348,12.978-13.078.508-.569,1.007-1.157,1.474-1.759,8.258-10.613,14.677-18.574,24.123-29.384,2.585-2.972,4.816-4.338,6.876-7.695.651-.671,4.129-3.882,4.476-4.277.2.573.715,1.017.806,1.363,1.065,4.062,1.828,6.884,2.9,10.948.722,2.725,1.767,6.813,2.512,9.533.187.607.217.551-.154,1.066-5.2,8.29-16.048,22.048-23.376,28.642-8.2,9.015-20.285,17.748-28.341,24.177-2.685,1.1-2.546,2.03-5.263,3.053C250.362,386.945,248.762,387.2,248.361,387.326Z" transform="translate(-81.051 -143.778)" fill="#2e578a"/>
  </g>
  <g id="Layer_3" data-name="Layer 3" transform="translate(33.184 50.549)">
    <g id="Group_2673" data-name="Group 2673" transform="translate(124.232 89.271)">
      <g id="Group_2672" data-name="Group 2672">
        <path id="Path_7345" data-name="Path 7345" d="M241.125,287.052c-3.421,3.829-3.544,9.367-.375,12.61a.523.523,0,0,0,.764-.058h0a.581.581,0,0,0,.027-.787c-2.765-2.86-2.646-7.716.356-11.076,3.128-3.5,8.221-4.073,11.354-1.275l.771-.862C250.463,282.426,244.677,283.075,241.125,287.052Z" transform="translate(-238.463 -283.587)" fill="#294972"/>
      </g>
      <path id="Path_7346" data-name="Path 7346" d="M252.271,287.143l2.453.16a.315.315,0,0,0,.32-.375l-.544-2.3a.234.234,0,0,0-.414-.072l-1.947,2.179A.233.233,0,0,0,252.271,287.143Z" transform="translate(-238.469 -283.588)" fill="#294972"/>
    </g>
    <g id="Group_2675" data-name="Group 2675" transform="translate(129.54 94.034)">
      <g id="Group_2674" data-name="Group 2674" transform="translate(1.024)">
        <path id="Path_7347" data-name="Path 7347" d="M257.693,301.1c3.42-3.828,3.544-9.367.375-12.611a.523.523,0,0,0-.764.058h0a.582.582,0,0,0-.027.787c2.764,2.86,2.646,7.717-.356,11.077-3.129,3.5-8.221,4.073-11.354,1.274l-.771.863C248.354,305.729,254.141,305.08,257.693,301.1Z" transform="translate(-244.797 -288.352)" fill="#294972"/>
      </g>
      <path id="Path_7348" data-name="Path 7348" d="M246.553,301.017l-2.453-.16a.316.316,0,0,0-.32.375l.544,2.3a.233.233,0,0,0,.413.073l1.947-2.18A.233.233,0,0,0,246.553,301.017Z" transform="translate(-243.773 -288.358)" fill="#294972"/>
    </g>
    <g id="Group_200" data-name="Group 200" transform="translate(40.966 1.531)">
      <path id="Path_794" data-name="Path 794" d="M160.05,245.75c20.91-7.622,27.7-15.656,44.666-28.9,11.442-11.322,19.526-20.68,19.886-21.044,3.642,6.764,10.436,18.667,10.436,18.667-.242,5.8-16.843,23.784-25.845,29.3-16.764,10.98-28.558,19.236-48.388,22.131-1.594.245-4.04,1.192-5.647,1.359Z" transform="translate(-155.16 -195.809)" fill="#2e578a"/>
    </g>
    <g id="Group_205" data-name="Group 205">
      <path id="Path_795" data-name="Path 795" d="M114.176,217.14c4.34-3.279,9.522-5.278,14.4-7.725a6,6,0,0,0-.35-.773,77.618,77.618,0,0,1-6.563-13.214,4.047,4.047,0,0,1-.213-.782.977.977,0,0,1,.127-.37,4.466,4.466,0,0,1,.7.13,140.593,140.593,0,0,0,19.51,5.029,135.3,135.3,0,0,0,25.249,2.5c5.932.1,11.867-.083,17.771-.545a177.553,177.553,0,0,0,33.942-5.918c.321-.091.636-.186.962-.267,1.092-.274,1.448-.178,2.036.6.786,1.055,1.546,2.121,2.313,3.185q5.144,7.126,10.285,14.255c.073.1.139.2.209.3.726,1.043.7,1.155-.637,1.622-1.729.61-3.459,1.22-5.216,1.791a190.427,190.427,0,0,1-30.1,7.148,188.577,188.577,0,0,1-25.208,2.148A175.966,175.966,0,0,1,123.551,220c-2.752-.753-5.471-1.589-8.2-2.4C115.013,217.5,114.686,217.342,114.176,217.14Z" transform="translate(-114.176 -194.277)" fill="#366196"/>
      <g id="Group_2677" data-name="Group 2677" transform="translate(32.202 9.349)">
        <g id="Group_2676" data-name="Group 2676">
          <path id="Path_7349" data-name="Path 7349" d="M152.709,225.65c3.491.939,5.992-1.554,7.39-7.142a6.169,6.169,0,0,1-2.854,1.2,7.537,7.537,0,0,1-3.193-.19,6.778,6.778,0,0,1-4.151-3.1,5.8,5.8,0,0,1-.27-5.18,12.083,12.083,0,0,1,4.812-6.026,9.427,9.427,0,0,1,3.524-1.421,10.2,10.2,0,0,1,4.09.1,5.218,5.218,0,0,1,3.167,1.7,3.729,3.729,0,0,1,.835,2.884,3.047,3.047,0,0,1-1.46,2.393,3.974,3.974,0,0,1-2.879.468,4.394,4.394,0,0,1-1.867-.84,3.146,3.146,0,0,1-1.122-1.577,5.324,5.324,0,0,0,1.21.448,2.977,2.977,0,0,0,2.22-.231,1.963,1.963,0,0,0,1.028-1.374,1.876,1.876,0,0,0-.36-1.509,2.589,2.589,0,0,0-1.592-.9,3.748,3.748,0,0,0-2.973.732,10.394,10.394,0,0,0-2.763,2.779,13.4,13.4,0,0,0-1.83,3.8,4.808,4.808,0,0,0,.1,3.558,3.4,3.4,0,0,0,2.282,1.893,3.456,3.456,0,0,0,2.907-.537,4.3,4.3,0,0,0,1.7-2.929,6.978,6.978,0,0,0,.11-1.032l.013-.065q.58.072,1.206.187a4.119,4.119,0,0,1,2.045.773,1.723,1.723,0,0,1,.409,1.536c-.546,4.434-1.967,7.787-4.607,9.864a7.771,7.771,0,0,1-3.449,1.459,10.144,10.144,0,0,1-4.529-.293,8.393,8.393,0,0,1-4.583-2.666,3.315,3.315,0,0,1-.736-3.128,2.946,2.946,0,0,1,1.856-1.911,4.413,4.413,0,0,1,2.91.015,6.73,6.73,0,0,1,1.8.934,4.253,4.253,0,0,0-2.379,2.527,2.033,2.033,0,0,0,.194,1.669A2.872,2.872,0,0,0,152.709,225.65Z" transform="translate(-146.392 -203.63)" fill="#fff"/>
          <path id="Path_7350" data-name="Path 7350" d="M168.694,219.071a23.568,23.568,0,0,1,.627-3.307,22.717,22.717,0,0,0,.623-3.728,11.3,11.3,0,0,0-.034-2.074c.361,0,.7,0,1,.015a3.544,3.544,0,0,1,1.96.5,1.782,1.782,0,0,1,.55,1.47c0,.22-.2,1.374-.643,3.456a27.892,27.892,0,0,0-.727,5.154,5.981,5.981,0,0,0,.319,2.637,5.264,5.264,0,0,1-3.044-1.461A3.813,3.813,0,0,1,168.694,219.071Zm3.934-10.879c-1.63-.042-2.413-.637-2.345-1.686a5.284,5.284,0,0,1,.433-1.538,9.3,9.3,0,0,1,1.1-.035c1.535.056,2.3.567,2.315,1.625a4.895,4.895,0,0,1-.346,1.561A7.6,7.6,0,0,1,172.628,208.192Z" transform="translate(-146.402 -203.631)" fill="#fff"/>
          <path id="Path_7351" data-name="Path 7351" d="M183.158,222.324a5.777,5.777,0,0,1-1.918.519c-.685.065-1.078-.015-1.177-.227a34.208,34.208,0,0,1-1.433-4.119c-.537-1.839-1.024-3.45-1.473-4.83a11.492,11.492,0,0,0-1.442-3.127,6.482,6.482,0,0,1,2.119-.666,2,2,0,0,1,1.24.243,2.69,2.69,0,0,1,.824,1.242c.257.632.453,1.155.584,1.567.392,1.376.611,2.142.628,2.3s.164.806.45,1.932.495,1.867.617,2.222c2.636-5.408,3.294-9.029,3-10.689,1.413.365,2.223.863,2.382,1.565a5.47,5.47,0,0,1-.477,2.762c-.466,1.266-1.1,2.8-1.949,4.594A40.137,40.137,0,0,0,183.158,222.324Z" transform="translate(-146.405 -203.632)" fill="#fff"/>
          <path id="Path_7352" data-name="Path 7352" d="M196.754,213.658a11.368,11.368,0,0,1-2.516.564,6.642,6.642,0,0,0,.183.657,3.8,3.8,0,0,0,1.691,2.353,2.8,2.8,0,0,0,2.327.195,4.764,4.764,0,0,0,2.012-1.352,5.458,5.458,0,0,0,1.18-2.184c.671-.154,1.1-.046,1.273.342a7.422,7.422,0,0,1-5.045,5.114,6.4,6.4,0,0,1-4.555-.108,4.642,4.642,0,0,1-2.765-3.367,7.864,7.864,0,0,1,1.715-7.174,7.763,7.763,0,0,1,3.35-2.359,5.177,5.177,0,0,1,3.279-.361,3.009,3.009,0,0,1,1.9,1.688,3.183,3.183,0,0,1-.331,3.5A7.7,7.7,0,0,1,196.754,213.658Zm-1.006-5.92a2.621,2.621,0,0,0-1.592,2.013,8.65,8.65,0,0,0-.1,3.559l.385-.119a4.655,4.655,0,0,0,2.913-2.037,2.985,2.985,0,0,0,.146-2.595,1.5,1.5,0,0,0-.68-.787A1.247,1.247,0,0,0,195.749,207.737Z" transform="translate(-146.412 -203.631)" fill="#fff"/>
        </g>
      </g>
    </g>
    <g id="Group_226" data-name="Group 226" transform="translate(40.829 40.285)">
      <path id="Path_844" data-name="Path 844" d="M160.05,245.767c1.993.588,3.886,1.171,5.8,1.705a163.166,163.166,0,0,0,21.082,4.381,168.707,168.707,0,0,0,24.345,1.7c18.567-.065,36.7-2.781,54.187-9.207a108.76,108.76,0,0,0,18.512-8.789c.488-.293.96-.614,1.525-.977L296.967,253.2a123.254,123.254,0,0,1-14.05,8.283,147.788,147.788,0,0,1-37.178,13.127,170.5,170.5,0,0,1-24.727,3.434,160.593,160.593,0,0,1-23.832-.187,130.733,130.733,0,0,1-36.384-7.934c-1.5-.575-2.979-1.193-4.456-1.818-1.311-.556-1.5-.957-1.184-2.3q1.754-7.359,3.51-14.717c.346-1.449.687-2.9,1.044-4.347C159.788,246.424,159.926,246.117,160.05,245.767Z" transform="translate(-155.023 -234.58)" fill="#366196"/>
      <g id="Group_2679" data-name="Group 2679" transform="translate(19.018 6.228)">
        <g id="Group_2678" data-name="Group 2678">
          <path id="Path_7353" data-name="Path 7353" d="M188.508,260.4a4.252,4.252,0,0,1-1.108,1.9,34.081,34.081,0,0,1-2.392,2.447q-1.406,1.312-2.89,2.8a19.645,19.645,0,0,0-2.74,3.5,11.96,11.96,0,0,0-1.658,4.139,8.522,8.522,0,0,0-.142,1.923A7.64,7.64,0,0,1,174.6,275.3a2.036,2.036,0,0,1-.512-1.738c.166-.795,1.264-2.134,3.218-4.071a44.036,44.036,0,0,1-.1-4.476c.033-2.013.035-3.775-.012-5.289a11.533,11.533,0,0,0-.524-3.514,6.865,6.865,0,0,1,2.348.1,2.259,2.259,0,0,1,1.176.674,2.733,2.733,0,0,1,.428,1.475c.05.691.077,1.256.072,1.7-.061,1.443-.1,2.246-.132,2.4s-.1.821-.191,1.988-.129,1.944-.129,2.322c4.169-4.176,6.216-7.217,6.535-8.886C188.037,258.894,188.625,259.69,188.508,260.4Z" transform="translate(-174.049 -240.818)" fill="#fff"/>
          <path id="Path_7354" data-name="Path 7354" d="M199.679,260.727a3.462,3.462,0,0,1,2.49,1.575,5.591,5.591,0,0,1,.893,3.577,8.364,8.364,0,0,1-1.4,4.386,6.353,6.353,0,0,1-4.052,2.776,8.746,8.746,0,0,1-3.188.087,6.474,6.474,0,0,1-4.018-2.149,5.411,5.411,0,0,1-1.189-4.564,7.666,7.666,0,0,1,2.3-4.574,6.906,6.906,0,0,1,4.5-1.978,1.049,1.049,0,0,1,.5.218c.148.118.218.228.207.33a6.066,6.066,0,0,0-3.586,3.8,8.292,8.292,0,0,1,1.581-1.912,5.969,5.969,0,0,1,1.771-1.12A6.806,6.806,0,0,1,199.679,260.727Zm-1.715,1.408a3.622,3.622,0,0,0-3.178,1.5,6.522,6.522,0,0,0-1.766,3.615c-.3,2.659.422,4.137,2.142,4.38a3.145,3.145,0,0,0,3.114-1.541A8.071,8.071,0,0,0,199.7,265.9C199.858,263.547,199.289,262.306,197.964,262.135Z" transform="translate(-174.056 -240.819)" fill="#fff"/>
          <path id="Path_7355" data-name="Path 7355" d="M215.486,261.506a3.967,3.967,0,0,1,1.991.394,1.734,1.734,0,0,1,.762,1.524q.021.351-.3,3.1a26.094,26.094,0,0,0-.2,4.71,10.446,10.446,0,0,0,.762,3.443,5.422,5.422,0,0,1-2.936-1.452,3.786,3.786,0,0,1-.9-2.4,21.925,21.925,0,0,1,.184-2.49,9.5,9.5,0,0,1-2.367,4.2,4.467,4.467,0,0,1-3.224,1.618c-2.112-.085-3.163-1.383-3.119-3.822a17.972,17.972,0,0,1,.5-3.359,18.336,18.336,0,0,0,.5-3.271,7.966,7.966,0,0,0-.294-2.291,7.717,7.717,0,0,1,3.025.627,1.992,1.992,0,0,1,.95,1.917,15.578,15.578,0,0,1-.526,2.959,15.047,15.047,0,0,0-.531,3.333c.01,1.089.378,1.646,1.1,1.668a1.894,1.894,0,0,0,1.226-.577,6.64,6.64,0,0,0,1.287-1.589,9.112,9.112,0,0,0,.98-2.505,11.037,11.037,0,0,0,.319-3.062,20.661,20.661,0,0,0-.229-2.633C214.938,261.523,215.287,261.507,215.486,261.506Z" transform="translate(-174.063 -240.82)" fill="#fff"/>
          <path id="Path_7356" data-name="Path 7356" d="M227.427,262.276a3.381,3.381,0,0,1,2.139-1.59,1.992,1.992,0,0,1,1.712.513,3.29,3.29,0,0,1,.408,3.912,2.488,2.488,0,0,1-1.978,1.19,2.568,2.568,0,0,1-.87-.083,2.829,2.829,0,0,0,.493-2.136q-.1-.7-.75-.629a1.487,1.487,0,0,0-.954.684,6.432,6.432,0,0,0-.86,1.7,11.1,11.1,0,0,0-.539,2.679,15.278,15.278,0,0,0,.073,3.409c.018.147.142.763.379,1.849-.574.078-.943.12-1.1.133a4.235,4.235,0,0,1-2.273-.288,1.676,1.676,0,0,1-.828-1.409c-.03-.293.045-1.429.218-3.411a27.661,27.661,0,0,0,.09-4.718,12.276,12.276,0,0,0-.711-3.191,5.055,5.055,0,0,1,2.665,1.269,3.625,3.625,0,0,1,.968,2.11,12.137,12.137,0,0,1,.05,2.394A11.141,11.141,0,0,1,227.427,262.276Z" transform="translate(-174.07 -240.82)" fill="#fff"/>
          <path id="Path_7357" data-name="Path 7357" d="M238.34,260.709a2,2,0,0,0-1.138.619,1.322,1.322,0,0,0-.311,1.227,2.127,2.127,0,0,0,.869,1.279,5.926,5.926,0,0,0,1.683.871l1.951.654a7.006,7.006,0,0,1,1.836.924,3.04,3.04,0,0,1,1.162,1.472,2.946,2.946,0,0,1-.934,2.927,6.865,6.865,0,0,1-3.811,1.837,7.668,7.668,0,0,1-4.016-.169c-1.038-.4-1.615-.949-1.742-1.642a2.044,2.044,0,0,1,.461-1.79,2.843,2.843,0,0,1,1.779-.926,3.657,3.657,0,0,1,1.143-.006,2.062,2.062,0,0,0-.508,1.69,1.79,1.79,0,0,0,.826,1.227,2.237,2.237,0,0,0,1.608.239,2.86,2.86,0,0,0,1.5-.687,1.149,1.149,0,0,0,.395-1.153,1.8,1.8,0,0,0-.7-1.043,4.883,4.883,0,0,0-1.29-.669q-.739-.258-1.606-.6t-1.61-.73a4.231,4.231,0,0,1-1.313-1.069,3.334,3.334,0,0,1-.725-1.574,2.942,2.942,0,0,1,.987-2.745,6.326,6.326,0,0,1,3.348-1.587,5.583,5.583,0,0,1,3.246.121,2.266,2.266,0,0,1,1.394,1.491,2.224,2.224,0,0,1-.286,1.808,2.425,2.425,0,0,1-1.657,1.062,4.665,4.665,0,0,1-1.289.05,2.9,2.9,0,0,0,.633-1.1,2.145,2.145,0,0,0,.057-1.1,1.125,1.125,0,0,0-.686-.775A2.047,2.047,0,0,0,238.34,260.709Z" transform="translate(-174.075 -240.819)" fill="#fff"/>
          <path id="Path_7358" data-name="Path 7358" d="M252.405,263.536a11.082,11.082,0,0,1-2.4.42,6.491,6.491,0,0,0,.177.659,4.125,4.125,0,0,0,1.614,2.415,2.6,2.6,0,0,0,2.172.344,4.152,4.152,0,0,0,1.888-1.167,5.177,5.177,0,0,0,1.158-2.031q.954-.124,1.179.471a6.664,6.664,0,0,1-4.752,4.577,5.911,5.911,0,0,1-4.224-.333,5.012,5.012,0,0,1-2.711-3.406,7.943,7.943,0,0,1-.153-3.669,7.248,7.248,0,0,1,1.735-3.423,7.1,7.1,0,0,1,3.405-2.186,4.924,4.924,0,0,1,3.276-.1,3.059,3.059,0,0,1,1.747,1.856,3.213,3.213,0,0,1-.511,3.416A7.218,7.218,0,0,1,252.405,263.536Zm-.83-5.93a2.449,2.449,0,0,0-1.623,1.911,8.31,8.31,0,0,0-.123,3.527l.37-.1a4.362,4.362,0,0,0,2.833-1.843,3.041,3.041,0,0,0,.235-2.558,1.549,1.549,0,0,0-.633-.831A1.221,1.221,0,0,0,251.576,257.605Z" transform="translate(-174.081 -240.818)" fill="#fff"/>
          <path id="Path_7359" data-name="Path 7359" d="M262.208,264.565a7.083,7.083,0,0,1-.556-1.146q-.327-.795-1.735-6.565a73.805,73.805,0,0,0-2.216-7.819,9.449,9.449,0,0,0-1.284-2.574,4.16,4.16,0,0,1,2.679.4,4.431,4.431,0,0,1,1.552,2.1q.372.9,1.8,6.06a62.022,62.022,0,0,0,2.724,8.159c.19.432.489,1.025.9,1.777-1.536.537-2.6.612-3.167.258A2.254,2.254,0,0,1,262.208,264.565Z" transform="translate(-174.085 -240.813)" fill="#fff"/>
          <path id="Path_7360" data-name="Path 7360" d="M272.471,248.367a1.974,1.974,0,0,1,.322,1.477,2,2,0,0,1-1.119,1.011c-.628.307-1.117.532-1.464.681a63.1,63.1,0,0,0,3.195,8.4,18.066,18.066,0,0,0,.934,1.643c.222.326.641.865,1.264,1.609a5.348,5.348,0,0,1-3.354-.265,4.242,4.242,0,0,1-2.018-2.035,43.306,43.306,0,0,1-2.271-6.461q-.334-1.1-.451-1.462a12.689,12.689,0,0,0-2.138,1.739,7.223,7.223,0,0,1-.347-.643,1.6,1.6,0,0,1,.083-1.78,5.459,5.459,0,0,1,1.932-1.325,16.029,16.029,0,0,1-.439-3.886,7.588,7.588,0,0,1,.525-2.846,5.654,5.654,0,0,1,2.57-2.995,3.377,3.377,0,0,1,2.261-.359,2.333,2.333,0,0,1,1.661,1.152,2.509,2.509,0,0,1,.234,1.99,2.666,2.666,0,0,1-1.439,1.659,3.081,3.081,0,0,1-.941.31,2.593,2.593,0,0,0,.228-1.155,2.53,2.53,0,0,0-.266-1.262,1.429,1.429,0,0,0-.669-.682.879.879,0,0,0-.782.03c-.563.287-.9,1.021-1.046,2.208a11.991,11.991,0,0,0,.689,4.715,5.1,5.1,0,0,0,2.491-2.032C272.283,248.051,272.4,248.237,272.471,248.367Z" transform="translate(-174.089 -240.811)" fill="#fff"/>
        </g>
      </g>
    </g>
    <g id="Group_232" data-name="Group 232" transform="translate(97.092 113.06)">
      <g id="Group_228" data-name="Group 228" transform="translate(37.034 47.85)">
        <path id="Path_852" data-name="Path 852" d="M403.076,358.11a47.019,47.019,0,0,1-4.72,6.014c-1.679,1.873-3.453,3.662-5.3,5.6a66.131,66.131,0,0,1,7.7,14.88,2,2,0,0,1-1.5-.051A83.659,83.659,0,0,0,384.5,381.9a139.978,139.978,0,0,0-14.668-.257c-10.9.342-21.561,2.336-32.186,4.6-8.783,1.865-17.549,3.825-26.419,5.262a187.439,187.439,0,0,1-20.711,2.448,103.079,103.079,0,0,1-30.157-2.69,97.321,97.321,0,0,1-11.129-3.525c-.28-.107-.548-.244-.873-.391.934-7.745,1.864-15.456,2.8-23.208,2.008.51,3.85.986,5.7,1.443a64.876,64.876,0,0,0,10.617,1.714c3.315.256,6.628.565,9.949.678a112.3,112.3,0,0,0,13.286-.406c9.1-.77,17.976-2.719,26.834-4.8,9.452-2.223,18.927-4.342,28.539-5.758a134.524,134.524,0,0,1,16.437-1.438c4.47-.1,8.939-.314,13.409-.317,3.668,0,7.346.108,11,.387A85.82,85.82,0,0,1,403.076,358.11Z" transform="translate(-248.361 -355.257)" fill="#366196"/>
        <g id="Group_2681" data-name="Group 2681" transform="translate(44.628 4.783)">
          <g id="Group_2680" data-name="Group 2680">
            <path id="Path_7361" data-name="Path 7361" d="M298.315,380.188a8.739,8.739,0,0,1-2.076.152c.015.148.051.373.11.675a4.609,4.609,0,0,0,1.2,2.57,1.986,1.986,0,0,0,1.773.6,3.2,3.2,0,0,0,1.66-.9,5.159,5.159,0,0,0,1.164-1.839q.811.021.934.648a5.765,5.765,0,0,1-4.33,3.864,4.378,4.378,0,0,1-3.443-.781,5.431,5.431,0,0,1-2.118-3.615,9.066,9.066,0,0,1,.022-3.668,6.924,6.924,0,0,1,1.713-3.264,5.734,5.734,0,0,1,3.217-1.819,3.928,3.928,0,0,1,2.943.328,3.086,3.086,0,0,1,1.327,2.094,3.51,3.51,0,0,1-.823,3.3A5.975,5.975,0,0,1,298.315,380.188Zm-.228-5.984a2.208,2.208,0,0,0-1.591,1.718,9.178,9.178,0,0,0-.347,3.5l.325-.062a3.656,3.656,0,0,0,2.583-1.508,3.378,3.378,0,0,0,.439-2.5,1.624,1.624,0,0,0-.478-.9A1.015,1.015,0,0,0,298.087,374.2Z" transform="translate(-293.008 -360.047)" fill="#fff"/>
            <path id="Path_7362" data-name="Path 7362" d="M312.4,370.024a2.1,2.1,0,0,1,1.976.43,3.739,3.739,0,0,1,.971,2.028,24.2,24.2,0,0,1,.318,3.87,24.076,24.076,0,0,0,.273,3.63,3.569,3.569,0,0,0,.6,1.563,2.333,2.333,0,0,0,1.119.687q-.276.076-.794.179a4.552,4.552,0,0,1-2.689-.054,2.316,2.316,0,0,1-1.151-1.812,21.755,21.755,0,0,1-.178-3.2,21.4,21.4,0,0,0-.245-3.548c-.186-.949-.569-1.368-1.143-1.255a1.8,1.8,0,0,0-1.01.8,6.96,6.96,0,0,0-.9,1.821,10.042,10.042,0,0,0-.468,2.77,13.361,13.361,0,0,0,.225,3.217,15.313,15.313,0,0,0,.585,2.294q-.682.178-.9.22a2.887,2.887,0,0,1-1.852-.085,1.753,1.753,0,0,1-.82-1.318q-.082-.435-.2-3.413a31.994,31.994,0,0,0-.447-4.7,13.129,13.129,0,0,0-.986-3.092,4.091,4.091,0,0,1,2.478.986,3.686,3.686,0,0,1,1.035,1.97,17.228,17.228,0,0,1,.276,2.781,10.525,10.525,0,0,1,1.442-4.539A4.223,4.223,0,0,1,312.4,370.024Z" transform="translate(-293.013 -360.046)" fill="#fff"/>
            <path id="Path_7363" data-name="Path 7363" d="M323.922,375.171a8.866,8.866,0,0,1-2.075.163c.014.148.049.371.108.674a4.61,4.61,0,0,0,1.2,2.565,1.983,1.983,0,0,0,1.774.59,3.208,3.208,0,0,0,1.66-.91,5.181,5.181,0,0,0,1.163-1.843c.542.012.852.226.934.644a5.788,5.788,0,0,1-4.33,3.88,4.373,4.373,0,0,1-3.443-.765,5.4,5.4,0,0,1-2.118-3.6,9.115,9.115,0,0,1,.023-3.667,6.955,6.955,0,0,1,1.713-3.274,5.759,5.759,0,0,1,3.217-1.834,3.913,3.913,0,0,1,2.941.315,3.077,3.077,0,0,1,1.33,2.091,3.514,3.514,0,0,1-.825,3.3A5.994,5.994,0,0,1,323.922,375.171Zm-.229-5.982a2.226,2.226,0,0,0-1.591,1.725,9.192,9.192,0,0,0-.346,3.5l.324-.065a3.672,3.672,0,0,0,2.583-1.517,3.381,3.381,0,0,0,.44-2.508,1.611,1.611,0,0,0-.479-.9A1.006,1.006,0,0,0,323.693,369.188Z" transform="translate(-293.02 -360.045)" fill="#fff"/>
            <path id="Path_7364" data-name="Path 7364" d="M335.141,366.893q.829-1.54,1.768-1.726a1.624,1.624,0,0,1,1.551.423,3.225,3.225,0,0,1,.83,1.718,3.52,3.52,0,0,1-.26,2.168,2.136,2.136,0,0,1-1.62,1.283,1.941,1.941,0,0,1-.747-.032,3.217,3.217,0,0,0,.272-2.16c-.089-.461-.322-.655-.7-.581q-.409.081-.773.748a6.613,6.613,0,0,0-.6,1.754,12.544,12.544,0,0,0-.22,2.709,18.543,18.543,0,0,0,.361,3.391c.028.144.183.75.466,1.813-.456.119-.746.191-.876.218a2.906,2.906,0,0,1-1.855-.083,1.749,1.749,0,0,1-.818-1.316c-.057-.288-.12-1.425-.2-3.413a31.82,31.82,0,0,0-.448-4.695,13.083,13.083,0,0,0-.985-3.088,4.074,4.074,0,0,1,2.477.978,3.763,3.763,0,0,1,1.044,2.012,13.8,13.8,0,0,1,.265,2.378A11.618,11.618,0,0,1,335.141,366.893Z" transform="translate(-293.025 -360.044)" fill="#fff"/>
            <path id="Path_7365" data-name="Path 7365" d="M346.381,363.55a3.544,3.544,0,0,1,.634-.079q.582,0,.76.681a5.956,5.956,0,0,0-3.247,3.28,7.649,7.649,0,0,0-.556,4.545q.505,2.591,2.083,2.28a2.163,2.163,0,0,0,1.5-1.368,13.7,13.7,0,0,0,.73-6.237q-.205-3.233.738-4.358a4.016,4.016,0,0,1,1.2-.973,28.841,28.841,0,0,0,.371,3.512q1.688,8.633.692,13.332t-5.162,5.513a3.757,3.757,0,0,1-2.809-.38,2.719,2.719,0,0,1-1.334-1.776,2.429,2.429,0,0,1,.327-1.879,2.567,2.567,0,0,1,1.745-1.049,2.679,2.679,0,0,1,1.056.017,1.887,1.887,0,0,0-.495,1.823,2.021,2.021,0,0,0,.708,1.215,1.418,1.418,0,0,0,1.22.334,2.406,2.406,0,0,0,1.1-.5,3.441,3.441,0,0,0,.829-1.158,7.072,7.072,0,0,0,.568-1.9,21.083,21.083,0,0,0-.308-6.729,6.864,6.864,0,0,1-1.316,3.349,3.994,3.994,0,0,1-2.37,1.63,2.942,2.942,0,0,1-2.782-.765,5.631,5.631,0,0,1-1.505-3.054,8.726,8.726,0,0,1,.269-4.468,6.845,6.845,0,0,1,2.793-3.82A7.081,7.081,0,0,1,346.381,363.55Z" transform="translate(-293.029 -360.043)" fill="#fff"/>
            <path id="Path_7366" data-name="Path 7366" d="M362.907,361.668a5.006,5.006,0,0,1-.249,2.165q-.394,1.406-1.02,3.142t-1.208,3.671a21.749,21.749,0,0,0-.8,4.276,15.706,15.706,0,0,0,.2,4.455,11.227,11.227,0,0,0,.515,1.828,4.648,4.648,0,0,1-2.562-.5,2.114,2.114,0,0,1-.921-1.379q-.231-1.187.813-5.018-.588-1.277-1.62-4.046t-1.933-4.79a11.438,11.438,0,0,0-1.727-2.936,4.864,4.864,0,0,1,1.79-.93,1.607,1.607,0,0,1,1.142.115,2.676,2.676,0,0,1,.866,1.164q.436.913.667,1.518.706,2.014.753,2.251t.552,1.9q.505,1.663.7,2.185,2.384-8.189,1.9-10.694Q362.7,360.609,362.907,361.668Z" transform="translate(-293.034 -360.042)" fill="#fff"/>
          </g>
        </g>
      </g>
      <g id="Group_231" data-name="Group 231">
        <path id="Path_861" data-name="Path 861" d="M213.554,307.386c.435.138.688.2.926.3A75.337,75.337,0,0,0,230.38,312a176.176,176.176,0,0,0,59.552-.853,93.109,93.109,0,0,0,11.213-2.844c.772-.253.875-.219,1.1.617.785,2.915,1.55,5.834,2.323,8.751l3.14,11.855c.1.4.174.8.28,1.3-.533.2-.982.388-1.441.541a119.343,119.343,0,0,1-25.422,5.29,187.926,187.926,0,0,1-31.95.56,149.238,149.238,0,0,1-30.963-4.984c-2.021-.57-4.012-1.25-6-1.919-.867-.291-.956-.476-.871-1.35q.964-9.932,1.942-19.861C213.325,308.579,213.439,308.062,213.554,307.386Z" transform="translate(-211.311 -307.386)" fill="#366196"/>
        <g id="Group_2683" data-name="Group 2683" transform="translate(2.497 5.949)">
          <g id="Group_2682" data-name="Group 2682">
            <path id="Path_7367" data-name="Path 7367" d="M218.026,323.669a2.723,2.723,0,0,0-.029,1.747,1.549,1.549,0,0,0,1.124.988,3.347,3.347,0,0,0,2.684-.539,8.56,8.56,0,0,0,2.562-2.557,10.756,10.756,0,0,0,1.549-3.331,20.863,20.863,0,0,0,.549-2.715c.5.09.845.157,1.041.2a3.685,3.685,0,0,1,1.792.838,1.626,1.626,0,0,1,.3,1.6,32.688,32.688,0,0,1-1.373,3.185,24.624,24.624,0,0,0-1.7,4.516,5.8,5.8,0,0,0,.123,3.286,5.125,5.125,0,0,1-2.679-1.865,3.517,3.517,0,0,1-.273-2.841q.076-.3.4-1.127a7,7,0,0,1-7.359,2.853,3.7,3.7,0,0,1-2.627-5.17,9.49,9.49,0,0,1,2.069-3.435,9.089,9.089,0,0,1,3.425-2.311,6.178,6.178,0,0,1,3.944-.266,6.617,6.617,0,0,1,2.179,1.059,8.111,8.111,0,0,0-4.854,1.954A8.425,8.425,0,0,0,218.026,323.669Z" transform="translate(-213.809 -313.339)" fill="#fff"/>
            <path id="Path_7368" data-name="Path 7368" d="M243.547,327.891c-.28,2.431.46,3.751,2.216,3.915a4.168,4.168,0,0,0,2.109-.394,5.557,5.557,0,0,0,1.924-1.448c.626.16.927.449.9.874a6.1,6.1,0,0,1-2.919,2.09,8.206,8.206,0,0,1-3.36.384,5.44,5.44,0,0,1-3.61-1.745,4.714,4.714,0,0,1-1.013-4.024,8.241,8.241,0,0,1,2.81-5.218,7.334,7.334,0,0,1,5.7-1.732,4.478,4.478,0,0,1,2.815,1.027,2.512,2.512,0,0,1,.86,2.01,2.774,2.774,0,0,1-3.045,2.615,3.567,3.567,0,0,1-1.218-.317,3.468,3.468,0,0,0,.816-1.115,3.879,3.879,0,0,0,.448-1.454,1.183,1.183,0,0,0-1.216-1.444c-1.033-.087-1.935.495-2.738,1.754A9.811,9.811,0,0,0,243.547,327.891Z" transform="translate(-213.82 -313.341)" fill="#fff"/>
            <path id="Path_7369" data-name="Path 7369" d="M254.463,332.257a7.192,7.192,0,0,1-.036-1.267c.018-.571.407-2.809,1.1-6.719a64.2,64.2,0,0,0,1.051-8.068,9.078,9.078,0,0,0-.207-2.865,4.213,4.213,0,0,1,2.376,1.369,4.276,4.276,0,0,1,.641,2.522c0,.646-.233,2.741-.748,6.285a69.071,69.071,0,0,0-.845,8.568q-.009.7.084,1.98c-1.645-.08-2.66-.408-3.037-.948A2.141,2.141,0,0,1,254.463,332.257Z" transform="translate(-213.826 -313.338)" fill="#fff"/>
            <path id="Path_7370" data-name="Path 7370" d="M268.177,328.1a11.412,11.412,0,0,1-2.463-.121,6.145,6.145,0,0,0,0,.682,3.972,3.972,0,0,0,.941,2.711,2.532,2.532,0,0,0,2.028.819,4.4,4.4,0,0,0,2.157-.716,5.53,5.53,0,0,0,1.678-1.722c.645.063.987.3,1.028.726a7.147,7.147,0,0,1-5.878,3.4,5.8,5.8,0,0,1-4.023-1.263,4.8,4.8,0,0,1-1.752-3.913,8.115,8.115,0,0,1,.788-3.609,7.572,7.572,0,0,1,2.559-2.958,7.424,7.424,0,0,1,3.9-1.385,5.018,5.018,0,0,1,3.262.626,2.945,2.945,0,0,1,1.257,2.2,3.28,3.28,0,0,1-1.383,3.219A7.642,7.642,0,0,1,268.177,328.1Zm.7-5.969a2.577,2.577,0,0,0-2.078,1.507,8.6,8.6,0,0,0-1.017,3.413l.389-.017a4.617,4.617,0,0,0,3.257-1.17,3.079,3.079,0,0,0,.882-2.443,1.5,1.5,0,0,0-.415-.952A1.229,1.229,0,0,0,268.873,322.126Z" transform="translate(-213.83 -313.341)" fill="#fff"/>
            <path id="Path_7371" data-name="Path 7371" d="M280.216,328.178a2.808,2.808,0,0,0,.7,1.6,1.538,1.538,0,0,0,1.414.449,3.237,3.237,0,0,0,2.182-1.57,8.32,8.32,0,0,0,1.229-3.361,10.5,10.5,0,0,0-.027-3.653,20.2,20.2,0,0,0-.681-2.686c.488-.119.83-.2,1.026-.236a3.762,3.762,0,0,1,1.985.034,1.677,1.677,0,0,1,.971,1.329,30.388,30.388,0,0,1,.124,3.45,25.639,25.639,0,0,0,.363,4.8,5.892,5.892,0,0,0,1.479,2.945,5.126,5.126,0,0,1-3.206-.618,3.584,3.584,0,0,1-1.429-2.478q-.055-.3-.113-1.187a6.8,6.8,0,0,1-5.413,5.561,3.87,3.87,0,0,1-3.028-.709,4.138,4.138,0,0,1-1.438-2.945,9.608,9.608,0,0,1,.385-3.951,8.681,8.681,0,0,1,2.045-3.475,5.847,5.847,0,0,1,3.4-1.828,6.646,6.646,0,0,1,2.413.081,7.69,7.69,0,0,0-3.505,3.73A8.4,8.4,0,0,0,280.216,328.178Z" transform="translate(-213.836 -313.34)" fill="#fff"/>
            <path id="Path_7372" data-name="Path 7372" d="M297.855,317.178a3.524,3.524,0,0,1,1.9-1.957,2.07,2.07,0,0,1,1.823.2,2.992,2.992,0,0,1,1.138,1.592,3.049,3.049,0,0,1-.1,2.215,2.643,2.643,0,0,1-1.825,1.534,2.684,2.684,0,0,1-.892.072,2.817,2.817,0,0,0,.172-2.208.629.629,0,0,0-.859-.489,1.567,1.567,0,0,0-.855.848,6.722,6.722,0,0,0-.6,1.835,11.491,11.491,0,0,0-.144,2.753,15.749,15.749,0,0,0,.545,3.376q.057.214.621,1.773c-.566.177-.928.284-1.089.325a4.283,4.283,0,0,1-2.309.112,1.6,1.6,0,0,1-1.01-1.255c-.07-.284-.145-1.427-.257-3.423a25.205,25.205,0,0,0-.624-4.689,11.68,11.68,0,0,0-1.228-3.027,5.091,5.091,0,0,1,2.876.775,3.52,3.52,0,0,1,1.31,1.916,11.452,11.452,0,0,1,.418,2.365A11.559,11.559,0,0,1,297.855,317.178Z" transform="translate(-213.843 -313.339)" fill="#fff"/>
          </g>
        </g>
      </g>
    </g>
  </g>
</svg>
