<svg xmlns="http://www.w3.org/2000/svg" width="75.361" height="77.728" viewBox="0 0 75.361 77.728">
  <g id="client_icon" data-name="client icon" transform="translate(-147.746 -101.264)">
    <path id="Path_203" data-name="Path 203" d="M186.754,227.4h51.394l-2.093-9.822s-.838-6.176-11.619-8.06a15.356,15.356,0,0,0,2.3-3.454c.642-1.326,1.864-4.351,1.151-12.351-.411-4.616-.616-6.924-1.57-9.421-1.08-2.828-3.149-8.244-8.688-10.572-.652-.274-6.71-2.7-12.037.733a12.682,12.682,0,0,0-4.292,4.92c-1.292,2.423-1.092,3.716-2.617,11.514-.767,3.921-1.074,4.907-1.989,5.862-1.93,2.013-4.92,2.172-6.7,2.094.221,1.559.792,3.72,2.512,4.815,1.912,1.216,4.375.562,4.606,1.361.087.3-.126.862-1.884,1.989.759.789,1.572,1.566,2.349,2.352a.327.327,0,0,1-.176.552,10.894,10.894,0,0,0-8.558,7.354Z" transform="translate(-26.731 -49.405)" fill="#294972" stroke="#1e194d" stroke-miterlimit="10" stroke-width="2"/>
    <path id="Path_204" data-name="Path 204" d="M256.029,320.82l1.633,10.723H262.6l3.148-10.86a13.275,13.275,0,0,1-9.717.136Z" transform="translate(-75.461 -153.551)" fill="#d3a375" stroke="#1e194d" stroke-miterlimit="10" stroke-width="2"/>
    <path id="Path_205" data-name="Path 205" d="M224.436,294.027c10.781,1.884,11.619,8.06,11.619,8.06l2.093,9.822H186.754l2.093-10.136a11.1,11.1,0,0,1,3.978-5.443,10.989,10.989,0,0,1,5.129-1.989l8.064-1.57,2.914,18.841h4.937l5.548-18.841Z" transform="translate(-26.731 -133.916)" fill="#366196" stroke="#1e194d" stroke-miterlimit="10" stroke-width="2"/>
    <path id="Path_206" data-name="Path 206" d="M251.8,275.662v4.454l1.254,8.414a13.281,13.281,0,0,0,9.717-.136l2.4-8.278V274.78" transform="translate(-72.486 -121.261)" fill="#fff" stroke="#1e194d" stroke-miterlimit="10" stroke-width="2"/>
    <path id="Path_207" data-name="Path 207" d="M239.433,215a16.361,16.361,0,0,1,.033-6.588,16.545,16.545,0,0,1,1.292-3.809,2.839,2.839,0,0,1,1.884-.628c1.264.069,1.6,1.519,2.442,1.744.866.233,2.381-.708,5.234-5.652a2.138,2.138,0,0,1,1.256-1.186c2.038-.573,5.192,3.427,6.629,6.769a15.1,15.1,0,0,1,.087,12.194c-.708,1.533-2.11,4.772-5.652,6.28a9.113,9.113,0,0,1-6.019.471C241.16,223,239.69,216.191,239.433,215Z" transform="translate(-63.565 -67.829)" fill="#fff" stroke="#1e194d" stroke-miterlimit="10" stroke-width="2"/>
    <path id="Path_208" data-name="Path 208" d="M265.746,264.965a6.871,6.871,0,0,1-9.717,0" transform="translate(-75.461 -114.357)" fill="none" stroke="#1e194c" stroke-linecap="round" stroke-miterlimit="10" stroke-width="1.5"/>
    <path id="Path_209" data-name="Path 209" d="M254.332,102.394l2.355,4.773,5.267.765-3.811,3.715.9,5.246-4.711-2.477-4.711,2.477.9-5.246-3.811-3.715,5.267-.765Z" transform="translate(-68.906)" fill="#e1c1a3" stroke="#1e194d" stroke-miterlimit="10" stroke-width="1"/>
    <path id="Path_210" data-name="Path 210" d="M150.227,166.058l5.04,1.709,4.266-3.183-.068,5.322,4.346,3.073-5.083,1.58-1.58,5.083-3.073-4.346-5.322.068,3.183-4.266Z" transform="translate(0 -43.746)" fill="#e1c1a3" stroke="#1e194d" stroke-miterlimit="10" stroke-width="1"/>
    <path id="Path_211" data-name="Path 211" d="M358.883,166.058l-1.709,5.04,3.183,4.266-5.322-.068-3.073,4.346-1.58-5.083-5.082-1.58,4.346-3.073-.068-5.322,4.266,3.183Z" transform="translate(-138.257 -43.746)" fill="#e1c1a3" stroke="#1e194d" stroke-miterlimit="10" stroke-width="1"/>
  </g>
</svg>
