<svg xmlns="http://www.w3.org/2000/svg" width="185.391" height="230.249" viewBox="0 0 185.391 230.249">
  <g id="footer_goodbye_illustration" data-name="footer goodbye illustration" transform="translate(-492.371 -7136)">
    <g id="Group_2894" data-name="Group 2894" transform="translate(492.371 7136)">
      <path id="Path_8135" data-name="Path 8135" d="M192.81,311.928c7.729-3.472,62.971,10.867,62.971,10.867s-14.438-63.26-12.5-87.394-39.59-13.287-39.59-13.287Z" transform="translate(-173.078 -180.11)" fill="#fff"/>
      <g id="Group_2884" data-name="Group 2884" transform="translate(21.762 81.831)">
        <path id="Path_8136" data-name="Path 8136" d="M236.666,340.995s7.68,18.655-2.906,60.2H227.5s-1.929-54.463-3.215-60.2c-1-4.528-2.906-20.032-3.531-33.263v-.054q-.081-1.861-.136-3.641a8.546,8.546,0,0,1-1.106.163,8.128,8.128,0,0,1-.942.009c-.063,0-.135-.009-.207-.009.389,5.76.542,12.226.542,18.184,0,8.413-.307,15.794-.669,18.674-.734,5.705,3.224,60.241,3.224,60.241l-6.276-.208c-14.6-41.966-9.346-60.449-9.346-60.449s-13.349-37.773-10.351-51.1a71.546,71.546,0,0,1,9.98-23.192l11.655,1.9.1-.208.941.181h.137v.027l12.054,2.373a106.551,106.551,0,0,1,5.886,11.881c.144.353.3.706.453,1.069,1.231,2.97,2.509,6.348,3.677,10.016C244.653,307.026,236.666,340.995,236.666,340.995Z" transform="translate(-195.051 -266.346)" fill="#fff"/>
        <g id="Group_2883" data-name="Group 2883" transform="translate(20.478 6.547)">
          <path id="Path_8137" data-name="Path 8137" d="M219.964,298.346a58.394,58.394,0,0,0,1.684,6.547,8.128,8.128,0,0,1-.942.009c-4.844-15.4-2.462-31.044-2.426-31.207l.887.145a79.136,79.136,0,0,0,.625,23.618,1.759,1.759,0,0,0,.888-.616c.461-.6.868-1.893.163-4.637-1.53-5.95-.109-17.659-.045-18.148l.9.109c-.009.118-1.459,12.035.026,17.813.644,2.5.526,4.329-.344,5.443A2.648,2.648,0,0,1,219.964,298.346Z" transform="translate(-217.664 -273.587)" fill="#fff"/>
          <path id="Path_8138" data-name="Path 8138" d="M239.909,284.253c-7.028-1.612-10.651-9.934-10.8-10.315l.832-.362c.036.091,3.352,7.707,9.519,9.608C239.6,283.538,239.755,283.891,239.909,284.253Z" transform="translate(-218.744 -273.576)" fill="#fff"/>
        </g>
      </g>
      <path id="Path_8139" data-name="Path 8139" d="M229.431,176.181c11.264,1.559,14.417,10.074,14.191,17.876s-1.132,48.952-1.132,48.952-21.3,6.663-28.424-10.338-7.913-26.5-3.171-32.455c.97-1.218,1.5-4.895,2.05-9.652C214.052,180.913,219.373,174.789,229.431,176.181Z" transform="translate(-174.503 -175.985)" fill="#fff"/>
      <path id="Path_8140" data-name="Path 8140" d="M266.485,290.391c.151,4.526-3.25,16.212-4.226,14.189C259,297.827,266.485,290.391,266.485,290.391Z" transform="translate(-179.556 -186.784)" fill="#fff"/>
      <path id="Path_8141" data-name="Path 8141" d="M175.007,248.742c-.6-2.21,6.662-13.439,8.689-11.889,0,0-.689,16.32-2.953,16.773S175.007,248.742,175.007,248.742Z" transform="translate(-171.394 -181.717)" fill="#fff"/>
      <path id="Path_8142" data-name="Path 8142" d="M200.626,210.98,179.472,250.8s.564,7.817,4.413,8.7,18.9-14.942,18.9-14.942Z" transform="translate(-171.818 -179.288)" fill="#fff"/>
      <path id="Path_8143" data-name="Path 8143" d="M253.363,281.644c1.783,6.324,11.088,20.894,16.847,26.391l2.971-2.512s-8.662-16.879-9.811-23.091-4.194-9.8-8.534-9.588S252.988,280.313,253.363,281.644Z" transform="translate(-178.694 -185.127)" fill="#fff"/>
      <path id="Path_8144" data-name="Path 8144" d="M178.212,248.825c-2.154-6.208-2.853-23.481-1.272-31.284l3.874.361s2.547,18.8,5.157,24.554,2.161,10.433-1.518,12.745S178.665,250.131,178.212,248.825Z" transform="translate(-171.498 -179.908)" fill="#fff"/>
      <path id="Path_8145" data-name="Path 8145" d="M252.077,217.837s4.792,14.235,5.505,38.535c0,0,1.166,1.207,1.014,2.113s1.208,2.816.906,3.219,5.886,21.838,5.886,21.838-5.131,4.828-4.226,14.189L250.9,276.447S247.822,223.223,252.077,217.837Z" transform="translate(-178.46 -179.935)" fill="#fff"/>
      <path id="Path_8146" data-name="Path 8146" d="M205.22,271.071s3.264,3.726,12.329,4.693,14.678-2.749,14.136-5.249-24.856-2.9-24.856-2.9Z" transform="translate(-174.249 -184.635)" fill="#fff"/>
      <path id="Path_8147" data-name="Path 8147" d="M230.84,265.671a29.251,29.251,0,0,1-25.819-4.782s-2.327-47.843,2.1-51.049c1.938-1.4,5.76-.281,9.445,1.431a70.963,70.963,0,0,1,9.3,5.388,71.005,71.005,0,0,1,14.752-.453c4.139.444,7.562,1.657,7.716,4.4C248.744,227.681,230.84,265.671,230.84,265.671Z" transform="translate(-174.173 -179.121)" fill="#fff"/>
      <path id="Path_8148" data-name="Path 8148" d="M242.241,216.531c-2.789-.29-3.305,1.82-6.095,2.835a38.835,38.835,0,0,1-7.417,1.929c-1.268.118-1.938,1.693-1.938,1.693s-.453-2.128-1.141-2.309c-.67-.172-6.584-6.122-7.815-9.192a70.963,70.963,0,0,1,9.3,5.388,71.005,71.005,0,0,1,14.752-.453C242.114,216.495,242.241,216.531,242.241,216.531Z" transform="translate(-175.44 -179.336)" fill="#fff"/>
      <path id="Path_8149" data-name="Path 8149" d="M226.667,199.867s1.058,12.773-2.5,14.6c0,0,2.626,4.841,9.666,1.895,0,0-1.189-6.57,3.468-14.37C240.422,196.769,226.667,199.867,226.667,199.867Z" transform="translate(-176.038 -178.153)" fill="#fff"/>
      <g id="Group_2888" data-name="Group 2888" transform="translate(40.257 3.234)">
        <path id="Path_8150" data-name="Path 8150" d="M241.04,194.984s2.644-3.073,3.251.238c.7,3.836-2.691,5.662-3.472,4.484S241.04,194.984,241.04,194.984Z" transform="translate(-217.839 -180.89)" fill="#fff"/>
        <path id="Path_8151" data-name="Path 8151" d="M218.654,196.924s-3.079-2.637-3.177.728c-.113,3.9,3.518,5.189,4.111,3.906S218.654,196.924,218.654,196.924Z" transform="translate(-215.474 -181.103)" fill="#fff"/>
        <path id="Path_8152" data-name="Path 8152" d="M230.3,208.6c6.349-.484,9.617-4.9,8.669-17.342-.488-6.416-4.053-10.1-11.163-9.561s-9.808,4.7-9.319,11.121C219.51,206.178,223.746,209.094,230.3,208.6Z" transform="translate(-215.754 -179.753)" fill="#fff"/>
        <path id="Path_8153" data-name="Path 8153" d="M221.193,198.591a1.508,1.508,0,1,0,1.578-1.029A1.347,1.347,0,0,0,221.193,198.591Z" transform="translate(-216.014 -181.255)" fill="#fff"/>
        <path id="Path_8154" data-name="Path 8154" d="M235.641,197.84a1.508,1.508,0,1,0,1.291-1.371A1.349,1.349,0,0,0,235.641,197.84Z" transform="translate(-217.377 -181.151)" fill="#fff"/>
        <g id="Group_2885" data-name="Group 2885" transform="translate(7.249 8.84)">
          <path id="Path_8155" data-name="Path 8155" d="M223.663,191.11a.317.317,0,0,0,.38-.088,3.652,3.652,0,0,1,2.375-1.069.318.318,0,1,0-.028-.636,4.251,4.251,0,0,0-2.84,1.3.319.319,0,0,0,.045.447A.308.308,0,0,0,223.663,191.11Z" transform="translate(-223.479 -189.318)" fill="#fff"/>
        </g>
        <g id="Group_2886" data-name="Group 2886" transform="translate(16.447 8.323)">
          <path id="Path_8156" data-name="Path 8156" d="M233.819,189.368a.316.316,0,0,0,.168.028,3.658,3.658,0,0,1,2.511.7.318.318,0,0,0,.426-.474,4.248,4.248,0,0,0-3-.858.318.318,0,0,0-.1.6Z" transform="translate(-233.635 -188.747)" fill="#fff"/>
        </g>
        <path id="Path_8157" data-name="Path 8157" d="M224.744,194.847c.061.789.465,1.4.9,1.367s.744-.7.685-1.488-.464-1.4-.9-1.367S224.684,194.058,224.744,194.847Z" transform="translate(-216.348 -180.859)" fill="#fff"/>
        <path id="Path_8158" data-name="Path 8158" d="M234.632,194.134c.06.789.464,1.4.9,1.367s.744-.7.684-1.488-.464-1.4-.9-1.367S234.572,193.346,234.632,194.134Z" transform="translate(-217.282 -180.792)" fill="#fff"/>
        <path id="Path_8159" data-name="Path 8159" d="M233.242,202.794s-3.913.855-6.028-.052c0,0,1.373,2.84,3.513,2.413A3.174,3.174,0,0,0,233.242,202.794Z" transform="translate(-216.582 -181.745)" fill="#fff"/>
        <path id="Path_8160" data-name="Path 8160" d="M226.667,194.173s-.726-1.9-1.478-1.7-1.2,1.905-1.2,1.905l-1.172-.511,1.137.061s.456-1.78,1.209-1.84C226.233,192,226.667,194.173,226.667,194.173Z" transform="translate(-216.167 -180.739)" fill="#fff"/>
        <path id="Path_8161" data-name="Path 8161" d="M233.9,193.9s.43-1.987,1.2-1.905,1.479,1.7,1.479,1.7l1.081-.683-1.116.233s-.719-1.69-1.473-1.636C234,191.683,233.9,193.9,233.9,193.9Z" transform="translate(-217.213 -180.693)" fill="#fff"/>
        <g id="Group_2887" data-name="Group 2887" transform="translate(12.373 15.287)">
          <path id="Path_8162" data-name="Path 8162" d="M229.985,199.2a1.979,1.979,0,0,0,.463.147l.129-.675c-.575-.11-.724-.448-.749-.713a.852.852,0,0,1,.369-.82q.178-.068.394.216l.546-.417a.987.987,0,0,0-1.189-.437,1.508,1.508,0,0,0-.8,1.522A1.409,1.409,0,0,0,229.985,199.2Z" transform="translate(-229.137 -196.436)" fill="#fff"/>
        </g>
        <path id="Path_8163" data-name="Path 8163" d="M228.634,182.42S220.918,196.3,216.846,194.4c0,0-1.082-14.846,10.7-14.846s14.117,6.633,14.082,13.2c0,0-1.646,2.43-3.1,2.085C238.525,194.843,240.355,182.7,228.634,182.42Z" transform="translate(-215.601 -179.556)" fill="#fff"/>
      </g>
      <g id="Group_2889" data-name="Group 2889" transform="translate(90.091 118.934)">
        <path id="Path_8164" data-name="Path 8164" d="M281.86,311.146c-4.888-.6-5.348-4.747-9.372-3.643a2.58,2.58,0,0,0-1.636,1.243,3.076,3.076,0,0,0,.275,3.264,34.879,34.879,0,0,1,3.668,7.132c.707,1.933,1.156.986,1.156.986.051.184.089.361.128.538.306,1.345.33,2.381,1.045,1.569.813-.911.12-4.767.12-4.767,2.32,5.265,1.332,6.413,2.149,5.666,1.118-1.015-.2-5.867-.242-6.011,1.923,2.9,2.141,4.8,2.669,3.876s-2.177-6.492-3.2-8.525c-.23-.458-.38-.74-.38-.74C282.185,312.485,281.86,311.146,281.86,311.146Z" transform="translate(-270.503 -307.317)" fill="#fff"/>
        <path id="Path_8165" data-name="Path 8165" d="M279.087,312.849c-.23-.458-.38-.74-.38-.74a3.333,3.333,0,0,1-3.216-.818A2.977,2.977,0,0,0,279.087,312.849Z" transform="translate(-270.974 -307.692)" fill="#fff"/>
        <path id="Path_8166" data-name="Path 8166" d="M275.6,317.042c.157.457,1.082,3.071.837,4,.051.184.089.361.128.538C277.509,321.094,275.856,317.575,275.6,317.042Z" transform="translate(-270.984 -308.235)" fill="#fff"/>
      </g>
      <path id="Path_8167" data-name="Path 8167" d="M247.922,225.87c-1.657,9.925-6.955,46.829-29.667,42.074-.1-.018-.208-.045-.309-.063q-.46-.1-.9-.19c-21.263-4.582-14.932-6.792-14.932-6.792s-8.635-53.177,8.367-51.547c0,0,12.506,15.658,12.787,21.888a3.183,3.183,0,0,1-.063.951,8.03,8.03,0,0,1,1.377-2.255c1.947-2.481,6.6-6.991,17.532-13.439C242.116,216.5,249.578,215.936,247.922,225.87Z" transform="translate(-173.749 -179.131)" fill="#fff"/>
      <path id="Path_8168" data-name="Path 8168" d="M244.074,216.056s-6.873,21.208-6.823,35.7S256.4,325.169,256.4,325.169a9.553,9.553,0,0,0,3.581-2.717s-8.463-64.286-8.534-71.078,1.458-29.7-.552-33.706C250.89,217.669,249.9,216.389,244.074,216.056Z" transform="translate(-177.273 -179.767)" fill="#fff"/>
      <path id="Path_8169" data-name="Path 8169" d="M211.873,209.865s.679,25.862,0,31.118-5.99,34.451-8.916,44.443-6.6,30.477-6.6,30.477l-3.654-4.981s-2.3-20.138,0-30.326,4.937-17.485,5.2-19.723-1.572-34.976,3.874-50.077A11.236,11.236,0,0,1,211.873,209.865Z" transform="translate(-172.971 -179.105)" fill="#fff"/>
      <g id="Group_2890" data-name="Group 2890" transform="translate(43.3 50.805)">
        <path id="Path_8170" data-name="Path 8170" d="M226.37,232.086a36.855,36.855,0,0,1-2.128,5.769,30.154,30.154,0,0,0-2.436,7.091,49.97,49.97,0,0,0-.127,5.28c.018,5.243.054,12.887-1.948,19.805q-.461-.1-.9-.19c1.983-6.81,1.957-14.408,1.939-19.615a49.778,49.778,0,0,1,.136-5.4,30.9,30.9,0,0,1,2.5-7.335c.616-1.44,1.224-2.844,1.648-4.1a3.183,3.183,0,0,1-.063.951A8.03,8.03,0,0,1,226.37,232.086Z" transform="translate(-218.834 -232.086)" fill="#fff"/>
      </g>
      <path id="Path_8171" data-name="Path 8171" d="M183.7,236.868s-5.52,15.154-8.689,11.889c0,0,3.925,12.582,8.453,13.186s6.645-17.509,6.645-17.509-3.928-6.6-4.381-6.015a5.256,5.256,0,0,0-.6,2.016Z" transform="translate(-171.397 -181.732)" fill="#fff"/>
      <path id="Path_8172" data-name="Path 8172" d="M220.581,276.538c3.861,1.49,9.521,19.551,8.955,32.934,0,0,.113,1.446,1.472,0,0,0-2.211-32.512-10.331-35.318Z" transform="translate(-175.699 -185.252)" fill="#fff"/>
      <path id="Path_8173" data-name="Path 8173" d="M221.077,274.036s.522,3.194-2.526,2.968-3.275-2.6-1.915-3.734S221.077,274.036,221.077,274.036Z" transform="translate(-175.252 -185.134)" fill="#fff"/>
      <path id="Path_8174" data-name="Path 8174" d="M212.249,202.222c-4.245,3.7-4.528,7.856-.226,15.4s3.4,16.81,3.4,16.81,8.584-8.5,2.48-24.277Z" transform="translate(-174.599 -178.461)" fill="#fff"/>
      <g id="Group_2891" data-name="Group 2891" transform="translate(39.822 211.788)">
        <path id="Path_8175" data-name="Path 8175" d="M214.994,413.218s2.1,4.653,1.449,7.773c-.39,1.884-2.414,4.3-.792,7.32h12.724a6.248,6.248,0,0,0-1.514-6.566c-1.652-1.752-2.87-9.886-2.87-9.886-1.423.226-1.057,1.358-1.057,1.358s.043-3.835-3.17-3.321c-3.852.617-2.943,4-2.943,4A1.294,1.294,0,0,0,214.994,413.218Z" transform="translate(-214.994 -409.85)" fill="#fff"/>
        <path id="Path_8176" data-name="Path 8176" d="M216.272,424.829s3.471-4.507,10.566-.906a2.309,2.309,0,0,1-3.019,2.566C220.5,425.885,218.536,428.3,216.272,424.829Z" transform="translate(-215.115 -411.046)" fill="#fff"/>
      </g>
      <g id="Group_2892" data-name="Group 2892" transform="translate(52.725 211.788)">
        <path id="Path_8177" data-name="Path 8177" d="M238.238,413.218s-.916,5.191.363,6.867c1.488,1.951,8.959,2.177,5.322,8.226H231.2s-1.959-1.294-1.2-6.566a29.507,29.507,0,0,0-.754-9.886,2.7,2.7,0,0,1,1.962,1.358s-.043-3.835,3.17-3.321c3.852.617,2.943,4,2.943,4S237.722,413.081,238.238,413.218Z" transform="translate(-229.242 -409.85)" fill="#fff"/>
        <path id="Path_8178" data-name="Path 8178" d="M233.227,424.87s4.226-4.163,10.9-.189c0,0-.031,2.453-3.351,1.849S235.491,428.341,233.227,424.87Z" transform="translate(-229.618 -411.087)" fill="#fff"/>
      </g>
      <g id="Group_2893" data-name="Group 2893" transform="translate(0 20.586)">
        <path id="Path_8179" data-name="Path 8179" d="M185.086,208.18l-2.047,4.591c-2.038,4.6-2.672,4-5.316,4.61-2.472.57-4.012-3.831-4.148-5.814-.127-1.675-2.807-5-2.536-6.412.109-.571.48-.235,1.186.915a9.839,9.839,0,0,0,2.056,2.3c.878-1.53-2.617-6.113-1.431-7.607.58-.724,2.192,6,3.251,6.194,0,0,.371-.525-.154-3.885-.3-1.929-.625-3.912-.109-4.283.942-.67.869,3.478,2.545,7.879,0,0,.045-2.128-.045-4.1-.091-1.8-.362-3.478.444-3.441.661.027.724,2.844.833,4.637a20.075,20.075,0,0,0,1.63,6.946,7.1,7.1,0,0,0,.444.878C184.162,207.075,185.086,208.18,185.086,208.18Z" transform="translate(-171.021 -198.717)" fill="#fff"/>
        <path id="Path_8180" data-name="Path 8180" d="M182.52,212.834a4.579,4.579,0,0,0-2.681,2.273,2.736,2.736,0,0,1,2.237-3.151A7.092,7.092,0,0,0,182.52,212.834Z" transform="translate(-171.85 -199.967)" fill="#fff"/>
      </g>
    </g>
    <g id="Group_2897" data-name="Group 2897" transform="translate(580.591 7154.671)">
      <g id="Group_2896" data-name="Group 2896" transform="translate(0 0)">
        <path id="Path_8181" data-name="Path 8181" d="M142.979,65.163c1.379-.23,1.894-.745,2.065-2.041.189-1.433.539-2.8,2.029-3.435.79-.338,1.639-.528,2.448-.835a1.97,1.97,0,0,1,2.073.585A8.4,8.4,0,0,1,153.6,62.4c.086.2.1.444.312.559A3.954,3.954,0,0,0,155.95,60.6a4.356,4.356,0,0,1,4.085-3.316c.158-.33.008-.627-.039-.922a20.076,20.076,0,0,1-.1-7.107,6.643,6.643,0,0,1,1.767-3.65c1.293-1.249,2.616-1.029,3.342.607a15.666,15.666,0,0,1,1.076,6.25,84.2,84.2,0,0,1-.827,10.375c-.193,1.751.86,3.062,1.833,4.357.242.322.612.221.9-.019a6.6,6.6,0,0,0,1.879-2.938c.091-.243-.051-.491-.122-.733a102.791,102.791,0,0,1-2.612-10.781,20.772,20.772,0,0,1-.244-7.107,7.039,7.039,0,0,1,.923-2.684,1.591,1.591,0,0,1,2.821-.2,10.781,10.781,0,0,1,2.133,5.049,29.826,29.826,0,0,1,.323,8.89,14.061,14.061,0,0,1,1.669-.869,3.628,3.628,0,0,1,4.831,1.983,7.266,7.266,0,0,1,.235,5.954,5.647,5.647,0,0,1-6.718,3.224c-1.089,1.151-1.434,1.064-2.492-.682-.779,1.091-1.347,2.381-2.7,2.853-1.553.539-2.515-.486-3.546-1.528a14.278,14.278,0,0,1-.909,2.129c-1.609,2.765-4.249,2.994-6.289.53a8.937,8.937,0,0,1-2-5.423c-.024-.494-.02-.99-.029-1.509a1.73,1.73,0,0,0-.838,1.98,11.349,11.349,0,0,1-.367,5.4,3.714,3.714,0,0,1-6.724,1.318,9.187,9.187,0,0,1-2.036-4.636c-.069-.461-.111-.926-.176-1.475-.6.348-1.073.632-1.555.895-.348.189-.212.487-.179.743a15.445,15.445,0,0,1-.095,3.854,7.744,7.744,0,0,1-.6,2.181,3.906,3.906,0,0,1-6.434,1.473,5.95,5.95,0,0,1-1.767-2.718,11.155,11.155,0,0,1,.251-8.132c.627-1.453,1.514-2.716,3.325-2.832a.766.766,0,0,0,.43-.23,1.611,1.611,0,0,1,2.5.159,7.963,7.963,0,0,1,1.846,3.259C142.781,64.778,142.783,65.015,142.979,65.163Zm29.29-1.7c.337,1.643.82,2.137,2.045,2.1a4.318,4.318,0,0,0,1.234-.216c2.542-.865,3.7-3.864,2.581-6.62a2.148,2.148,0,0,0-3.2-1.234,3.055,3.055,0,0,0-1.526,1.613c-.359.85-.656,1.726-.994,2.585A2.407,2.407,0,0,0,172.269,63.468Zm-34.544-.507a3.725,3.725,0,0,0-.936,1.785,11.444,11.444,0,0,0,.381,6.774,3.924,3.924,0,0,0,.877,1.419,1.629,1.629,0,0,0,2.842-.325,9.019,9.019,0,0,0,.939-5.391C139.277,66.994,137.97,65.568,137.725,62.961Zm20.664,2.03a8.088,8.088,0,0,0,1.392,3.978c.29.385.617.749,1.187.592.912-.252,2.429-3.147,2.115-4.038a2.07,2.07,0,0,0-.119-.221,34.694,34.694,0,0,1-2.184-5.532c-.1-.322-.14-.686-.569-.734a.981.981,0,0,0-.914.492,4.247,4.247,0,0,0-.616,1.37A11.778,11.778,0,0,0,158.388,64.991Zm-5.008-.4c-1.4.289-2.732.539-3.921-.373a4.428,4.428,0,0,1-1.541-3.614,1.612,1.612,0,0,0-.328,1.237,23.216,23.216,0,0,0,1.1,6.425,7.723,7.723,0,0,0,1.21,2.47c.827,1.083,1.88,1.066,2.555-.114A9.026,9.026,0,0,0,153.38,64.6Zm10.687-3.828c.782-4.164,1.551-8.29.739-12.492a8.721,8.721,0,0,0-.5-1.506c-.13-.331-.272-.726-.707-.739-.387-.011-.551.343-.724.626a5.3,5.3,0,0,0-.688,2.139,23.157,23.157,0,0,0,.974,9.032C163.433,58.815,163.765,59.787,164.068,60.767Zm5.451-17.073c-.946,2.036.312,11.928,1.828,14.825a1.239,1.239,0,0,0,.093-.232,29.045,29.045,0,0,0-.221-11.432A5.088,5.088,0,0,0,169.518,43.694Zm-16.405,19.67a6.066,6.066,0,0,0-2.358-3.612c-.655-.43-1.25-.243-1.368.433a2.841,2.841,0,0,0,.911,2.743A2.793,2.793,0,0,0,153.113,63.364Zm-13.35-1.491a2.31,2.31,0,0,0,1.746,3.241A6.178,6.178,0,0,0,139.763,61.873Z" transform="translate(-109.32 -36.157)" fill="#d3a375"/>
        <path id="Path_8182" data-name="Path 8182" d="M94.986,56.664c.224-.6.37-1.116.6-1.59a2.359,2.359,0,0,1,3.579-1.1,6.775,6.775,0,0,1,3.128,4.585c.993,3.8.521,7.625.06,11.437a26.634,26.634,0,0,1-.712,3.88,6.755,6.755,0,0,0,.045,3.461,121.884,121.884,0,0,1,3.4,20.464,36.7,36.7,0,0,1-.269,8.216,8.78,8.78,0,0,1-.906,2.871,4.406,4.406,0,0,1-5.851,1.931c-2.681-1.256-3.733-3.573-3.988-6.362A21.866,21.866,0,0,1,95.646,94.1c.1-.248.169-.607.554-.476.354.121.247.452.2.724-.246,1.577-.846,3.08-.974,4.682-.2,2.458-.463,4.921.453,7.308a5.029,5.029,0,0,0,2.259,2.825,2.449,2.449,0,0,0,3.8-1.629,18.307,18.307,0,0,0,.339-5.351,85.059,85.059,0,0,0-2.13-14.71c-.415-1.935-.861-3.864-1.3-5.818-.431.123-.527.446-.706.673-2.507,3.193-5.843,3.9-9.392,1.916a15.461,15.461,0,0,1-6.488-7.4,18.7,18.7,0,0,1-.013-15.807,10.3,10.3,0,0,1,5.081-5.392,6.534,6.534,0,0,1,6.929.531C94.487,56.332,94.717,56.483,94.986,56.664Zm-11.3,13.663a18.088,18.088,0,0,0,2.681,8.245,11.464,11.464,0,0,0,4.341,4.235,4.448,4.448,0,0,0,5.364-.7,10.637,10.637,0,0,0,1.845-2.279,1.668,1.668,0,0,0,.227-1.353q-.832-3.69-1.625-7.389a55.154,55.154,0,0,1-1.681-12.131.724.724,0,0,0-.246-.665,5.553,5.553,0,0,0-6.391-.359A8.649,8.649,0,0,0,84.8,62.409,18.8,18.8,0,0,0,83.684,70.327Zm16.877,2c.04-.056.088-.1.1-.143a32.285,32.285,0,0,0,.7-12.4,6.288,6.288,0,0,0-2.1-4.1c-1-.784-1.587-.536-1.723.722a17.632,17.632,0,0,0,.318,4.848c.573,3.373,1.437,6.679,2.313,9.982A2.064,2.064,0,0,0,100.561,72.329Z" transform="translate(-80.505 -42.432)" fill="#d3a375"/>
        <path id="Path_8183" data-name="Path 8183" d="M243.142,69.332a7.929,7.929,0,0,1-1.122,1.58,2.653,2.653,0,0,1-4.169-.3,7.136,7.136,0,0,1-1.115-2.248,17.808,17.808,0,0,1-.911-5.7,4.13,4.13,0,0,1,.256-1.565,1.074,1.074,0,0,1,1.03-.731,1.01,1.01,0,0,1,1,.75,7.327,7.327,0,0,1,.331,1.9,23.4,23.4,0,0,0,1.1,5.339c.164.456.243,1.1.831,1.153.63.057.954-.508,1.235-1a3.148,3.148,0,0,0,.31-2.8,12.166,12.166,0,0,1-.821-5.769,3.052,3.052,0,0,1,.341-1.118.981.981,0,0,1,1.039-.562.839.839,0,0,1,.746.882c.118,3.4,1.845,6.317,2.858,9.448.022.067.105.114.251.264.333-1.413.915-2.656.3-4.11a10.021,10.021,0,0,1-.467-6.43c.413-1.684,1.466-2.7,2.78-2.726,1.17-.024,2.339,1.088,2.783,2.648.663,2.326-.068,3.706-2.674,4.9a12.338,12.338,0,0,0,2.864,4.929c.309.318.6.18.883-.068a3.308,3.308,0,0,0,1.093-2.028c.078-.5.166-.994.24-1.492.053-.355.149-.691.576-.7.464-.013.6.345.673.721a5.244,5.244,0,0,1-.076,2.659c-.025.08-.053.16-.081.239-1.243,3.529-3.962,4.048-6.389,1.218-.271-.316-.526-.646-.842-1.037-.374,1.126-.726,2.181-1.075,3.237a1.416,1.416,0,0,0,.1.819,50.049,50.049,0,0,1,1.716,14.138,5.465,5.465,0,0,1-.288,1.649c-.619,1.74-2.237,2.1-3.464.729a9.449,9.449,0,0,1-2.136-4.681,11.652,11.652,0,0,1,.189-4.752,10.886,10.886,0,0,1,.723-2.668C245,73.686,243.947,71.621,243.142,69.332Zm2.055,6.6c-1.972,4.136-1.246,10.03,1.363,11.039C246.862,83.221,246.076,79.661,245.2,75.931Zm5.3-16.751a2.56,2.56,0,0,0-.535-1.381c-.209-.253-.443-.555-.824-.463-.336.082-.429.417-.508.712a8.343,8.343,0,0,0-.148,2.571c.033.745.459.813,1.022.632C250.275,61,250.633,60.233,250.5,59.18Z" transform="translate(-164.612 -43.53)" fill="#d3a375"/>
        <g id="Group_2895" data-name="Group 2895" transform="translate(89.153)">
          <path id="Path_8184" data-name="Path 8184" d="M274.988,31.206c.044-.751,0-1.579.916-1.874.582-.187,1.224.348,1.678,1.378a22.823,22.823,0,0,1,1.427,5.508c.646,3.858,1.26,7.72,1.614,11.619a1.58,1.58,0,0,1-.058.824.627.627,0,0,1-1.129.183,1.657,1.657,0,0,1-.269-.517,72.394,72.394,0,0,1-4.045-14.95c-.063-.5-.122-1-.161-1.5A5.3,5.3,0,0,1,274.988,31.206Z" transform="translate(-274.954 -29.295)" fill="#d3a375"/>
          <path id="Path_8185" data-name="Path 8185" d="M284.189,78.062a2.088,2.088,0,0,1,2.132-2.025,2.112,2.112,0,0,1,1.643,2.451,1.833,1.833,0,0,1-2.035,1.753A1.967,1.967,0,0,1,284.189,78.062Z" transform="translate(-279.951 -54.602)" fill="#d3a375"/>
        </g>
      </g>
    </g>
  </g>
</svg>
