<svg xmlns="http://www.w3.org/2000/svg" width="285.152" height="268.339" viewBox="0 0 285.152 268.339">
  <g id="full_potential_icon" data-name="full potential icon" transform="translate(-171.605 -52.928)">
    <g id="Layer_4" data-name="Layer 4">
      <path id="Path_772" data-name="Path 772" d="M348.647,64.259c-18.884,4.824-33.581,14.352-49.616,22.282a73.475,73.475,0,0,1-28.165,7.75c-11.951.7-22.606-.915-31.417-4.221-.023-.291.328-.354.485-.485a105.222,105.222,0,0,1,14.393-9.965c1.18-.692,2.612-1.577,4.014-2.353a6.782,6.782,0,0,1,1.384-.692,11.278,11.278,0,0,1,2.146.208,89.964,89.964,0,0,0,15.708.138,77.226,77.226,0,0,0,29.341-8.164,71.436,71.436,0,0,0,11.626-7.474A133.418,133.418,0,0,1,348.647,64.259Z" fill="#e6cbb2" fill-rule="evenodd"/>
      <path id="Path_773" data-name="Path 773" d="M315.362,61.353c.247.059-.214.381-.345.484-.558.434-1.239.881-1.868,1.315a69.368,69.368,0,0,1-20.206,9.342,85.83,85.83,0,0,1-30.379,2.7,4.5,4.5,0,0,1,1.314-.761,128.158,128.158,0,0,1,43.181-12.389c1.226-.135,2.468-.258,3.737-.345C312.31,61.594,313.808,61.432,315.362,61.353Z" fill="#e6cbb2" fill-rule="evenodd"/>
      <path id="Path_774" data-name="Path 774" d="M369.476,70.694c-10.63,1.93-20.063,4.951-27.542,9.9-3.32,2.2-7.528,5.517-8.442,10.241a9.619,9.619,0,0,0,1.592,7.474,9.1,9.1,0,0,0,6.021,3.321,26.437,26.437,0,0,0,8.718-.138,55.275,55.275,0,0,0,7.543-1.8c9.674-2.965,18.2-6.358,29.756-7.612a82.371,82.371,0,0,1,13.286-.484,18.151,18.151,0,0,1,4.222.415,7.5,7.5,0,0,1,1.87,1.523,130.822,130.822,0,0,1,10.1,9.826,8.884,8.884,0,0,1,1.453,1.731,120.089,120.089,0,0,0-12.178-1.938,130.377,130.377,0,0,0-13.563-.553c-8.811,0-17.646,1.614-25.12,3.114-7.779,1.56-15.471,3.349-23.182,5.052-7.8,1.721-15.663,3.216-23.735,4.5-15.5,2.461-35.292,4.4-52.177,1.522-16.081-2.735-29.777-7.964-40.758-15.708a94.1,94.1,0,0,1,10.587-9.827,75.492,75.492,0,0,0,32.455,4.775,78.516,78.516,0,0,0,29.483-7.964c4.166-2.048,8.232-4.272,12.317-6.436s8.124-4.466,12.317-6.435c4.271-2.006,8.638-3.83,13.149-5.6a84.7,84.7,0,0,1,14.459-4.222,6.128,6.128,0,0,1,2.629.415A133.945,133.945,0,0,1,369.476,70.694ZM313.77,98.928a28.129,28.129,0,0,1-9.758.415,6.675,6.675,0,0,0-3.6.138,3.115,3.115,0,0,0-1.315,3.737c.38,1.015,1.541,1.663,2.63,2.284a16.969,16.969,0,0,0,3.391,1.522,30.345,30.345,0,0,0,17.232-.345c2.147-.794,5-2.373,4.981-4.844a3.689,3.689,0,0,0-1.937-3.045c-1.534-.96-4.158-1.116-5.951-.968A41.017,41.017,0,0,0,313.77,98.928Z" fill="#e6cbb2" fill-rule="evenodd"/>
      <path id="Path_775" data-name="Path 775" d="M402.208,90A89.9,89.9,0,0,0,369.2,94.154c-4.681,1.434-9.277,3.138-14.325,4.5-4.418,1.191-11.7,2.627-16.193.484-2.328-1.11-3.912-3.719-3.6-7.335A9.454,9.454,0,0,1,337.3,86.89c3.077-3.875,7.83-6.621,12.526-8.719a84.141,84.141,0,0,1,22.214-6.09,5.4,5.4,0,0,1,2.49.762,130.8,130.8,0,0,1,20.968,12.041c1.192.821,2.394,1.638,3.529,2.492A29.981,29.981,0,0,1,402.208,90Z" fill="#e6cbb2" fill-rule="evenodd"/>
      <path id="Path_776" data-name="Path 776" d="M320.132,99.482c1.872-.1,5.354.294,5.467,2.283.06,1.05-1.106,1.907-1.938,2.422-4.256,2.639-12.783,2.77-18.268,1.107-1.374-.417-3.346-.947-4.291-2.146a1.541,1.541,0,0,1-.415-1.591c.447-1.2,3.32-.544,4.637-.415a28.974,28.974,0,0,0,9.965-.831A26.689,26.689,0,0,1,320.132,99.482Z" fill="#e6cbb2" fill-rule="evenodd"/>
      <path id="Path_777" data-name="Path 777" d="M226.094,102.318c11.317,7.847,25.017,13.371,41.451,16.055a131.422,131.422,0,0,0,27.057,1.314c18.309-.865,34.255-3.925,50.171-7.335,7.872-1.687,15.646-3.627,23.527-5.19a130.034,130.034,0,0,1,25.811-2.907,115.935,115.935,0,0,1,22.837,2.353,16.936,16.936,0,0,1,2.906.623c.712.31,1.548,1.631,2.076,2.284a15.252,15.252,0,0,1,1.66,2.146c.016.027.34.218,0,.208-10.562-1.757-20.5-4.236-32.662-3.53a85.618,85.618,0,0,0-15.639,2.56,119.621,119.621,0,0,0-13.7,4.5,153.076,153.076,0,0,0-24.7,11.695c-3.788,2.278-7.393,4.759-11,7.2-7.244,4.891-14.7,9.659-23.113,13.356a46.2,46.2,0,0,1-14.256,3.944,56.4,56.4,0,0,1-16.746-.9c-20.037-4.031-34.341-14.152-48.232-24.566-1.746-1.309-3.415-2.678-5.121-4.014a50.974,50.974,0,0,1-4.983-4.082A132.065,132.065,0,0,1,226.094,102.318Z" fill="#e6cbb2" fill-rule="evenodd"/>
      <path id="Path_778" data-name="Path 778" d="M435.563,130.206c-6.145,13.234-15.571,22.959-26.988,30.863-7.528,5.212-16.252,9.427-24.982,13.563-6.559,3.109-12.761,6.387-18.2,10.657-5.31,4.17-10.4,9.009-13.561,15.294a15.062,15.062,0,0,0-1.8,7.889,9.816,9.816,0,0,0,3.113,6.5c3.219,3.151,8.4,4.541,15.017,3.668a71.887,71.887,0,0,0,15.225-4.083c9.518-3.444,17.737-7.9,26.435-12.11q6.479-3.137,13.009-6.228c2.166-1.021,4.287-2.12,6.505-3.114a102.362,102.362,0,0,1,21.382-7.335,93.963,93.963,0,0,1,0,10.588,83.858,83.858,0,0,0-17.646,3.6,232.7,232.7,0,0,0-30.239,12.11c-4.8,2.236-9.419,4.734-14.117,7.059-4.731,2.339-9.429,4.736-14.256,6.989a216.421,216.421,0,0,1-65.671,19.1,186.306,186.306,0,0,1-40.066.76,117.967,117.967,0,0,1-17.923-3.251c-19.353-5.132-35.858-13.525-51-23.113-1.563-.99-3.219-2.09-4.844-3.114-.636-.4-1.575-.669-1.869-1.314a14.907,14.907,0,0,1-.484-2.838,128.3,128.3,0,0,1-1.73-21.176c9.982,2.722,17.537,7.841,25.188,12.734,3.845,2.459,7.57,5.081,11.349,7.613a104.763,104.763,0,0,0,11.764,7.2,64.2,64.2,0,0,0,13.979,4.981,38.639,38.639,0,0,0,8.511.97,29.69,29.69,0,0,0,8.3-1.177,22.675,22.675,0,0,0,11.626-7.335,17.109,17.109,0,0,0,3.048-14.809,28.251,28.251,0,0,0-6.574-12.388C266.27,175.383,247.736,168.7,233.085,158.1c-1.841-1.333-3.558-2.747-5.259-4.222A54.862,54.862,0,0,1,214.954,138.3a52.532,52.532,0,0,1-5.12-13.771c-.027-.125-.143-.432-.139-.484a8.243,8.243,0,0,1,1.315-2.284c.506-.818.962-1.445,1.384-2.214A274.35,274.35,0,0,0,240.488,139.9a93.482,93.482,0,0,0,22.075,10.172c8.037,2.468,17.782,4.564,28.164,2.976,9.177-1.4,16.269-5.271,23.113-9.2,3.414-1.962,6.737-4,9.965-6.159,6.478-4.338,12.86-8.731,19.79-12.457a177.856,177.856,0,0,1,22.491-9.757A88.62,88.62,0,0,1,392.866,110c8.987-.418,16.906,1.194,24.427,2.491,1.237.214,2.563.394,3.876.623a29.224,29.224,0,0,1,3.737.692,1.184,1.184,0,0,1,.693.415,22.2,22.2,0,0,1,1.314,1.938A110.942,110.942,0,0,1,435.563,130.206Zm-38.2-15.778a20.708,20.708,0,0,0-3.183,1.107,27.112,27.112,0,0,0-13.217,12.6,31.859,31.859,0,0,0-3.53,9.341c-.213,1.148-.277,2.423-.553,3.737a12.911,12.911,0,0,1-2.7,5.882c-1.379,1.688-3.089,2.836-3.807,4.844-1.118,3.127,1.346,6.76,3.392,7.75,3.161,1.53,7.322.765,10.311-.347,6.218-2.312,10.026-6.514,13.356-11.556,1.667-2.526,3.124-5.229,4.914-7.543,1.724-2.229,4.118-4.061,6.3-6.159a15.106,15.106,0,0,0,4.636-7.82,10.88,10.88,0,0,0-.139-5.536c-1.411-4.587-6.337-7.179-11.9-6.85a21.152,21.152,0,0,0-3.878.556Zm-36.885,9.065a19.2,19.2,0,0,0-3.182,2.768c-1.573,1.732-3.9,4.952-4.153,7.82a5.7,5.7,0,0,0,.139,1.938c1.01,2.9,5,1.753,7.128.416a20.8,20.8,0,0,0,6.158-6.366,11.79,11.79,0,0,0,1.8-4.5c.4-2.782-1.224-4.261-3.668-3.945a9.78,9.78,0,0,0-4.22,1.87Z" fill="#e6cbb2" fill-rule="evenodd"/>
      <path id="Path_779" data-name="Path 779" d="M400.894,115.606c4.666-.345,8.735,1.406,10.242,4.568a8.026,8.026,0,0,1,.76,3.529,11.71,11.71,0,0,1-2.214,6.713,25.556,25.556,0,0,1-4.428,4.5,29.356,29.356,0,0,0-4.429,4.5c-1.21,1.607-2.344,3.5-3.529,5.4-3.556,5.687-7.006,10.492-13.84,12.939-1.991.714-5.2,1.65-7.613.969-.169-.048-.4-.236-.693-.346a4.731,4.731,0,0,1-.968-.346,6.717,6.717,0,0,1-1.661-1.938,4.807,4.807,0,0,1-.762-2.837c.179-1.934,2.451-3.589,3.529-4.845a13.741,13.741,0,0,0,2.837-5.467c.689-2.405.906-4.913,1.453-6.92a31.072,31.072,0,0,1,2.353-5.951,27.694,27.694,0,0,1,7.2-9.48,22.139,22.139,0,0,1,8.1-4.36A18.791,18.791,0,0,1,400.894,115.606Z" fill="#e6cbb2" fill-rule="evenodd"/>
      <path id="Path_780" data-name="Path 780" d="M365.049,123.287c1.173-.113,1.811.364,1.659,2.007a9.594,9.594,0,0,1-1.659,4.014,18.143,18.143,0,0,1-5.607,5.744c-.926.571-3.259,1.711-4.221.9-.99-.836-.029-3.2.415-4.152a16.024,16.024,0,0,1,2.007-3.322,16.473,16.473,0,0,1,5.883-4.844A5.056,5.056,0,0,1,365.049,123.287Z" fill="#e6cbb2" fill-rule="evenodd"/>
      <path id="Path_781" data-name="Path 781" d="M208.38,126.055c.058-.013.065.028.069.07,4.992,19.956,18.463,30.97,34.323,40.2,11.6,6.753,24.215,13.01,33.146,22.766a28.006,28.006,0,0,1,6.851,11.765,17.5,17.5,0,0,1,.346,8.3c-1.655,7.2-7.888,11.268-14.947,13.008-5.454,1.346-11.386.7-16.4-.553a57.237,57.237,0,0,1-13.356-5.258c-8.073-4.339-15.1-9.837-22.629-14.672s-15.247-9.711-24.912-12.317a125.063,125.063,0,0,1,2.145-21.452c.13-.243.284.244.415.415,1.041,1.36,2.187,2.831,3.391,4.152,1.369,1.5,2.92,2.851,4.359,4.29,2.888,2.888,5.978,5.711,9.065,8.235a54.184,54.184,0,0,0,10.311,6.989c3.37,1.694,9.075,4.153,13.7,2.284,2.875-1.162,4.172-4.029,2.768-7.682a23.253,23.253,0,0,0-4.637-6.989,77.94,77.94,0,0,0-5.951-5.744c-2.042-1.855-4.062-3.741-6.09-5.536-4.009-3.549-8.188-7.316-11.487-11.833a59.386,59.386,0,0,1-7.127-13.217,10.663,10.663,0,0,1-.762-2.146,8.189,8.189,0,0,1,.831-2.006A136.818,136.818,0,0,1,208.38,126.055Z" fill="#e6cbb2" fill-rule="evenodd"/>
      <path id="Path_782" data-name="Path 782" d="M450.648,184.045a113.759,113.759,0,0,0-27.611,10.173c-4.209,2.118-8.508,4.035-12.733,6.158-8.4,4.224-16.635,8.346-25.812,11.9a76.159,76.159,0,0,1-14.531,4.359,27.85,27.85,0,0,1-8.65.415,12.47,12.47,0,0,1-6.5-2.9,7.942,7.942,0,0,1-3.114-6.3,15.349,15.349,0,0,1,2.071-7.327,39.875,39.875,0,0,1,8.511-10.38,69.657,69.657,0,0,1,10.8-8.1,128.156,128.156,0,0,1,12.456-6.435c4.254-2,8.526-4.058,12.6-6.228,12.429-6.632,22.975-14.836,31.209-25.466a56.174,56.174,0,0,0,5.536-8.58c.517-1,.984-2.085,1.592-3.114.029-.05.026-.323.138-.139A129.533,129.533,0,0,1,450.648,184.045Z" fill="#e6cbb2" fill-rule="evenodd"/>
      <path id="Path_783" data-name="Path 783" d="M199.937,143.493c.059-.013.066.026.069.069a64.182,64.182,0,0,0,7.2,13.493,69.461,69.461,0,0,0,9.965,10.727c3.514,3.225,7.21,6.416,10.865,9.826,2.658,2.48,5.257,5.025,6.989,8.581a6.5,6.5,0,0,1,.831,4.153c-.378,1.7-2,2.629-3.945,2.838A16.039,16.039,0,0,1,224.784,192c-6-2.138-10.785-6-15.086-9.688-3.019-2.592-5.883-5.261-8.581-7.959a56.357,56.357,0,0,1-7.681-8.857A136.426,136.426,0,0,1,199.937,143.493Z" fill="#e6cbb2" fill-rule="evenodd"/>
      <path id="Path_784" data-name="Path 784" d="M452.157,198.092c.319.3.089.782.07,1.108a123.641,123.641,0,0,1-6.713,33.977c-.926,2.627-1.785,5.187-2.836,7.682a134.449,134.449,0,0,1-10.8,20.69c-1.7-1.185-3.895-1.476-6.09-1.8-2.258-.333-4.658-.647-7.058-.762a100.331,100.331,0,0,0-14.948.623c-9.384,1-18.556,2.614-27.263,4.083-8.861,1.5-17.854,3.038-26.919,4.429-9.16,1.4-18.424,2.748-27.75,3.6-18.6,1.7-40.193,2.887-59.719,1.176a155.719,155.719,0,0,1-44.15-10.727,56.543,56.543,0,0,1-5.536-2.283,1.728,1.728,0,0,1-.692-.485,16.056,16.056,0,0,1-.83-1.453,98.708,98.708,0,0,1-5.4-10.1,38.279,38.279,0,0,1,12.249,2.283c3.684,1.166,7.331,2.37,10.863,3.668a53.86,53.86,0,0,0,5.468,1.8,13.663,13.663,0,0,0,6.366.345A4.179,4.179,0,0,0,244,252.21c.112-2.048-1.313-3.6-2.629-4.638-2.593-2.048-6.4-3.307-10.1-4.427-3.642-1.1-7.691-2.27-11.28-3.253-6.539-1.79-13.307-3.558-18.753-6.712-.317-.183-.721-.453-1.107-.692-.647-.4-1.1-.518-1.315-1.107-.734-2.062-1.312-4.317-1.938-6.574-.638-2.3-1.114-4.688-1.591-6.921-.031-.285.3.014.277,0,.9.452,1.914,1.231,2.837,1.8,7.55,4.647,15.218,9.352,23.527,13.426a154.355,154.355,0,0,0,30.8,11.411,129.353,129.353,0,0,0,17.992,3.183c20.019,2.05,41.032-.231,57.99-3.807a215.046,215.046,0,0,0,47.4-15.984c4.8-2.253,9.564-4.493,14.256-6.852,4.653-2.341,9.311-4.717,14.047-7.057,4.714-2.333,9.615-4.437,14.6-6.506a147.711,147.711,0,0,1,23.735-7.957A84.72,84.72,0,0,1,452.157,198.092Z" fill="#e6cbb2" fill-rule="evenodd"/>
      <path id="Path_785" data-name="Path 785" d="M198.207,234.425c-.013-.059.027-.066.069-.07,6.163,3.853,14.3,5.58,22.214,7.889,3.747,1.093,7.926,2.157,11.626,3.46a29.347,29.347,0,0,1,5.19,2.351c1.34.791,3.505,2.239,3.39,4.083-.1,1.6-1.853,2.288-3.737,2.353a15.764,15.764,0,0,1-5.19-.83c-2.987-.88-5.937-2.082-8.927-3.115-6.2-2.14-11.721-4.317-19.721-4.428a4.781,4.781,0,0,1-.762-1.316C200.9,241.55,199.514,237.9,198.207,234.425Z" fill="#e6cbb2" fill-rule="evenodd"/>
      <path id="Path_786" data-name="Path 786" d="M418.124,277.329c.238.071-.062.267-.07.275a29.436,29.436,0,0,1-2.006,2.216A130.466,130.466,0,0,1,398.125,295.8c-4.069-2.5-9.034-4.749-12.941-7.751a12.817,12.817,0,0,1-3.46-3.391,4.98,4.98,0,0,1,.691-5.4c2.128-2.523,6.1-4.026,10.311-4.221,4.141-.192,8.5.746,12.663,1.315A99.59,99.59,0,0,0,418.124,277.329Z" fill="#e6cbb2" fill-rule="evenodd"/>
      <path id="Path_787" data-name="Path 787" d="M388.991,301.961a131.571,131.571,0,0,1-23.459,11.422c-1.7-3.668-4.7-6.5-7.82-9a40.159,40.159,0,0,0-10.725-6.09,89.706,89.706,0,0,0-28.165-5.466c-22.5-1.025-38.377,6.917-49.271,17.854a127.678,127.678,0,0,1-26.987-15.639,30.5,30.5,0,0,1-3.322-2.7,171.257,171.257,0,0,1,45.88-9.827c2.465-.19,4.959-.226,7.542-.347a185.222,185.222,0,0,1,27.888,1.246,204.217,204.217,0,0,1,24.773,4.221c7.857,1.845,15.269,4.229,22.491,6.5A174.836,174.836,0,0,1,388.991,301.961Z" fill="#e6cbb2" fill-rule="evenodd"/>
      <path id="Path_788" data-name="Path 788" d="M363.941,313.864a108.863,108.863,0,0,1-14.879,4.29,2.314,2.314,0,0,1-.484-1.038c-.8-2.256-2.128-4.873-4.014-6.159a6.8,6.8,0,0,0-6.642-.624,6.412,6.412,0,0,0-1.384,1.039c-2.219,2.189-2.7,5.98-3.875,9.341a125.848,125.848,0,0,1-20.138.277c1.453-4.417,6.11-6.3,10.171-8.3a24.907,24.907,0,0,0,3.944-2.145,3.7,3.7,0,0,0,1.732-3.53,4.241,4.241,0,0,0-1.868-2.561c-2.517-1.645-7.021-2.136-11-1.8-12.019,1.019-20,6.515-24.012,15.224a132.2,132.2,0,0,1-20.138-6.367c.084-.444.539-.678.83-.968A54.15,54.15,0,0,1,289.07,299.4a61.239,61.239,0,0,1,17.923-4.5c2.251-.242,4.577-.3,7.058-.415a86.009,86.009,0,0,1,16.262,1.176,72.19,72.19,0,0,1,13.91,3.39,42.508,42.508,0,0,1,11.417,5.883C358.924,307.463,362.041,310.216,363.941,313.864Z" fill="#e6cbb2" fill-rule="evenodd"/>
      <path id="Path_789" data-name="Path 789" d="M310.727,320.853a125.657,125.657,0,0,1-17.508-2.56,23.013,23.013,0,0,1,8.719-9.9,25.547,25.547,0,0,1,6.643-2.7c4.206-1.179,9.3-2.094,14.187-.9,1.5.368,3.928,1.173,3.944,2.7.014,1.351-1.893,2.189-3.046,2.768C318.429,312.9,312.606,315,310.727,320.853Z" fill="#e6cbb2" fill-rule="evenodd"/>
      <path id="Path_790" data-name="Path 790" d="M347.263,318.569a120.992,120.992,0,0,1-12.663,1.938c.807-2.867,1.372-6.349,3.322-8.1a3.963,3.963,0,0,1,3.183-.968C344.742,311.815,346.18,315.458,347.263,318.569Z" fill="#e6cbb2" fill-rule="evenodd"/>
      <path id="Path_791" data-name="Path 791" d="M211.977,262.31c.014-.079.07-.038.069,0A162.271,162.271,0,0,0,261.525,274.7c19.3,1.61,40.385.521,58.958-1.314,18.5-1.829,36.241-4.993,53.975-7.889,8.6-1.4,17.624-3.063,26.85-4.083a94.618,94.618,0,0,1,14.6-.69c2.442.116,4.8.313,7.127.622,2.182.291,4.428.4,6.228,1.453a1.886,1.886,0,0,1-.415.9,116.956,116.956,0,0,1-7.89,10.449c-.425.5-.893,1.335-1.315,1.453a12.692,12.692,0,0,1-2.629,0c-5.877,0-11.461-.961-16.537-1.66a37.732,37.732,0,0,0-9.62-.485,16.008,16.008,0,0,0-7.543,2.838c-2.084,1.464-4.048,3.563-3.875,6.572.17,2.953,2.429,4.757,4.22,6.159,3.9,3.053,8.536,5.3,12.941,7.82a9.416,9.416,0,0,1-1.453,1.107c-1.42,1.005-2.967,2.053-4.568,2.976a112.516,112.516,0,0,0-16.537-6.506,292.783,292.783,0,0,0-35.916-10.1c-6.431-1.294-13.107-2.177-20.067-2.906a191.1,191.1,0,0,0-43.457.484,171.466,171.466,0,0,0-36.814,9.2,2.1,2.1,0,0,1-.968-.623,134.714,134.714,0,0,1-19.1-20.067C215.7,267.8,213.779,265.005,211.977,262.31Z" fill="#e6cbb2" fill-rule="evenodd"/>
    </g>
    <g id="OBJECTS">
      <path id="Path_11012" data-name="Path 11012" d="M351.086,134.965c-5.725,10.7-17.138,29.589-36.968,44.859-26.158,20.142-53.609,24.358-66.3,25.991-.059,8.058.2,15.981.144,24.039,16.876-3.033,47.73-9.811,77.623-33.089,17.831-13.885,30.033-30.348,37.769-41.876C359.239,148.242,355.2,141.612,351.086,134.965Z" fill="#2e578a" fill-rule="evenodd"/>
      <path id="Path_11013" data-name="Path 11013" d="M365.515,193.487a96.05,96.05,0,0,1-25.456,47.278c-19.4,19.461-41.561,23.61-49.651,25.045-1.061,8.215-1.934,16.619-2.994,24.833,8.094-.456,39.512-2.484,64.645-28.349,16.454-16.933,22.412-36.546,24.594-45.736C372.889,208.794,369.28,201.252,365.515,193.487Z" fill="#2e578a" fill-rule="evenodd"/>
      <path id="Path_11014" data-name="Path 11014" d="M280.24,94.853a79.6,79.6,0,0,1-63.088,52.677q-2.734,11.6-5.47,23.206c12.695-2.9,37.59-8.086,58.558-24.493,12.994-10.168,18.232-22.462,24.206-31.007Q287.343,105.044,280.24,94.853Z" fill="#2e578a" fill-rule="evenodd"/>
      <g id="Group_3783" data-name="Group 3783">
        <path id="Path_11015" data-name="Path 11015" d="M314.654,93.074c-3.048-2.2-1.913-8.176,1.876-9.214,7.066-1.936,16.842,3.781,8.924,11.911C325.454,95.771,319.231,96.377,314.654,93.074Z" fill="#7a6236"/>
        <path id="Path_11016" data-name="Path 11016" d="M308.916,126.819s-12.623,31.378-27.534,47.86S246.6,221.46,246.839,256.122c0,0,22.461-11.29,32.561-6.251s41.634,16.674,74.333,6.251c15.418-4.914,30.3-24.966,30.3-24.966s-42.278-42.176-47.338-104.908Z" fill="#fff"/>
        <path id="Path_11017" data-name="Path 11017" d="M371.807,244.531a39.308,39.308,0,0,0-2.3-7.571c-19.714-48.478-42.542-72.15-37.43-107.5l-14.949-2.811-4.2.087c-2.018,5.951-14.886,42.95-29.715,64.007-14.06,19.966-19.957,42.867-9.579,57.847a14.011,14.011,0,0,1,5.758,1.28c10.1,5.039,41.634,16.674,74.333,6.251C360.206,254.059,366.585,249.327,371.807,244.531Z" fill="#f4f4f4"/>
        <path id="Path_11018" data-name="Path 11018" d="M309.936,126.249a4.406,4.406,0,0,1,.99-.654,29.975,29.975,0,0,1,4.221-1.285l14.544-.242s4.469.315,5.09.848c0,0,.121,21.451-7.393,35.631,0,0-6.971,9.938-16.817.485,0,0,.184-12.679,0-22.3-.074-3.878-.307-6.77-.469-8.958C310.008,128.5,309.936,126.249,309.936,126.249Z" fill="#dcb793"/>
        <path id="Path_11019" data-name="Path 11019" d="M312.585,133.112c-.9.2-1.342,1.026-2.086,3.143-1.139,3.24-2.423,6-1.983,8.335,1.42,7.547,9.54,5.656,12.024,4.02a.984.984,0,0,1,1.212.06c.728.485,7.257,4.722,11.256.391,1.766-1.911,2.563-7.307.927-11.912a12.2,12.2,0,0,0-1.214-2.78S324.584,130.385,312.585,133.112Z" fill="#dcb793"/>
        <path id="Path_11020" data-name="Path 11020" d="M318.5,129.461l.814,6.387a3.055,3.055,0,0,1-3.03,3.442h0l4.753,6.181,6.233-6.086h0a2.787,2.787,0,0,1-2.648-3.443l1.7-7Z" fill="#fff"/>
        <path id="Path_11021" data-name="Path 11021" d="M325.8,114.969s-.113,5.584.614,6.917,3.273,2.182,3.273,2.182-2.182,5.938-7.151,6.665-7.393-6.423-7.393-6.423a32.158,32.158,0,0,0,3.394-1.939c.969-.727.532-6.43.532-6.43S324.016,117.05,325.8,114.969Z" fill="#f3bd98"/>
        <path id="Path_11022" data-name="Path 11022" d="M318.218,191.452s3.555,30.218,8.079,39.59a54.5,54.5,0,0,1,2.747,9.858c1.132,5.979,11.8,26.824,14.059,33.45,1.845,5.4,3.582,11.34,3.284,15.276a5.762,5.762,0,0,0,2.171,5.055l.039.029c1.293.97,3.878,6.787,10.019,7.11,0,0-5.494-11.957-6.625-13.735s-4.363-30.864-4.848-39.429S337.124,226.2,336.962,222.64s.485-29.087-1.939-34.42S319.671,181.155,318.218,191.452Z" fill="#f3bd98"/>
        <path id="Path_11023" data-name="Path 11023" d="M296.887,186.443c3.253-3.4,17.08.646,17.549,5.494s1.56,32,1.075,38.055a44.1,44.1,0,0,0,.606,12.9c1.454,7.583.121,24.793,1.575,33.519s2.061,11.029,2.182,14.18-3.394,13.331-5.817,12.6-1.94-2.787-1.94-3.636,4-8.726,2.788-13.453-14.665-29.086-13.937-42.418,2.666-13.574,1.333-20.482S294.221,189.23,296.887,186.443Z" fill="#f3bd98"/>
        <path id="Path_11024" data-name="Path 11024" d="M317.441,274.584c-1.039-9.122.035-24.608-1.324-31.693a44.1,44.1,0,0,1-.606-12.9c.485-6.06-.606-33.207-1.075-38.055a4.56,4.56,0,0,0-1.813-2.858l-15.411-2.924a2.809,2.809,0,0,0-.325.288c-1.212,1.267-.478,7.554.808,14.682a57.288,57.288,0,0,0,8.715,3.516c5.7,1.7,6.666.849,7.514,5.212s.727,20.919,0,25.184,1.687,17.478,1.51,24.749C315.352,263.159,316.349,269.14,317.441,274.584Z" fill="#e89c8e"/>
        <path id="Path_11025" data-name="Path 11025" d="M347.143,248.656c-.485-8.564-10.019-22.461-10.181-26.016s.485-29.087-1.939-34.42-15.352-7.065-16.805,3.232c0,0,1.361,11.565,3.47,22.605,0-.031-.734-8.448-.411-9.173s11.311-.97,13.008-2.828-.162,19.553.808,22.461,9.536,18.573,13.731,42.031C348.021,259.329,347.344,252.218,347.143,248.656Z" fill="#e89c8e"/>
        <path id="Path_11026" data-name="Path 11026" d="M305.331,270.956" fill="none" stroke="#231f20" stroke-miterlimit="10" stroke-width="1"/>
        <path id="Path_11027" data-name="Path 11027" d="M320.8,290.913c-.323-1.454-1.456-4.944-1.456-4.944h0c-.349-2.1-.882-4.923-1.655-9.559-1.454-8.726-.121-25.936-1.575-33.519-.062-.325-.123-.655-.181-.99,0,0-3.455,3.6-7.333,3.483a24.6,24.6,0,0,1-7.635-1.7c-.728,13.332,12.725,37.692,13.937,42.418s-8.322,20.482-1.939,20.967c2.9.221,4.49-1.887,5.252-2.747.969-1.094,1.05-3.8,1.05-3.8.091,1.515.067,1.939.329,2.183.438.406,1.206-.123,1.206-.123C320.884,301.053,321.126,292.367,320.8,290.913Z" fill="#366196"/>
        <path id="Path_11028" data-name="Path 11028" d="M356.306,296.85h0c-1.646-3.51-3.676-7.76-4.315-8.764-1.131-1.778-4.363-30.864-4.848-39.429-.222-3.922-2.343-8.962-4.592-13.616v0s-3.487,6.347-6.395,6.864-7.111-1-7.111-1c1.132,5.979,11.8,26.824,14.059,33.45a63.641,63.641,0,0,1,3.183,12.244c-.01.063-.842,4.98-1.2,7.268-.364,2.3,1.333,3.515,1.939,8.726h.848a.606.606,0,0,0,.606-.606v-5.333a20.174,20.174,0,0,1,3.636,5.171c1.091,2.586,9.332,2.586,9.332,1.411A37.892,37.892,0,0,1,356.306,296.85Z" fill="#366196"/>
        <path id="Path_11029" data-name="Path 11029" d="M342.551,235.04v0s-3.487,6.347-6.395,6.864-7.111-1-7.111-1a21.52,21.52,0,0,0,.839,2.89c2.139,1.017,5.791,2.523,8.534,2.442,1.866-.055,3.93-3.84,5.631-7.964C343.569,237.184,343.064,236.1,342.551,235.04Z" fill="#088cea"/>
        <path id="Path_11030" data-name="Path 11030" d="M342.543,234.708l0,0s-3.5,6.535-6.43,7.067-7.149-1.031-7.149-1.031a22.355,22.355,0,0,0,.843,2.976c2.15,1.047,5.823,2.6,8.581,2.514,1.876-.056,3.952-3.954,5.662-8.2C343.567,236.916,343.059,235.8,342.543,234.708Z" fill="#dcb793"/>
        <path id="Path_11031" data-name="Path 11031" d="M316.115,242.54q-.093-.511-.182-1.04s-3.471,3.785-7.367,3.658a23.836,23.836,0,0,1-7.67-1.782,25.46,25.46,0,0,0,.079,3.506c2.729,1.149,7.671,3.076,9.952,2.986,1.361-.053,3.525-2.04,5.577-4.324C316.4,244.437,316.277,243.423,316.115,242.54Z" fill="#dcb793"/>
        <path id="Path_11032" data-name="Path 11032" d="M310.571,161.032s-20.39,11.392-19.663,34.783c0,0,25.694,18.422,47.509,0a141.821,141.821,0,0,0-11.029-35.268Z" fill="#d3a375"/>
        <path id="Path_11033" data-name="Path 11033" d="M309.936,126.249s-19.088,10.605-28.239,17.089a5.862,5.862,0,0,0,6.181,2.908c4.182-.848,18.058-9.15,24.421-10.483C312.3,135.763,313.935,126.128,309.936,126.249Z" fill="#dcb793"/>
        <path id="Path_11034" data-name="Path 11034" d="M281.7,143.338s4.549-3.384,10.213,1.4c0,0,.877,10.661,5,15.508a8.917,8.917,0,0,1-4.666,4.363S279.213,148.064,281.7,143.338Z" fill="#dcb793"/>
        <path id="Path_11035" data-name="Path 11035" d="M334.781,124.916c1.3.2,4.565,4.161,6.625,6.625s15.594,17.9,16.4,18.5c0,0-3.6,4.4-10.18-.768S335.145,137.6,332.4,136.066C332.4,136.066,330.66,124.27,334.781,124.916Z" fill="#dcb793"/>
        <path id="Path_11036" data-name="Path 11036" d="M338.417,163.153s6.772-6.078,9.211-13.877c0,0,7.393-.828,10.18.768,0,0,.545.2,0,2.08s-6.363,10.665-16.3,16.3A8.634,8.634,0,0,1,338.417,163.153Z" fill="#dcb793"/>
        <path id="Path_11037" data-name="Path 11037" d="M357.971,151.46c-2.442-.468-6.643-1.379-8.415-2.4-2.573-1.48-16.835-14.692-16.835-14.692,1.344,2.849,2.9,11.707-1.214,13.719-4.9,2.4-6.622-1.471-10.856-1.653-3.409-.145-8.484,3.6-10.533-.359s1.786-11.647,1.786-11.647c-1.858,2.181-20.958,7.706-21.015,8.888-.1,2.1-5.946,2.4-9.366,2.78,1.241,6.471,10.718,18.51,10.718,18.51a8.921,8.921,0,0,0,4.667-4.363c-4.121-4.847-5-15.508-5-15.508h0c5.285-2.385,13.379-6.8,18.588-8.48h0c-1.138,3.24-2.422,6-1.982,8.334a6.751,6.751,0,0,0,2.137,4.048c0,6.672-.082,12.394-.082,12.394,9.846,9.453,16.817-.485,16.817-.485a52.179,52.179,0,0,0,3.962-10.212,5.938,5.938,0,0,0,1.658-1.274c1.766-1.911,2.563-7.307.927-11.912h0c3.1,2.485,8.153,7.777,13.693,12.127-2.439,7.8-9.211,13.877-9.211,13.877a8.249,8.249,0,0,0,2.268,4.512l2.238-.084c9.072-5.63,14.366-13.669,14.885-15.457C357.881,151.873,357.933,151.654,357.971,151.46Z" fill="#d3a375"/>
        <path id="Path_11038" data-name="Path 11038" d="M325.08,129.34a4.485,4.485,0,0,1-5.7.121c-1.467-1.082-3.9-5.28-3.9-5.28H315.4l-.257.13s2.424,7.151,7.393,6.423,7.151-6.665,7.151-6.665C327.2,126.23,326.993,127.871,325.08,129.34Z" fill="#e89c8e"/>
        <path id="Path_11039" data-name="Path 11039" d="M303.937,163.456a10.361,10.361,0,0,0-2.606-2.363c-.424-.3-1.03-1.212-1.575-1.394a9.855,9.855,0,0,0-2.849.545c-2.61-3.769-4.1-12.955-4.1-12.955-5.822-2.906-13.412.323-13.412.323,1.454,4.767,6.012,9.42,9.438,13.285,1.943,2.193,3.4,3.71,3.4,3.71,1.248,1.641,2.97,4.424,4.424,5.22s1.879-.129,2.363-.008a1.665,1.665,0,0,0,1.818-.758c.129-.216.545-.711.794-.723.49-.023.9-.32,1.041-1.045.178-.886.8-.763,1.256-1.182S304.3,164.244,303.937,163.456Z" fill="#366196"/>
        <path id="Path_11040" data-name="Path 11040" d="M296.518,159.634l-.555,4.057-4.166.432c.284.311.444.484.444.484.116.152.237.316.36.485h5.064l-.163-5.023c-.348.1-.6.175-.6.175C296.776,160.055,296.647,159.848,296.518,159.634Z" fill="#088cea"/>
        <path id="Path_11041" data-name="Path 11041" d="M346.7,150.5c-4.045,8.874-8.255,12.624-8.285,12.651a.745.745,0,0,0-.3-.142,9.855,9.855,0,0,0-2.612-1.258c-.574.035-1.393.758-1.881.942a10.347,10.347,0,0,0-3.125,1.615c-.554.668-1.015,2.044-.682,2.566s.965.563.91,1.465a1.106,1.106,0,0,0,.738,1.277c.237.075.513.661.581.9a1.664,1.664,0,0,0,1.563,1.2c.5.007.672,1.01,2.282.615s3.988-2.644,5.615-3.909c11.105-4.8,17.74-15.8,17.74-15.8C354.036,149.652,346.7,150.5,346.7,150.5Z" fill="#366196"/>
        <path id="Path_11042" data-name="Path 11042" d="M338.159,166.5l1.1-4.2c-.522.566-.831.842-.839.849a.745.745,0,0,0-.3-.142l-.129-.08-1.734,4.665,4.514,1.424c.258-.212.506-.414.738-.594.083-.036.164-.075.247-.112Z" fill="#dcb793"/>
        <path id="Path_11043" data-name="Path 11043" d="M359.247,152.622c-5.211-2.97-12.544-2.121-12.544-2.121q-.365.8-.732,1.549a27.934,27.934,0,0,1,11.54,3.08C358.646,153.615,359.247,152.622,359.247,152.622Z" fill="#088cea"/>
        <path id="Path_11044" data-name="Path 11044" d="M292.808,147.215c-5.9-2.982-13.587.332-13.587.332a15.682,15.682,0,0,0,1.044,2.554,21.479,21.479,0,0,1,12.826-1.319C292.9,147.819,292.808,147.215,292.808,147.215Z" fill="#dcb793"/>
        <path id="Path_11045" data-name="Path 11045" d="M330.458,122.877c-.772.335-3.656,5.07-4.141,6.061s7.154-3.693,10.377-2.69c0,0,.162-.835-.322-1.168s-1.97-.636-2.242-.879-1.212-.727-1.637-.515C332.493,123.686,331.7,122.34,330.458,122.877Z" fill="#fff"/>
        <path id="Path_11046" data-name="Path 11046" d="M315.479,124.181c.491.936,1.516,2.829,3.018,5.28,0,0-5.677-2.872-9.581-2.642,0,0-.308-1.143,1.02-1.184.647-.019,2.348-1.891,3.439-1.567a.525.525,0,0,1,.031-.047A1.223,1.223,0,0,1,315.479,124.181Z" fill="#fff"/>
        <path id="Path_11047" data-name="Path 11047" d="M310.6,158.743a25.429,25.429,0,0,0,17.686,0,30.34,30.34,0,0,0,.514,4.934s-8.7,6.569-20.283-1.314A15.919,15.919,0,0,0,310.6,158.743Z" fill="#366196"/>
        <path id="Path_11048" data-name="Path 11048" d="M322.221,163.2a3.564,3.564,0,1,1-3.564-3.563A3.563,3.563,0,0,1,322.221,163.2Z" fill="#088cea"/>
        <path id="Path_11049" data-name="Path 11049" d="M321.034,163.2a2.376,2.376,0,1,1-2.377-2.376A2.377,2.377,0,0,1,321.034,163.2Z" fill="#366196"/>
        <path id="Path_11050" data-name="Path 11050" d="M325.806,116.774c-.017-1.035,0-1.805,0-1.805-1.788,2.081-6.731.972-6.731.972s.062.809.087,1.855a8.261,8.261,0,0,0,2.895,1.05C323.008,118.906,324.481,118.027,325.806,116.774Z" fill="#e89c8e"/>
        <path id="Path_11051" data-name="Path 11051" d="M327.267,87c0,1.778-9.325,1.051-10.761-.889s.618-2.388.647-2.4q-.314.064-.623.148c-3.789,1.038-4.924,7.015-1.876,9.214,4.577,3.3,10.8,2.7,10.8,2.7,3.553-3.648,3.537-6.808,1.808-9.011C327.261,86.838,327.267,86.911,327.267,87Z" fill="#5e4c2a"/>
        <path id="Path_11052" data-name="Path 11052" d="M310.663,100.556c.484,4.945,3.636,10.907,4.363,12.24s5.09,4.121,7.029,4.242,6.037-3.636,6.643-6.544-.043-12.708-1.189-15.877c-1.009-2.789-4-6.181-9.817-5.09C312.032,90.588,310.107,94.866,310.663,100.556Z" fill="#f3bd98"/>
        <path id="Path_11053" data-name="Path 11053" d="M319.173,112.516a3.967,3.967,0,0,0,2.569,1.2,3.391,3.391,0,0,0,3.466-2.666A18.577,18.577,0,0,1,319.173,112.516Z" fill="#f77980"/>
        <path id="Path_11054" data-name="Path 11054" d="M328.758,102.613s.164-2.892.933-2.239c1.212,1.03,1.012,7.274-.767,7.333A39.252,39.252,0,0,1,328.758,102.613Z" fill="#f3bd98"/>
        <path id="Path_11055" data-name="Path 11055" d="M311.343,104s-1.225-1.207-1.225.55c0,1.035,1.752,5,3.575,5.6C313.693,110.159,312.689,105.819,311.343,104Z" fill="#f3bd98"/>
        <path id="Path_11056" data-name="Path 11056" d="M322.9,105.222a5.194,5.194,0,0,1,.727-2.545,3.059,3.059,0,0,1,3.636-.424S326.964,105.767,322.9,105.222Z" fill="#fff"/>
        <path id="Path_11057" data-name="Path 11057" d="M318.715,105.881a5.2,5.2,0,0,0-1.66-2.061,3.059,3.059,0,0,0-3.515,1.023S315.187,107.963,318.715,105.881Z" fill="#fff"/>
        <path id="Path_11058" data-name="Path 11058" d="M322.9,105.222a4.958,4.958,0,0,1,.1-1.679,2.78,2.78,0,0,1,.321-.821,1.876,1.876,0,0,1,.282-.356,2.636,2.636,0,0,1,.369-.292,2.547,2.547,0,0,1,.4-.209,3.4,3.4,0,0,1,.426-.135,3.139,3.139,0,0,1,.878-.079,3.347,3.347,0,0,1,.853.164,3.431,3.431,0,0,1,.768.372l-.093.024c.107-.119.216-.237.328-.352-.065.147-.135.292-.207.435a.061.061,0,0,1-.07.031l-.023-.007c-.132-.038-.256-.089-.389-.114a3.3,3.3,0,0,0-.39-.084c-.131-.016-.26-.041-.391-.045s-.261,0-.39,0a3.533,3.533,0,0,0-.757.115,2.644,2.644,0,0,0-.69.294,2.366,2.366,0,0,0-.285.21,2.059,2.059,0,0,0-.248.276,3.253,3.253,0,0,0-.348.684A11.874,11.874,0,0,0,322.9,105.222Z" fill="#222"/>
        <path id="Path_11059" data-name="Path 11059" d="M318.715,105.881A11.816,11.816,0,0,0,317.7,104.6a3.25,3.25,0,0,0-.586-.5,2.114,2.114,0,0,0-.337-.156,2.281,2.281,0,0,0-.344-.083,3.536,3.536,0,0,0-.373-.027,2.822,2.822,0,0,0-.377.026,3.611,3.611,0,0,0-.742.19,4.311,4.311,0,0,0-1.333.84l-.016.013a.075.075,0,0,1-.106-.005l-.011-.016q-.135-.259-.258-.528c.137.142.268.287.4.434l-.132-.007a3.5,3.5,0,0,1,.263-.336,3.794,3.794,0,0,1,.3-.305,3.407,3.407,0,0,1,.726-.479,3.449,3.449,0,0,1,.409-.163,2.556,2.556,0,0,1,.431-.1,3.486,3.486,0,0,1,.446-.041,2.495,2.495,0,0,1,.9.163,1.988,1.988,0,0,1,.4.219,2.782,2.782,0,0,1,.615.631A5.016,5.016,0,0,1,318.715,105.881Z" fill="#222"/>
        <path id="Path_11060" data-name="Path 11060" d="M318.662,103.993a2.167,2.167,0,0,1,.757.413,1.224,1.224,0,0,1,.448.782c.021.161.018.289.028.435l.015.424.017.85,0,.849,0,.425a1.166,1.166,0,0,0,.033.368,1.636,1.636,0,0,0,1.146.944l-.017,0a1.41,1.41,0,0,0,1.128-.4,1.074,1.074,0,0,1-.481.439,1.628,1.628,0,0,1-.653.169h0l-.013,0a2.185,2.185,0,0,1-.837-.321,1.438,1.438,0,0,1-.6-.722,1.342,1.342,0,0,1-.06-.471l0-.425,0-.849.017-.85.015-.424c.005-.137.02-.294.015-.415a1.124,1.124,0,0,0-.308-.7A2.558,2.558,0,0,0,318.662,103.993Z" fill="#d18574"/>
        <path id="Path_11061" data-name="Path 11061" d="M319.173,112.516a4.643,4.643,0,0,0,6.035-1.464A19.462,19.462,0,0,0,319.173,112.516Z" fill="#fff"/>
        <path id="Path_11062" data-name="Path 11062" d="M320.44,88.489a5.3,5.3,0,0,1,4.645,0c2.348,1.232,6.965,7.419,3.626,15.112,0,0,.007-.047.012-.13A2.947,2.947,0,0,0,327,100.62c-1.734-.8-5.426-2.843-6.14-5.928A14.823,14.823,0,0,1,320.44,88.489Z" fill="#7a6236"/>
        <path id="Path_11063" data-name="Path 11063" d="M329.883,98.153a10.841,10.841,0,0,1-.83,2.66c-1.274-1.1-3.575-1.612-5.12-3.308s-1.832-5.677-1.832-5.677l-1.793-1.061a20.757,20.757,0,0,0,.551,3.925c.714,3.085,4.406,5.125,6.14,5.928a2.947,2.947,0,0,1,1.724,2.851c-.005.083-.012.13-.012.13A13.565,13.565,0,0,0,329.883,98.153Z" fill="#5e4c2a"/>
        <path id="Path_11064" data-name="Path 11064" d="M321.737,92.872a15.781,15.781,0,0,1-8.786,8.726s1.454,6.687.242,10.131-.606,4.6.848,5.988c0,0-4.666-.524-5.15-5.988s.54-8.187-1.273-11.451c-2.969-5.345,6.191-17.358,14.579-10.655A5.728,5.728,0,0,1,321.737,92.872Z" fill="#7a6236"/>
        <g id="Group_3778" data-name="Group 3778">
          <path id="Path_11065" data-name="Path 11065" d="M325.922,103.367a.994.994,0,1,1-.995-.994A.994.994,0,0,1,325.922,103.367Z" fill="#222"/>
          <path id="Path_11066" data-name="Path 11066" d="M324.927,104.014a.646.646,0,1,1,.647-.647A.647.647,0,0,1,324.927,104.014Z" fill="#222"/>
          <circle id="Ellipse_305" data-name="Ellipse 305" cx="0.312" cy="0.312" r="0.312" transform="translate(323.74 102.976)" fill="#fff"/>
        </g>
        <g id="Group_3779" data-name="Group 3779">
          <path id="Path_11067" data-name="Path 11067" d="M317.5,104.987a.995.995,0,1,1-.994-.994A.995.995,0,0,1,317.5,104.987Z" fill="#222"/>
          <path id="Path_11068" data-name="Path 11068" d="M316.506,105.637a.65.65,0,1,1,.649-.65A.651.651,0,0,1,316.506,105.637Z" fill="#222"/>
          <circle id="Ellipse_306" data-name="Ellipse 306" cx="0.312" cy="0.312" r="0.312" transform="translate(315.397 104.255)" fill="#fff"/>
        </g>
        <path id="Path_11069" data-name="Path 11069" d="M313.865,102.54c2.047-.617,3.2-.385,3.771.034a.942.942,0,0,0-.95-1.1A3.759,3.759,0,0,0,313.865,102.54Z" fill="#222"/>
        <path id="Path_11070" data-name="Path 11070" d="M325.662,100.306c-2.134.137-3.135.757-3.521,1.349a.941.941,0,0,1,.5-1.367A3.759,3.759,0,0,1,325.662,100.306Z" fill="#222"/>
        <path id="Path_11071" data-name="Path 11071" d="M310.571,101.455c1.01,1.284,2.545,6.877,2.06,9.6s.024,4.584-1.211,4.47a2.781,2.781,0,0,1-1.926-1.333h0a6.047,6.047,0,0,0,4.547,3.528c-1.454-1.393-2.06-2.545-.848-5.988s-.242-10.131-.242-10.131a15.781,15.781,0,0,0,8.786-8.726C318.32,98.34,310.571,101.455,310.571,101.455Z" fill="#5e4c2a"/>
        <path id="Path_11072" data-name="Path 11072" d="M313.851,89.629c-3.256.686-6.687,4.955-5.769,8.268s8.388-5.737,10.188-6.383S319.348,88.471,313.851,89.629Z" fill="#896c3e"/>
        <path id="Path_11073" data-name="Path 11073" d="M307.836,166.833c2.948-1.147,6.135,5.686,18.138,1.061,2.8-1.077,11.28,24.176,4.267,28.088-15.586,8.693-34.286-1.375-34-9.414S298.339,170.526,307.836,166.833Z" fill="#dcb793"/>
        <g id="Group_3780" data-name="Group 3780">
          <path id="Path_11074" data-name="Path 11074" d="M328.313,158.673a51.729,51.729,0,0,0,2.3-5.914c-.015-.005-10.386-3.4-15.181-.967s-.554,6.744.847,6.951C317.488,158.922,323.906,159.574,328.313,158.673Z" fill="#dcb793"/>
        </g>
        <path id="Path_11075" data-name="Path 11075" d="M359.247,152.622a13.148,13.148,0,0,0-1.3-.644c-.047.049-.1.1-.142.146-10.979,13.537-21.856,19.573-22.208,19.27s-2.237.308-2.61-.527a4.633,4.633,0,0,0-1.272-1.687c-.364-.294.121-1.706-.64-2.009s-1.228-1.564-1.228-1.592a1.736,1.736,0,0,0-.032,1.3c.333.523.965.563.91,1.465a1.106,1.106,0,0,0,.738,1.277c.237.075.513.661.581.9a1.664,1.664,0,0,0,1.563,1.2c.5.007.672,1.01,2.282.615s3.988-2.644,5.615-3.909C352.612,163.625,359.247,152.622,359.247,152.622Z" fill="#2e578a"/>
        <g id="Group_3781" data-name="Group 3781">
          <path id="Path_11076" data-name="Path 11076" d="M341.507,168.425c.083-.036.164-.075.246-.112l-.664-.335c-.388.276-.766.541-1.127.787l.807.254C341.027,168.807,341.275,168.6,341.507,168.425Z" fill="#d3a375"/>
          <path id="Path_11077" data-name="Path 11077" d="M357.511,155.13c1.135-1.515,1.736-2.508,1.736-2.508a13.148,13.148,0,0,0-1.3-.644c-.047.049-.1.1-.142.146-.619.763-1.24,1.5-1.862,2.218C356.475,154.58,357,154.841,357.511,155.13Z" fill="#d3a375"/>
        </g>
        <path id="Path_11078" data-name="Path 11078" d="M347.143,248.656c-.222-3.922-2.343-8.962-4.592-13.616v0a31.253,31.253,0,0,1-1.794,2.809,155.906,155.906,0,0,1,8.068,28.7C348.021,259.329,347.344,252.218,347.143,248.656Z" fill="#2e578a"/>
        <path id="Path_11079" data-name="Path 11079" d="M344.048,238.161c-.5-1.115-1.021-2.228-1.553-3.32l0,0a32.162,32.162,0,0,1-1.861,2.889c.526,1.35,1.066,2.788,1.61,4.309C342.87,240.857,343.479,239.528,344.048,238.161Z" fill="#d3a375"/>
        <path id="Path_11080" data-name="Path 11080" d="M317.441,274.584c-1.039-9.122.035-24.608-1.324-31.693-.062-.325-.123-.655-.181-.99a13.662,13.662,0,0,1-1.755,1.473c.52,5.45,1.36,12.016,1.253,16.412C315.352,263.159,316.349,269.14,317.441,274.584Z" fill="#2e578a"/>
        <path id="Path_11081" data-name="Path 11081" d="M315.919,241.5a14.3,14.3,0,0,1-1.808,1.576c.135,1.463.289,3,.445,4.557.642-.61,1.3-1.3,1.948-2.013-.1-1.128-.233-2.161-.4-3.061C316.041,242.212,315.979,241.858,315.919,241.5Z" fill="#d3a375"/>
        <path id="Path_11082" data-name="Path 11082" d="M305.9,231.261s.126.276.337.667c.1.2.229.423.363.662s.288.488.456.726a9.888,9.888,0,0,0,.995,1.256c.15.162.278.3.377.384s.147.148.147.148-.07-.029-.188-.09a3.12,3.12,0,0,1-.473-.284,2.407,2.407,0,0,1-.292-.229,2.826,2.826,0,0,1-.3-.283,4.989,4.989,0,0,1-.566-.7,5.53,5.53,0,0,1-.71-1.513A3.8,3.8,0,0,1,305.9,231.261Z" fill="#d18574"/>
        <path id="Path_11083" data-name="Path 11083" d="M314.506,231.261a3.511,3.511,0,0,1,.037.728,4.13,4.13,0,0,1-.106.744,4.343,4.343,0,0,1-.279.823c-.073.131-.135.267-.218.389a2.594,2.594,0,0,1-.258.348,1.938,1.938,0,0,1-.284.288,1.739,1.739,0,0,1-.286.22,1.975,1.975,0,0,1-.479.238c-.12.045-.189.065-.189.065s.056-.049.155-.127l.176-.136c.061-.063.129-.132.205-.2a2.782,2.782,0,0,0,.225-.248,3.059,3.059,0,0,0,.224-.294c.081-.1.136-.222.211-.334s.124-.242.189-.362a8.756,8.756,0,0,0,.508-1.444C314.449,231.547,314.506,231.261,314.506,231.261Z" fill="#d18574"/>
        <path id="Path_11084" data-name="Path 11084" d="M334.891,228.958a5.774,5.774,0,0,1,.013.718,7.654,7.654,0,0,1-.23,1.558,5.989,5.989,0,0,1-.271.805,2.714,2.714,0,0,1-.171.355,1.916,1.916,0,0,1-.187.3,1.2,1.2,0,0,1-.191.233,1.085,1.085,0,0,1-.169.158c-.1.076-.164.113-.164.113s.041-.063.112-.161a2.269,2.269,0,0,0,.231-.446,10.616,10.616,0,0,0,.458-1.45l.377-1.5C334.808,229.235,334.891,228.958,334.891,228.958Z" fill="#d18574"/>
        <path id="Path_11085" data-name="Path 11085" d="M327.377,231.78s.18.115.437.288.585.414.914.65l.9.662.3.229c.073.056.113.093.113.093a2.8,2.8,0,0,1-.512-.139,3.427,3.427,0,0,1-.492-.223,4.639,4.639,0,0,1-.525-.328,4.5,4.5,0,0,1-.841-.792A2.907,2.907,0,0,1,327.377,231.78Z" fill="#d18574"/>
        <path id="Path_11086" data-name="Path 11086" d="M303.937,166.111c.456-.419.363-1.867,0-2.655a10.361,10.361,0,0,0-2.606-2.363c-.424-.3-1.03-1.212-1.575-1.394a9.847,9.847,0,0,0-2.848.545c-2.611-3.769-4.1-12.955-4.1-12.955a11.553,11.553,0,0,0-3.672-1.085c2.06,4.747,6.764,15.135,8.525,15.2,2.281.089,4.786,1.382,5.19,2.432s-.889,2.168-.808,2.862-1.668,2.308-2.343,2.713-2.426-.034-4.162-.5h0a4.988,4.988,0,0,0,1.123.915c1.454.8,1.879-.129,2.363-.008a1.665,1.665,0,0,0,1.818-.758c.129-.216.545-.711.794-.723.49-.023.9-.32,1.041-1.045C302.859,166.407,303.481,166.53,303.937,166.111Z" fill="#2e578a"/>
        <g id="Group_3782" data-name="Group 3782">
          <path id="Path_11087" data-name="Path 11087" d="M290.048,148.435a24.572,24.572,0,0,1,3.086.38c-.192-.984-.291-1.6-.291-1.6a11.981,11.981,0,0,0-3.828-1.138C289.312,146.765,289.66,147.564,290.048,148.435Z" fill="#d3a375"/>
          <path id="Path_11088" data-name="Path 11088" d="M297.545,161.377l-.043-1.308c-.348.1-.594.175-.594.175-.132-.189-.261-.4-.39-.61l-.1.762A2.714,2.714,0,0,0,297.545,161.377Z" fill="#d3a375"/>
        </g>
        <path id="Path_11089" data-name="Path 11089" d="M324.774,89.763c-.791-.477-1.371,3.3.434,5.4s3.045,2.343,3.193,1.7S327.652,91.5,324.774,89.763Z" fill="#896c3e"/>
        <path id="Path_11090" data-name="Path 11090" d="M319.709,83.909c-2.086-.3-3.927,1.27-1.751,1.773C323.208,86.895,328.388,85.153,319.709,83.909Z" fill="#896c3e"/>
      </g>
      <g id="Group_3786" data-name="Group 3786">
        <path id="Path_11091" data-name="Path 11091" d="M171.6,119.537c4.487-3.591,9.8-5.822,14.818-8.529a6.677,6.677,0,0,0-.34-.823,81.648,81.648,0,0,1-6.39-14.054,4.477,4.477,0,0,1-.2-.834c-.015-.1.073-.222.139-.4a4.423,4.423,0,0,1,.705.127,133.245,133.245,0,0,0,19.736,5.059,129.416,129.416,0,0,0,25.636,2.246c6.041-.011,12.075-.276,18.093-.888a175.829,175.829,0,0,0,34.665-6.931c.328-.1.654-.21.985-.3,1.117-.311,1.477-.215,2.052.613.776,1.117,1.526,2.248,2.284,3.375q5.077,7.553,10.154,15.107c.071.106.137.214.206.32.716,1.106.681,1.226-.68,1.75-1.773.684-3.546,1.368-5.339,2.009a190.552,190.552,0,0,1-30.782,8.181,184.425,184.425,0,0,1-25.695,2.735,168.092,168.092,0,0,1-50.572-5.851c-2.784-.76-5.528-1.611-8.285-2.43C172.44,119.911,172.113,119.744,171.6,119.537Z" fill="#366196"/>
        <g id="Group_3785" data-name="Group 3785">
          <g id="Group_3784" data-name="Group 3784">
            <path id="Path_11092" data-name="Path 11092" d="M206.224,120.544a4.025,4.025,0,0,1,.179-1.225,36.191,36.191,0,0,1,1.7-3.908,58.358,58.358,0,0,0,3.336-7.948c.123-.4.259-.965.416-1.677a8.082,8.082,0,0,1,2.443,1.175,1.186,1.186,0,0,1,.412.62,1.785,1.785,0,0,1,.07.664c-.025.193-.1.536-.222,1.034a49.525,49.525,0,0,1-1.973,4.772,53.658,53.658,0,0,0-2.545,6.555,33.136,33.136,0,0,0,10.18.377,3.772,3.772,0,0,1-1.563,2.236,4.273,4.273,0,0,1-2.776.634c-.318-.028-1.2-.158-2.628-.436s-2.941-.544-4.541-.807a46.551,46.551,0,0,0-4.76-.541A3.657,3.657,0,0,1,206.224,120.544Z" fill="#fff"/>
            <path id="Path_11093" data-name="Path 11093" d="M227.96,119.258a13.694,13.694,0,0,1-2.609-.276,4.632,4.632,0,0,0-.053.613,3.1,3.1,0,0,0,.807,2.494,3.013,3.013,0,0,0,2.157.847,5.522,5.522,0,0,0,2.381-.525,5.384,5.384,0,0,0,1.878-1.445c.691.087,1.052.314,1.085.691a8.16,8.16,0,0,1-6.55,2.732,7,7,0,0,1-4.326-1.371,3.864,3.864,0,0,1-1.518-3.686,6.7,6.7,0,0,1,1.222-3.2,7.684,7.684,0,0,1,2.957-2.425,8.721,8.721,0,0,1,4.088-.926,5.843,5.843,0,0,1,3.268.757,2.608,2.608,0,0,1,1.19,2.013,2.712,2.712,0,0,1-1.568,2.783A9.031,9.031,0,0,1,227.96,119.258Zm1.146-5.269a2.757,2.757,0,0,0-2.255,1.19,7.107,7.107,0,0,0-1.354,2.977l.412.013a5.385,5.385,0,0,0,3.512-.824,2.534,2.534,0,0,0,1.069-2.115,1.249,1.249,0,0,0-.367-.872A1.382,1.382,0,0,0,229.106,113.989Z" fill="#fff"/>
            <path id="Path_11094" data-name="Path 11094" d="M242.022,116.654c-.046,1.185-.065,2.234-.047,3.146a14.681,14.681,0,0,0,.316,2.773,4.053,4.053,0,0,0,.846,1.975,6.656,6.656,0,0,1-3.368-.951,3.275,3.275,0,0,1-1.218-2.228,15.363,15.363,0,0,1,.03-3.611c.146-1.538.22-2.579.241-3.119a18.1,18.1,0,0,0-2.785.888,6.27,6.27,0,0,1-.122-.639,1.362,1.362,0,0,1,.661-1.461,6.006,6.006,0,0,1,2.255-.581,21.059,21.059,0,0,0-.143-2.113c-.064-.427-.118-.782-.167-1.066s-.084-.5-.1-.639a4.25,4.25,0,0,1,2.376.512,2.529,2.529,0,0,1,1.06,1.7,9.778,9.778,0,0,1,.143,1.316,5.322,5.322,0,0,0,2.864-1.087,5.4,5.4,0,0,1,.2.573,1.569,1.569,0,0,1-.093,1.36,2.043,2.043,0,0,1-1.347.574c-.673.1-1.191.153-1.549.185C242.078,114.637,242.066,115.468,242.022,116.654Z" fill="#fff"/>
            <path id="Path_11095" data-name="Path 11095" d="M246.906,105.569c1.07-.257,1.73-.01,2,.786a3.36,3.36,0,0,1-.283,2.665,7.7,7.7,0,0,1-2.643,2.74q-.47-.374-.93-.748a3.55,3.55,0,0,0,1-3.488,4.35,4.35,0,0,0-.729-1.376A7.688,7.688,0,0,1,246.906,105.569Z" fill="#fff"/>
            <path id="Path_11096" data-name="Path 11096" d="M257.424,109.59a2.023,2.023,0,0,0-1.011.773,1.182,1.182,0,0,0-.08,1.2,2.151,2.151,0,0,0,1.116,1.064,6.365,6.365,0,0,0,1.875.549q1.041.149,2.121.287a7.908,7.908,0,0,1,2.074.557,3.212,3.212,0,0,1,1.515,1.23,2.812,2.812,0,0,1-.356,3.081,6.515,6.515,0,0,1-3.666,2.35,8.657,8.657,0,0,1-4.291.276c-1.165-.274-1.86-.74-2.1-1.377a1.734,1.734,0,0,1,.206-1.723,2.944,2.944,0,0,1,1.7-1.079,4.189,4.189,0,0,1,1.184-.154,1.808,1.808,0,0,0-.235,1.67,1.9,1.9,0,0,0,1.077,1.072,2.591,2.591,0,0,0,1.737.034,2.823,2.823,0,0,0,1.446-.871,1.052,1.052,0,0,0,.191-1.184,1.9,1.9,0,0,0-.936-.906,5.594,5.594,0,0,0-1.465-.449c-.541-.092-1.132-.206-1.769-.343s-1.232-.293-1.785-.468a4.594,4.594,0,0,1-1.525-.825,3.2,3.2,0,0,1-1-1.365,2.594,2.594,0,0,1,.522-2.672,6.675,6.675,0,0,1,3.006-2.025,6.123,6.123,0,0,1,3.218-.526,2.308,2.308,0,0,1,1.715,1.118,2.1,2.1,0,0,1,.117,1.8,2.355,2.355,0,0,1-1.442,1.345,4.864,4.864,0,0,1-1.3.278,2.592,2.592,0,0,0,.414-1.157,1.948,1.948,0,0,0-.17-1.056,1.148,1.148,0,0,0-.844-.6A2.2,2.2,0,0,0,257.424,109.59Z" fill="#fff"/>
          </g>
        </g>
      </g>
      <g id="Group_3787" data-name="Group 3787">
        <path id="Path_11097" data-name="Path 11097" d="M302.958,61.186c.456,1.246-.009,2.667-.232,4.12C301.948,70.38,299.8,77.9,294.6,82.78a54.4,54.4,0,0,0,5.691,8.756c.7.9,1.854,1.632,1.955,2.835-7.851-5.236-11.961-12.52-14.245-19.3a32.885,32.885,0,0,1-.007-22.144,13.305,13.305,0,0,1,2.861,4.761,35.222,35.222,0,0,1,2.9,16.322c.085.1.038.214.165.3C295.2,69.957,299.288,63.869,302.958,61.186Z" fill="#366196" fill-rule="evenodd"/>
        <path id="Path_11098" data-name="Path 11098" d="M250.226,267.269a9.088,9.088,0,0,0-2.094,1.674c-4.338,3.79-9.783,6.8-16.086,6.771a26.511,26.511,0,0,1,9.891-9.892c3.669-2.278,7.737-4.273,12.325-4.572.847,1.617.892,4.074.7,6.473-.626,7.784-5.206,18.56-10.9,22.269-.132-.019-.114-.107-.09-.2l-.287-.107C243.536,283.363,246.362,273.949,250.226,267.269Z" fill="#2e578a" fill-rule="evenodd"/>
        <path id="Path_11099" data-name="Path 11099" d="M220.529,81.913h.459c2.61,2.953,3.761,10.893,1.073,14.71-5.519-1.173-9.682-3.7-11.186-8.887,4.222-.439,6.5,2.382,8.888,4.29A13.615,13.615,0,0,1,220.529,81.913Z" fill="#2e578a" fill-rule="evenodd"/>
        <path id="Path_11100" data-name="Path 11100" d="M193.941,172.876c1.819,2.182,4.349,3.683,7.509,5.284a12.112,12.112,0,0,1-2.66.642,16.724,16.724,0,0,0-8.974,6.841c-.408.6-1.068,1.162-1.013,1.959a5.964,5.964,0,0,0,4.37.554c4.533-.9,9.253-4.532,10.911-8.788,5.789,1.985,11.748,3.084,16.685,1.651.549-.159,1.65-.082,1.74-.962-1.144-.8-2.566-.116-3.944-.178a39.283,39.283,0,0,1-13.327-3.639,66.8,66.8,0,0,1-8.924-5.55C195.557,171.526,194.653,171.9,193.941,172.876Z" fill="#2e578a" fill-rule="evenodd"/>
        <path id="Path_11101" data-name="Path 11101" d="M378.236,178.673l.193-.166a10.676,10.676,0,0,1,1.805,8.508c3.55-2.375,7.762-4.738,11.328-3.4-1.4,4.744-7.537,8.458-11.987,8.664a5.122,5.122,0,0,1-2.411-.268c-.842-.712-.967-2.868-1.047-4.129a16.909,16.909,0,0,1,.029-4.051C376.509,181.9,377.569,180.272,378.236,178.673Z" fill="#2e578a" fill-rule="evenodd"/>
        <path id="Path_11102" data-name="Path 11102" d="M446.277,299.2l.012-.394a35.252,35.252,0,0,0-19.578-7.7,43.472,43.472,0,0,0-24.442,5.141c-.4.228-.924.578-1.34.876-.4.283-1.164.481-.955,1.152a16.572,16.572,0,0,0,3.311-.947A65.112,65.112,0,0,1,414,294.645c1.891,4.2,5.2,7.637,8.727,10.511a36.84,36.84,0,0,0,7.068,4.816,7.026,7.026,0,0,0,2.86.877,31.937,31.937,0,0,0-9.8-13.826C429.507,299.8,438.923,301.286,446.277,299.2Z" fill="#2e578a" fill-rule="evenodd"/>
        <path id="Path_11103" data-name="Path 11103" d="M399.281,250.807c-1.223-6.76,1.091-11.935,5.5-16.14a13.186,13.186,0,0,1,5.07-3.529c1.064,4.35-.221,7.569-1.508,10.786,4.9-3.249,12.971-5.989,18.085-5.293-.051.892-1.171,2.124-2.1,3.225C419.495,245.6,408.517,252.3,399.281,250.807Z" fill="#366196" fill-rule="evenodd"/>
        <path id="Path_11104" data-name="Path 11104" d="M291.412,298.935c1.921,3.337,1.462,8.657-.245,11.735a7.29,7.29,0,0,1-2.811,3.179c-1.919-2.2-1.61-7.919-.367-10.635a12.808,12.808,0,0,1-7.946,1.222,5.967,5.967,0,0,1,1.59-2.2C283.7,300.293,287.623,298.309,291.412,298.935Z" fill="#366196" fill-rule="evenodd"/>
        <path id="Path_11105" data-name="Path 11105" d="M201.6,137.927c2.585-.8,5.645.331,7.266,1.474-.563-1.967-.461-5.369.6-6.868.517.03.833.572,1.17.99,1.6,1.978,2.946,6.678.442,9.059a9.187,9.187,0,0,1-7.923-2.358A5.4,5.4,0,0,1,201.6,137.927Z" fill="#366196" fill-rule="evenodd"/>
        <path id="Path_11106" data-name="Path 11106" d="M422.7,195.433c.434-1.195,2.557-1.742,3.84-2.063,5.265-1.316,11.023-.477,15.163.518,1.546-4.129,5.139-9.323,11.3-10.794a5.464,5.464,0,0,1,3.731.069c.159,1.221-.761,2.33-1.327,3.336A16.931,16.931,0,0,1,445,194.584c2.33,1.313,5.922,2.322,8.261,4.551-.295,1.105-1.4,1.8-2.195,2.653-3-1.441-5.959-3.266-9.327-4.363a46.9,46.9,0,0,0-10.407-2.237,30.461,30.461,0,0,0-6.64.4C424.09,195.667,423.191,196.091,422.7,195.433Z" fill="#366196" fill-rule="evenodd"/>
      </g>
      <g id="Group_3790" data-name="Group 3790">
        <path id="Path_11107" data-name="Path 11107" d="M216.854,146.94c2.133.63,4.159,1.253,6.2,1.824a174.534,174.534,0,0,0,22.558,4.689,180.285,180.285,0,0,0,26.051,1.814c19.867-.07,39.267-2.976,57.982-9.852a116.368,116.368,0,0,0,19.809-9.4c.522-.313,1.026-.656,1.632-1.045l12.271,19.924a131.863,131.863,0,0,1-15.034,8.864,158.1,158.1,0,0,1-39.779,14.053,182.476,182.476,0,0,1-26.458,3.675,171.866,171.866,0,0,1-25.5-.2,139.869,139.869,0,0,1-38.934-8.489c-1.6-.615-3.188-1.276-4.769-1.946-1.4-.595-1.609-1.023-1.267-2.461q1.876-7.873,3.757-15.747c.37-1.551.735-3.1,1.117-4.651C216.574,147.643,216.721,147.315,216.854,146.94Z" fill="#366196"/>
        <g id="Group_3789" data-name="Group 3789">
          <g id="Group_3788" data-name="Group 3788">
            <path id="Path_11108" data-name="Path 11108" d="M250.476,171.393a2.8,2.8,0,0,0,.357,1.772,1.864,1.864,0,0,0,1.384.875,3.313,3.313,0,0,0,2.653-.854,7.718,7.718,0,0,0,2.1-2.879,10.092,10.092,0,0,0,.915-3.53,21.305,21.305,0,0,0,.031-2.789c.534.034.908.061,1.121.084a4.3,4.3,0,0,1,2.025.63,1.709,1.709,0,0,1,.629,1.565,31.958,31.958,0,0,1-.769,3.358,21.469,21.469,0,0,0-.786,4.743,5.968,5.968,0,0,0,.869,3.286,6.086,6.086,0,0,1-3.188-1.542,3.714,3.714,0,0,1-.916-2.83,10.348,10.348,0,0,1,.165-1.182,5.871,5.871,0,0,1-2.919,3.041,6.651,6.651,0,0,1-4.044.695,4.786,4.786,0,0,1-3.05-1.642,4.212,4.212,0,0,1-.836-3.324,8.293,8.293,0,0,1,1.4-3.707,8.208,8.208,0,0,1,3.093-2.7,6.552,6.552,0,0,1,4.059-.689,7.789,7.789,0,0,1,2.476.821,7.842,7.842,0,0,0-4.652,2.508A7.392,7.392,0,0,0,250.476,171.393Z" fill="#fff"/>
            <path id="Path_11109" data-name="Path 11109" d="M278.91,177.323a4.112,4.112,0,0,1-1.714.369c-.693.02-1.091-.082-1.186-.3a36.276,36.276,0,0,1-1.26-4c-.374-1.469-.6-2.4-.7-2.8-1.69,3.206-2.9,5.468-3.5,6.828a4.008,4.008,0,0,1-1.734.268c-.711-.022-1.112-.149-1.2-.374a32.39,32.39,0,0,1-1.046-4.281c-.358-1.9-.7-3.56-1.035-4.988a10.591,10.591,0,0,0-1.24-3.276,6.863,6.863,0,0,1,2.263-.438,2.452,2.452,0,0,1,1.181.288,1.86,1.86,0,0,1,.635.776,6.9,6.9,0,0,1,.424,1.131,11.913,11.913,0,0,1,.3,1.545q.127.942.236,1.807c.266,2.173.507,3.667.675,4.481a54.5,54.5,0,0,0,3.031-7.23,9.365,9.365,0,0,0-1.035-2.058,6.721,6.721,0,0,1,2.2-.573,2.378,2.378,0,0,1,1.178.217,1.857,1.857,0,0,1,.673.737,7.073,7.073,0,0,1,.485,1.1,12.108,12.108,0,0,1,.384,1.524q.182.933.34,1.789c.39,2.153.714,3.63.929,4.433,2.186-5.214,3.066-8.682,2.952-10.337,1.41.528,2.166,1.093,2.248,1.73a7.019,7.019,0,0,1-.645,2.993c-.52,1.359-1.2,2.925-2.05,4.691S279.242,176.453,278.91,177.323Z" fill="#fff"/>
            <path id="Path_11110" data-name="Path 11110" d="M289.571,172.266a2.9,2.9,0,0,0,.8,1.6,1.707,1.707,0,0,0,1.485.461,3.092,3.092,0,0,0,2.177-1.546,7.818,7.818,0,0,0,1.12-3.336,10.469,10.469,0,0,0-.144-3.637,22.067,22.067,0,0,0-.75-2.683q.738-.171,1.037-.226a3.9,3.9,0,0,1,2.015.052,1.747,1.747,0,0,1,1.014,1.33,34.041,34.041,0,0,1,.237,3.432,23.2,23.2,0,0,0,.585,4.771,6.118,6.118,0,0,0,1.686,2.922,5.6,5.6,0,0,1-3.335-.616,3.775,3.775,0,0,1-1.6-2.469,11.385,11.385,0,0,1-.17-1.18,5.88,5.88,0,0,1-1.835,3.718,6.123,6.123,0,0,1-3.481,1.774,4.085,4.085,0,0,1-4.815-3.7,8.9,8.9,0,0,1,.269-3.94,8.149,8.149,0,0,1,2.036-3.436,5.889,5.889,0,0,1,3.458-1.775,7.031,7.031,0,0,1,2.464.109,7.414,7.414,0,0,0-3.5,3.679A7.773,7.773,0,0,0,289.571,172.266Z" fill="#fff"/>
            <path id="Path_11111" data-name="Path 11111" d="M309.122,159.406a3.447,3.447,0,0,1,2.457.142,3.135,3.135,0,0,1,1.7,1.776,3.066,3.066,0,0,1,0,2.433,5.2,5.2,0,0,1-1.889,2.152q.3.339.6.676a17.8,17.8,0,0,0,4.157,3.425,17.253,17.253,0,0,0,3.915,1.9,8.674,8.674,0,0,1-1.633.771c-1.811.609-3.835.1-5.95-1.531a35.183,35.183,0,0,1-3.942-3.867c-.217.076-.541.172-.969.286q-.189-.065-.381-.631a6.424,6.424,0,0,0,1.977-.909,3.39,3.39,0,0,0,1.123-1.222,3.12,3.12,0,0,0,.158-2.426,1.671,1.671,0,0,0-.621-.842,1.042,1.042,0,0,0-.923-.131,2.548,2.548,0,0,0-1.473,1.638,9.456,9.456,0,0,0-.594,3.539,11.889,11.889,0,0,0,.552,3.9,13.983,13.983,0,0,0,1,2.425c-.563.178-.937.287-1.116.333a4.547,4.547,0,0,1-2.345.129,1.619,1.619,0,0,1-1.082-1.167,24.032,24.032,0,0,1-.577-3.588A88.562,88.562,0,0,0,301.1,156.3a8,8,0,0,0-.959-2.428,3.622,3.622,0,0,1,4.081,2.961,45.5,45.5,0,0,1,.925,4.558q.6,3.5.912,5.063c-.318-3.04.309-5.155,1.839-6.393A3.579,3.579,0,0,1,309.122,159.406Z" fill="#fff"/>
            <path id="Path_11112" data-name="Path 11112" d="M323.2,162.271a11.849,11.849,0,0,1-2.428.7,6.546,6.546,0,0,0,.268.633,4.224,4.224,0,0,0,1.985,2.206,2.825,2.825,0,0,0,2.3.085,4.267,4.267,0,0,0,1.808-1.382,5,5,0,0,0,.933-2.153c.65-.157,1.079-.052,1.291.325a6.662,6.662,0,0,1-4.341,5.106,6.4,6.4,0,0,1-4.424.162,5.163,5.163,0,0,1-3.232-3.069,7.758,7.758,0,0,1-.626-3.623,7.026,7.026,0,0,1,1.334-3.589,7.142,7.142,0,0,1,3.2-2.556,5.281,5.281,0,0,1,3.355-.483,3.251,3.251,0,0,1,2.068,1.632,3.072,3.072,0,0,1-.053,3.444A7.351,7.351,0,0,1,323.2,162.271Zm-1.658-5.782a2.406,2.406,0,0,0-1.41,2.081,8.088,8.088,0,0,0,.341,3.512l.368-.142a4.406,4.406,0,0,0,2.681-2.156,2.909,2.909,0,0,0-.108-2.562,1.6,1.6,0,0,0-.768-.749A1.312,1.312,0,0,0,321.537,156.489Z" fill="#fff"/>
          </g>
        </g>
      </g>
      <g id="Group_3795" data-name="Group 3795">
        <g id="Group_3791" data-name="Group 3791">
          <path id="Path_11113" data-name="Path 11113" d="M452.968,259.363a50.267,50.267,0,0,1-5.051,6.435c-1.8,2.005-3.7,3.919-5.668,6a70.754,70.754,0,0,1,8.236,15.921,2.143,2.143,0,0,1-1.607-.055,89.556,89.556,0,0,0-15.786-2.84,149.9,149.9,0,0,0-15.7-.275c-11.666.366-23.07,2.5-34.441,4.915-9.4,2-18.778,4.094-28.269,5.63a200.44,200.44,0,0,1-22.163,2.62,110.3,110.3,0,0,1-32.268-2.878,104.221,104.221,0,0,1-11.909-3.773c-.3-.114-.586-.261-.933-.418,1-8.287,1.994-16.539,2.994-24.833,2.149.545,4.12,1.054,6.1,1.544a69.245,69.245,0,0,0,11.364,1.839c3.546.274,7.092.6,10.644.726a120.1,120.1,0,0,0,14.217-.435c9.733-.824,19.235-2.909,28.713-5.139,10.114-2.379,20.252-4.647,30.538-6.161a144,144,0,0,1,17.588-1.54c4.783-.112,9.565-.335,14.348-.339,3.924,0,7.859.116,11.772.414A91.936,91.936,0,0,1,452.968,259.363Z" fill="#366196"/>
        </g>
        <g id="Group_3794" data-name="Group 3794">
          <g id="Group_3793" data-name="Group 3793">
            <g id="Group_3792" data-name="Group 3792">
              <path id="Path_11114" data-name="Path 11114" d="M334.608,277.225a4.253,4.253,0,0,1,2.659-1.033,3.064,3.064,0,0,1,2.341,1.067,5.2,5.2,0,0,1,1.162,3.14,8.5,8.5,0,0,1-1.31,5.663,4.728,4.728,0,0,1-4.117,2.33,5.151,5.151,0,0,1-1.85-.4,4.507,4.507,0,0,0,3.178-2.75,8.862,8.862,0,0,0,.874-4.571,3.631,3.631,0,0,0-.532-1.721,1.346,1.346,0,0,0-1.142-.67,2.543,2.543,0,0,0-2.226,1.59,11.848,11.848,0,0,0-1.191,4.429,30.694,30.694,0,0,0-.035,5.918,30.079,30.079,0,0,0,.9,5.389,5.958,5.958,0,0,1-2.713-.712,2.5,2.5,0,0,1-1.038-2.044q-.045-.533.184-5.585a63.29,63.29,0,0,0-.007-7.807,29.1,29.1,0,0,0-.728-4.668,4.486,4.486,0,0,1,2.564,1.8,8.042,8.042,0,0,1,.97,3.534A6.9,6.9,0,0,1,334.608,277.225Z" fill="#fff"/>
              <path id="Path_11115" data-name="Path 11115" d="M350.727,275.026a2.676,2.676,0,0,1,2.347,1.062,5.758,5.758,0,0,1,1.224,3.353,10.3,10.3,0,0,1-.6,4.572,6.32,6.32,0,0,1-2.835,3.5,5.976,5.976,0,0,1-2.456.729A4.437,4.437,0,0,1,344.962,287a6.14,6.14,0,0,1-1.784-4.187,8.717,8.717,0,0,1,.932-4.974,5.778,5.778,0,0,1,3.364-2.9.8.8,0,0,1,.461.108c.146.084.225.178.234.281a6.106,6.106,0,0,0-2.28,4.473,8.558,8.558,0,0,1,.944-2.208,5.38,5.38,0,0,1,1.272-1.466A5.259,5.259,0,0,1,350.727,275.026Zm-1.219,1.725q-1.425.127-2.376,2.128a7.5,7.5,0,0,0-.783,3.91c.231,2.662,1.034,3.949,2.408,3.833.978-.084,1.72-.8,2.222-2.136a9.935,9.935,0,0,0,.544-4.393C351.32,277.757,350.648,276.649,349.508,276.751Z" fill="#fff"/>
              <path id="Path_11116" data-name="Path 11116" d="M361.006,278.838q-.182,1.989-.247,3.524a23.92,23.92,0,0,0,.073,3.1,5.763,5.763,0,0,0,.5,2.2,3.679,3.679,0,0,1-2.44-1.019,4.274,4.274,0,0,1-.861-2.48,24.005,24.005,0,0,1,.109-4.066q.235-2.6.291-3.516a11.316,11.316,0,0,0-2.366,1.075c-.059-.317-.093-.555-.107-.716a1.77,1.77,0,0,1,.562-1.67,4.29,4.29,0,0,1,1.978-.71q.01-1.656-.054-2.377t-.116-1.2c-.035-.32-.059-.559-.074-.719a3.149,3.149,0,0,1,2.18.576,2.731,2.731,0,0,1,.835,1.924,13.318,13.318,0,0,1,.018,1.477,4.771,4.771,0,0,0,2.633-1.117c.055.286.089.5.1.646a2.257,2.257,0,0,1-.246,1.507,1.749,1.749,0,0,1-1.214.589c-.585.086-1.03.143-1.338.172Q361.184,276.847,361.006,278.838Z" fill="#fff"/>
              <path id="Path_11117" data-name="Path 11117" d="M370.443,279.56a8.8,8.8,0,0,1-2.082.1c0,.147.011.374.037.678a4.3,4.3,0,0,0,.919,2.612,1.845,1.845,0,0,0,1.7.648,3.478,3.478,0,0,0,1.747-.866,5.8,5.8,0,0,0,1.352-1.816c.537.027.823.253.86.673a6.4,6.4,0,0,1-4.716,3.768,4.108,4.108,0,0,1-3.345-.885,5.012,5.012,0,0,1-1.726-3.693,9.272,9.272,0,0,1,.412-3.674,7.647,7.647,0,0,1,2.051-3.217,6.3,6.3,0,0,1,3.393-1.735,3.773,3.773,0,0,1,2.892.4,2.813,2.813,0,0,1,1.1,2.135,3.772,3.772,0,0,1-1.169,3.288A6.465,6.465,0,0,1,370.443,279.56Zm.406-6.007a2.459,2.459,0,0,0-1.764,1.681,9.6,9.6,0,0,0-.716,3.495l.328-.053a3.988,3.988,0,0,0,2.731-1.442,3.591,3.591,0,0,0,.7-2.5,1.5,1.5,0,0,0-.381-.919A.952.952,0,0,0,370.849,273.553Z" fill="#fff"/>
              <path id="Path_11118" data-name="Path 11118" d="M385.525,269.741a1.986,1.986,0,0,1,1.921.5,3.5,3.5,0,0,1,.748,2.07,24.5,24.5,0,0,1-.091,3.891,24.074,24.074,0,0,0-.113,3.649,3.38,3.38,0,0,0,.429,1.59,2.138,2.138,0,0,0,1.041.736c-.188.043-.458.091-.809.146a4.534,4.534,0,0,1-2.67-.157,2.143,2.143,0,0,1-.951-1.858,21.945,21.945,0,0,1,.162-3.217,21.34,21.34,0,0,0,.132-3.565q-.126-1.439-1-1.3a2,2,0,0,0-1.089.775,7.8,7.8,0,0,0-1.086,1.8,10.732,10.732,0,0,0-.758,2.765,13.457,13.457,0,0,0-.117,3.232,15.149,15.149,0,0,0,.337,2.318c-.464.107-.771.173-.917.2a2.824,2.824,0,0,1-1.835-.134,1.6,1.6,0,0,1-.673-1.344q-.039-.437.166-3.429a32.213,32.213,0,0,0,.051-4.722,12.5,12.5,0,0,0-.652-3.127,3.729,3.729,0,0,1,2.36,1.049,3.416,3.416,0,0,1,.822,2.005,17.339,17.339,0,0,1-.021,2.8,11.417,11.417,0,0,1,1.916-4.513A4.66,4.66,0,0,1,385.525,269.741Z" fill="#fff"/>
              <path id="Path_11119" data-name="Path 11119" d="M395.458,273.4q-.182,1.989-.247,3.522a24.14,24.14,0,0,0,.073,3.1,5.8,5.8,0,0,0,.5,2.207,3.758,3.758,0,0,1-2.44-1.03,4.249,4.249,0,0,1-.861-2.474,24.142,24.142,0,0,1,.109-4.068q.237-2.605.291-3.518a11.04,11.04,0,0,0-2.366,1.114q-.086-.473-.107-.713a1.807,1.807,0,0,1,.563-1.685,4.248,4.248,0,0,1,1.977-.737q.01-1.656-.053-2.378c-.041-.479-.08-.877-.116-1.2s-.059-.558-.074-.717a3.092,3.092,0,0,1,2.18.574,2.768,2.768,0,0,1,.835,1.934,13.875,13.875,0,0,1,.017,1.476,4.764,4.764,0,0,0,2.633-1.054c.055.288.089.505.1.649a2.216,2.216,0,0,1-.247,1.5,1.711,1.711,0,0,1-1.213.555c-.585.072-1.031.124-1.339.148Q395.635,271.414,395.458,273.4Z" fill="#fff"/>
              <path id="Path_11120" data-name="Path 11120" d="M402.6,265.475c-1.505.146-2.3-.293-2.4-1.344a5.4,5.4,0,0,1,.192-1.59,7.754,7.754,0,0,1,1.067-.2c1.505-.153,2.3.31,2.395,1.361a5.328,5.328,0,0,1-.192,1.586A7.967,7.967,0,0,1,402.6,265.475Zm-2.021,11.312a28.054,28.054,0,0,1,.061-3.362,28.19,28.19,0,0,0,.024-3.778,12.136,12.136,0,0,0-.311-2.044c.318-.063.617-.11.894-.138a2.716,2.716,0,0,1,1.8.252,1.85,1.85,0,0,1,.621,1.412q.027.33-.236,3.5a32.48,32.48,0,0,0-.1,5.2,7.934,7.934,0,0,0,.48,2.6,3.823,3.823,0,0,1-2.418-1.1A4.666,4.666,0,0,1,400.581,276.787Z" fill="#fff"/>
              <path id="Path_11121" data-name="Path 11121" d="M409.738,275.5a3.4,3.4,0,0,0,.53,1.665,1.272,1.272,0,0,0,1.142.6,2.413,2.413,0,0,0,1.856-1.273,8.783,8.783,0,0,0,1.22-3.137,12.441,12.441,0,0,0,.246-3.615,23.941,23.941,0,0,0-.37-2.766c.436-.036.742-.053.916-.055a2.95,2.95,0,0,1,1.725.418,1.938,1.938,0,0,1,.7,1.508q.037.42-.23,3.41a28.662,28.662,0,0,0-.112,4.791,7.754,7.754,0,0,0,.956,3.2,4.367,4.367,0,0,1-2.517-1.243,4.467,4.467,0,0,1-1-2.7c-.019-.206-.023-.6-.016-1.192a6.15,6.15,0,0,1-1.812,3.415,4.52,4.52,0,0,1-2.858,1.387,3.01,3.01,0,0,1-2.44-.954,4.845,4.845,0,0,1-1.156-3.023,10.775,10.775,0,0,1,.374-3.925,7.93,7.93,0,0,1,1.861-3.321,4.317,4.317,0,0,1,3.063-1.457,4.91,4.91,0,0,1,2.1.428,6,6,0,0,0-3.259,3.229A8.978,8.978,0,0,0,409.738,275.5Z" fill="#fff"/>
              <path id="Path_11122" data-name="Path 11122" d="M421.353,278.214a9.276,9.276,0,0,1-.175-1.277q-.075-.864.147-6.773a77.96,77.96,0,0,0,.03-8.125,10.209,10.209,0,0,0-.511-2.894,4.4,4.4,0,0,1,2.362,1.462,5.089,5.089,0,0,1,.821,2.584q.086.979-.088,6.31a75.808,75.808,0,0,0,.11,8.619q.059.713.261,2.009a3.5,3.5,0,0,1-2.554-1.044A2.814,2.814,0,0,1,421.353,278.214Z" fill="#fff"/>
            </g>
          </g>
          <path id="Path_11123" data-name="Path 11123" d="M247.821,205.815c.6.081.942.107,1.272.175a122.493,122.493,0,0,0,21.743,2.2,274.261,274.261,0,0,0,43.3-2.662,273.5,273.5,0,0,0,35.8-7.16,149.4,149.4,0,0,0,14.525-4.7c.992-.385,1.133-.364,1.547.489,1.444,2.977,2.863,5.962,4.292,8.943q2.9,6.057,5.8,12.116c.194.4.342.826.551,1.338-.681.293-1.252.559-1.843.791a193.6,193.6,0,0,1-33.089,9.421,314.071,314.071,0,0,1-42.422,5.378,247.693,247.693,0,0,1-41.872-.654c-2.766-.3-5.508-.726-8.249-1.138-1.193-.18-1.336-.362-1.343-1.3q-.083-10.687-.145-21.376C247.687,207.114,247.767,206.548,247.821,205.815Z" fill="#366196"/>
        </g>
      </g>
      <g id="Group_3797" data-name="Group 3797">
        <g id="Group_3796" data-name="Group 3796">
          <path id="Path_11124" data-name="Path 11124" d="M305.7,215.884a1.735,1.735,0,0,1-.541,1.418,2.518,2.518,0,0,1-1.737.19c-.82-.117-1.451-.232-1.892-.325a47.838,47.838,0,0,0-1.97,8.781,13.515,13.515,0,0,0-.03,1.916,17.675,17.675,0,0,0,.379,2.1,7.765,7.765,0,0,1-3.585-2.388,3.944,3.944,0,0,1-.837-2.964,32.856,32.856,0,0,1,1.928-6.579q.385-1.088.506-1.445a22.464,22.464,0,0,0-3.276-.121,6.236,6.236,0,0,1,.1-.733,1.477,1.477,0,0,1,1.278-1.3,8.148,8.148,0,0,1,2.741.268,15.057,15.057,0,0,1,2.048-3.361,8.072,8.072,0,0,1,2.227-1.971,6.829,6.829,0,0,1,4.064-1.012,3.975,3.975,0,0,1,2.264.892,2.39,2.39,0,0,1,.955,1.839,2.322,2.322,0,0,1-.828,1.839,2.983,2.983,0,0,1-2.311.66,3.75,3.75,0,0,1-1.088-.255,2.522,2.522,0,0,0,.875-.848,2.321,2.321,0,0,0,.451-1.213,1.4,1.4,0,0,0-.249-.938,1.027,1.027,0,0,0-.744-.4c-.683-.071-1.414.346-2.247,1.242a11.2,11.2,0,0,0-2.179,4.265,6.023,6.023,0,0,0,3.674-.22A6.112,6.112,0,0,1,305.7,215.884Z" fill="#fff"/>
          <path id="Path_11125" data-name="Path 11125" d="M317.546,215.265a4.94,4.94,0,0,1,2.2.119,1.767,1.767,0,0,1,1.078,1.385c.055.229.125,1.266.2,3.112a21.923,21.923,0,0,0,.611,4.68,8.783,8.783,0,0,0,1.571,3.249,6.993,6.993,0,0,1-3.814-.935,3.541,3.541,0,0,1-1.455-2.256,18.875,18.875,0,0,1-.154-2.494,8.241,8.241,0,0,1-2.208,4.438,5.33,5.33,0,0,1-3.728,1.852c-2.607.014-4.008-1.322-4.1-3.769a14.92,14.92,0,0,1,.389-3.376,16.351,16.351,0,0,0,.4-3.284,7.824,7.824,0,0,0-.419-2.3,10.562,10.562,0,0,1,3.356.57,2.069,2.069,0,0,1,1.2,1.872,13.646,13.646,0,0,1-.33,2.988,12.736,12.736,0,0,0-.3,3.363c.117,1.088.62,1.631,1.491,1.6a2.308,2.308,0,0,0,1.4-.673,6.152,6.152,0,0,0,1.319-1.708,7.682,7.682,0,0,0,.795-2.6,9.786,9.786,0,0,0-.052-3.079,21.213,21.213,0,0,0-.586-2.592C316.957,215.349,317.332,215.29,317.546,215.265Z" fill="#fff"/>
          <path id="Path_11126" data-name="Path 11126" d="M327.581,224.93a5.989,5.989,0,0,1-.537-1.173q-.3-.814-1.281-6.674a75.6,75.6,0,0,0-1.635-7.966,9.97,9.97,0,0,0-1.076-2.674,3.662,3.662,0,0,1,4.161,2.757q.339.909,1.574,6.127a47.933,47.933,0,0,0,2.553,8.228,18.133,18.133,0,0,0,.953,1.779c-1.945.588-3.275.637-3.931.269A2.239,2.239,0,0,1,327.581,224.93Z" fill="#fff"/>
          <path id="Path_11127" data-name="Path 11127" d="M336.742,221.769a5.947,5.947,0,0,1-.707-1.079q-.417-.759-2.281-6.4a76.276,76.276,0,0,0-2.824-7.626,10.05,10.05,0,0,0-1.464-2.481,4.455,4.455,0,0,1,2.711.188,4.557,4.557,0,0,1,1.791,1.914q.476.846,2.491,5.814a48.032,48.032,0,0,0,3.778,7.742,19.043,19.043,0,0,0,1.212,1.614c-1.83.877-3.132,1.127-3.835.862A2.251,2.251,0,0,1,336.742,221.769Z" fill="#fff"/>
        </g>
      </g>
    </g>
  </g>
</svg>
