<svg xmlns="http://www.w3.org/2000/svg" xmlns:xlink="http://www.w3.org/1999/xlink" width="101.999" height="101.999" viewBox="0 0 101.999 101.999">
  <defs>
    <linearGradient id="linear-gradient" x1="0.708" y1="0.24" x2="0.136" y2="0.956" gradientUnits="objectBoundingBox">
      <stop offset="0.032" stop-color="#cca94f"/>
      <stop offset="0.039" stop-color="#cead4f"/>
      <stop offset="0.089" stop-color="#dcc751"/>
      <stop offset="0.14" stop-color="#e6da53"/>
      <stop offset="0.192" stop-color="#ece654"/>
      <stop offset="0.247" stop-color="#efea55"/>
      <stop offset="0.255" stop-color="#ece959"/>
      <stop offset="0.301" stop-color="#e3e66b"/>
      <stop offset="0.348" stop-color="#dde577"/>
      <stop offset="0.398" stop-color="#dce57b"/>
      <stop offset="0.433" stop-color="#d5ca67"/>
      <stop offset="0.47" stop-color="#d0b85a"/>
      <stop offset="0.508" stop-color="#ccac51"/>
      <stop offset="0.548" stop-color="#cca94f"/>
      <stop offset="0.604" stop-color="#c39748"/>
      <stop offset="0.663" stop-color="#bd8b44"/>
      <stop offset="0.726" stop-color="#bc8843"/>
    </linearGradient>
  </defs>
  <g id="logo" transform="translate(-159.648 -242.613)">
    <g id="Group_38" data-name="Group 38" transform="translate(174.084 265.65)">
      <g id="Group_35" data-name="Group 35" transform="translate(0 0.819)">
        <g id="Group_33" data-name="Group 33" transform="translate(12.329 30.599)">
          <path id="Path_147" data-name="Path 147" d="M242.962,404.012l-2.782-2.891L241.255,400l2.783,2.891Z" transform="translate(-235.83 -393.648)" fill="#1a174e" fill-rule="evenodd"/>
          <path id="Path_148" data-name="Path 148" d="M238.8,396.012l-2.634,2.737-1.077-1.119,2.634-2.735Z" transform="translate(-232.705 -390.513)" fill="#1a174e" fill-rule="evenodd"/>
          <path id="Path_149" data-name="Path 149" d="M249.261,406.741l-2.638,2.741-1.076-1.119,2.639-2.742Z" transform="translate(-239.124 -397.096)" fill="#1a174e" fill-rule="evenodd"/>
          <path id="Path_150" data-name="Path 150" d="M241.3,413.8a2.307,2.307,0,0,0-.728,1.623.844.844,0,0,0,.662.627.628.628,0,0,0,.707-.333c.269-.519.228-.809-.15-1.395a12.032,12.032,0,0,0-1.775-2c-.053-.051-.313-.316-.382-.384l1.014-1.033.669.68c.448.456.91.9,1.337,1.371a4.244,4.244,0,0,1,.9,1.5,3.209,3.209,0,0,1,.038,1.522,1.893,1.893,0,0,1-.518,1.1,2.314,2.314,0,0,1-1.978.706,2.216,2.216,0,0,1-1.78-1.212,2.644,2.644,0,0,1,.049-2.685,7.792,7.792,0,0,1,.6-.782c.073-.095.336-.377.336-.377C240.593,413.038,241.009,413.483,241.3,413.8Z" transform="translate(-235.094 -400.337)" fill="#1a174e" fill-rule="evenodd"/>
          <path id="Path_151" data-name="Path 151" d="M242.886,387.849c-.4-.4-.816-.9-1.192-1.287a5.506,5.506,0,0,0,.444-.706.433.433,0,0,0-.21-.541.471.471,0,0,0-.626.117c-.19.249-.219.435.063.848a10.411,10.411,0,0,0,.951,1.129c.3.331.622.64.934.961.038.039.3.314.352.369-.378.371-.763.751-1.154,1.137-.312-.308-.839-.829-1.131-1.127q-.634-.647-1.258-1.305a2.238,2.238,0,0,1-.132-3,2.342,2.342,0,0,1,1.781-.884,2.269,2.269,0,0,1,2.247,2.267,2.475,2.475,0,0,1-.519,1.323C243.319,387.312,242.978,387.732,242.886,387.849Z" transform="translate(-235.358 -383.555)" fill="#1a174e" fill-rule="evenodd"/>
          <path id="Path_152" data-name="Path 152" d="M250.439,405.469c.378-.365.726-.75,1.079-1.092.278.205.7.574.963.757a.489.489,0,0,0,.551.047.5.5,0,0,0,.222-.741,2.227,2.227,0,0,0-.353-.5c-.548-.593-1.107-1.173-1.662-1.76-.19-.2-.57-.608-.771-.826l1.173-1.149c.222.237.624.663.832.885.558.6,1.122,1.2,1.673,1.8a3.944,3.944,0,0,1,.844,1.274,2.043,2.043,0,0,1-.342,2.058,1.936,1.936,0,0,1-1.837.837,2.574,2.574,0,0,1-1.1-.423A7.028,7.028,0,0,1,250.439,405.469Z" transform="translate(-242.126 -393.773)" fill="#1a174e" fill-rule="evenodd"/>
          <path id="Path_153" data-name="Path 153" d="M246.536,397.981c-.364-.365-.73-.73-1.108-1.108.2-.209.551-.543.739-.736.542-.556,1.07-1.125,1.634-1.656a4.87,4.87,0,0,1,1.052-.78,1.816,1.816,0,0,1,1.865.122,2.1,2.1,0,0,1,1.008,1.476,1.968,1.968,0,0,1-.248,1.3,5.413,5.413,0,0,1-1.076,1.245l-1.038-1.032a6.719,6.719,0,0,0,.459-.54.9.9,0,0,0,.265-.749.47.47,0,0,0-.787-.313,10.483,10.483,0,0,0-.762.721C247.929,396.557,247.156,397.33,246.536,397.981Z" transform="translate(-239.051 -389.656)" fill="#1a174e" fill-rule="evenodd"/>
          <path id="Path_154" data-name="Path 154" d="M230.442,405.32c.355.392.694.763,1.027,1.127-.089.184-.413.6-.49.781a.563.563,0,0,0,.145.632.541.541,0,0,0,.594.163,1.431,1.431,0,0,0,.573-.457q.826-.868,1.65-1.736c.039-.041.3-.3.35-.355l1.115,1.106c-.216.219-.641.66-.853.876-.571.579-1.124,1.181-1.718,1.735a1.8,1.8,0,0,1-1.916.461,2.409,2.409,0,0,1-1.6-1.824,2.163,2.163,0,0,1,.584-1.969C230,405.75,230.345,405.415,230.442,405.32Z" transform="translate(-229.139 -396.911)" fill="#1a174e" fill-rule="evenodd"/>
          <path id="Path_155" data-name="Path 155" d="M233.227,399.094c-.331.359-.649.705-.985,1.071-.277-.28-.791-.8-1.045-1.064-.561-.584-1.115-1.171-1.675-1.755a2.055,2.055,0,0,1,.058-2.956,2.1,2.1,0,0,1,1.555-.639,1.833,1.833,0,0,1,1.094.456c.2.157.63.6.828.777-.363.369-.729.761-1.078,1.11a4.651,4.651,0,0,0-.649-.554.355.355,0,0,0-.277,0,1.29,1.29,0,0,0-.35.3.352.352,0,0,0-.006.4,6.287,6.287,0,0,0,1.12,1.378c.367.385.741.761,1.113,1.142C232.949,398.792,233.217,399.08,233.227,399.094Z" transform="translate(-228.923 -389.811)" fill="#1a174e" fill-rule="evenodd"/>
        </g>
        <g id="Group_34" data-name="Group 34">
          <path id="Path_156" data-name="Path 156" d="M197.012,304.357v48.059h8.473v-36.65l4.078,22.933,6.247-5.41-5.191-28.931Z" transform="translate(-197.012 -304.357)" fill="#1a174e"/>
          <path id="Path_157" data-name="Path 157" d="M250.931,304.357l-5.266,28.931,6.307,5.4,4.084-22.927v36.65h8.473V304.357Z" transform="translate(-226.867 -304.357)" fill="#1a174e"/>
        </g>
      </g>
      <g id="Group_36" data-name="Group 36" transform="translate(50.855 15.355)">
        <path id="Path_158" data-name="Path 158" d="M328.649,342.9c.065-.057.149-.124.25-.2s.214-.155.335-.234.25-.153.385-.222a2.819,2.819,0,0,1,.4-.171,1.766,1.766,0,0,1,.4-.083.759.759,0,0,1,.352.049.278.278,0,0,1,.2.24.88.88,0,0,1-.065.393,2.732,2.732,0,0,1-.236.468q-.152.246-.315.474t-.3.409c-.092.121-.157.209-.2.267-.087.133-.174.274-.264.421s-.175.3-.257.454-.156.313-.226.474a4,4,0,0,0-.173.486q.1-.212.232-.45t.278-.474q.145-.236.3-.462t.287-.419c.09-.129.173-.243.246-.342s.133-.175.179-.23l.061-.069c.038-.043.086-.1.144-.155s.124-.123.2-.191.144-.129.216-.185a1.257,1.257,0,0,1,.206-.132.241.241,0,0,1,.163-.032.363.363,0,0,1,.114.048.149.149,0,0,1,.077.118.682.682,0,0,1-.045.254q-.053.161-.14.36t-.2.427q-.112.228-.22.458t-.2.449a3.31,3.31,0,0,0-.146.407q.089-.13.219-.332t.279-.437q.148-.236.307-.484t.3-.472q.144-.224.263-.4t.187-.279c.005-.008.029-.041.071-.1s.1-.129.158-.212.135-.17.213-.26a3.064,3.064,0,0,1,.235-.242,1.062,1.062,0,0,1,.221-.161.176.176,0,0,1,.175-.014l.094.053a.156.156,0,0,1,.082.093.523.523,0,0,1-.03.234,3.512,3.512,0,0,1-.136.364c-.06.138-.131.288-.214.45s-.17.326-.26.494-.182.335-.275.5l-.259.464-.215.387q-.1.171-.141.265-.15.3-.267.565t-.211.525c-.063.173-.123.352-.177.535s-.107.384-.159.6c0,.006-.006.011-.018.016a.144.144,0,0,1-.043.012.283.283,0,0,1-.047,0h-.03c-.031-.005-.042-.022-.037-.049.052-.219.1-.423.159-.61s.114-.368.179-.543.136-.351.216-.529.168-.368.269-.572q.044-.093.136-.26t.21-.376c.078-.14.163-.29.252-.452s.179-.323.266-.486.173-.323.254-.48.153-.3.214-.437.109-.252.144-.352a.662.662,0,0,0,.049-.228c-.006-.089-.034-.132-.086-.126a.417.417,0,0,0-.2.124,2.952,2.952,0,0,0-.291.321q-.164.206-.348.462t-.378.548q-.2.29-.38.576c-.124.19-.241.372-.352.547l-.3.466c-.087.136-.158.246-.214.33a.675.675,0,0,1-.1.134.1.1,0,0,1-.031.008.3.3,0,0,1-.047,0h-.044a.049.049,0,0,1-.025,0c-.022-.011-.027-.049-.016-.114a1.571,1.571,0,0,1,.065-.242c.032-.1.073-.2.122-.323s.1-.241.155-.364.108-.243.162-.36.1-.221.149-.311l.108-.219c.027-.056.041-.085.041-.088a2.4,2.4,0,0,0,.126-.374.294.294,0,0,0,0-.185.077.077,0,0,0-.1-.03.587.587,0,0,0-.169.089,1.924,1.924,0,0,0-.211.177q-.114.108-.224.226a7.947,7.947,0,0,0-.639.8q-.314.443-.595.928-.22.391-.4.783a3.658,3.658,0,0,0-.262.771v.01s0,.01-.009.027l-.017.032-.029.012-.122-.012-.008-.032h0v-.008a.732.732,0,0,1,.04-.338,3.933,3.933,0,0,1,.143-.621,4.917,4.917,0,0,1,.222-.566,5.91,5.91,0,0,1,.291-.545c.108-.18.226-.369.354-.567.024-.036.066-.091.126-.167l.207-.265c.078-.1.162-.21.25-.327s.171-.237.248-.356.146-.236.2-.348a1.352,1.352,0,0,0,.12-.309.407.407,0,0,0-.006-.24.227.227,0,0,0-.177-.132.85.85,0,0,0-.334-.008,1.911,1.911,0,0,0-.368.1,3.077,3.077,0,0,0-.376.173c-.125.068-.241.138-.352.209s-.211.142-.3.212-.167.129-.223.181a.043.043,0,0,1-.031.012.042.042,0,0,1-.03-.012.041.041,0,0,1-.012-.031A.039.039,0,0,1,328.649,342.9Z" transform="translate(-328.637 -341.981)" fill="#1a174e"/>
        <path id="Path_159" data-name="Path 159" d="M340.684,348.021c-.027-.024-.075-.021-.143.009a.954.954,0,0,0-.217.14,2.441,2.441,0,0,0-.23.217,1.27,1.27,0,0,0-.179.238.424.424,0,0,0-.063.206c0,.06.039.1.112.114a.237.237,0,0,0,.191-.078,1.982,1.982,0,0,0,.222-.225c.075-.089.146-.177.214-.267a2.15,2.15,0,0,1,.167-.2.111.111,0,0,1,.022-.024.146.146,0,0,1,.027-.02l.1.053c0,.009-.017.04-.045.1s-.056.119-.087.191-.059.144-.083.216a.388.388,0,0,0-.029.169c.005.041.031.056.077.047a.715.715,0,0,0,.232-.145,3.345,3.345,0,0,0,.3-.279l.288-.3a.039.039,0,0,1,.061,0,.042.042,0,0,1,0,.065c-.044.043-.1.1-.173.181s-.149.155-.23.234a2.888,2.888,0,0,1-.244.212.669.669,0,0,1-.212.118.156.156,0,0,1-.142-.014.169.169,0,0,1-.053-.114.578.578,0,0,1,.013-.175,1.63,1.63,0,0,1,.053-.2c-.052.065-.107.132-.167.2a2.18,2.18,0,0,1-.181.183.89.89,0,0,1-.177.126.24.24,0,0,1-.155.032.221.221,0,0,1-.161-.1.281.281,0,0,1-.026-.183.786.786,0,0,1,.078-.228,1.445,1.445,0,0,1,.148-.236,1.561,1.561,0,0,1,.2-.209.947.947,0,0,1,.214-.146.4.4,0,0,1,.2-.045.214.214,0,0,1,.161.092.062.062,0,0,1,.006.034.031.031,0,0,1-.018.026.039.039,0,0,1-.034.009A.037.037,0,0,1,340.684,348.021Z" transform="translate(-335.46 -345.601)" fill="#1a174e"/>
        <path id="Path_160" data-name="Path 160" d="M344.2,348.106c-.006.019-.015.05-.029.094s-.029.1-.047.155l-.059.192c-.022.067-.042.135-.061.2.027-.06.062-.129.1-.207s.09-.158.143-.238.11-.157.171-.232a1.1,1.1,0,0,1,.191-.187.573.573,0,0,1,.2-.1.32.32,0,0,1,.209.018.223.223,0,0,1,.073.045.588.588,0,0,1,.058.069c.016.022.012.042-.012.061l-.022.012a.191.191,0,0,0-.027.019.089.089,0,0,1-.024.014c-.009,0-.014,0-.017,0l-.041-.047a.118.118,0,0,0-.053-.031.326.326,0,0,0-.257.016.811.811,0,0,0-.24.185,1.688,1.688,0,0,0-.211.289q-.1.165-.175.327c-.051.109-.095.208-.129.3a1.843,1.843,0,0,0-.067.206c-.032.03-.055.035-.065.016a.207.207,0,0,1-.014-.1,1.211,1.211,0,0,1,.022-.185c.014-.073.029-.151.048-.232q.066-.285.18-.671c.005-.014.022-.023.051-.028a.153.153,0,0,1,.059,0C344.2,348.064,344.209,348.081,344.2,348.106Z" transform="translate(-337.945 -345.535)" fill="#1a174e"/>
        <path id="Path_161" data-name="Path 161" d="M347.119,347.546c0,.005-.026.037-.067.094s-.092.128-.146.211-.112.175-.168.273a2.166,2.166,0,0,0-.132.272.482.482,0,0,0-.041.212.1.1,0,0,0,.106.094.328.328,0,0,0,.179-.063,2.033,2.033,0,0,0,.236-.173q.125-.106.256-.236c.087-.087.169-.171.246-.252s.146-.155.206-.222.1-.115.134-.145a.043.043,0,0,1,.061.061c-.033.035-.081.088-.143.158s-.133.148-.213.23-.165.168-.255.256-.178.168-.265.238a1.911,1.911,0,0,1-.246.173.348.348,0,0,1-.2.06.174.174,0,0,1-.173-.1.418.418,0,0,1,0-.234,1.477,1.477,0,0,1,.1-.3q.074-.161.155-.3c.054-.1.1-.176.148-.242s.071-.106.079-.12a.044.044,0,0,1,.041-.013.167.167,0,0,1,.049.019.169.169,0,0,1,.04.032C347.118,347.536,347.121,347.543,347.119,347.546Zm.325-.533a.731.731,0,0,1-.055.075c-.023.029-.047.057-.071.086s-.047.056-.067.081-.034.046-.043.059a.043.043,0,0,1-.018.031.034.034,0,0,1-.035,0,.041.041,0,0,1-.032-.053l.045-.077c.019-.032.038-.066.057-.1s.037-.067.055-.1l.038-.063a.053.053,0,0,1,.044-.016.062.062,0,0,1,.045.012.178.178,0,0,1,.031.031C347.447,346.994,347.45,347,347.444,347.013Z" transform="translate(-339.584 -345.024)" fill="#1a174e"/>
        <path id="Path_162" data-name="Path 162" d="M347.923,347.341c.008-.014.02-.031.035-.053l.047-.069c.038-.09.073-.139.105-.147l.1.024a.132.132,0,0,1-.025.09q-.045.114-.106.307c-.041.129-.087.274-.138.434.1-.06.193-.114.287-.163s.186-.1.279-.14.186-.088.283-.129l.3-.126a.042.042,0,0,1,.057.029.039.039,0,0,1-.025.057c-.116.046-.226.092-.329.136s-.2.09-.3.136-.2.1-.293.148-.2.112-.3.177c-.046.144-.1.291-.15.44s-.113.292-.177.431a4.019,4.019,0,0,1-.2.387,1.669,1.669,0,0,1-.233.3.767.767,0,0,1-.262.181.463.463,0,0,1-.294.014.1.1,0,0,1-.071-.061.271.271,0,0,1-.023-.116.653.653,0,0,1,.019-.149,1.008,1.008,0,0,1,.051-.163c.019-.049.04-.1.063-.143s.045-.087.066-.124.041-.067.057-.092.027-.039.032-.045a2.741,2.741,0,0,1,.446-.513,4.127,4.127,0,0,1,.539-.407c.032-.114.063-.222.091-.323s.057-.194.084-.275a.031.031,0,0,1-.018-.026A.06.06,0,0,1,347.923,347.341Zm-.2.794q-.151.1-.293.218a3.629,3.629,0,0,0-.277.25c-.022.024-.054.062-.1.114s-.089.112-.136.181-.1.143-.144.222a1.562,1.562,0,0,0-.12.229.91.91,0,0,0-.063.212.24.24,0,0,0,.024.165.547.547,0,0,0,.377-.14,1.463,1.463,0,0,0,.3-.375,3.075,3.075,0,0,0,.238-.515Q347.634,348.412,347.719,348.135Zm.683-1.518c-.008.022-.02.05-.035.084s-.03.068-.047.1-.032.066-.047.1-.025.051-.03.065a.051.051,0,0,1-.013.035.031.031,0,0,1-.032.01c-.029-.006-.044-.02-.044-.045s.017-.051.026-.087.02-.074.031-.112.021-.073.032-.106.019-.056.024-.069a.055.055,0,0,1,.038-.025.072.072,0,0,1,.047,0,.165.165,0,0,1,.039.023C348.405,346.6,348.408,346.607,348.4,346.617Z" transform="translate(-339.59 -344.791)" fill="#1a174e"/>
        <path id="Path_163" data-name="Path 163" d="M353.342,348.021c-.027-.024-.075-.021-.143.009a.954.954,0,0,0-.217.14,2.437,2.437,0,0,0-.23.217,1.286,1.286,0,0,0-.179.238.424.424,0,0,0-.063.206c0,.06.039.1.112.114a.237.237,0,0,0,.191-.078,1.95,1.95,0,0,0,.222-.225c.075-.089.146-.177.214-.267a2.146,2.146,0,0,1,.167-.2.122.122,0,0,1,.022-.024.164.164,0,0,1,.027-.02l.1.053c0,.009-.017.04-.045.1s-.056.119-.087.191-.059.144-.083.216a.394.394,0,0,0-.029.169c.005.041.031.056.077.047a.719.719,0,0,0,.233-.145,3.406,3.406,0,0,0,.3-.279l.288-.3a.039.039,0,0,1,.061,0,.042.042,0,0,1,0,.065c-.044.043-.1.1-.173.181s-.149.155-.23.234a2.829,2.829,0,0,1-.243.212.67.67,0,0,1-.212.118.155.155,0,0,1-.142-.014.169.169,0,0,1-.054-.114.581.581,0,0,1,.013-.175,1.647,1.647,0,0,1,.053-.2c-.052.065-.107.132-.167.2a2.131,2.131,0,0,1-.181.183.888.888,0,0,1-.177.126.24.24,0,0,1-.155.032.221.221,0,0,1-.161-.1.281.281,0,0,1-.026-.183.784.784,0,0,1,.078-.228,1.449,1.449,0,0,1,.148-.236,1.539,1.539,0,0,1,.2-.209.945.945,0,0,1,.213-.146.4.4,0,0,1,.2-.045.214.214,0,0,1,.161.092.061.061,0,0,1,.006.034.031.031,0,0,1-.018.026.04.04,0,0,1-.035.009A.037.037,0,0,1,353.342,348.021Z" transform="translate(-343.228 -345.601)" fill="#1a174e"/>
        <path id="Path_164" data-name="Path 164" d="M356.9,348.544c-.01.032-.026.082-.044.146l-.061.213c-.022.078-.043.156-.065.236s-.039.151-.053.213c.043-.065.1-.139.155-.222s.122-.163.189-.242a2.635,2.635,0,0,1,.2-.214.927.927,0,0,1,.187-.141.253.253,0,0,1,.088-.024.239.239,0,0,1,.087.008.2.2,0,0,1,.073.041.145.145,0,0,1,.045.077.336.336,0,0,1-.012.167c-.02.065-.04.13-.061.2a1.761,1.761,0,0,0-.051.177c-.012.053-.006.09.019.111a.226.226,0,0,0,.1-.049c.047-.032.1-.073.161-.122s.122-.1.185-.163l.18-.168.146-.143.083-.083a.043.043,0,0,1,.066,0,.042.042,0,0,1,.012.031.039.039,0,0,1-.017.031c-.136.133-.255.245-.356.338s-.19.167-.264.226a1.661,1.661,0,0,1-.187.13.409.409,0,0,1-.125.051c-.051,0-.085-.01-.1-.037a.181.181,0,0,1-.02-.108.719.719,0,0,1,.028-.152c.017-.057.032-.113.045-.169a1.184,1.184,0,0,0,.028-.154.178.178,0,0,0-.016-.112.088.088,0,0,0-.126-.031.721.721,0,0,0-.184.138,2.111,2.111,0,0,0-.207.238c-.07.092-.135.181-.193.268s-.107.163-.146.228-.062.1-.067.118a.037.037,0,0,1-.026.025.028.028,0,0,1-.027,0c-.014-.005-.021-.025-.022-.059a.81.81,0,0,1,.008-.13c.007-.053.016-.112.029-.177s.027-.131.043-.2q.053-.236.131-.537c.005-.01.022-.019.053-.024a.106.106,0,0,1,.061,0C356.9,348.5,356.911,348.519,356.9,348.544Z" transform="translate(-345.764 -345.973)" fill="#1a174e"/>
        <path id="Path_165" data-name="Path 165" d="M361.473,348.021c-.027-.024-.075-.021-.143.009a.957.957,0,0,0-.218.14,2.342,2.342,0,0,0-.23.217,1.221,1.221,0,0,0-.179.238.408.408,0,0,0-.063.206c0,.06.039.1.112.114a.238.238,0,0,0,.192-.078,1.952,1.952,0,0,0,.222-.225q.111-.133.214-.267a1.929,1.929,0,0,1,.167-.2.093.093,0,0,1,.022-.024.209.209,0,0,1,.027-.02l.1.053c0,.009-.018.04-.045.1s-.056.119-.087.191-.06.144-.084.216a.4.4,0,0,0-.029.169c.005.041.032.056.078.047a.719.719,0,0,0,.232-.145,3.406,3.406,0,0,0,.3-.279l.289-.3a.039.039,0,0,1,.061,0,.042.042,0,0,1,0,.065c-.043.043-.1.1-.173.181s-.149.155-.229.234a2.835,2.835,0,0,1-.244.212.668.668,0,0,1-.211.118.157.157,0,0,1-.143-.014.163.163,0,0,1-.053-.114.578.578,0,0,1,.012-.175,1.642,1.642,0,0,1,.053-.2c-.051.065-.107.132-.167.2a2.021,2.021,0,0,1-.181.183.907.907,0,0,1-.177.126.241.241,0,0,1-.155.032.218.218,0,0,1-.161-.1.276.276,0,0,1-.026-.183.759.759,0,0,1,.077-.228,1.507,1.507,0,0,1,.344-.445.937.937,0,0,1,.214-.146.4.4,0,0,1,.2-.045.217.217,0,0,1,.161.092.061.061,0,0,1,.006.034.031.031,0,0,1-.018.026.04.04,0,0,1-.034.009A.037.037,0,0,1,361.473,348.021Z" transform="translate(-348.217 -345.601)" fill="#1a174e"/>
        <path id="Path_166" data-name="Path 166" d="M371.5,343.322c.036-.035.078-.075.131-.12s.1-.092.148-.14a.931.931,0,0,0,.122-.155.363.363,0,0,0,.058-.163.244.244,0,0,0-.051-.161.553.553,0,0,0-.2-.153.675.675,0,0,0-.439-.032,2.635,2.635,0,0,0-.6.205,4.864,4.864,0,0,0-.677.391,6.379,6.379,0,0,0-.674.527,5.959,5.959,0,0,0-.59.606,3.212,3.212,0,0,0-.422.633,1.646,1.646,0,0,0-.18.608.779.779,0,0,0,.148.529.571.571,0,0,0,.273.218.584.584,0,0,0,.318.014,1.146,1.146,0,0,0,.342-.143,2.708,2.708,0,0,0,.345-.25,3.968,3.968,0,0,0,.33-.313c.105-.112.2-.222.292-.328s.168-.2.236-.293.119-.161.155-.216.073-.112.112-.181l.12-.21.116-.2a1.773,1.773,0,0,1,.1-.151.155.155,0,0,1,.047-.045.117.117,0,0,1,.048-.018.039.039,0,0,1,.037.016.074.074,0,0,1,.01.055l.013,0-.013.025c-.005.038-.014.09-.028.156s-.033.149-.058.247-.06.228-.105.39-.1.344-.169.541-.143.4-.228.62-.18.425-.283.627a4.679,4.679,0,0,1-.335.561,2.027,2.027,0,0,1-.387.423.994.994,0,0,1-.431.21.749.749,0,0,1-.474-.073.475.475,0,0,1-.165-.134.656.656,0,0,1-.105-.185.328.328,0,0,1-.017-.183.168.168,0,0,1,.112-.124c.024-.011.041,0,.053.029a.042.042,0,0,1,0,.033.034.034,0,0,1-.026.02.1.1,0,0,0-.059.085.279.279,0,0,0,.025.134.525.525,0,0,0,.088.14.406.406,0,0,0,.13.1.647.647,0,0,0,.429.065.919.919,0,0,0,.391-.2,1.892,1.892,0,0,0,.349-.4,4.37,4.37,0,0,0,.309-.539c.1-.2.185-.4.266-.616s.156-.425.222-.632.126-.4.175-.59.091-.346.124-.482q-.132.212-.32.493t-.417.563a6.331,6.331,0,0,1-.481.531,2.427,2.427,0,0,1-.506.391,1.048,1.048,0,0,1-.5.146.632.632,0,0,1-.455-.2.891.891,0,0,1-.261-.435,1.137,1.137,0,0,1,0-.5,1.982,1.982,0,0,1,.212-.539,3.644,3.644,0,0,1,.377-.546,5.119,5.119,0,0,1,.494-.518,6.316,6.316,0,0,1,.568-.464,5.579,5.579,0,0,1,.6-.378,3.817,3.817,0,0,1,.576-.26,1.988,1.988,0,0,1,.511-.112.736.736,0,0,1,.4.069.522.522,0,0,1,.281.261.349.349,0,0,1-.02.272.92.92,0,0,1-.193.258c-.085.083-.163.155-.234.218a.043.043,0,0,1-.024.022.039.039,0,0,1-.033,0,.044.044,0,0,1-.027-.024A.041.041,0,0,1,371.5,343.322Z" transform="translate(-352.786 -342.163)" fill="#1a174e"/>
        <path id="Path_167" data-name="Path 167" d="M377.449,348.021c-.027-.024-.075-.021-.143.009a.958.958,0,0,0-.218.14,2.431,2.431,0,0,0-.229.217,1.22,1.22,0,0,0-.179.238.409.409,0,0,0-.064.206c0,.06.039.1.112.114a.239.239,0,0,0,.192-.078,2.013,2.013,0,0,0,.222-.225c.074-.089.146-.177.214-.267a1.93,1.93,0,0,1,.167-.2.1.1,0,0,1,.022-.024.21.21,0,0,1,.026-.02l.1.053c0,.009-.018.04-.044.1s-.057.119-.088.191-.06.144-.083.216a.408.408,0,0,0-.029.169c.005.041.032.056.078.047a.71.71,0,0,0,.232-.145,3.29,3.29,0,0,0,.3-.279l.289-.3a.04.04,0,0,1,.061,0,.042.042,0,0,1,0,.065c-.043.043-.1.1-.173.181s-.149.155-.229.234a2.775,2.775,0,0,1-.245.212.663.663,0,0,1-.211.118.157.157,0,0,1-.143-.014.166.166,0,0,1-.053-.114.578.578,0,0,1,.012-.175,1.717,1.717,0,0,1,.053-.2c-.051.065-.107.132-.167.2a2.135,2.135,0,0,1-.181.183.92.92,0,0,1-.177.126.241.241,0,0,1-.155.032.217.217,0,0,1-.161-.1.276.276,0,0,1-.027-.183.771.771,0,0,1,.077-.228,1.5,1.5,0,0,1,.149-.236,1.469,1.469,0,0,1,.2-.209.93.93,0,0,1,.214-.146.4.4,0,0,1,.2-.045.216.216,0,0,1,.161.092.059.059,0,0,1,.006.034.032.032,0,0,1-.018.026.041.041,0,0,1-.035.009A.037.037,0,0,1,377.449,348.021Z" transform="translate(-358.02 -345.601)" fill="#1a174e"/>
        <path id="Path_168" data-name="Path 168" d="M380.781,344.832a1.37,1.37,0,0,0,.1.364.376.376,0,0,0,.138.175.242.242,0,0,0,.184.022.839.839,0,0,0,.223-.094,2.994,2.994,0,0,0,.26-.171q.14-.1.3-.211l.321-.236c.02-.019.04-.016.061.008a.044.044,0,0,1-.007.061l-.326.24-.3.214a2.9,2.9,0,0,1-.277.175.965.965,0,0,1-.246.1.328.328,0,0,1-.21-.014.372.372,0,0,1-.164-.165,1.187,1.187,0,0,1-.116-.352,1.632,1.632,0,0,0-.091.165q-.048.1-.1.2l-.094.2q-.044.1-.082.175v0l-.02.057-.142-.029q.154-.468.342-.944t.382-.932q.2-.456.385-.877t.348-.775c.005-.01.023-.018.053-.022a.136.136,0,0,1,.065,0,.043.043,0,0,1,.026.024.037.037,0,0,1,0,.032q-.147.334-.3.661c-.1.218-.2.437-.295.657s-.193.442-.287.666-.184.452-.271.685q.013-.02.024-.043a.343.343,0,0,1,.029-.042.043.043,0,0,1,.025-.041,2.241,2.241,0,0,1,.475-.521,1.623,1.623,0,0,1,.668-.305c.027-.005.043.007.048.037a.057.057,0,0,1-.01.035.035.035,0,0,1-.03.014,1.478,1.478,0,0,0-.631.295A2.282,2.282,0,0,0,380.781,344.832Z" transform="translate(-360.27 -342.095)" fill="#1a174e"/>
      </g>
      <path id="Path_169" data-name="Path 169" d="M316.153,333.7v-10h15.984v20.484a30.949,30.949,0,0,1-8.119,6.114,19.9,19.9,0,0,1-8.368,1.621,15.378,15.378,0,0,1-9.715-2.916,18.567,18.567,0,0,1-5.824-8.687,39.155,39.155,0,0,1-2.066-13.241,37.7,37.7,0,0,1,2.261-13.685,18.525,18.525,0,0,1,6.622-8.833q3.4-2.327,9.156-2.327,5.551,0,8.3,1.441a11.642,11.642,0,0,1,4.568,4.475,23.934,23.934,0,0,1,2.727,7.685L321.7,318.4a8.228,8.228,0,0,0-2.089-4.162,5.152,5.152,0,0,0-3.757-1.442,6.11,6.11,0,0,0-5.424,3.392q-2.019,3.39-2.02,10.735,0,7.8,2.043,11.143a6.361,6.361,0,0,0,5.7,3.344,7.844,7.844,0,0,0,3.31-.722,16.207,16.207,0,0,0,3.609-2.458V333.7Z" transform="translate(-259.01 -302.238)" fill="#1a174e"/>
      <g id="Group_37" data-name="Group 37" transform="translate(0.289 52.298)">
        <path id="Path_170" data-name="Path 170" d="M199.566,437.678a.088.088,0,0,1,.063.025.084.084,0,0,1,.026.064.092.092,0,0,1-.025.067.087.087,0,0,1-.064.025h-1.625v1.5h1.219a.084.084,0,0,1,.064.026.092.092,0,0,1,.025.065.085.085,0,0,1-.025.061.087.087,0,0,1-.064.025h-1.219v1.617a.086.086,0,0,1-.026.064.092.092,0,0,1-.065.025.085.085,0,0,1-.089-.089v-3.386a.1.1,0,0,1,.02-.058.08.08,0,0,1,.068-.027Z" transform="translate(-197.761 -437.647)" fill="#0e1235"/>
        <path id="Path_171" data-name="Path 171" d="M204.67,441.239a.081.081,0,0,1-.061-.032.106.106,0,0,1-.022-.068v-3.372a.079.079,0,0,1,.029-.066.107.107,0,0,1,.068-.023h1.675a.085.085,0,0,1,.089.089.09.09,0,0,1-.025.065.084.084,0,0,1-.064.027h-1.591v1.511h1.191a.092.092,0,0,1,.065.025.084.084,0,0,1,.026.064.079.079,0,0,1-.026.063.094.094,0,0,1-.065.024h-1.191v1.514h1.591a.087.087,0,0,1,.064.025.082.082,0,0,1,.025.061.094.094,0,0,1-.025.068.084.084,0,0,1-.064.027Z" transform="translate(-201.95 -437.647)" fill="#0e1235"/>
        <path id="Path_172" data-name="Path 172" d="M211.846,438.039v3.111a.086.086,0,0,1-.027.064.091.091,0,0,1-.065.025.088.088,0,0,1-.063-.025.085.085,0,0,1-.026-.064v-3.38a.084.084,0,0,1,.026-.064.088.088,0,0,1,.063-.025.1.1,0,0,1,.028.005.01.01,0,0,1,.008,0l.014.009a.171.171,0,0,1,.025.019l2.184,3.155v-3.1a.09.09,0,0,1,.092-.092.083.083,0,0,1,.064.026.091.091,0,0,1,.025.065v3.38a.086.086,0,0,1-.026.064.088.088,0,0,1-.063.025H214.1a.084.084,0,0,1-.053-.02.09.09,0,0,1-.014-.017Z" transform="translate(-206.293 -437.647)" fill="#0e1235"/>
        <path id="Path_173" data-name="Path 173" d="M220.213,439.412a1.606,1.606,0,0,0,.127.637,1.633,1.633,0,0,0,.348.519,1.65,1.65,0,0,0,.517.349,1.587,1.587,0,0,0,.636.128,1.517,1.517,0,0,0,.537-.092,1.408,1.408,0,0,0,.753-.649,1.765,1.765,0,0,0,.182-.5h-1.077a.085.085,0,0,1-.064-.027.1.1,0,0,1,0-.128.086.086,0,0,1,.064-.026h1.174a.11.11,0,0,1,.073.025.071.071,0,0,1,.027.064,1.923,1.923,0,0,1-.183.6,1.671,1.671,0,0,1-.358.481,1.628,1.628,0,0,1-1.128.434,1.772,1.772,0,0,1-.708-.142,1.8,1.8,0,0,1-.574-.388,1.832,1.832,0,0,1-.386-.576,1.835,1.835,0,0,1,0-1.405,1.845,1.845,0,0,1,.382-.579,1.808,1.808,0,0,1,.573-.393,1.755,1.755,0,0,1,.714-.145,1.8,1.8,0,0,1,.688.136,1.831,1.831,0,0,1,.6.406.089.089,0,0,1,.029.066.1.1,0,0,1-.027.063.1.1,0,0,1-.064.026.087.087,0,0,1-.066-.029,1.663,1.663,0,0,0-1.163-.484,1.592,1.592,0,0,0-.626.125,1.659,1.659,0,0,0-.518.344,1.629,1.629,0,0,0-.353.517A1.589,1.589,0,0,0,220.213,439.412Z" transform="translate(-211.427 -437.598)" fill="#0e1235"/>
        <path id="Path_174" data-name="Path 174" d="M236.071,439.342c-.1-.03-.214-.067-.33-.111a1.536,1.536,0,0,1-.321-.168.921.921,0,0,1-.245-.248.621.621,0,0,1-.1-.352.725.725,0,0,1,.093-.37.88.88,0,0,1,.242-.271,1.114,1.114,0,0,1,.33-.167,1.176,1.176,0,0,1,.356-.057,1.389,1.389,0,0,1,.309.034,1.139,1.139,0,0,1,.274.1,1.042,1.042,0,0,1,.23.161.958.958,0,0,1,.175.222.066.066,0,0,1,.008.055.079.079,0,0,1-.028.042.085.085,0,0,1-.054.02.087.087,0,0,1-.063-.026,1.023,1.023,0,0,0-.18-.2.9.9,0,0,0-.207-.132.956.956,0,0,0-.226-.071,1.352,1.352,0,0,0-.237-.021,1.051,1.051,0,0,0-.278.041.911.911,0,0,0-.273.125.74.74,0,0,0-.207.213.551.551,0,0,0-.082.3.449.449,0,0,0,.042.209.587.587,0,0,0,.116.163.755.755,0,0,0,.163.124,1.555,1.555,0,0,0,.188.092c.064.026.126.049.188.068l.164.051c.143.05.282.1.416.16a1.774,1.774,0,0,1,.359.2.932.932,0,0,1,.252.274.726.726,0,0,1,.094.378.984.984,0,0,1-.1.44,1.016,1.016,0,0,1-.255.33,1.124,1.124,0,0,1-.363.206,1.282,1.282,0,0,1-.422.071,1.312,1.312,0,0,1-.367-.052,1.38,1.38,0,0,1-.328-.14,1.156,1.156,0,0,1-.263-.211.89.89,0,0,1-.171-.264.089.089,0,0,1-.007-.078.094.094,0,0,1,.046-.045c.044-.02.085,0,.122.047a.751.751,0,0,0,.153.229.981.981,0,0,0,.231.178,1.193,1.193,0,0,0,.284.114,1.227,1.227,0,0,0,.311.041,1.091,1.091,0,0,0,.338-.054.936.936,0,0,0,.3-.163.8.8,0,0,0,.3-.648.554.554,0,0,0-.085-.31.809.809,0,0,0-.224-.224,1.638,1.638,0,0,0-.316-.165Q236.258,439.409,236.071,439.342Z" transform="translate(-220.589 -437.598)" fill="#0e1235"/>
        <path id="Path_175" data-name="Path 175" d="M243.4,439.375h2.05v-1.608a.087.087,0,0,1,.026-.064.093.093,0,0,1,.066-.025.086.086,0,0,1,.089.089v3.383a.086.086,0,0,1-.027.064.088.088,0,0,1-.063.025.093.093,0,0,1-.066-.025.087.087,0,0,1-.026-.064v-1.6H243.4v1.6a.086.086,0,0,1-.026.064.092.092,0,0,1-.065.025.088.088,0,0,1-.063-.025.085.085,0,0,1-.026-.064v-3.383a.084.084,0,0,1,.026-.064.088.088,0,0,1,.063-.025.092.092,0,0,1,.065.025.085.085,0,0,1,.026.064Z" transform="translate(-225.656 -437.647)" fill="#0e1235"/>
        <path id="Path_176" data-name="Path 176" d="M252.106,440.058a1.022,1.022,0,0,0,.3.731,1.024,1.024,0,0,0,.33.218,1.045,1.045,0,0,0,.406.079,1.014,1.014,0,0,0,.4-.08.993.993,0,0,0,.321-.22,1.025,1.025,0,0,0,.213-.328,1.045,1.045,0,0,0,.078-.4v-2.3a.083.083,0,0,1,.026-.064.087.087,0,0,1,.063-.025.09.09,0,0,1,.067.025.086.086,0,0,1,.025.064v2.307a1.182,1.182,0,0,1-.093.469,1.228,1.228,0,0,1-.253.381,1.181,1.181,0,0,1-.85.352,1.208,1.208,0,0,1-1.124-.737,1.176,1.176,0,0,1-.094-.47v-2.287a.086.086,0,0,1,.026-.066.091.091,0,0,1,.065-.025.088.088,0,0,1,.063.025.087.087,0,0,1,.027.066Z" transform="translate(-230.998 -437.642)" fill="#0e1235"/>
        <path id="Path_177" data-name="Path 177" d="M260.862,441.15a.086.086,0,0,1-.026.064.093.093,0,0,1-.065.025.088.088,0,0,1-.063-.025.084.084,0,0,1-.026-.064v-3.383a.084.084,0,0,1,.026-.064.088.088,0,0,1,.063-.025.092.092,0,0,1,.065.025.085.085,0,0,1,.026.064Z" transform="translate(-236.372 -437.647)" fill="#0e1235"/>
        <path id="Path_178" data-name="Path 178" d="M268.359,439.223l1.13,1.074.454-.534a.086.086,0,0,1,.062-.033.08.08,0,0,1,.066.025.069.069,0,0,1,.029.063.115.115,0,0,1-.026.071l-.454.534.66.623a.115.115,0,0,1,.039.064.062.062,0,0,1-.017.056.1.1,0,0,1-.061.034.082.082,0,0,1-.064-.021l-.665-.629-.22.259h0a1.228,1.228,0,0,1-.18.172,1.336,1.336,0,0,1-.21.135,1.105,1.105,0,0,1-.227.088.9.9,0,0,1-.228.031,1.045,1.045,0,0,1-.423-.086,1.107,1.107,0,0,1-.345-.234,1.1,1.1,0,0,1-.233-.343,1.04,1.04,0,0,1-.085-.419,1,1,0,0,1,.194-.608,1.063,1.063,0,0,1,.216-.219,1.371,1.371,0,0,1,.273-.163l-.1-.1a1.365,1.365,0,0,1-.117-.128,1.23,1.23,0,0,1-.112-.161,1.1,1.1,0,0,1-.083-.18.547.547,0,0,1-.034-.187.8.8,0,0,1,.06-.312.777.777,0,0,1,.166-.252.768.768,0,0,1,.249-.168.817.817,0,0,1,.619,0,.747.747,0,0,1,.409.414.807.807,0,0,1,.059.311.726.726,0,0,1-.184.506,1.163,1.163,0,0,1-.573.309Zm1.021,1.2-1.207-1.144a1.335,1.335,0,0,0-.257.136.907.907,0,0,0-.2.188.827.827,0,0,0-.132.241.874.874,0,0,0-.047.292.884.884,0,0,0,.071.352.922.922,0,0,0,.481.49.87.87,0,0,0,.357.074.7.7,0,0,0,.207-.031.962.962,0,0,0,.192-.08,1.116,1.116,0,0,0,.168-.113.986.986,0,0,0,.134-.127.086.086,0,0,1,.014-.017Zm-1.157-1.333a.759.759,0,0,1,.073-.024l.077-.021a1.155,1.155,0,0,0,.288-.113.737.737,0,0,0,.19-.151.543.543,0,0,0,.105-.181.617.617,0,0,0,.034-.2.647.647,0,0,0-.044-.239.6.6,0,0,0-.125-.195.584.584,0,0,0-.192-.131.62.62,0,0,0-.245-.048.607.607,0,0,0-.242.048.572.572,0,0,0-.192.131.609.609,0,0,0-.127.2.641.641,0,0,0-.046.243.432.432,0,0,0,.028.15.871.871,0,0,0,.07.145,1.324,1.324,0,0,0,.092.133,1.148,1.148,0,0,0,.1.107l.008.008Z" transform="translate(-240.471 -437.607)" fill="#0e1235"/>
        <path id="Path_179" data-name="Path 179" d="M281.954,439.342q-.156-.045-.33-.111a1.528,1.528,0,0,1-.321-.168.917.917,0,0,1-.245-.248.621.621,0,0,1-.1-.352.726.726,0,0,1,.094-.37.88.88,0,0,1,.242-.271,1.109,1.109,0,0,1,.33-.167,1.176,1.176,0,0,1,.356-.057,1.391,1.391,0,0,1,.309.034,1.139,1.139,0,0,1,.274.1,1.041,1.041,0,0,1,.229.161.959.959,0,0,1,.175.222.066.066,0,0,1,.008.055.079.079,0,0,1-.028.042.085.085,0,0,1-.054.02.087.087,0,0,1-.063-.026,1.025,1.025,0,0,0-.181-.2.9.9,0,0,0-.207-.132.954.954,0,0,0-.227-.071,1.344,1.344,0,0,0-.236-.021,1.049,1.049,0,0,0-.278.041.906.906,0,0,0-.273.125.734.734,0,0,0-.207.213.551.551,0,0,0-.082.3.44.44,0,0,0,.042.209.585.585,0,0,0,.115.163.775.775,0,0,0,.163.124,1.586,1.586,0,0,0,.188.092c.064.026.126.049.188.068l.164.051q.214.075.416.16a1.774,1.774,0,0,1,.359.2.932.932,0,0,1,.252.274.726.726,0,0,1,.094.378.984.984,0,0,1-.1.44,1.022,1.022,0,0,1-.255.33,1.125,1.125,0,0,1-.363.206,1.282,1.282,0,0,1-.422.071,1.312,1.312,0,0,1-.367-.052,1.38,1.38,0,0,1-.328-.14,1.156,1.156,0,0,1-.263-.211.882.882,0,0,1-.171-.264.089.089,0,0,1-.007-.078.1.1,0,0,1,.046-.045c.045-.02.085,0,.123.047a.75.75,0,0,0,.153.229.983.983,0,0,0,.231.178,1.2,1.2,0,0,0,.284.114,1.233,1.233,0,0,0,.312.041,1.091,1.091,0,0,0,.338-.054.936.936,0,0,0,.3-.163.8.8,0,0,0,.3-.648.554.554,0,0,0-.085-.31.809.809,0,0,0-.224-.224,1.65,1.65,0,0,0-.316-.165Q282.141,439.409,281.954,439.342Z" transform="translate(-248.745 -437.598)" fill="#0e1235"/>
        <path id="Path_180" data-name="Path 180" d="M289.283,439.645v1.5a.086.086,0,0,1-.026.064.093.093,0,0,1-.065.025.088.088,0,0,1-.063-.025.085.085,0,0,1-.027-.064v-3.383a.084.084,0,0,1,.027-.064.087.087,0,0,1,.063-.025h.938a1.107,1.107,0,0,1,.406.073,1.008,1.008,0,0,1,.33.206.943.943,0,0,1,.219.313,1.017,1.017,0,0,1,0,.789.932.932,0,0,1-.219.31,1.007,1.007,0,0,1-.33.2,1.124,1.124,0,0,1-.406.073Zm0-1.789v1.611h.851a.893.893,0,0,0,.342-.064.828.828,0,0,0,.269-.175.806.806,0,0,0,.175-.258.777.777,0,0,0,.063-.31.793.793,0,0,0-.064-.318.784.784,0,0,0-.178-.256.827.827,0,0,0-.271-.17.939.939,0,0,0-.344-.061Z" transform="translate(-253.811 -437.647)" fill="#0e1235"/>
        <path id="Path_181" data-name="Path 181" d="M297.048,440.023h-1.761l-.5,1.16a.084.084,0,0,1-.047.05.1.1,0,0,1-.072,0,.073.073,0,0,1-.047-.05.092.092,0,0,1,.005-.07l1.458-3.38a.088.088,0,0,1,.087-.055.081.081,0,0,1,.08.055l1.455,3.38a.11.11,0,0,1,0,.071.072.072,0,0,1-.043.049.1.1,0,0,1-.073,0,.091.091,0,0,1-.053-.049Zm-1.683-.181h1.605l-.8-1.878Z" transform="translate(-257.198 -437.647)" fill="#0e1235"/>
        <path id="Path_182" data-name="Path 182" d="M306.555,438.144a.086.086,0,0,1,.027.063.089.089,0,0,1-.027.063.084.084,0,0,1-.064.027.081.081,0,0,1-.064-.027,1.633,1.633,0,0,0-1.984-.265,1.574,1.574,0,0,0-.328.256,1.684,1.684,0,0,0-.253.331,1.579,1.579,0,0,0-.163.389,1.646,1.646,0,0,0-.057.434,1.62,1.62,0,0,0,.056.424,1.632,1.632,0,0,0,.408.717,1.617,1.617,0,0,0,.328.259,1.645,1.645,0,0,0,.391.169,1.556,1.556,0,0,0,.444.062,1.709,1.709,0,0,0,.614-.113,1.54,1.54,0,0,0,.541-.357.092.092,0,0,1,.066-.031.082.082,0,0,1,.061.025.077.077,0,0,1,.026.064.091.091,0,0,1-.026.064,1.705,1.705,0,0,1-.6.4,1.875,1.875,0,0,1-.681.128,1.767,1.767,0,0,1-.483-.065,1.852,1.852,0,0,1-.432-.182,1.758,1.758,0,0,1-.365-.283,1.791,1.791,0,0,1-.281-.367,1.836,1.836,0,0,1-.18-.433,1.824,1.824,0,0,1,0-.947,1.85,1.85,0,0,1,.447-.8,1.761,1.761,0,0,1,.364-.292,1.785,1.785,0,0,1,.938-.259,1.759,1.759,0,0,1,.682.138A1.858,1.858,0,0,1,306.555,438.144Z" transform="translate(-262.623 -437.598)" fill="#0e1235"/>
        <path id="Path_183" data-name="Path 183" d="M313.733,441.239a.081.081,0,0,1-.061-.032.106.106,0,0,1-.022-.068v-3.372a.079.079,0,0,1,.029-.066.106.106,0,0,1,.068-.023h1.674a.085.085,0,0,1,.089.089.092.092,0,0,1-.025.065.084.084,0,0,1-.064.027H313.83v1.511h1.191a.092.092,0,0,1,.066.025.085.085,0,0,1,.026.064.081.081,0,0,1-.026.063.094.094,0,0,1-.066.024H313.83v1.514h1.591a.087.087,0,0,1,.064.025.083.083,0,0,1,.025.061.1.1,0,0,1-.025.068.084.084,0,0,1-.064.027Z" transform="translate(-268.875 -437.647)" fill="#0e1235"/>
        <path id="Path_184" data-name="Path 184" d="M327.3,438.144a.084.084,0,0,1,.028.063.086.086,0,0,1-.028.063.082.082,0,0,1-.064.027.083.083,0,0,1-.064-.027,1.621,1.621,0,0,0-1.157-.487,1.649,1.649,0,0,0-.826.223,1.576,1.576,0,0,0-.328.256,1.7,1.7,0,0,0-.253.331,1.607,1.607,0,0,0-.162.389,1.629,1.629,0,0,0-.057.434,1.588,1.588,0,0,0,.056.424,1.632,1.632,0,0,0,.408.717,1.612,1.612,0,0,0,.327.259,1.659,1.659,0,0,0,.391.169,1.566,1.566,0,0,0,.444.062,1.709,1.709,0,0,0,.614-.113,1.526,1.526,0,0,0,.541-.357.094.094,0,0,1,.067-.031.082.082,0,0,1,.061.025.081.081,0,0,1,.027.064.1.1,0,0,1-.027.064,1.71,1.71,0,0,1-.6.4,1.872,1.872,0,0,1-.682.128,1.775,1.775,0,0,1-.483-.065,1.852,1.852,0,0,1-.432-.182,1.767,1.767,0,0,1-.365-.283,1.788,1.788,0,0,1-.281-.367,1.836,1.836,0,0,1-.181-.433,1.816,1.816,0,0,1-.064-.481,1.791,1.791,0,0,1,.061-.466,1.877,1.877,0,0,1,.174-.428,1.838,1.838,0,0,1,.274-.372,1.776,1.776,0,0,1,.363-.292,1.79,1.79,0,0,1,.939-.259,1.766,1.766,0,0,1,.682.138A1.855,1.855,0,0,1,327.3,438.144Z" transform="translate(-275.352 -437.598)" fill="#0e1235"/>
        <path id="Path_185" data-name="Path 185" d="M334.576,441.058l1.536,0a.089.089,0,0,1,.064.024.078.078,0,0,1,.025.06.1.1,0,0,1-.025.068.083.083,0,0,1-.064.027h-1.627a.088.088,0,0,1-.063-.025.083.083,0,0,1-.027-.064v-3.378a.09.09,0,0,1,.027-.068.084.084,0,0,1,.063-.026.087.087,0,0,1,.065.026.093.093,0,0,1,.026.068Z" transform="translate(-281.605 -437.647)" fill="#0e1235"/>
        <path id="Path_186" data-name="Path 186" d="M341.039,441.239a.078.078,0,0,1-.061-.032.107.107,0,0,1-.023-.068v-3.372a.08.08,0,0,1,.029-.066.107.107,0,0,1,.068-.023h1.675a.086.086,0,0,1,.063.025.085.085,0,0,1,.025.064.089.089,0,0,1-.025.065.083.083,0,0,1-.063.027h-1.591v1.511h1.191a.091.091,0,0,1,.065.025.083.083,0,0,1,.026.064.078.078,0,0,1-.026.063.093.093,0,0,1-.065.024h-1.191v1.514h1.591a.086.086,0,0,1,.063.025.081.081,0,0,1,.025.061.093.093,0,0,1-.025.068.083.083,0,0,1-.063.027Z" transform="translate(-285.63 -437.647)" fill="#0e1235"/>
        <path id="Path_187" data-name="Path 187" d="M349.679,440.023h-1.761l-.5,1.16a.084.084,0,0,1-.048.05.1.1,0,0,1-.072,0,.072.072,0,0,1-.047-.05.09.09,0,0,1,.005-.07l1.458-3.38a.087.087,0,0,1,.086-.055.081.081,0,0,1,.081.055l1.455,3.38a.113.113,0,0,1,0,.071.072.072,0,0,1-.043.049.1.1,0,0,1-.072,0,.089.089,0,0,1-.053-.049ZM348,439.842H349.6l-.8-1.878Z" transform="translate(-289.494 -437.647)" fill="#0e1235"/>
        <path id="Path_188" data-name="Path 188" d="M359.285,438.665a.968.968,0,0,1-.073.379.928.928,0,0,1-.2.3.98.98,0,0,1-.3.206,1.105,1.105,0,0,1-.378.092l.937,1.461a.091.091,0,0,1,.008.079.082.082,0,0,1-.053.051.084.084,0,0,1-.065,0,.1.1,0,0,1-.051-.043l-.983-1.547H357.4v1.5a.086.086,0,0,1-.026.064.091.091,0,0,1-.065.025.088.088,0,0,1-.063-.025.083.083,0,0,1-.026-.064v-3.383a.083.083,0,0,1,.026-.064.088.088,0,0,1,.063-.025h.937a1.11,1.11,0,0,1,.406.073,1.011,1.011,0,0,1,.33.206.95.95,0,0,1,.22.313A.978.978,0,0,1,359.285,438.665Zm-1.882-.809v1.611h.852a.9.9,0,0,0,.342-.064.842.842,0,0,0,.269-.175.817.817,0,0,0,.175-.258.808.808,0,0,0,0-.627.773.773,0,0,0-.178-.256.825.825,0,0,0-.271-.17.94.94,0,0,0-.344-.061Z" transform="translate(-295.613 -437.647)" fill="#0e1235"/>
        <path id="Path_189" data-name="Path 189" d="M365.115,441.15a.086.086,0,0,1-.026.064.094.094,0,0,1-.066.025.088.088,0,0,1-.063-.025.086.086,0,0,1-.026-.064v-3.383a.085.085,0,0,1,.026-.064.088.088,0,0,1,.063-.025.094.094,0,0,1,.066.025.085.085,0,0,1,.026.064Z" transform="translate(-300.345 -437.647)" fill="#0e1235"/>
        <path id="Path_190" data-name="Path 190" d="M368.319,438.039v3.111a.086.086,0,0,1-.026.064.091.091,0,0,1-.065.025.088.088,0,0,1-.063-.025.083.083,0,0,1-.026-.064v-3.38a.083.083,0,0,1,.026-.064.088.088,0,0,1,.063-.025.092.092,0,0,1,.027.005.011.011,0,0,1,.009,0l.014.009a.139.139,0,0,1,.025.019l2.184,3.155v-3.1a.09.09,0,0,1,.092-.092.085.085,0,0,1,.064.026.091.091,0,0,1,.025.065v3.38a.086.086,0,0,1-.027.064.088.088,0,0,1-.063.025h-.008a.083.083,0,0,1-.053-.02.1.1,0,0,1-.014-.017Z" transform="translate(-302.311 -437.647)" fill="#0e1235"/>
        <path id="Path_191" data-name="Path 191" d="M376.686,439.412a1.606,1.606,0,0,0,.127.637,1.626,1.626,0,0,0,.348.519,1.643,1.643,0,0,0,.518.349,1.584,1.584,0,0,0,.635.128,1.523,1.523,0,0,0,.537-.092,1.436,1.436,0,0,0,.435-.256,1.419,1.419,0,0,0,.317-.394,1.778,1.778,0,0,0,.183-.5h-1.077a.084.084,0,0,1-.064-.027.094.094,0,0,1,0-.128.085.085,0,0,1,.064-.026h1.174a.11.11,0,0,1,.072.025.07.07,0,0,1,.027.064,1.914,1.914,0,0,1-.184.6,1.664,1.664,0,0,1-.358.481,1.626,1.626,0,0,1-1.128.434,1.771,1.771,0,0,1-.708-.142,1.807,1.807,0,0,1-.96-.964,1.84,1.84,0,0,1,0-1.405,1.851,1.851,0,0,1,.383-.579,1.8,1.8,0,0,1,.574-.393,1.75,1.75,0,0,1,.713-.145,1.8,1.8,0,0,1,.689.136,1.833,1.833,0,0,1,.6.406.088.088,0,0,1,.029.066.09.09,0,0,1-.09.089.09.09,0,0,1-.067-.029,1.659,1.659,0,0,0-1.163-.484,1.59,1.59,0,0,0-.625.125,1.653,1.653,0,0,0-.517.344,1.625,1.625,0,0,0-.354.517A1.59,1.59,0,0,0,376.686,439.412Z" transform="translate(-307.446 -437.598)" fill="#0e1235"/>
      </g>
    </g>
    <g id="Group_39" data-name="Group 39" transform="translate(159.648 242.613)">
      <path id="Path_192" data-name="Path 192" d="M210.648,344.612a51,51,0,1,1,51-51A51.058,51.058,0,0,1,210.648,344.612Zm0-100.84a49.841,49.841,0,1,0,49.84,49.841A49.9,49.9,0,0,0,210.648,243.772Z" transform="translate(-159.648 -242.613)" fill="url(#linear-gradient)"/>
    </g>
  </g>
</svg>
