<svg xmlns="http://www.w3.org/2000/svg" width="273.024" height="260" viewBox="0 0 273.024 260">
  <g id="overall_wellbeing_icon" data-name="overall wellbeing icon" transform="translate(-39.371 -42.004)">
    <g id="Group_199" data-name="Group 199" transform="translate(41.389 42.004)">
      <path id="Path_772" data-name="Path 772" d="M229.027,44.995c-18.884,4.824-33.581,14.352-49.616,22.282a73.484,73.484,0,0,1-28.165,7.75c-11.951.7-22.606-.915-31.417-4.221-.023-.291.328-.354.485-.485a105.112,105.112,0,0,1,14.393-9.965c1.18-.692,2.612-1.577,4.014-2.353a6.725,6.725,0,0,1,1.384-.692,11.285,11.285,0,0,1,2.146.208,90.02,90.02,0,0,0,15.708.138A77.225,77.225,0,0,0,187.3,49.493a71.49,71.49,0,0,0,11.626-7.474A133.4,133.4,0,0,1,229.027,44.995Z" transform="translate(-71.248 -42.004)" fill="#e6cbb2" fill-rule="evenodd"/>
      <path id="Path_773" data-name="Path 773" d="M209.382,42.139c.247.059-.214.381-.345.484-.558.434-1.239.881-1.868,1.315a69.382,69.382,0,0,1-20.206,9.342,85.83,85.83,0,0,1-30.379,2.7,4.486,4.486,0,0,1,1.314-.761A128.129,128.129,0,0,1,201.079,42.83c1.226-.135,2.468-.258,3.737-.345C206.33,42.38,207.828,42.218,209.382,42.139Z" transform="translate(-84.888 -42.054)" fill="#e6cbb2" fill-rule="evenodd"/>
      <path id="Path_774" data-name="Path 774" d="M242.711,53.823c-10.63,1.93-20.063,4.951-27.542,9.9-3.32,2.2-7.528,5.517-8.442,10.241a9.613,9.613,0,0,0,1.592,7.474,9.1,9.1,0,0,0,6.021,3.321,26.453,26.453,0,0,0,8.718-.138,55.335,55.335,0,0,0,7.543-1.8c9.674-2.965,18.2-6.358,29.756-7.612a82.418,82.418,0,0,1,13.286-.484,18.128,18.128,0,0,1,4.222.415,7.51,7.51,0,0,1,1.87,1.523,131.015,131.015,0,0,1,10.1,9.826,8.9,8.9,0,0,1,1.453,1.731,120.15,120.15,0,0,0-12.178-1.938,130.323,130.323,0,0,0-13.563-.553c-8.811,0-17.646,1.614-25.12,3.114-7.779,1.56-15.471,3.349-23.182,5.052-7.8,1.721-15.663,3.216-23.735,4.5-15.5,2.461-35.292,4.395-52.177,1.522-16.081-2.735-29.777-7.964-40.758-15.708a94.03,94.03,0,0,1,10.587-9.827,75.492,75.492,0,0,0,32.455,4.775A78.529,78.529,0,0,0,173.1,71.193c4.166-2.048,8.232-4.272,12.317-6.436s8.124-4.466,12.317-6.435c4.271-2.006,8.638-3.83,13.149-5.6A84.709,84.709,0,0,1,225.342,48.5a6.137,6.137,0,0,1,2.629.415A133.947,133.947,0,0,1,242.711,53.823ZM187.005,82.057a28.128,28.128,0,0,1-9.758.415,6.677,6.677,0,0,0-3.6.138,3.115,3.115,0,0,0-1.315,3.737c.38,1.015,1.541,1.663,2.63,2.284a16.964,16.964,0,0,0,3.391,1.522,30.352,30.352,0,0,0,17.232-.345c2.147-.794,5-2.373,4.981-4.844a3.691,3.691,0,0,0-1.937-3.045c-1.534-.96-4.158-1.116-5.951-.968A41.012,41.012,0,0,0,187.005,82.057Z" transform="translate(-64.103 -44.397)" fill="#e6cbb2" fill-rule="evenodd"/>
      <path id="Path_775" data-name="Path 775" d="M339,77.108a89.887,89.887,0,0,0-33.008,4.153c-4.681,1.434-9.277,3.138-14.325,4.5-4.418,1.191-11.7,2.627-16.193.484-2.328-1.11-3.912-3.719-3.6-7.335a9.445,9.445,0,0,1,2.214-4.913c3.077-3.875,7.83-6.621,12.526-8.719a84.114,84.114,0,0,1,22.214-6.09,5.4,5.4,0,0,1,2.49.762,130.795,130.795,0,0,1,20.968,12.041c1.192.821,2.394,1.638,3.529,2.492A30.028,30.028,0,0,1,339,77.108Z" transform="translate(-127.66 -48.375)" fill="#e6cbb2" fill-rule="evenodd"/>
      <path id="Path_776" data-name="Path 776" d="M236.6,102.759c1.872-.1,5.354.294,5.467,2.283.06,1.05-1.106,1.907-1.938,2.422-4.256,2.639-12.783,2.77-18.268,1.107-1.374-.417-3.346-.947-4.291-2.146a1.539,1.539,0,0,1-.415-1.591c.447-1.2,3.32-.544,4.637-.415a28.984,28.984,0,0,0,9.965-.831A26.68,26.68,0,0,1,236.6,102.759Z" transform="translate(-107.336 -64.545)" fill="#e6cbb2" fill-rule="evenodd"/>
      <path id="Path_777" data-name="Path 777" d="M91.12,107.278c11.317,7.847,25.017,13.371,41.451,16.055a131.465,131.465,0,0,0,27.057,1.314c18.309-.865,34.255-3.925,50.171-7.335,7.872-1.687,15.646-3.627,23.527-5.19a130.061,130.061,0,0,1,25.811-2.907,115.945,115.945,0,0,1,22.837,2.353,16.915,16.915,0,0,1,2.906.623c.712.31,1.548,1.631,2.076,2.284a15.286,15.286,0,0,1,1.66,2.146c.016.027.34.218,0,.208-10.562-1.757-20.5-4.236-32.662-3.53a85.514,85.514,0,0,0-15.639,2.56,119.53,119.53,0,0,0-13.7,4.5,152.966,152.966,0,0,0-24.7,11.695c-3.788,2.278-7.393,4.759-11,7.2-7.244,4.891-14.7,9.659-23.113,13.356a46.212,46.212,0,0,1-14.256,3.944,56.428,56.428,0,0,1-16.746-.9c-20.037-4.031-34.341-14.152-48.232-24.566-1.746-1.309-3.415-2.678-5.121-4.014a50.839,50.839,0,0,1-4.983-4.082A131.926,131.926,0,0,1,91.12,107.278Z" transform="translate(-55.894 -66.228)" fill="#e6cbb2" fill-rule="evenodd"/>
      <path id="Path_778" data-name="Path 778" d="M287.275,139.659c-6.145,13.234-15.571,22.959-26.988,30.863-7.528,5.212-16.252,9.427-24.982,13.563-6.559,3.109-12.761,6.387-18.2,10.657-5.31,4.17-10.4,9.009-13.561,15.294a15.057,15.057,0,0,0-1.8,7.889,9.816,9.816,0,0,0,3.113,6.5c3.219,3.151,8.4,4.541,15.017,3.668a71.879,71.879,0,0,0,15.225-4.083c9.518-3.444,17.737-7.9,26.435-12.11q6.478-3.137,13.009-6.228c2.166-1.021,4.287-2.12,6.505-3.114a102.322,102.322,0,0,1,21.382-7.335,94.244,94.244,0,0,1,0,10.588,83.791,83.791,0,0,0-17.646,3.6,232.57,232.57,0,0,0-30.239,12.11c-4.8,2.236-9.419,4.734-14.117,7.059-4.731,2.339-9.429,4.736-14.256,6.989a216.438,216.438,0,0,1-65.671,19.1,186.332,186.332,0,0,1-40.066.76,117.907,117.907,0,0,1-17.923-3.251c-19.353-5.132-35.858-13.525-51-23.113-1.563-.99-3.219-2.09-4.844-3.114-.636-.4-1.575-.669-1.869-1.314a14.835,14.835,0,0,1-.484-2.838,128.168,128.168,0,0,1-1.73-21.176c9.982,2.722,17.537,7.841,25.188,12.734,3.845,2.459,7.57,5.081,11.349,7.613a104.759,104.759,0,0,0,11.764,7.2,64.2,64.2,0,0,0,13.979,4.981,38.636,38.636,0,0,0,8.511.97,29.706,29.706,0,0,0,8.3-1.177,22.677,22.677,0,0,0,11.626-7.335A17.112,17.112,0,0,0,136.35,210.8a28.262,28.262,0,0,0-6.574-12.388c-11.794-13.576-30.328-20.263-44.979-30.863-1.841-1.333-3.558-2.747-5.259-4.222a54.843,54.843,0,0,1-12.872-15.569,52.5,52.5,0,0,1-5.12-13.771c-.027-.125-.143-.432-.139-.484a8.22,8.22,0,0,1,1.315-2.284c.506-.818.962-1.445,1.384-2.214A274.248,274.248,0,0,0,92.2,149.348a93.437,93.437,0,0,0,22.075,10.172c8.037,2.468,17.782,4.564,28.164,2.976,9.177-1.4,16.269-5.271,23.113-9.2,3.414-1.962,6.737-4,9.965-6.159,6.478-4.338,12.86-8.731,19.79-12.457a177.621,177.621,0,0,1,22.491-9.757,88.588,88.588,0,0,1,26.78-5.466c8.987-.418,16.906,1.194,24.427,2.491,1.237.214,2.563.394,3.876.623a29.205,29.205,0,0,1,3.737.692,1.18,1.18,0,0,1,.693.415,22.44,22.44,0,0,1,1.314,1.938A111.091,111.091,0,0,1,287.275,139.659Zm-38.2-15.778a20.6,20.6,0,0,0-3.183,1.107,27.109,27.109,0,0,0-13.217,12.595,31.838,31.838,0,0,0-3.53,9.341c-.213,1.148-.277,2.423-.553,3.737a12.916,12.916,0,0,1-2.7,5.882c-1.379,1.688-3.089,2.836-3.807,4.844-1.118,3.127,1.346,6.76,3.392,7.75,3.161,1.53,7.322.765,10.311-.347,6.218-2.312,10.026-6.514,13.356-11.556,1.667-2.526,3.124-5.229,4.914-7.543,1.724-2.229,4.118-4.061,6.3-6.159a15.117,15.117,0,0,0,4.636-7.82,10.889,10.889,0,0,0-.139-5.536c-1.411-4.587-6.337-7.179-11.9-6.85A21.2,21.2,0,0,0,249.077,123.882Zm-36.885,9.065a19.136,19.136,0,0,0-3.182,2.768c-1.573,1.732-3.9,4.952-4.153,7.82a5.651,5.651,0,0,0,.139,1.938c1.01,2.9,5.005,1.753,7.128.416a20.812,20.812,0,0,0,6.158-6.366,11.8,11.8,0,0,0,1.8-4.5c.4-2.782-1.224-4.261-3.668-3.945A9.769,9.769,0,0,0,212.192,132.947Z" transform="translate(-42.58 -70.721)" fill="#e6cbb2" fill-rule="evenodd"/>
      <path id="Path_779" data-name="Path 779" d="M359.344,128.381c4.666-.345,8.735,1.406,10.242,4.568a8.047,8.047,0,0,1,.76,3.529,11.713,11.713,0,0,1-2.214,6.713,25.564,25.564,0,0,1-4.429,4.5,29.367,29.367,0,0,0-4.429,4.5c-1.21,1.607-2.344,3.5-3.529,5.4-3.556,5.687-7.006,10.492-13.84,12.939-1.991.714-5.195,1.65-7.613.969-.169-.048-.4-.236-.693-.346a4.707,4.707,0,0,1-.968-.346,6.736,6.736,0,0,1-1.661-1.938,4.818,4.818,0,0,1-.762-2.837c.179-1.934,2.451-3.589,3.529-4.845a13.735,13.735,0,0,0,2.837-5.467c.689-2.405.906-4.913,1.453-6.92a31.131,31.131,0,0,1,2.353-5.951,27.71,27.71,0,0,1,7.2-9.48,22.14,22.14,0,0,1,8.1-4.36A18.8,18.8,0,0,1,359.344,128.381Z" transform="translate(-149.318 -74.043)" fill="#e6cbb2" fill-rule="evenodd"/>
      <path id="Path_780" data-name="Path 780" d="M313.493,140.611c1.173-.113,1.811.364,1.659,2.007a9.6,9.6,0,0,1-1.659,4.014,18.156,18.156,0,0,1-5.607,5.744c-.926.571-3.259,1.711-4.221.9-.99-.836-.029-3.2.415-4.152a16,16,0,0,1,2.006-3.322,16.482,16.482,0,0,1,5.883-4.844A5.074,5.074,0,0,1,313.493,140.611Z" transform="translate(-139.312 -78.592)" fill="#e6cbb2" fill-rule="evenodd"/>
      <path id="Path_781" data-name="Path 781" d="M60.094,145.02c.058-.013.065.028.069.07,4.992,19.956,18.463,30.97,34.323,40.2,11.6,6.753,24.215,13.01,33.146,22.766a28.008,28.008,0,0,1,6.851,11.765,17.513,17.513,0,0,1,.346,8.3c-1.655,7.2-7.888,11.268-14.947,13.008-5.454,1.346-11.386.7-16.4-.553a57.236,57.236,0,0,1-13.356-5.258c-8.073-4.339-15.1-9.837-22.629-14.672-7.543-4.844-15.247-9.711-24.912-12.317a124.925,124.925,0,0,1,2.145-21.452c.13-.243.284.244.415.415,1.041,1.36,2.187,2.831,3.391,4.152,1.369,1.5,2.92,2.851,4.359,4.29,2.888,2.888,5.978,5.711,9.065,8.235a54.186,54.186,0,0,0,10.311,6.989c3.37,1.694,9.075,4.153,13.7,2.284,2.875-1.162,4.172-4.029,2.768-7.682a23.274,23.274,0,0,0-4.637-6.989,77.986,77.986,0,0,0-5.951-5.744c-2.042-1.855-4.062-3.741-6.09-5.536-4.009-3.549-8.188-7.316-11.487-11.833a59.331,59.331,0,0,1-7.127-13.217,10.647,10.647,0,0,1-.762-2.146,8.146,8.146,0,0,1,.831-2.006A136.484,136.484,0,0,1,60.094,145.02Z" transform="translate(-42.582 -80.233)" fill="#e6cbb2" fill-rule="evenodd"/>
      <path id="Path_782" data-name="Path 782" d="M397.264,206.527A113.74,113.74,0,0,0,369.653,216.7c-4.21,2.118-8.508,4.035-12.733,6.158-8.4,4.224-16.635,8.346-25.812,11.9a76.241,76.241,0,0,1-14.531,4.359,27.857,27.857,0,0,1-8.65.415,12.469,12.469,0,0,1-6.5-2.905,7.941,7.941,0,0,1-3.114-6.3A15.34,15.34,0,0,1,300.384,223a39.835,39.835,0,0,1,8.511-10.38,69.6,69.6,0,0,1,10.8-8.1,128.165,128.165,0,0,1,12.456-6.435c4.254-2,8.526-4.058,12.595-6.228,12.429-6.632,22.975-14.836,31.209-25.466a56.293,56.293,0,0,0,5.536-8.58c.517-1,.984-2.085,1.592-3.114.029-.05.026-.323.138-.139A129.55,129.55,0,0,1,397.264,206.527Z" transform="translate(-137.484 -83.75)" fill="#e6cbb2" fill-rule="evenodd"/>
      <path id="Path_783" data-name="Path 783" d="M53.162,172.749c.059-.013.066.026.069.069a64.118,64.118,0,0,0,7.2,13.493,69.426,69.426,0,0,0,9.965,10.727c3.514,3.225,7.21,6.416,10.865,9.826,2.658,2.48,5.257,5.025,6.989,8.581a6.51,6.51,0,0,1,.831,4.153c-.378,1.7-2,2.629-3.945,2.838a16.045,16.045,0,0,1-7.127-1.177c-6-2.138-10.785-6-15.086-9.688-3.019-2.592-5.883-5.261-8.581-7.959a56.312,56.312,0,0,1-7.681-8.857A136.274,136.274,0,0,1,53.162,172.749Z" transform="translate(-44.093 -90.524)" fill="#e6cbb2" fill-rule="evenodd"/>
      <path id="Path_784" data-name="Path 784" d="M303.856,259.569c.319.3.089.782.07,1.108a123.614,123.614,0,0,1-6.713,33.977c-.926,2.627-1.785,5.187-2.836,7.682a134.435,134.435,0,0,1-10.8,20.69c-1.7-1.185-3.895-1.476-6.09-1.8-2.258-.333-4.658-.647-7.058-.762a100.314,100.314,0,0,0-14.948.623c-9.384,1-18.556,2.614-27.263,4.083-8.861,1.5-17.854,3.038-26.919,4.429-9.16,1.4-18.424,2.748-27.75,3.6-18.6,1.695-40.193,2.887-59.719,1.176a155.727,155.727,0,0,1-44.15-10.727,56.761,56.761,0,0,1-5.536-2.283,1.733,1.733,0,0,1-.692-.485,16.2,16.2,0,0,1-.83-1.453,98.8,98.8,0,0,1-5.4-10.1,38.285,38.285,0,0,1,12.249,2.283c3.685,1.166,7.331,2.37,10.864,3.668a53.941,53.941,0,0,0,5.467,1.8,13.67,13.67,0,0,0,6.367.345,4.181,4.181,0,0,0,3.529-3.736c.112-2.048-1.313-3.6-2.63-4.638-2.592-2.048-6.4-3.307-10.1-4.427-3.642-1.1-7.691-2.27-11.28-3.253-6.539-1.79-13.307-3.558-18.753-6.712-.317-.183-.721-.453-1.107-.692-.647-.4-1.1-.518-1.315-1.107-.734-2.062-1.312-4.317-1.938-6.574-.638-2.3-1.114-4.688-1.591-6.921-.031-.285.305.014.277,0,.9.452,1.914,1.231,2.837,1.8,7.55,4.647,15.218,9.352,23.527,13.426A154.371,154.371,0,0,0,104.422,306a129.365,129.365,0,0,0,17.992,3.183c20.019,2.05,41.032-.231,57.99-3.807a215.042,215.042,0,0,0,47.4-15.984c4.8-2.253,9.564-4.493,14.256-6.852,4.653-2.341,9.311-4.717,14.047-7.057,4.714-2.333,9.615-4.437,14.6-6.506a147.759,147.759,0,0,1,23.735-7.957A84.791,84.791,0,0,1,303.856,259.569Z" transform="translate(-44.215 -122.745)" fill="#e6cbb2" fill-rule="evenodd"/>
      <path id="Path_785" data-name="Path 785" d="M54.248,317.3c-.013-.059.027-.066.069-.07,6.163,3.853,14.3,5.58,22.214,7.889,3.747,1.093,7.926,2.157,11.626,3.46a29.361,29.361,0,0,1,5.19,2.351c1.34.791,3.505,2.239,3.39,4.083-.1,1.6-1.853,2.288-3.737,2.353a15.774,15.774,0,0,1-5.19-.83c-2.987-.88-5.937-2.082-8.927-3.115-6.2-2.14-11.721-4.317-19.721-4.428a4.769,4.769,0,0,1-.762-1.316C56.94,324.425,55.555,320.779,54.248,317.3Z" transform="translate(-46.909 -144.143)" fill="#e6cbb2" fill-rule="evenodd"/>
      <path id="Path_786" data-name="Path 786" d="M382.159,384.2c.238.071-.062.267-.07.275a29.744,29.744,0,0,1-2.006,2.216,130.54,130.54,0,0,1-17.923,15.985c-4.069-2.5-9.034-4.749-12.941-7.751a12.8,12.8,0,0,1-3.46-3.391,4.978,4.978,0,0,1,.691-5.4c2.128-2.523,6.1-4.026,10.311-4.221,4.141-.192,8.505.746,12.663,1.315A99.56,99.56,0,0,0,382.159,384.2Z" transform="translate(-154.903 -168.139)" fill="#e6cbb2" fill-rule="evenodd"/>
      <path id="Path_787" data-name="Path 787" d="M269.249,412.978A131.582,131.582,0,0,1,245.79,424.4c-1.7-3.668-4.7-6.5-7.82-9a40.183,40.183,0,0,0-10.725-6.09,89.718,89.718,0,0,0-28.165-5.466c-22.5-1.025-38.377,6.917-49.271,17.854a127.676,127.676,0,0,1-26.987-15.639,30.319,30.319,0,0,1-3.322-2.7,171.227,171.227,0,0,1,45.88-9.827c2.465-.19,4.959-.226,7.542-.347a185.154,185.154,0,0,1,27.888,1.246,204.217,204.217,0,0,1,24.773,4.221c7.857,1.845,15.269,4.229,22.491,6.5A174.71,174.71,0,0,1,269.249,412.978Z" transform="translate(-71.126 -172.285)" fill="#e6cbb2" fill-rule="evenodd"/>
      <path id="Path_788" data-name="Path 788" d="M263.147,432.194a109.045,109.045,0,0,1-14.879,4.29,2.3,2.3,0,0,1-.484-1.038c-.8-2.256-2.128-4.873-4.014-6.159a6.794,6.794,0,0,0-6.642-.624,6.385,6.385,0,0,0-1.385,1.039c-2.218,2.189-2.7,5.98-3.875,9.341a125.916,125.916,0,0,1-20.138.277c1.453-4.417,6.11-6.3,10.172-8.3a24.913,24.913,0,0,0,3.944-2.145,3.7,3.7,0,0,0,1.731-3.53,4.234,4.234,0,0,0-1.868-2.561c-2.516-1.645-7.021-2.136-11-1.8-12.019,1.019-20,6.515-24.012,15.224a132.162,132.162,0,0,1-20.138-6.367c.084-.444.539-.678.83-.968a54.169,54.169,0,0,1,16.886-11.143,61.243,61.243,0,0,1,17.923-4.5c2.251-.242,4.577-.3,7.058-.415a85.965,85.965,0,0,1,16.262,1.176,72.173,72.173,0,0,1,13.91,3.39,42.475,42.475,0,0,1,11.417,5.883C258.13,425.793,261.247,428.546,263.147,432.194Z" transform="translate(-90.074 -179.598)" fill="#e6cbb2" fill-rule="evenodd"/>
      <path id="Path_789" data-name="Path 789" d="M222.837,444.969a125.626,125.626,0,0,1-17.508-2.56,23,23,0,0,1,8.719-9.9,25.557,25.557,0,0,1,6.643-2.7c4.206-1.179,9.3-2.094,14.187-.9,1.5.368,3.928,1.173,3.944,2.7.014,1.351-1.893,2.189-3.046,2.768C230.539,437.015,224.716,439.113,222.837,444.969Z" transform="translate(-102.978 -185.384)" fill="#e6cbb2" fill-rule="evenodd"/>
      <path id="Path_790" data-name="Path 790" d="M283.792,446.919a121.005,121.005,0,0,1-12.663,1.938c.807-2.867,1.372-6.349,3.322-8.1a3.963,3.963,0,0,1,3.183-.968C281.271,440.165,282.709,443.808,283.792,446.919Z" transform="translate(-127.397 -189.618)" fill="#e6cbb2" fill-rule="evenodd"/>
      <path id="Path_791" data-name="Path 791" d="M76.146,360.705c.014-.079.07-.038.069,0a162.292,162.292,0,0,0,49.479,12.385c19.3,1.61,40.385.521,58.958-1.314,18.5-1.829,36.241-4.993,53.975-7.889,8.605-1.4,17.624-3.063,26.85-4.083a94.612,94.612,0,0,1,14.6-.69c2.443.116,4.8.313,7.127.622,2.182.291,4.429.4,6.228,1.453a1.885,1.885,0,0,1-.415.9,117.1,117.1,0,0,1-7.889,10.449c-.426.5-.893,1.335-1.315,1.453a12.731,12.731,0,0,1-2.629,0c-5.877,0-11.461-.961-16.538-1.66a37.757,37.757,0,0,0-9.619-.485,16.006,16.006,0,0,0-7.543,2.838c-2.084,1.464-4.048,3.563-3.875,6.572.169,2.953,2.429,4.757,4.22,6.159,3.905,3.053,8.536,5.3,12.941,7.82a9.477,9.477,0,0,1-1.453,1.107c-1.421,1.005-2.967,2.053-4.568,2.976a112.526,112.526,0,0,0-16.538-6.506,292.74,292.74,0,0,0-35.915-10.1c-6.431-1.294-13.107-2.177-20.068-2.906a191.1,191.1,0,0,0-43.457.484,171.488,171.488,0,0,0-36.814,9.2,2.109,2.109,0,0,1-.968-.623A134.738,134.738,0,0,1,81.89,368.8C79.872,366.194,77.948,363.4,76.146,360.705Z" transform="translate(-55.037 -159.663)" fill="#e6cbb2" fill-rule="evenodd"/>
    </g>
    <g id="Group_200" data-name="Group 200" transform="translate(51.548 68.524)">
      <path id="Path_792" data-name="Path 792" d="M163.952,252.64s2.249-22.108,2.243-21.888c-.094.087,19.072-17.156,26.772-27.245a225.6,225.6,0,0,0,31.1-54.98c.716-1.843,1.328-3.717,2.011-5.571.208-.565,1.883-1.23,2.236-2.014-1.679-2.3,11.473,18.629,11.473,18.629A148.788,148.788,0,0,1,223.23,198.48a175.252,175.252,0,0,1-27.514,34.162,116.132,116.132,0,0,1-19.955,15.65,62.034,62.034,0,0,1-9.516,4.868C165.056,253.629,165.095,253.07,163.952,252.64Z" transform="translate(-97.782 -105.176)" fill="#2e578a"/>
      <path id="Path_793" data-name="Path 793" d="M219.97,350.368c.287-2.427.558-4.692.824-6.958q.774-6.6,1.543-13.2c.088-.76.125-1.525.221-2.283a.943.943,0,0,1,.688-.936,51.433,51.433,0,0,0,9.426-4.15,118.207,118.207,0,0,0,34.634-27.174,71.442,71.442,0,0,0,6.983-9.514,14.885,14.885,0,0,1,.978-1.24c.2.573.335.908.426,1.255,1.065,4.064,2.112,8.134,3.188,12.2.722,2.726,1.482,5.442,2.227,8.163a2.026,2.026,0,0,1-.292,1.78c-5.2,8.294-12.112,14.941-19.839,20.809a139.717,139.717,0,0,1-31.819,17.844c-2.686,1.1-5.427,2.067-8.145,3.09C220.7,350.165,220.371,350.246,219.97,350.368Z" transform="translate(-118.571 -158.67)" fill="#2e578a"/>
      <path id="Path_794" data-name="Path 794" d="M63.767,131.137c21.032-4.127,35.714-12.663,52.686-25.91C127.9,93.9,135.988,84.538,136.348,84.174c3.644,6.767,10.441,18.675,10.441,18.675-.242,5.8-17.994,22.435-27,27.957a137.774,137.774,0,0,1-55.577,21.075c-1.595.245-3.871.428-5.478.595Z" transform="translate(-58.734 -84.174)" fill="#2e578a"/>
    </g>
    <g id="Group_205" data-name="Group 205" transform="translate(44.612 66.993)">
      <path id="Path_795" data-name="Path 795" d="M47.7,104.612c3.411-3.28,7.485-5.28,11.318-7.728a7.167,7.167,0,0,0-.275-.773,87.754,87.754,0,0,1-5.16-13.22,5.011,5.011,0,0,1-.167-.782,1.167,1.167,0,0,1,.1-.37,2.905,2.905,0,0,1,.547.13A91.9,91.9,0,0,0,69.4,86.9a84.418,84.418,0,0,0,19.848,2.5,115.983,115.983,0,0,0,13.97-.545A112.819,112.819,0,0,0,129.9,82.934c.252-.091.5-.186.756-.267.858-.274,1.138-.178,1.6.6.618,1.055,1.216,2.122,1.819,3.186q4.043,7.13,8.085,14.261c.057.1.109.2.164.3.571,1.043.547,1.155-.5,1.623-1.36.61-2.719,1.221-4.1,1.792a123.625,123.625,0,0,1-23.661,7.151,117.373,117.373,0,0,1-19.816,2.149,110.589,110.589,0,0,1-39.178-6.257c-2.163-.753-4.3-1.59-6.442-2.4C48.357,104.975,48.1,104.814,47.7,104.612Z" transform="translate(-47.705 -81.74)" fill="#366196"/>
      <g id="Group_204" data-name="Group 204" transform="translate(15.964 6.238)">
        <g id="Group_201" data-name="Group 201" transform="translate(0 2.673)">
          <path id="Path_796" data-name="Path 796" d="M80.681,114.508l-2.817.273a50.059,50.059,0,0,1-.555-6.441c-.08-2.134-.159-4.27-.242-6.5-1.144.467-2.04,1.385-3.385,1.519-.2-.909-.395-1.787-.593-2.687a9.723,9.723,0,0,0,3.9-3.071,1.068,1.068,0,0,1,.759-.34c.644-.01,1.29.074,2.057.129.044,1.855.086,3.664.129,5.473l.209.053c.174-.314.345-.631.521-.945a12.576,12.576,0,0,1,5.408-5.291,6.059,6.059,0,0,1,3.31-.742,4.175,4.175,0,0,1,3.949,3.8,6.416,6.416,0,0,1-.921,4.182c-.7,1.167-1.572,2.234-2.448,3.457a4.488,4.488,0,0,1,2.128,3.915,5.222,5.222,0,0,1-1.38,3.552c-1.8,1.99-5.476,2.37-7.386.682l1.352-2.354c.411.165.716.316,1.038.411a2.666,2.666,0,0,0,3.389-1.74,1.609,1.609,0,0,0-1.311-2.148c-.555-.127-1.128-.17-1.807-.267l-.564-2.8c.438-.248.8-.448,1.158-.656a8.069,8.069,0,0,0,3.473-3.848,4.561,4.561,0,0,0,.369-1.66c.027-1.248-.7-1.827-1.931-1.563A5.321,5.321,0,0,0,87,99.474a10.1,10.1,0,0,0-4.419,5.244,26.307,26.307,0,0,0-1.638,7.476C80.879,112.951,80.775,113.705,80.681,114.508Z" transform="translate(-73.089 -95.91)" fill="#fff"/>
          <path id="Path_797" data-name="Path 797" d="M104.282,112.285l.8-2.368.813.024c.181-.892.323-1.755.537-2.6a8.413,8.413,0,0,1,1.755-3.571,5.926,5.926,0,0,1,5.864-2.074,3.829,3.829,0,0,1,3.143,4.671,6.872,6.872,0,0,1-4.037,4.838c-1.085.545-2.257.918-3.392,1.37.72,2.028,2.862,2.961,5.939,2.476.3.812.6,1.651.926,2.529a5.707,5.707,0,0,1-3.963.457,7.522,7.522,0,0,1-5.718-4.311c-.324-.686-.667-1.141-1.5-1.116A4.343,4.343,0,0,1,104.282,112.285Zm4.624-2.475c2.012-.622,3.757-1.277,4.959-2.89a2.645,2.645,0,0,0,.4-.816,1.1,1.1,0,0,0-1.072-1.584,3.08,3.08,0,0,0-2.827,1.185A8.238,8.238,0,0,0,108.906,109.81Z" transform="translate(-84.665 -98.011)" fill="#fff"/>
        </g>
        <g id="Group_203" data-name="Group 203" transform="translate(38.094)">
          <path id="Path_798" data-name="Path 798" d="M146.916,97.26l2.063-1.334,2.25,3.851c.1-.479.178-.815.239-1.154a9.623,9.623,0,0,1,2.283-4.925,5.545,5.545,0,0,1,7.733-.85,6.419,6.419,0,0,1,2.62,3.523,32.1,32.1,0,0,1,.786,4.264c.135.981.11,1.984.174,2.975a4.194,4.194,0,0,0,2.077,3.792l-1.215,2.553a5.9,5.9,0,0,1-3.336-3.784,17.842,17.842,0,0,1-.579-4.534,27.966,27.966,0,0,0-.506-3.848,4.023,4.023,0,0,0-2.046-2.778,2.512,2.512,0,0,0-3.258.363,5.558,5.558,0,0,0-1.553,2.5,11.87,11.87,0,0,0-.463,4.649c.171,2.054.484,4.1.728,6.144.075.637.126,1.277.2,2.013l-2.693.607c-.814-2.444-1.513-4.857-2.426-7.186C149.092,101.807,147.974,99.591,146.916,97.26Z" transform="translate(-138.581 -91.659)" fill="#fff"/>
          <g id="Group_202" data-name="Group 202" transform="translate(0 2.532)">
            <path id="Path_799" data-name="Path 799" d="M136.712,108.416a9.173,9.173,0,0,1-.535.867,7.553,7.553,0,0,1-.7.7l-1.811-1.565c.662-1.082,1.341-2.051,1.869-3.1.511-1.013.865-2.1,1.315-3.225l2.837.262c0,.624.009,1.182-.006,1.74a16.323,16.323,0,0,0,.67,5.657,10.937,10.937,0,0,0,1.073,2.264,4.151,4.151,0,0,0,3.346,2.082c-.033.969-.064,1.865-.1,2.8a5.554,5.554,0,0,1-3.9-1.324,10.117,10.117,0,0,1-3.409-5.562c-.133-.475-.238-.958-.356-1.436Z" transform="translate(-133.663 -98.063)" fill="#fff"/>
            <path id="Path_800" data-name="Path 800" d="M141.048,98.167a1.211,1.211,0,0,1-1.318-1.121,1.25,1.25,0,0,1,1.1-1.354,1.276,1.276,0,0,1,1.39,1.189A1.238,1.238,0,0,1,141.048,98.167Z" transform="translate(-135.913 -95.685)" fill="#fff"/>
          </g>
        </g>
      </g>
    </g>
    <g id="Group_223" data-name="Group 223" transform="translate(67.675 84.354)">
      <g id="Group_209" data-name="Group 209" transform="translate(42.575)">
        <path id="Path_801" data-name="Path 801" d="M247.056,166.168a13.969,13.969,0,0,1-3.546,6.937c-3.611,3.651-12.146,7.55-18.038,4.009a6.436,6.436,0,0,1-2.929-4.317,175.383,175.383,0,0,1-13.721-12.334c-2.849-3.67-6.734-6.25-10.484-9.1-3.644-2.766-7.662-5.142-11.409-8.017-1.8-1.377-3.492-3.045-5.4-4.471-4.637-3.472-9.128-6.528-13.875-10.484-.97-.809-2.061-1.953-2.775-2-.648-.047-1.356.658-2.158.771a13.688,13.688,0,0,1-3.392-.308c-1.07-.123-2.751.18-2.929-.771-.289-1.546,3.215-1.2,4.317-2.312-.714-1.47-2.3-2-4.163-1.7-1.347.216-3.615,2.329-4.317.925-.443-.888.635-1.822,1.388-2.466-.676.008-1.468.111-1.542-.463-.218-1.682,3.238-2.929,5.024-3.336-1.224-.382-3.9-1.406-3.4-2.871.423-1.236,4.419.609,6.241.965-.2-1.172-3.58-3.818-2-5.4.94-.941,7.29,5.959,9.867,8.633,6.15,6.385,14.273,9.83,22.663,13.722a45.06,45.06,0,0,1,11.255,6.938,36.837,36.837,0,0,0,4.933,4.163c5.549,3.454,12.261,5.575,18.655,8.633a132.041,132.041,0,0,1,11.871,6.321C240.851,160.084,244.607,162.5,247.056,166.168Z" transform="translate(-152.076 -109.345)" fill="#efbba8" fill-rule="evenodd"/>
        <g id="Group_208" data-name="Group 208" transform="translate(0.026 0.247)">
          <g id="Group_206" data-name="Group 206">
            <path id="Path_802" data-name="Path 802" d="M161,109.737c.329,2.459,3.729,5.142,6.152,6.933-1.233-.1-2.622-1.338-4.1-1.714C162.312,113.379,159.818,111.259,161,109.737Z" transform="translate(-155.298 -109.737)" fill="#ce8c7a" fill-rule="evenodd"/>
            <path id="Path_803" data-name="Path 803" d="M154.566,116.988c1.923,1.418,5.885,1.918,8.155,2.989a18.847,18.847,0,0,0-4.689-.406C156.686,119.37,154.429,118.015,154.566,116.988Z" transform="translate(-153.024 -112.428)" fill="#ce8c7a" fill-rule="evenodd"/>
            <path id="Path_804" data-name="Path 804" d="M159.81,124.285a7.8,7.8,0,0,1-2.159.308,9.788,9.788,0,0,0-4,1.434c-.664.211-1.464.109-1.537-.435C154.881,125.347,155.148,123.316,159.81,124.285Z" transform="translate(-152.117 -115.039)" fill="#ce8c7a" fill-rule="evenodd"/>
            <path id="Path_805" data-name="Path 805" d="M156.5,133.163c-.128-2.055,3.162-1.146,4.163-2.312-.3-1.538-2.366-1.825-4.317-1.387-1.267.284-3.535,1.846-4.009.616,1.262-.484,4.757-2.095,7.092-1.541,1.048.248,2.45,1.546,1.541,2.929C160.011,132.929,157.415,132.032,156.5,133.163Z" transform="translate(-152.199 -116.672)" fill="#ce8c7a" fill-rule="evenodd"/>
          </g>
          <g id="Group_207" data-name="Group 207" transform="translate(12.938 13.659)">
            <path id="Path_806" data-name="Path 806" d="M172.69,136.45c4.147,1.336,6.328,2.917,9.555,5.4,7.029,5.4,14.664,11.253,22.047,16.034a53.724,53.724,0,0,1,7.4,5.4c2.208,2.029,4.5,4,6.476,6.167,3.031,3.32,5.8,6.752,9.251,9.713,1.04.892,2.621,2.466,2.621,2.466-.165.615-.219.834-.6.6a49.448,49.448,0,0,1-5.412-3.837,72.626,72.626,0,0,1-5.7-5.242c-3.494-3.681-6.92-8.118-11.255-10.638-1.743-1.014-3.526-1.606-5.088-2.467-4.693-2.587-8.459-6.43-12.643-10.021-2.593-2.226-5.651-4.317-8.479-6.63-1.365-1.116-2.628-2.395-4.009-3.546A26.417,26.417,0,0,0,172.69,136.45Z" transform="translate(-172.69 -133.309)" fill="#ce8c7a" fill-rule="evenodd"/>
            <path id="Path_807" data-name="Path 807" d="M231.173,162.191a4.984,4.984,0,0,1-3.083,4.317A11,11,0,0,1,231.173,162.191Z" transform="translate(-193.25 -142.862)" fill="#ce8c7a" fill-rule="evenodd"/>
            <path id="Path_808" data-name="Path 808" d="M187,131.456c3.226,2,5.519,3.306,8.265,4.683s5.613,2.722,8.48,4.008c3.037,1.363,5.752,2.42,8.17,4.317,2.245,1.76,4.26,3.906,6.757,5.77,3.043,2.272,6.9,3.838,10.665,5.485s7.775,3.029,11.255,4.779c7.308,3.675,15.1,8.125,18.962,13.073a139.36,139.36,0,0,0-18.038-10.606c-6.5-3.129-13.542-5.117-19.888-8.634-2.985-1.655-5.291-4.163-8.016-6.321a59.46,59.46,0,0,0-8.48-5.7C198.838,138.877,192.457,135.664,187,131.456Z" transform="translate(-178.001 -131.456)" fill="#ce8c7a" fill-rule="evenodd"/>
          </g>
        </g>
      </g>
      <g id="Group_211" data-name="Group 211" transform="translate(51.298 96.441)">
        <path id="Path_809" data-name="Path 809" d="M165.948,262.7c.131-.029,12.475,12.185,24.9,12.185a40.841,40.841,0,0,1,5.283.629c-2.675,33.3-5.237,67.666-7.9,100.971a10.61,10.61,0,0,0,3.471,1.39c1.4.345,4.508.889,4.391,1.847-.162,1.338-5.224.535-8.193.535-3.087,0-7.789,1.245-8-.38-1.838-8.53-3.788-17.912-5.242-27.9a173.416,173.416,0,0,1-1.7-30.989c.382-11.048,1.491-21.691-.463-31.451-1.358-6.786-3.6-13.011-5.241-19.58A39.2,39.2,0,0,1,165.948,262.7Z" transform="translate(-165.948 -262.696)" fill="#efbba8" fill-rule="evenodd"/>
        <g id="Group_210" data-name="Group 210" transform="translate(0 0)">
          <path id="Path_810" data-name="Path 810" d="M196.128,275.51a28.283,28.283,0,0,1-.3,4.129c-7.667,1.106-15.1-.363-20.247-3.216s-9.341-6.754-9.633-13.727C165.948,262.7,168.243,274.057,196.128,275.51Z" transform="translate(-165.948 -262.696)" fill="#ce8c7a" fill-rule="evenodd"/>
          <path id="Path_811" data-name="Path 811" d="M199.9,359.05c1.4.245,3.717.875,4.986,1.251l-.14,1.807A8.021,8.021,0,0,1,199.9,359.05Z" transform="translate(-178.547 -298.454)" fill="#ce8c7a" fill-rule="evenodd"/>
          <path id="Path_812" data-name="Path 812" d="M168.483,276.013c.131-.029,7.086,17.8,8.964,28.324a65.037,65.037,0,0,1,.617,16.959c-.743,9.276-1.356,19.118-.462,28.83,1.009,10.976,1.872,22.236,2.88,33.027-3.892-12.21-8.643-52.737-6.427-65.249a38.91,38.91,0,0,0,.463-5.7,80.243,80.243,0,0,0-.926-16.5C172.367,288.993,168.483,276.578,168.483,276.013Z" transform="translate(-166.889 -267.638)" fill="#ce8c7a" fill-rule="evenodd"/>
        </g>
      </g>
      <g id="Group_213" data-name="Group 213" transform="translate(142.179 70.236)">
        <path id="Path_813" data-name="Path 813" d="M403.889,239.529a44.123,44.123,0,0,0,4.933-.154c1.579-.075,4.375-.478,4.162.771-.356,2.092-2.913,2.328-5.088,2.775.9,1.141,2.4,1.18,2.468,2.775.074,1.774-2.034,3.3-4.009,3.546-1.023,2.822-4.612,1.263-5.7-.462-1.5.109-2.887-.8-4.471-1.079-2.524-.446-5.508-.113-8.48-.309-2.663-.175-5.506-.364-8.17-.462-5.438-.2-10.952-.645-16.344-1.079a99.336,99.336,0,0,0-16.5-.309c-2.729.236-5.418.453-8.017.617-2.882.182-5.641.013-8.479.154-2.9.145-6.073.545-8.942.926-3.471.46-7.277,1.457-9.4,3.237-.444.371-.733,1.168-1.387,1.079.723-2.552,2.136-4.725,3.238-7.092,1.059-2.277,2.19-4.574,3.237-6.938,2.175-4.9,5.139-16.5,5.242-16.5,2.577,1.693,5.68,5.4,8.942,6.63,2.041.772,4.721.779,7.247,1.233,2.358.424,4.683.948,6.937,1.542,4,1.054,9.118,3.125,13.414,3.391,3.656.228,6.8-.268,9.867,0,8.671.76,16.364,5.016,24.977,5.551,4.2.26,6.692-.444,8.633-2.621.506-.567,1.129-1.556,1.849-1.388C405.708,235.755,404.361,238.58,403.889,239.529Z" transform="translate(-310.459 -221.028)" fill="#efbba8" fill-rule="evenodd"/>
        <g id="Group_212" data-name="Group 212" transform="translate(0.539)">
          <path id="Path_814" data-name="Path 814" d="M457.993,243.827c2.108.317.037,4.254-.93,5.229.27,1.655.079,3.8-1.228,4.331.682-1.556.147-2.805.463-4.317C456.679,247.247,458.9,246.406,457.993,243.827Z" transform="translate(-364.949 -229.489)" fill="#ce8c7a" fill-rule="evenodd"/>
          <path id="Path_815" data-name="Path 815" d="M458.627,259.747a1.588,1.588,0,0,1,.7-1.513c-1.387.581-4.131-.9-4.4.126-.138.522.474.926.926,1.233a17.72,17.72,0,0,0,2.928,1.079,6.985,6.985,0,0,1-4.2-1.26c-.067,1.1.95,1.686,1.886,2.339a4.3,4.3,0,0,1-2.621-1.85c-.109-.489-.023-.757.245-.936a1.428,1.428,0,0,1,.217-1.377c.892-.9,2.639.123,3.855.154a4.5,4.5,0,0,0,.154-2.775.964.964,0,0,1-.853.125,4.956,4.956,0,0,0,1.469-1.667c2.206-.259,6.46-.682,7.239-2.428.4,2.548-4.593,2.911-7.333,3.532a6.319,6.319,0,0,1,.248,1.517c.73.3,1.458.6,2.158.925-.749.617-2.624,2.092-1.7,3.392A.9.9,0,0,1,458.627,259.747Zm.13-2.061c.481.006.991.027.991.027.122-.072.214-.321.521-.575-.457-.082-.913-.278-1.191-.308A1.732,1.732,0,0,1,458.756,257.686Z" transform="translate(-364.194 -232.151)" fill="#ce8c7a" fill-rule="evenodd"/>
          <path id="Path_816" data-name="Path 816" d="M322.494,221.028c2.831,1.52,4.812,4.487,7.708,6.013,1.851.974,4.454,1.345,7.093,1.7a61.024,61.024,0,0,1,7.4,1.388c4.438,1.172,9.424,3.243,13.876,3.546,3.061.208,5.872-.162,8.633,0a41.755,41.755,0,0,1,7.863,1.079c4.892,1.206,9.335,3.007,13.929,3.955a66.522,66.522,0,0,1-7.608-1.334,83.6,83.6,0,0,0-16.034-2c-2.843,0-5.749.358-8.787.155-4.925-.33-9.744-2.807-14.339-4.163-4.852-1.432-10.958-1.553-14.493-3.855-1.955-1.273-3.233-3.736-4.933-5.242.251,10.382-4.349,17.008-8.172,23.435-1.153,1.938-2.147,3.564-3.315,5.767a29.361,29.361,0,0,1,1.312-3.609C316.328,239.752,321.284,231.334,322.494,221.028Z" transform="translate(-311.316 -221.028)" fill="#ce8c7a" fill-rule="evenodd"/>
          <path id="Path_817" data-name="Path 817" d="M382.388,246.034c1.186,1.3-.011,3.778-1.079,4.317A27.24,27.24,0,0,0,382.388,246.034Z" transform="translate(-337.291 -230.308)" fill="#ce8c7a" fill-rule="evenodd"/>
          <path id="Path_818" data-name="Path 818" d="M393.446,260.651c-6.472.01-13.741-.225-20.4-.837-2.062-.19-4.04-.745-6.012-.925-2.158-.2-4.386-.021-6.63-.155a61.586,61.586,0,0,0-6.321-.308c-4.142.189-8.115,1.079-12.334,1.079-8.631,0-17.659-.052-24.663,2.565,7.549-3.358,17.225-4.043,27.592-4.877,3.4-.275,6.721-.616,10.021-.616,6.545,0,12.9,1.364,19.272,2C380.548,259.24,387.029,260.022,393.446,260.651Z" transform="translate(-313.458 -234.22)" fill="#ce8c7a" fill-rule="evenodd"/>
        </g>
      </g>
      <g id="Group_217" data-name="Group 217" transform="translate(51.291 55.505)">
        <g id="Group_214" data-name="Group 214" transform="translate(0.018)">
          <path id="Path_819" data-name="Path 819" d="M251.33,197.6c1.231.686,3.352,1.877,4.372,3.426-1.324,3.977-1.89,14.421,2.521,15.159,1.8.3,3.195-.9,4.163-1.85,1.336-1.309,2.252-2.947,3.392-4.163a13.959,13.959,0,0,1,2.775,2.158c-1.5,13.169-7.975,22.634-12.642,33.764-.773,1.844-1.7,3.934-3.084,4.779-1.665,1.021-4.5,1.128-7.091.925-2.538-.2-5.324-.814-7.555-.771a30.271,30.271,0,0,0-5.549,1.079c-1.785.4-3.59.9-5.4,1.234-9.76,1.777-20.807-.8-29.909-2-2.043-.271-4-.079-6.013-.155-9.065-.339-18.1-2.172-22.972-7.092a8.836,8.836,0,0,1-1.078-10.638c8.769.552,15.1-4.928,19.888-9.25a59.28,59.28,0,0,0,12.18-14.955c7.279.585,12.022,3.7,12.488,11.1a13.129,13.129,0,0,0,3.392.462,13.641,13.641,0,0,0,1.541-2,88.718,88.718,0,0,1,11.1-13.413,7.608,7.608,0,0,0,1.233,2.466c1.264,1.867,4.413,2.94,7.4,2.776C243.776,210.238,251.024,204.409,251.33,197.6Z" transform="translate(-165.966 -197.604)" fill="#d3a375" fill-rule="evenodd"/>
        </g>
        <g id="Group_216" data-name="Group 216" transform="translate(0 0.134)">
          <path id="Path_820" data-name="Path 820" d="M287.62,197.817c.693.293.763,1.3.77,1.8.038,2.534-1.814,5.256-3.546,6.784a19.013,19.013,0,0,1-12.18,4.625c-3.946,0-9-1.606-8.787-6.63.211.563.455,1.1.519,1.272.992,2.654,3.608,3.91,7.342,3.97a16.035,16.035,0,0,0,10.021-3.7C284.486,203.89,287.236,201.289,287.62,197.817Z" transform="translate(-202.282 -197.817)" fill="#a47e5b" fill-rule="evenodd"/>
          <g id="Group_215" data-name="Group 215" transform="translate(0 6.58)">
            <path id="Path_821" data-name="Path 821" d="M256.6,208.28a13.213,13.213,0,0,0,1.388,3.854,49.14,49.14,0,0,0-12.134,11.176,8.706,8.706,0,0,1-1.588,1.466C247.111,218.007,251.78,213.067,256.6,208.28Z" transform="translate(-195.008 -208.28)" fill="#a47e5b" fill-rule="evenodd"/>
            <path id="Path_822" data-name="Path 822" d="M230.585,227.189c-.31-.492-.97-1.427-1.387-2.158-2.131-3.74-6.806-6.044-12.663-6.335a26.567,26.567,0,0,1,1.455-2.668C225.607,216.222,230.764,219.713,230.585,227.189Z" transform="translate(-184.715 -211.155)" fill="#a47e5b" fill-rule="evenodd"/>
            <path id="Path_823" data-name="Path 823" d="M167.252,254.614c-1.685,7.913,5.912,11.287,12.487,12.951,4.533,1.147,9.681.745,15.727,1.08,4.6.254,8.79,1.762,13.1,2.775,7.3,1.714,15.912,1.877,22.818-.154a15.616,15.616,0,0,1,2.467-.771,12.486,12.486,0,0,1,3.238.307c15.559,2.5,19.477-5.97,20.272-6.875-1.612,3.539-2.287,8.588-7.63,9.188a30.407,30.407,0,0,1-6.321-.154c-2.1-.23-4.242-.775-6.167-.617a25.226,25.226,0,0,0-4.163,1.079,49.058,49.058,0,0,1-13.413,2c-4.113-.031-8.469-1.086-12.951-1.7-4.463-.607-8.982-1.178-13.1-1.388-9.6-.489-18.177-1.278-23.588-5.4C167.018,264.658,164.2,260.158,167.252,254.614Z" transform="translate(-165.937 -225.475)" fill="#a47e5b" fill-rule="evenodd"/>
          </g>
          <path id="Path_824" data-name="Path 824" d="M248.192,248.73A48.75,48.75,0,0,0,255.13,260.6a5.071,5.071,0,0,1-2.158-1.387c-.412-.4-.913-1.023-1.387-1.542A13.767,13.767,0,0,1,248.192,248.73Z" transform="translate(-196.463 -216.711)" fill="#a47e5b" fill-rule="evenodd"/>
        </g>
      </g>
      <g id="Group_219" data-name="Group 219" transform="translate(0 18.151)">
        <path id="Path_825" data-name="Path 825" d="M123.417,142.961c.994.57,2.324,1.445,2.467,2,.211.829-.472,2.187-.771,3.546-.775,3.528-1.063,7.518-1.7,11.1-2.567,14.539-5.73,29.17-13.413,37.619a128.8,128.8,0,0,1,59.356-10.022,60.3,60.3,0,0,1-18.5,19.889c-3.781,2.5-7.874,5.369-13.875,4.317-9.795,2.282-24.042,4.412-37.619,3.7-3.821-.2-8.774-.919-11.563-2.313-1.423-.711-3.182-2.3-3.392-4.008-.331-2.7,1.945-6.7,3.083-9.251,3.764-8.436,8.64-16.34,12.95-23.9,6.147-10.772,12.658-21.283,18.655-30.526-1.059-.977-5.6-4.812-5.7-6.629C113.7,137.1,120.3,141.174,123.417,142.961Z" transform="translate(-84.378 -138.207)" fill="#efbba8" fill-rule="evenodd"/>
        <g id="Group_218" data-name="Group 218" transform="translate(0.074 7.225)">
          <path id="Path_826" data-name="Path 826" d="M125.126,201.494c-.029.125,9.9-32.9,14.492-49.027a5.712,5.712,0,0,1,1.423-2.771c-1.754,9.415-2.768,19.306-4.969,28.364a71.551,71.551,0,0,1-4.163,12.488C130.073,194.631,128.023,198.684,125.126,201.494Z" transform="translate(-99.574 -149.695)" fill="#ce8c7a" fill-rule="evenodd"/>
          <path id="Path_827" data-name="Path 827" d="M184.531,215.862c-.231.391-1.032,1.785-1.624,2.684-10.352-.858-22.1.828-31.571,2.311-9.239,1.446-24.332,4.822-26.209,5.088A127.883,127.883,0,0,1,184.531,215.862Z" transform="translate(-99.574 -174.146)" fill="#ce8c7a" fill-rule="evenodd"/>
          <path id="Path_828" data-name="Path 828" d="M105.643,183.683c-.533,1.732-6.961,13.4-9.317,18.09a92.683,92.683,0,0,0-4.317,9.4c-2.07,5.574-4.164,13.623,1.079,16.805,3.682,2.235,9.982,2.81,16.033,2.929a169.241,169.241,0,0,0,18.038-.683c-7.6,1.575-24.471,2.824-34.226.992a19.74,19.74,0,0,1-6.783-2.466C78.337,223.624,100.442,192.624,105.643,183.683Z" transform="translate(-84.496 -162.308)" fill="#ce8c7a" fill-rule="evenodd"/>
        </g>
      </g>
      <g id="Group_222" data-name="Group 222" transform="translate(120.132 9.646)">
        <g id="Group_220" data-name="Group 220" transform="translate(19.604 26.209)">
          <path id="Path_829" data-name="Path 829" d="M320.273,166.359a15.436,15.436,0,0,0,12.334,4.009c1.355,8.4-.131,20.172-6.321,22.818a7.261,7.261,0,0,1-5.551-.463s-1.9,4.337-3.111,6.438c-.953,1.649-3.04,4.693-4.907,5.434-5.693,2.26-6.53-5.659-6.012-10.946a20.669,20.669,0,0,1,.848-3.681l2.931-5.18a9.1,9.1,0,0,1-3.161-3.781c-.674-2.26.318-5.347,2.621-5.551,1.553-.137,2.426.765,3.546,1.388C316.983,174.582,318.99,170.832,320.273,166.359Z" transform="translate(-306.575 -166.359)" fill="#efbba8" fill-rule="evenodd"/>
          <path id="Path_830" data-name="Path 830" d="M340.418,172.79c.154,0,.39-.057.544-.057,1.735,7.877-.2,19.256-5.551,22.51a6.277,6.277,0,0,1-6.321-.155,6.022,6.022,0,0,0,5.4-1.233C339,190.177,341.518,179.853,340.418,172.79Z" transform="translate(-314.931 -168.724)" fill="#ce8c7a" fill-rule="evenodd"/>
          <path id="Path_831" data-name="Path 831" d="M320.265,199.454c1.621,2.08,3.2,4.2,5.551,5.551l-.923,2.048C322.089,205.745,320.962,202.869,320.265,199.454Z" transform="translate(-311.655 -178.641)" fill="#ce8c7a" fill-rule="evenodd"/>
        </g>
        <g id="Group_221" data-name="Group 221">
          <path id="Path_832" data-name="Path 832" d="M305.621,147.038c1.79-3.171,1.233-7.21-.618-9.25-2.636-2.907-7.418-3.071-6.937-7.555a4.9,4.9,0,0,1,.774-1.938l-.677-.371a5.675,5.675,0,0,0-.714,2.155c-.633,5.415,5.007,5.7,7.247,8.325a5.665,5.665,0,0,1,1.079,5.55c-.492-2.231-.965-3.222-2.159-4.317-1.9-1.741-6.206-1.328-8.016-3.238-1.352-1.427-1.209-3.725-1.542-5.551a7.26,7.26,0,0,0-2.621-4.625c-1.333-.946-3.908-1.06-5.858-1.542l-5.647,8.811c.33.546,1.515,1.43,1.483,1.827a3.523,3.523,0,0,1-2.06-.823l-.548,1.031c.374,1.117,2.241,1.648,2.454,2.413-1.022-.767-2.494-.258-3.084-1.233,0,0-1.917,3.016-2.775,4.626,3.112,1.843,6.515,1.24,8.635,4.008,1.089,1.423,1.64,3.168,2.928,4.163,4.751,3.665,10.668-3.131,14.493-.617-2.829,2.734-5.657,6.247-4.779,12.18a3.038,3.038,0,0,1,1.85-.925c1.324-.1,2.569.88,3.392,1.387,3.774-1.929,5.4-6,6.937-10.175a13.365,13.365,0,0,0,12.18,3.546C319.562,148.791,311.962,145.265,305.621,147.038Z" transform="translate(-275.402 -124.683)" fill="#7a6236"/>
          <path id="Path_833" data-name="Path 833" d="M301,151.12c-1.192-3.556-6.35-2.355-8.943-4.317-1.428-1.081-1.957-3.378-3.546-4.163-1.774-.876-4.071-.8-5.7-2a12.754,12.754,0,0,1-2.871-3.214l1.381-2.156c2.445,5.917,6.779,3.812,9.2,6.912.777.995,1.084,2.249,2,3.083,1.368,1.24,3.439,1.387,5.242,2a7.051,7.051,0,0,1,4.933,4.78c3.122-2.013,9.092-2.177,12.706.02a16.078,16.078,0,0,0-6.076-.482,12.272,12.272,0,0,0-11.254,10.483,9.8,9.8,0,0,0-.033,1.9,2.989,2.989,0,0,0-1.384.825,12.287,12.287,0,0,1,4.807-11.979c-4.635-2.167-9.523,4.173-14.493.617a11.135,11.135,0,0,1-2.158-2.621,11,11,0,0,0-2.065-2.656c-2.182-1.624-4.837-.916-7.34-2.893l1.08-1.85c3.146,1.7,5.856,1.319,8.171,3.546,2.041,1.963,3.056,6.653,7.247,5.242C297.59,150.283,301,151.069,301,151.12Z" transform="translate(-275.402 -128.61)" fill="#967e59" fill-rule="evenodd"/>
        </g>
      </g>
    </g>
    <g id="Group_224" data-name="Group 224" transform="translate(39.371 46.963)">
      <path id="Path_834" data-name="Path 834" d="M204.121,57.611c.426,1.165-.009,2.493-.217,3.851-.728,4.745-2.734,11.774-7.6,16.338a50.854,50.854,0,0,0,5.321,8.186c.654.838,1.733,1.526,1.828,2.651a34.049,34.049,0,0,1-13.319-18.043,30.746,30.746,0,0,1-.006-20.7,12.441,12.441,0,0,1,2.675,4.451A32.928,32.928,0,0,1,195.516,69.6c.08.088.036.2.154.28C196.871,65.812,200.689,60.119,204.121,57.611Z" transform="translate(-94.653 -49.89)" fill="#366196" fill-rule="evenodd"/>
      <path id="Path_835" data-name="Path 835" d="M154.56,334.42a8.481,8.481,0,0,0-1.958,1.565c-4.056,3.543-9.147,6.353-15.04,6.33a24.788,24.788,0,0,1,9.247-9.248c3.431-2.13,7.235-3.995,11.524-4.275.791,1.511.834,3.809.654,6.052-.585,7.278-4.867,17.353-10.186,20.821-.124-.018-.108-.1-.084-.184l-.269-.1C148.3,349.467,150.947,340.665,154.56,334.42Z" transform="translate(-75.811 -153.394)" fill="#294972" fill-rule="evenodd"/>
      <path id="Path_836" data-name="Path 836" d="M80.807,62.175h.43c2.439,2.761,3.517,10.185,1,13.753-5.16-1.1-9.053-3.459-10.458-8.309,3.948-.41,6.079,2.228,8.309,4.012A12.733,12.733,0,0,1,80.807,62.175Z" transform="translate(-51.399 -54.449)" fill="#294972" fill-rule="evenodd"/>
      <path id="Path_837" data-name="Path 837" d="M44.178,198.316c1.7,2.04,4.067,3.443,7.021,4.94a11.254,11.254,0,0,1-2.487.6,15.639,15.639,0,0,0-8.389,6.4c-.382.557-1,1.087-.948,1.831a5.572,5.572,0,0,0,4.085.518c4.238-.838,8.652-4.237,10.2-8.216,5.412,1.856,10.983,2.883,15.6,1.544.513-.148,1.542-.077,1.626-.9-1.07-.743-2.4-.108-3.687-.166a36.7,36.7,0,0,1-12.46-3.4,62.522,62.522,0,0,1-8.344-5.189C45.689,197.054,44.843,197.4,44.178,198.316Z" transform="translate(-39.371 -104.214)" fill="#294972" fill-rule="evenodd"/>
      <path id="Path_838" data-name="Path 838" d="M353.67,205.934l.181-.155a9.987,9.987,0,0,1,1.688,7.955c3.319-2.22,7.257-4.43,10.59-3.178-1.314,4.436-7.047,7.908-11.207,8.1a4.785,4.785,0,0,1-2.255-.25c-.787-.666-.9-2.681-.979-3.861a15.819,15.819,0,0,1,.026-3.787A23.894,23.894,0,0,1,353.67,205.934Z" transform="translate(-155.238 -107.743)" fill="#294972" fill-rule="evenodd"/>
      <path id="Path_839" data-name="Path 839" d="M433.579,395.452c0-.123.008-.246.011-.369a32.958,32.958,0,0,0-18.3-7.2,40.638,40.638,0,0,0-22.852,4.805c-.376.214-.865.542-1.253.82-.371.265-1.088.449-.892,1.076a15.451,15.451,0,0,0,3.1-.884,60.791,60.791,0,0,1,10.018-2.509,27.922,27.922,0,0,0,8.159,9.828,34.489,34.489,0,0,0,6.608,4.5,6.567,6.567,0,0,0,2.674.82,29.858,29.858,0,0,0-9.166-12.927C417.9,396.006,426.7,397.4,433.579,395.452Z" transform="translate(-169.589 -175.273)" fill="#294972" fill-rule="evenodd"/>
      <path id="Path_840" data-name="Path 840" d="M324.848,330.22c-1.144-6.32,1.02-11.159,5.142-15.09a12.34,12.34,0,0,1,4.74-3.3c.995,4.068-.206,7.077-1.41,10.085,4.582-3.037,12.127-5.6,16.909-4.949-.048.834-1.095,1.987-1.962,3.016C343.747,325.349,333.483,331.617,324.848,330.22Z" transform="translate(-145.202 -147.099)" fill="#366196" fill-rule="evenodd"/>
      <path id="Path_841" data-name="Path 841" d="M225.495,402.64c1.8,3.12,1.367,8.094-.229,10.972a6.824,6.824,0,0,1-2.628,2.972c-1.795-2.054-1.5-7.4-.343-9.943a11.974,11.974,0,0,1-7.428,1.143,5.581,5.581,0,0,1,1.485-2.058C218.289,403.909,221.952,402.055,225.495,402.64Z" transform="translate(-104.5 -180.76)" fill="#366196" fill-rule="evenodd"/>
      <path id="Path_842" data-name="Path 842" d="M53.42,144.732c2.417-.752,5.278.309,6.794,1.377-.527-1.838-.431-5.019.558-6.421.484.028.779.535,1.094.926,1.491,1.85,2.755,6.244.413,8.47a8.59,8.59,0,0,1-7.408-2.2A5.049,5.049,0,0,1,53.42,144.732Z" transform="translate(-44.585 -83.215)" fill="#366196" fill-rule="evenodd"/>
      <path id="Path_843" data-name="Path 843" d="M404.571,228.484c.406-1.117,2.39-1.629,3.59-1.929,4.922-1.23,10.306-.446,14.176.484,1.446-3.859,4.805-8.716,10.565-10.091a5.108,5.108,0,0,1,3.488.064c.15,1.142-.711,2.178-1.24,3.119a15.828,15.828,0,0,1-9.735,7.559c2.179,1.228,5.537,2.171,7.724,4.255-.276,1.033-1.308,1.684-2.052,2.48-2.8-1.348-5.571-3.053-8.721-4.079a43.856,43.856,0,0,0-9.729-2.091,28.481,28.481,0,0,0-6.208.375C405.865,228.7,405.024,229.1,404.571,228.484Z" transform="translate(-174.902 -111.785)" fill="#366196" fill-rule="evenodd"/>
    </g>
    <g id="Group_226" data-name="Group 226" transform="translate(51.548 104.29)">
      <path id="Path_844" data-name="Path 844" d="M63.767,152.243c1.994.588,3.888,1.171,5.8,1.706a163.236,163.236,0,0,0,21.091,4.383,168.6,168.6,0,0,0,24.356,1.7c18.575-.065,36.714-2.782,54.211-9.211a108.748,108.748,0,0,0,18.52-8.793c.488-.293.96-.614,1.526-.977l11.473,18.629a123.269,123.269,0,0,1-14.056,8.287A147.844,147.844,0,0,1,149.494,181.1a170.631,170.631,0,0,1-24.738,3.435,160.645,160.645,0,0,1-23.842-.187,130.761,130.761,0,0,1-36.4-7.937c-1.5-.575-2.98-1.193-4.458-1.819-1.312-.556-1.5-.957-1.185-2.3q1.754-7.362,3.512-14.723c.346-1.45.687-2.9,1.044-4.349C63.505,152.9,63.643,152.593,63.767,152.243Z" transform="translate(-58.734 -141.046)" fill="#366196"/>
      <g id="Group_225" data-name="Group 225" transform="translate(4.667 9.319)">
        <path id="Path_845" data-name="Path 845" d="M152.963,180.029l2.759-.869.721,2.547c.461-.179.468-.609.6-.925a18.94,18.94,0,0,1,3.294-5.608,13.677,13.677,0,0,1,2.279-2.076c2.453-1.707,4.939-1.029,6.3,1.641.171.337.316.687.491,1.068.321.012.621.017.921.035a3.484,3.484,0,0,1,3.384,2.469,14.929,14.929,0,0,1,.523,3.369c.088,1.14.033,2.29.041,3.436a9.172,9.172,0,0,0,2.113,5.818l-2.206,1.869a11.41,11.41,0,0,1-2.466-4.809,25.374,25.374,0,0,1-.425-5.818,13.613,13.613,0,0,0-.185-2.5c-.136-.742-.31-.79-1.325-.847-.1.736-.207,1.482-.306,2.227a16.068,16.068,0,0,1-1.806,5.645,6.971,6.971,0,0,1-1.282,1.741,2.52,2.52,0,0,1-4.276-1.168,4.975,4.975,0,0,1-.028-2.721,14,14,0,0,1,3.858-6.785,3.7,3.7,0,0,1,.609-.434,2.024,2.024,0,0,0,.043-.448c-.586-2.017-1.4-2.273-2.978-.917a13.982,13.982,0,0,0-3.551,5.151,26.041,26.041,0,0,0-2.131,10.372c0,.26-.018.519-.032.891l-2.584.147A63.718,63.718,0,0,0,152.963,180.029Zm12.214,5.273,1.029-2.678-.219-.084A4.443,4.443,0,0,0,165.177,185.3Z" transform="translate(-98.371 -161.913)" fill="#fff"/>
        <path id="Path_846" data-name="Path 846" d="M242.052,155.864l2.282.836c-.318,1.415-.652,2.706-.891,4.015a12.593,12.593,0,0,0,.132,5.121,5.679,5.679,0,0,0,.506,1.394,2.137,2.137,0,0,0,3.3.793,7.157,7.157,0,0,0,2.506-3.348,15.76,15.76,0,0,0,1.009-6.76l2.881-1.3a32.821,32.821,0,0,1,3.932,7.462l2.2-1.615,1.778,2.2-2.951,2.422c.219,1.456.484,2.768.6,4.094a9.8,9.8,0,0,1-2.292,7.462,7,7,0,0,1-1.926,1.589,3.4,3.4,0,0,1-5.137-2.2,6.794,6.794,0,0,1,.069-3.623,13,13,0,0,1,2.188-4.511,17.973,17.973,0,0,1,2.195-2.638,1.792,1.792,0,0,0,.449-2.406c-.389-.815-.691-1.672-1.032-2.51l-.251.013c-.1.38-.193.76-.287,1.141a12.151,12.151,0,0,1-3.256,6.079,5.566,5.566,0,0,1-3.722,1.819,5.038,5.038,0,0,1-4.909-2.948,9.1,9.1,0,0,1-.979-3.745,19.782,19.782,0,0,1,1.3-8.2C241.811,156.335,241.905,156.17,242.052,155.864ZM256.2,169.656a12.2,12.2,0,0,0-3.5,6.373,3.091,3.091,0,0,0,.113,1.234c.148.551.489.729.93.387a7.165,7.165,0,0,0,1.645-1.686C256.6,174.1,256.643,172.03,256.2,169.656Z" transform="translate(-130.825 -155.864)" fill="#fff"/>
        <path id="Path_847" data-name="Path 847" d="M126.2,192.445l-2.893.123a73.192,73.192,0,0,1,2.8-15.545l-2.086,1.141-1.615-2.25a31.033,31.033,0,0,1,5.318-2.594l2.114,1.835-1.085,3.227.175.1c.216-.186.421-.386.65-.554a34.64,34.64,0,0,1,3.435-2.451,6.766,6.766,0,0,1,2.726-.757c2.685-.206,4.339,1.428,4.349,4.117a10.382,10.382,0,0,1-1.606,5.544c-.774,1.262-1.688,2.438-2.622,3.77.806.66,1.619,1.407,2.514,2.036.868.609,1.823,1.1,2.821,1.685l-1.3,2.494a13.033,13.033,0,0,1-1.78-.881c-1.28-.9-2.553-1.814-3.747-2.821a1.58,1.58,0,0,0-1.921-.4,3.33,3.33,0,0,1-2.574.087,2.2,2.2,0,0,1-1.572-1.928,2.174,2.174,0,0,1,1.29-2.122,3.649,3.649,0,0,1,2.341-.345c.448.086.889.207,1.469.345,1.767-1.918,3.391-3.956,3.714-6.729.221-1.9-.427-2.4-2.247-1.762a7.722,7.722,0,0,0-2.957,1.924,17.968,17.968,0,0,0-5.607,11.843C126.295,191.839,126.245,192.1,126.2,192.445Z" transform="translate(-87.032 -162.342)" fill="#fff"/>
        <path id="Path_848" data-name="Path 848" d="M204.747,180.882a9.662,9.662,0,0,1-3.459,7.253,6.291,6.291,0,0,1-5.551,1.5,5.534,5.534,0,0,1-4.415-6.187,5.366,5.366,0,0,1,.316-1.451,1.424,1.424,0,0,0-.344-1.634,7.274,7.274,0,0,1-.656-8.176,6.176,6.176,0,0,1,7.7-2.828,8.313,8.313,0,0,1,4.3,3.458A13.578,13.578,0,0,1,204.747,180.882Zm-10.424,2.229a2.844,2.844,0,0,0,4.246,3.341,3.568,3.568,0,0,0,1.189-.876,8.836,8.836,0,0,0,1.572-2.488,9.7,9.7,0,0,0-1.848-9.566,4.345,4.345,0,0,0-2.509-1.514,3.289,3.289,0,0,0-2.933.555,4.358,4.358,0,0,0-.44,5.92,8.787,8.787,0,0,1,3.668-2.217l.931,2.292a5.931,5.931,0,0,0-2.442,1.858l1.263.709c-.218.9-.422,1.743-.657,2.71Z" transform="translate(-111.998 -160.728)" fill="#fff"/>
        <path id="Path_849" data-name="Path 849" d="M106.458,180.137a24.984,24.984,0,0,0,.08-2.628,3.663,3.663,0,0,0-2.438-3.2,6.378,6.378,0,0,0-4.268-.291l-1.175.319-.963-2.27a7.358,7.358,0,0,1,3.646-.988,8.034,8.034,0,0,1,5.881,1.811,6.642,6.642,0,0,1,2.247,6.093c-.168,1.478-.5,2.936-.76,4.4-.072.414-.143.828-.2,1.244a5.611,5.611,0,0,0,1.045,4.665l-2.334,1.733-1.272-1.949c-.767.4-1.512.866-2.313,1.2a7.1,7.1,0,0,1-7.825-1.182,5.606,5.606,0,0,1,1.05-9.342,9.151,9.151,0,0,1,7.024-.529C104.68,179.449,105.455,179.778,106.458,180.137Zm-.687,2.769a20.336,20.336,0,0,0-2.284-.925,7.441,7.441,0,0,0-4.729.095,2.754,2.754,0,0,0-2.022,2.39,2.874,2.874,0,0,0,1.532,2.86,4.138,4.138,0,0,0,3.954.359,19.3,19.3,0,0,0,2.893-1.811,1.077,1.077,0,0,0,.367-.66C105.6,184.5,105.665,183.784,105.77,182.906Z" transform="translate(-76.399 -161.505)" fill="#fff"/>
        <path id="Path_850" data-name="Path 850" d="M73.046,170.109l2.768.709-1.022,3.89,5.564.521a36.28,36.28,0,0,1,2.758-7.051l2.639,1.076a39.631,39.631,0,0,0-3.163,9.248,30.561,30.561,0,0,0-.835,9.767l-2.819.427c-.629-3.569.115-6.966.655-10.348a12.812,12.812,0,0,0-5.69-.479c-.644,2.256-1.3,4.556-1.985,6.95l-2.809-.643c.549-2.006,1.069-3.905,1.65-6.03l-3.585.833-1.019-2.412,5.471-1.52Z" transform="translate(-66.155 -160.433)" fill="#fff"/>
        <path id="Path_851" data-name="Path 851" d="M218.518,180.289l-2.814.541c-.674-2.375-1.252-4.669-1.983-6.912s-1.618-4.442-2.49-6.805l1.949-1.149c.864.8,1.075,1.949,1.77,2.973.141-.373.263-.658.357-.953a8.79,8.79,0,0,1,2.917-4.433,5.877,5.877,0,0,1,9.541,3.005,17.163,17.163,0,0,1,.455,4.663,32.872,32.872,0,0,0,.166,3.544,27.618,27.618,0,0,0,.847,3.2l-1.663,1.831a3.747,3.747,0,0,1-1.465-2.042,15.553,15.553,0,0,1-.841-5.41c-.024-1.3.022-2.6-.1-3.893a5.052,5.052,0,0,0-.686-2.032,2.712,2.712,0,0,0-3.885-.953,4.966,4.966,0,0,0-2.05,2.257,10.073,10.073,0,0,0-.876,3.541,30.907,30.907,0,0,0,.569,7.185C218.318,179.007,218.406,179.568,218.518,180.289Z" transform="translate(-119.995 -158.19)" fill="#fff"/>
      </g>
    </g>
    <g id="Group_232" data-name="Group 232" transform="translate(117.718 194.101)">
      <g id="Group_228" data-name="Group 228" transform="translate(35.17 33.867)">
        <path id="Path_852" data-name="Path 852" d="M374.661,340.565a47.007,47.007,0,0,1-4.722,6.017c-1.68,1.874-3.455,3.664-5.3,5.607a66.188,66.188,0,0,1,7.7,14.886,2,2,0,0,1-1.5-.051,83.747,83.747,0,0,0-14.759-2.656,140.125,140.125,0,0,0-14.674-.257c-10.907.342-21.57,2.337-32.2,4.6-8.787,1.866-17.557,3.827-26.431,5.264a187.479,187.479,0,0,1-20.72,2.449,103.116,103.116,0,0,1-30.17-2.691,97.212,97.212,0,0,1-11.134-3.527c-.28-.107-.548-.244-.873-.391.934-7.748,1.865-15.463,2.8-23.218,2.009.51,3.852.986,5.7,1.444A64.88,64.88,0,0,0,239,349.756c3.316.256,6.631.565,9.953.678a112.241,112.241,0,0,0,13.292-.406c9.1-.77,17.984-2.72,26.846-4.8,9.456-2.224,18.935-4.344,28.551-5.761a134.628,134.628,0,0,1,16.444-1.439c4.472-.1,8.943-.314,13.415-.317,3.67,0,7.349.108,11.006.387A85.987,85.987,0,0,1,374.661,340.565Z" transform="translate(-219.876 -337.707)" fill="#366196"/>
        <g id="Group_227" data-name="Group 227" transform="translate(5.412 2.314)">
          <path id="Path_853" data-name="Path 853" d="M244.317,369.272c-.188.322-.378.643-.563.967a16.749,16.749,0,0,1-6.105,6.239,11.906,11.906,0,0,1-1.231.611,5.513,5.513,0,0,1-7.721-4.107,12.814,12.814,0,0,1,1.158-8.033,23.767,23.767,0,0,1,4.308-6.426l1.941,1.531c-.967,1.523-1.94,2.935-2.788,4.418a12.167,12.167,0,0,0-1.87,6.984,5.293,5.293,0,0,0,.278,1.453,2.444,2.444,0,0,0,3.424,1.513,11.9,11.9,0,0,0,2.635-1.587,14.349,14.349,0,0,0,5.239-9.5c.056-.375.1-.751.17-1.256l3.235-.447a46.292,46.292,0,0,1,.992,13.569l2.982-.292c.148.939.286,1.818.44,2.8l-3.873.592c-.405,1.318-.753,2.565-1.172,3.788a10.507,10.507,0,0,1-2.934,4.584,4.682,4.682,0,0,1-4.239,1.214,2.807,2.807,0,0,1-2.4-2.8,6.742,6.742,0,0,1,1.163-3.9,11.984,11.984,0,0,1,5.431-4.6c.348-.158.725-.259,1.053-.448.207-.119.471-.337.5-.539a33.087,33.087,0,0,0,.205-6.251Zm-5.243,15.671a1.791,1.791,0,0,0,1.986-.574,9.5,9.5,0,0,0,2.48-4.907C241.23,380.781,239.568,382.3,239.074,384.942Z" transform="translate(-228.481 -347.746)" fill="#fff"/>
          <path id="Path_854" data-name="Path 854" d="M330.454,366.449a7.474,7.474,0,0,0,2.152-6.976,4.909,4.909,0,0,0-.889-1.83,1.516,1.516,0,0,0-2.217-.421,8.941,8.941,0,0,0-3.031,2.913,16.571,16.571,0,0,0-2.485,6.723c-.335,2.031-.458,4.1-.665,6.15-.038.376-.031.757-.051,1.292l-2.815.194c-.829-5.555-.424-11.01.084-16.666l-1.62,1.4-1.833-1.758,3.962-4.164,2.753,1.126c-.135,1.582-.266,3.132-.418,4.927.325-.418.531-.662.713-.922a12.386,12.386,0,0,1,3.665-3.582,4.579,4.579,0,0,1,6.659,1.51,8.861,8.861,0,0,1,.538,8.359,31.428,31.428,0,0,1-1.871,3.466,14.105,14.105,0,0,0,6.533,2.363c-.13.926-.253,1.807-.382,2.736a9,9,0,0,1-3.2-.5,17.1,17.1,0,0,1-4.75-2.243,2.076,2.076,0,0,0-1.909-.36,4.408,4.408,0,0,1-1.921.064,2.3,2.3,0,0,1-1.965-2.651,2.25,2.25,0,0,1,2.612-1.85A16.573,16.573,0,0,1,330.454,366.449Z" transform="translate(-261.362 -345.811)" fill="#fff"/>
          <path id="Path_855" data-name="Path 855" d="M396.912,359.4a16.1,16.1,0,0,1-2.122,1.038,2.367,2.367,0,0,1-2.961-1.287,2.5,2.5,0,0,1,1.246-3.111,6.355,6.355,0,0,1,1.755-.419,5.615,5.615,0,0,1,1.05.027,24.7,24.7,0,0,0,2.125-5.4c-1.306-.633-1.922-.726-4.4-.67-.2-.758-.41-1.543-.635-2.391,2.107-.679,4.04-.244,6.034.255.184-.37.355-.7.514-1.036a11.221,11.221,0,0,1,2.631-3.715,4.943,4.943,0,0,1,6.925.23,4.282,4.282,0,0,1-.148,6.251,7.29,7.29,0,0,1-4.891,1.958c-1.022.048-2.051-.06-3.12-.1l-2.221,5.871a9.588,9.588,0,0,0,7.62,3.208,4.4,4.4,0,0,1,.206.494c.191.658.369,1.319.556,1.995a2.66,2.66,0,0,1-1.845.536,8.534,8.534,0,0,1-4.474-1.234c-1-.557-1.931-1.229-2.89-1.854C397.517,359.818,397.178,359.579,396.912,359.4ZM402,348.1a5.962,5.962,0,0,0,4.557-.739,1.828,1.828,0,0,0,.346-.3,1.487,1.487,0,0,0-.3-2.429,2.021,2.021,0,0,0-2.448.182A7.677,7.677,0,0,0,402,348.1Z" transform="translate(-289.042 -341.387)" fill="#fff"/>
          <path id="Path_856" data-name="Path 856" d="M306.551,378.952c-.543-.85-1.055-1.6-1.509-2.377-.438-.751-.816-1.538-1.293-2.448-.174.411-.3.7-.421,1a10.071,10.071,0,0,1-3.093,4.331,5.776,5.776,0,0,1-8.725-1.591,11.231,11.231,0,0,1-1.458-7.06,21.862,21.862,0,0,1,.817-4.263c.633-2.193,1.588-4.306,1.271-6.746l2.453-.421a7.2,7.2,0,0,1,.112,3.807c-.3,1.34-.678,2.663-1.043,3.988a15.251,15.251,0,0,0-.6,6.564,6.407,6.407,0,0,0,1.1,2.859,2.837,2.837,0,0,0,4.043.731,6.011,6.011,0,0,0,2.024-2.44,17.374,17.374,0,0,0,1.493-6.664c.13-1.675.172-3.358.257-5.037.015-.3.048-.6.081-1l2.873-.236c.006.536.014.978.016,1.421a29.611,29.611,0,0,0,.648,6.713,18.007,18.007,0,0,0,2.532,5.981c.209.312.391.641.635,1.043Z" transform="translate(-251.31 -348.061)" fill="#fff"/>
          <path id="Path_857" data-name="Path 857" d="M266.927,375.4c-.469-.635-.932-1.2-1.323-1.8a7.7,7.7,0,0,1-.926-6.9,5.114,5.114,0,0,1,6.642-3.447A7.847,7.847,0,0,1,274.374,365a11.641,11.641,0,0,1,2.211,14.651,6.355,6.355,0,0,1-3.681,3.1,4.886,4.886,0,0,1-6.4-5.868C266.607,376.41,266.772,375.941,266.927,375.4Zm2.548,1.859c-.282,1.352-.064,2.116.711,2.594a2.53,2.53,0,0,0,2.78-.384,5.263,5.263,0,0,0,.924-1.01,8.767,8.767,0,0,0-1.908-11.633,5.565,5.565,0,0,0-1.855-.841,2.072,2.072,0,0,0-2.585,1.336,4.823,4.823,0,0,0,1.085,5.321,10.011,10.011,0,0,1,2.959-2.511l1.4,1.965-2.238,2.259.817.668-1.067,2.455Z" transform="translate(-241.754 -349.399)" fill="#fff"/>
          <path id="Path_858" data-name="Path 858" d="M376.534,363c1.823,1,2.966.84,4.793-.688.327.274.673.557,1.011.85s.68.606,1.09.973a5.508,5.508,0,0,1-2.839,2.074,6.624,6.624,0,0,1-6.366-1.228,2.009,2.009,0,0,0-1.963-.453,13.028,13.028,0,0,1-2.19.214c-.055-.916-.1-1.668-.15-2.516l1.591-.333c-.166-.406-.313-.751-.45-1.1a11.872,11.872,0,0,1-.365-8.086,7.555,7.555,0,0,1,5.883-5.517,5.113,5.113,0,0,1,6.262,4.877,8.557,8.557,0,0,1-.783,4.239,15.631,15.631,0,0,1-4.927,6.081c-.184.135-.361.279-.537.424C376.57,362.828,376.57,362.877,376.534,363Zm-2.251-2.231a5.9,5.9,0,0,0,.692-.358,12.421,12.421,0,0,0,4.568-5.732,6.256,6.256,0,0,0,.341-2.458,2.2,2.2,0,0,0-2.926-2.153,4.166,4.166,0,0,0-1.152.487,5.292,5.292,0,0,0-2.5,3.664A9.273,9.273,0,0,0,374.283,360.767Z" transform="translate(-280.971 -343.493)" fill="#fff"/>
          <path id="Path_859" data-name="Path 859" d="M427.432,352.294a7.221,7.221,0,0,1,4.167,1.427,11.417,11.417,0,0,1-1.528,2.543,15.566,15.566,0,0,0-1.719-.638,16.636,16.636,0,0,0-1.875-.253,37.063,37.063,0,0,0-1.054,7.534l-3.078.169a48.968,48.968,0,0,1,.676-7.28c-1.378-.056-2.762.1-3.961-.989l1.12-1.915,3.633-.183,2.571-6a7.6,7.6,0,0,0-3.844-.179c-.249-.863-.487-1.687-.735-2.546a3.153,3.153,0,0,1,1.767-.489,19.447,19.447,0,0,1,6.337.814c.479.13.955.275,1.424.437a11.006,11.006,0,0,0,6.267.648c.239,1.016.461,1.962.7,2.979-3.135,1-5.962.015-8.762-.885A12.84,12.84,0,0,0,427.432,352.294Z" transform="translate(-299.207 -342.157)" fill="#fff"/>
          <path id="Path_860" data-name="Path 860" d="M352.86,370.042l1.343-2.217c.341.106.621.2.906.281a2.367,2.367,0,0,0,2.428-.637,1.963,1.963,0,0,0,.476-2.323,7.511,7.511,0,0,0-1.377-2.068A29.849,29.849,0,0,0,354,361.058a24.856,24.856,0,0,1-2.575-2.087,6.626,6.626,0,0,1-1.912-4.892,6.135,6.135,0,0,1,5.28-6.019c2.078-.325,5.353,1.395,5.873,3.338l-2.183,1.465c-.233-.277-.422-.5-.605-.721a3.192,3.192,0,0,0-3.5-1.061,2.935,2.935,0,0,0-1.918,2.731,4.363,4.363,0,0,0,1.748,3.913c.557.462,1.2.815,1.781,1.253.974.736,1.967,1.457,2.878,2.267a6.764,6.764,0,0,1,2.007,3.288A4.864,4.864,0,0,1,359.2,369.9a5.124,5.124,0,0,1-5.512.694A5.348,5.348,0,0,1,352.86,370.042Z" transform="translate(-273.399 -343.849)" fill="#fff"/>
        </g>
      </g>
      <g id="Group_231" data-name="Group 231" transform="translate(0)">
        <path id="Path_861" data-name="Path 861" d="M166.2,283.855c.435.138.688.2.926.3a75.328,75.328,0,0,0,15.907,4.319,163.971,163.971,0,0,0,32.353,2.055,165.221,165.221,0,0,0,27.225-2.908,93.04,93.04,0,0,0,11.218-2.845c.772-.253.875-.219,1.1.617.785,2.916,1.551,5.837,2.324,8.755q1.571,5.93,3.141,11.86c.1.4.174.8.28,1.3-.533.2-.982.388-1.442.541a119.383,119.383,0,0,1-25.433,5.292,187.968,187.968,0,0,1-31.964.56,149.248,149.248,0,0,1-30.977-4.986c-2.022-.57-4.014-1.251-6.006-1.92-.867-.291-.956-.476-.871-1.351q.964-9.935,1.943-19.87C165.971,285.049,166.085,284.531,166.2,283.855Z" transform="translate(-163.952 -283.855)" fill="#366196"/>
        <g id="Group_230" data-name="Group 230" transform="translate(10.984 6.674)">
          <path id="Path_862" data-name="Path 862" d="M195.176,310.417c-.233-.292-.47-.581-.7-.876a8.108,8.108,0,0,1-1.786-6.323,4.7,4.7,0,0,1,1.083-2.488,2.834,2.834,0,0,1,4.485.018,6.687,6.687,0,0,1,1.321,3.134,11.434,11.434,0,0,1-.312,5.533c.357-.215.631-.286.732-.458a12.062,12.062,0,0,0,1.157-2.219c.538-1.63.9-3.317,1.432-4.951a26.256,26.256,0,0,1,1.36-3.272,4.075,4.075,0,0,1,1.622-1.851l1.779,2.048c-1.629,1.871-2.124,4.317-2.749,6.711a15.044,15.044,0,0,1-1.936,4.874,4.147,4.147,0,0,1-2.934,2,1.275,1.275,0,0,1-.565.036c-1.089-.43-1.809.135-2.638.757a4.386,4.386,0,0,1-5.162.207,7.387,7.387,0,0,1-2.675-2.776,13.667,13.667,0,0,1-1.743-5.883c-.06-.758-.1-1.519-.162-2.5-.7.7-1.259,1.29-1.86,1.829s-1.231,1.008-1.933,1.577l-1.57-1.782c1.231-1.4,2.513-2.66,3.55-4.095s1.847-3.067,2.82-4.722l2.739.665c-.07.48-.119.851-.18,1.219a27.972,27.972,0,0,0-.428,8.211,9.678,9.678,0,0,0,1.239,3.9,6.709,6.709,0,0,0,1.4,1.634C193.444,311.308,194.15,311.229,195.176,310.417Zm1.525-3c.336-2.174.038-3.858-.767-4.577A4.018,4.018,0,0,0,196.7,307.419Z" transform="translate(-181.418 -294.644)" fill="#fff"/>
          <path id="Path_863" data-name="Path 863" d="M276.566,302.433a38.789,38.789,0,0,1-.822-7.822l2.49-.144a47.832,47.832,0,0,0,1.646,9.187,23.187,23.187,0,0,0,4.406,8.24l-2.315,1.7a26.747,26.747,0,0,1-4.641-8.2,24.768,24.768,0,0,0-5.087,2.275l1.331,4.618-2.665,1.075-1.283-4.154-2.755,2-1.621-1.82a21.411,21.411,0,0,1,3.717-3.087c-.333-1.445-.674-2.916-1.045-4.526l2.487-.546,1.03,3.471Z" transform="translate(-212.53 -294.467)" fill="#fff"/>
          <path id="Path_864" data-name="Path 864" d="M244.757,302.847a6.574,6.574,0,0,0-3.822,1.19l-1.51-2c1.216-1.1,1.316-1.136,5.73-2.2l.947-3.048,2.447.726c-.148.7-.277,1.31-.426,2.011a11.474,11.474,0,0,0,7.749-2.563l1.782,2.236c-2.825,2.586-6.253,3.151-9.787,3.31-.074.163-.162.266-.159.365.069,1.828.046,3.669.266,5.48A9.12,9.12,0,0,0,249,311.251a5.22,5.22,0,0,0,3.664,2.87c.181.04.357.108.636.194-.065.916-.13,1.809-.2,2.768a6.862,6.862,0,0,1-3.545-1.106,8.835,8.835,0,0,1-3.481-4.005,15.437,15.437,0,0,1-1.338-6.687C244.742,304.488,244.75,303.692,244.757,302.847Z" transform="translate(-202.945 -295.329)" fill="#fff"/>
          <g id="Group_229" data-name="Group 229" transform="translate(25.468 2.664)">
            <path id="Path_865" data-name="Path 865" d="M223.324,312.451l-1.409-2.209a15.427,15.427,0,0,0,4.955-5.431l2.856.643c-.113.529-.2.968-.3,1.4a13.4,13.4,0,0,0-.021,6.358c.522,2.223,1.631,3.943,4.078,4.629-.206.909-.4,1.783-.612,2.7a3.8,3.8,0,0,1-1.9-.555,7.864,7.864,0,0,1-4-4.808c-.453-1.448-.684-2.965-1.036-4.552Z" transform="translate(-221.915 -300.969)" fill="#fff"/>
            <path id="Path_866" data-name="Path 866" d="M231.994,301.557a1.428,1.428,0,0,1,.1-2.854,1.426,1.426,0,0,1,1.372,1.409A1.479,1.479,0,0,1,231.994,301.557Z" transform="translate(-225.146 -298.702)" fill="#fff"/>
          </g>
        </g>
      </g>
    </g>
  </g>
</svg>
