<svg xmlns="http://www.w3.org/2000/svg" width="285.152" height="266.807" viewBox="0 0 285.152 266.807">
  <g id="realise_goals" data-name="realise goals" transform="translate(-77.953 -88.192)">
    <g id="Layer_3" data-name="Layer 3">
      <g id="Group_199" data-name="Group 199">
        <path id="Path_772" data-name="Path 772" d="M252.778,97.992c-18.884,4.824-33.581,14.352-49.616,22.282A73.5,73.5,0,0,1,175,128.024c-11.951.7-22.606-.915-31.417-4.221-.023-.291.328-.354.485-.485a105.071,105.071,0,0,1,14.393-9.965c1.18-.692,2.612-1.577,4.014-2.353a6.706,6.706,0,0,1,1.384-.692,11.2,11.2,0,0,1,2.146.208,90.063,90.063,0,0,0,15.708.138,77.231,77.231,0,0,0,29.341-8.164,71.479,71.479,0,0,0,11.626-7.474A133.366,133.366,0,0,1,252.778,97.992Z" fill="#e6cbb2" fill-rule="evenodd"/>
        <path id="Path_773" data-name="Path 773" d="M219.493,95.086c.247.059-.214.381-.345.484-.558.434-1.239.881-1.868,1.315a69.392,69.392,0,0,1-20.206,9.342,85.834,85.834,0,0,1-30.379,2.7,4.477,4.477,0,0,1,1.314-.761A128.106,128.106,0,0,1,211.19,95.777c1.226-.135,2.468-.258,3.737-.345C216.441,95.327,217.939,95.165,219.493,95.086Z" fill="#e6cbb2" fill-rule="evenodd"/>
        <path id="Path_774" data-name="Path 774" d="M273.607,104.427c-10.63,1.93-20.063,4.951-27.542,9.9-3.32,2.2-7.528,5.517-8.442,10.241a9.612,9.612,0,0,0,1.592,7.474,9.1,9.1,0,0,0,6.021,3.321,26.465,26.465,0,0,0,8.718-.138,55.462,55.462,0,0,0,7.543-1.8c9.674-2.965,18.2-6.358,29.756-7.612a82.371,82.371,0,0,1,13.286-.484,18.1,18.1,0,0,1,4.222.415,7.5,7.5,0,0,1,1.87,1.523,130.813,130.813,0,0,1,10.1,9.826,8.889,8.889,0,0,1,1.453,1.731,120.087,120.087,0,0,0-12.178-1.938,130.1,130.1,0,0,0-13.563-.553c-8.811,0-17.646,1.614-25.12,3.114-7.779,1.56-15.471,3.349-23.182,5.052-7.8,1.721-15.663,3.216-23.735,4.5-15.5,2.461-35.292,4.4-52.177,1.522-16.081-2.735-29.777-7.964-40.758-15.708a93.927,93.927,0,0,1,10.587-9.827,75.507,75.507,0,0,0,32.455,4.775A78.545,78.545,0,0,0,204,121.8c4.166-2.048,8.232-4.272,12.317-6.436s8.124-4.466,12.317-6.435c4.271-2.006,8.638-3.83,13.149-5.6A84.7,84.7,0,0,1,256.238,99.1a6.131,6.131,0,0,1,2.629.415A133.8,133.8,0,0,1,273.607,104.427ZM217.9,132.661a28.153,28.153,0,0,1-9.758.415,6.674,6.674,0,0,0-3.6.138,3.115,3.115,0,0,0-1.315,3.737c.38,1.015,1.541,1.663,2.63,2.284a16.974,16.974,0,0,0,3.391,1.522,30.363,30.363,0,0,0,17.232-.345c2.147-.794,5-2.373,4.981-4.844a3.688,3.688,0,0,0-1.937-3.045c-1.534-.96-4.158-1.116-5.951-.968A40.988,40.988,0,0,0,217.9,132.661Z" fill="#e6cbb2" fill-rule="evenodd"/>
        <path id="Path_775" data-name="Path 775" d="M306.339,123.734a89.883,89.883,0,0,0-33.008,4.153c-4.681,1.434-9.277,3.138-14.325,4.5-4.418,1.191-11.7,2.627-16.193.484-2.328-1.11-3.912-3.719-3.6-7.335a9.446,9.446,0,0,1,2.214-4.913c3.077-3.875,7.83-6.621,12.526-8.719a84.081,84.081,0,0,1,22.214-6.09,5.389,5.389,0,0,1,2.49.762,130.691,130.691,0,0,1,20.968,12.041c1.192.821,2.394,1.638,3.529,2.492A29.981,29.981,0,0,1,306.339,123.734Z" fill="#e6cbb2" fill-rule="evenodd"/>
        <path id="Path_776" data-name="Path 776" d="M224.263,133.215c1.872-.1,5.354.294,5.467,2.283.06,1.05-1.106,1.907-1.938,2.422-4.256,2.639-12.783,2.77-18.268,1.107-1.374-.417-3.346-.947-4.291-2.146a1.539,1.539,0,0,1-.415-1.591c.447-1.2,3.32-.544,4.637-.415a29,29,0,0,0,9.965-.831A26.674,26.674,0,0,1,224.263,133.215Z" fill="#e6cbb2" fill-rule="evenodd"/>
        <path id="Path_777" data-name="Path 777" d="M130.225,136.051c11.317,7.847,25.017,13.371,41.451,16.055a131.492,131.492,0,0,0,27.057,1.314c18.309-.865,34.255-3.925,50.171-7.335,7.872-1.687,15.646-3.627,23.527-5.19a130.025,130.025,0,0,1,25.811-2.907,115.942,115.942,0,0,1,22.837,2.353,16.861,16.861,0,0,1,2.906.623c.712.31,1.548,1.631,2.076,2.284a15.269,15.269,0,0,1,1.66,2.146c.016.027.34.218,0,.208-10.562-1.757-20.5-4.236-32.662-3.53a85.446,85.446,0,0,0-15.639,2.56,119.421,119.421,0,0,0-13.7,4.5,152.869,152.869,0,0,0-24.7,11.695c-3.788,2.278-7.393,4.759-11,7.2-7.244,4.891-14.7,9.659-23.113,13.356a46.233,46.233,0,0,1-14.256,3.944,56.434,56.434,0,0,1-16.746-.9c-20.037-4.031-34.341-14.152-48.232-24.566-1.746-1.309-3.415-2.678-5.121-4.014a50.884,50.884,0,0,1-4.983-4.082A131.785,131.785,0,0,1,130.225,136.051Z" fill="#e6cbb2" fill-rule="evenodd"/>
        <path id="Path_778" data-name="Path 778" d="M339.694,163.939c-6.145,13.234-15.571,22.959-26.988,30.863-7.528,5.212-16.252,9.427-24.982,13.563-6.559,3.109-12.761,6.387-18.2,10.657-5.31,4.17-10.4,9.009-13.561,15.294a15.062,15.062,0,0,0-1.8,7.889,9.818,9.818,0,0,0,3.113,6.5c3.219,3.151,8.4,4.541,15.017,3.668a71.9,71.9,0,0,0,15.225-4.083c9.518-3.444,17.737-7.9,26.435-12.11q6.479-3.138,13.009-6.228c2.166-1.021,4.287-2.12,6.505-3.114a102.361,102.361,0,0,1,21.382-7.335,94.2,94.2,0,0,1,0,10.588,83.731,83.731,0,0,0-17.646,3.6,232.5,232.5,0,0,0-30.239,12.11c-4.8,2.236-9.419,4.734-14.117,7.059-4.731,2.339-9.429,4.736-14.256,6.989a216.437,216.437,0,0,1-65.671,19.1,186.371,186.371,0,0,1-40.066.76,117.968,117.968,0,0,1-17.923-3.251c-19.353-5.132-35.858-13.525-51-23.113-1.563-.99-3.219-2.09-4.844-3.114-.636-.4-1.575-.669-1.869-1.314a14.842,14.842,0,0,1-.484-2.838A128.19,128.19,0,0,1,95,224.9c9.982,2.722,17.537,7.841,25.188,12.734,3.845,2.459,7.57,5.081,11.349,7.613a104.763,104.763,0,0,0,11.764,7.2,64.257,64.257,0,0,0,13.979,4.981,38.631,38.631,0,0,0,8.511.97,29.726,29.726,0,0,0,8.3-1.177,22.675,22.675,0,0,0,11.626-7.335,17.112,17.112,0,0,0,3.048-14.809,28.267,28.267,0,0,0-6.574-12.388c-11.794-13.576-30.328-20.263-44.979-30.863-1.841-1.333-3.558-2.747-5.259-4.222a54.845,54.845,0,0,1-12.872-15.569,52.51,52.51,0,0,1-5.12-13.771c-.027-.125-.143-.432-.139-.484a8.229,8.229,0,0,1,1.315-2.284c.506-.818.962-1.445,1.384-2.214a274.4,274.4,0,0,0,28.094,20.343A93.445,93.445,0,0,0,166.694,183.8c8.037,2.468,17.782,4.564,28.164,2.976,9.177-1.4,16.269-5.271,23.113-9.2,3.414-1.962,6.737-4,9.965-6.159,6.478-4.338,12.86-8.731,19.79-12.457a177.441,177.441,0,0,1,22.491-9.757A88.547,88.547,0,0,1,297,143.737c8.987-.418,16.906,1.194,24.427,2.491,1.237.214,2.563.394,3.876.623a29.081,29.081,0,0,1,3.737.692,1.174,1.174,0,0,1,.693.415,22.129,22.129,0,0,1,1.314,1.938A111.062,111.062,0,0,1,339.694,163.939Zm-38.2-15.778a20.5,20.5,0,0,0-3.183,1.107,27.108,27.108,0,0,0-13.217,12.6,31.822,31.822,0,0,0-3.53,9.341c-.213,1.148-.277,2.423-.553,3.737a12.911,12.911,0,0,1-2.7,5.882c-1.379,1.688-3.089,2.836-3.807,4.844-1.118,3.127,1.346,6.76,3.392,7.75,3.161,1.53,7.322.765,10.311-.347,6.218-2.312,10.026-6.514,13.356-11.556,1.667-2.526,3.124-5.229,4.914-7.543,1.724-2.229,4.118-4.061,6.3-6.159a15.12,15.12,0,0,0,4.636-7.82,10.879,10.879,0,0,0-.139-5.536c-1.411-4.587-6.337-7.179-11.9-6.85a21.151,21.151,0,0,0-3.878.556Zm-36.885,9.065a19.151,19.151,0,0,0-3.182,2.768c-1.573,1.732-3.9,4.952-4.153,7.82a5.646,5.646,0,0,0,.139,1.938c1.01,2.9,5.005,1.753,7.128.416A20.814,20.814,0,0,0,270.7,163.8a11.8,11.8,0,0,0,1.8-4.5c.4-2.782-1.224-4.261-3.668-3.945a9.758,9.758,0,0,0-4.22,1.87Z" fill="#e6cbb2" fill-rule="evenodd"/>
        <path id="Path_779" data-name="Path 779" d="M305.025,149.339c4.666-.345,8.735,1.406,10.242,4.568a8.052,8.052,0,0,1,.76,3.529,11.713,11.713,0,0,1-2.214,6.713,25.6,25.6,0,0,1-4.429,4.5,29.313,29.313,0,0,0-4.429,4.5c-1.21,1.607-2.344,3.5-3.529,5.4-3.556,5.687-7.006,10.492-13.84,12.939-1.991.714-5.2,1.65-7.613.969-.169-.048-.4-.236-.693-.346a4.752,4.752,0,0,1-.968-.346,6.746,6.746,0,0,1-1.661-1.938,4.824,4.824,0,0,1-.762-2.837c.179-1.934,2.451-3.589,3.529-4.845a13.723,13.723,0,0,0,2.837-5.467c.689-2.4.906-4.913,1.453-6.92a31.152,31.152,0,0,1,2.353-5.951,27.71,27.71,0,0,1,7.2-9.48,22.132,22.132,0,0,1,8.1-4.36A18.738,18.738,0,0,1,305.025,149.339Z" fill="#e6cbb2" fill-rule="evenodd"/>
        <path id="Path_780" data-name="Path 780" d="M269.18,157.02c1.173-.113,1.811.364,1.659,2.007a9.593,9.593,0,0,1-1.659,4.014,18.164,18.164,0,0,1-5.607,5.744c-.926.571-3.259,1.711-4.221.9-.99-.836-.029-3.2.415-4.152a16.019,16.019,0,0,1,2.006-3.322,16.49,16.49,0,0,1,5.883-4.844A5.055,5.055,0,0,1,269.18,157.02Z" fill="#e6cbb2" fill-rule="evenodd"/>
        <path id="Path_781" data-name="Path 781" d="M112.511,159.788c.058-.013.065.028.069.07,4.992,19.956,18.463,30.97,34.323,40.2,11.6,6.753,24.215,13.01,33.146,22.766a27.994,27.994,0,0,1,6.851,11.765,17.517,17.517,0,0,1,.346,8.3c-1.655,7.2-7.888,11.268-14.947,13.008-5.454,1.346-11.386.7-16.4-.553a57.28,57.28,0,0,1-13.356-5.258c-8.073-4.339-15.1-9.837-22.629-14.672S104.667,225.7,95,223.1a124.954,124.954,0,0,1,2.145-21.452c.13-.243.284.244.415.415,1.041,1.36,2.187,2.831,3.391,4.152,1.369,1.5,2.92,2.851,4.359,4.29,2.888,2.888,5.978,5.711,9.065,8.235a54.23,54.23,0,0,0,10.311,6.989c3.37,1.694,9.075,4.153,13.7,2.284,2.875-1.162,4.172-4.029,2.768-7.682a23.265,23.265,0,0,0-4.637-6.989,77.934,77.934,0,0,0-5.951-5.744c-2.042-1.855-4.062-3.741-6.09-5.536-4.009-3.549-8.188-7.316-11.487-11.833a59.327,59.327,0,0,1-7.127-13.217,10.685,10.685,0,0,1-.762-2.146,8.134,8.134,0,0,1,.831-2.006A136.471,136.471,0,0,1,112.511,159.788Z" fill="#e6cbb2" fill-rule="evenodd"/>
        <path id="Path_782" data-name="Path 782" d="M354.779,217.778a113.7,113.7,0,0,0-27.611,10.173c-4.21,2.118-8.508,4.035-12.733,6.158-8.4,4.224-16.635,8.346-25.812,11.9a76.325,76.325,0,0,1-14.531,4.359,27.883,27.883,0,0,1-8.65.415,12.471,12.471,0,0,1-6.5-2.9,7.944,7.944,0,0,1-3.114-6.3,15.343,15.343,0,0,1,2.071-7.327,39.823,39.823,0,0,1,8.511-10.38,69.529,69.529,0,0,1,10.8-8.1,128.156,128.156,0,0,1,12.456-6.435c4.254-2,8.526-4.058,12.6-6.228,12.429-6.632,22.975-14.836,31.209-25.466a56.3,56.3,0,0,0,5.536-8.58c.517-1,.984-2.085,1.592-3.114.029-.05.026-.323.138-.139A129.544,129.544,0,0,1,354.779,217.778Z" fill="#e6cbb2" fill-rule="evenodd"/>
        <path id="Path_783" data-name="Path 783" d="M104.068,177.226c.059-.013.066.026.069.069a64.114,64.114,0,0,0,7.2,13.493,69.456,69.456,0,0,0,9.965,10.727c3.514,3.225,7.21,6.416,10.865,9.826,2.658,2.48,5.257,5.025,6.989,8.581a6.508,6.508,0,0,1,.831,4.153c-.378,1.7-2,2.629-3.945,2.838a16.051,16.051,0,0,1-7.127-1.177c-6-2.138-10.785-6-15.086-9.688-3.019-2.592-5.883-5.261-8.581-7.959a56.351,56.351,0,0,1-7.681-8.857A136.295,136.295,0,0,1,104.068,177.226Z" fill="#e6cbb2" fill-rule="evenodd"/>
        <path id="Path_784" data-name="Path 784" d="M354.64,231.825c.319.3.089.782.07,1.108A123.619,123.619,0,0,1,348,266.91c-.926,2.627-1.785,5.187-2.836,7.682a134.456,134.456,0,0,1-10.8,20.69c-1.7-1.185-3.895-1.476-6.09-1.8-2.258-.333-4.658-.647-7.058-.762a100.2,100.2,0,0,0-14.948.623c-9.384,1-18.556,2.614-27.263,4.083-8.861,1.5-17.854,3.038-26.919,4.429-9.16,1.4-18.424,2.748-27.75,3.6-18.6,1.7-40.193,2.887-59.719,1.176a155.719,155.719,0,0,1-44.15-10.727,56.749,56.749,0,0,1-5.536-2.283,1.735,1.735,0,0,1-.692-.485,16.55,16.55,0,0,1-.83-1.453,98.812,98.812,0,0,1-5.4-10.1,38.28,38.28,0,0,1,12.249,2.283c3.685,1.166,7.331,2.37,10.864,3.668a54.1,54.1,0,0,0,5.467,1.8,13.681,13.681,0,0,0,6.367.345,4.182,4.182,0,0,0,3.529-3.736c.112-2.048-1.313-3.6-2.63-4.638-2.592-2.048-6.4-3.307-10.1-4.427-3.642-1.1-7.691-2.27-11.28-3.253-6.539-1.79-13.307-3.558-18.753-6.712-.317-.183-.721-.453-1.107-.692-.647-.4-1.1-.518-1.315-1.107-.734-2.062-1.312-4.317-1.938-6.574-.638-2.3-1.114-4.688-1.591-6.921-.031-.285.305.014.277,0,.9.452,1.914,1.231,2.837,1.8,7.55,4.647,15.218,9.352,23.527,13.426a154.4,154.4,0,0,0,30.8,11.411,129.529,129.529,0,0,0,17.992,3.183c20.019,2.05,41.032-.231,57.99-3.807a215.082,215.082,0,0,0,47.4-15.984c4.8-2.253,9.564-4.493,14.256-6.852,4.653-2.341,9.311-4.717,14.047-7.057,4.714-2.333,9.615-4.437,14.6-6.506a147.745,147.745,0,0,1,23.735-7.957A84.72,84.72,0,0,1,354.64,231.825Z" fill="#e6cbb2" fill-rule="evenodd"/>
        <path id="Path_785" data-name="Path 785" d="M102.338,268.158c-.013-.059.027-.066.069-.07,6.163,3.853,14.3,5.58,22.214,7.889,3.747,1.093,7.926,2.157,11.626,3.46a29.339,29.339,0,0,1,5.19,2.351c1.34.791,3.505,2.239,3.39,4.083-.1,1.6-1.853,2.288-3.737,2.353a15.79,15.79,0,0,1-5.19-.83c-2.987-.88-5.937-2.082-8.927-3.115-6.2-2.14-11.721-4.317-19.721-4.428a4.772,4.772,0,0,1-.762-1.316C105.03,275.283,103.645,271.637,102.338,268.158Z" fill="#e6cbb2" fill-rule="evenodd"/>
        <path id="Path_786" data-name="Path 786" d="M322.255,311.062c.238.071-.062.267-.07.275a29.855,29.855,0,0,1-2.006,2.216,130.594,130.594,0,0,1-17.923,15.985c-4.069-2.5-9.034-4.749-12.941-7.751a12.8,12.8,0,0,1-3.46-3.391,4.979,4.979,0,0,1,.691-5.4c2.128-2.523,6.1-4.026,10.311-4.221,4.141-.192,8.505.746,12.663,1.315A99.6,99.6,0,0,0,322.255,311.062Z" fill="#e6cbb2" fill-rule="evenodd"/>
        <path id="Path_787" data-name="Path 787" d="M293.122,335.694a131.6,131.6,0,0,1-23.459,11.422c-1.7-3.668-4.7-6.5-7.82-9a40.174,40.174,0,0,0-10.725-6.09,89.706,89.706,0,0,0-28.165-5.466c-22.5-1.025-38.377,6.917-49.271,17.854A127.721,127.721,0,0,1,146.7,328.775a30.4,30.4,0,0,1-3.322-2.7,171.213,171.213,0,0,1,45.88-9.827c2.465-.19,4.959-.226,7.542-.347a185.1,185.1,0,0,1,27.888,1.246,204.216,204.216,0,0,1,24.773,4.221c7.857,1.845,15.269,4.229,22.491,6.5A174.506,174.506,0,0,1,293.122,335.694Z" fill="#e6cbb2" fill-rule="evenodd"/>
        <path id="Path_788" data-name="Path 788" d="M268.072,347.6a109.084,109.084,0,0,1-14.879,4.29,2.3,2.3,0,0,1-.484-1.038c-.8-2.256-2.128-4.873-4.014-6.159a6.793,6.793,0,0,0-6.642-.624,6.361,6.361,0,0,0-1.385,1.039c-2.218,2.189-2.7,5.98-3.875,9.341a125.964,125.964,0,0,1-20.138.277c1.453-4.417,6.11-6.3,10.172-8.3a24.908,24.908,0,0,0,3.944-2.145,3.7,3.7,0,0,0,1.731-3.53,4.227,4.227,0,0,0-1.868-2.561c-2.516-1.645-7.021-2.136-11-1.8-12.019,1.019-20,6.515-24.012,15.224a132.2,132.2,0,0,1-20.138-6.367c.084-.444.539-.678.83-.968A54.173,54.173,0,0,1,193.2,333.133a61.246,61.246,0,0,1,17.923-4.5c2.251-.242,4.577-.3,7.058-.415a85.914,85.914,0,0,1,16.262,1.176,72.172,72.172,0,0,1,13.91,3.39,42.449,42.449,0,0,1,11.417,5.883C263.055,341.2,266.172,343.949,268.072,347.6Z" fill="#e6cbb2" fill-rule="evenodd"/>
        <path id="Path_789" data-name="Path 789" d="M214.858,354.586a125.785,125.785,0,0,1-17.508-2.56,23,23,0,0,1,8.719-9.9,25.546,25.546,0,0,1,6.643-2.7c4.206-1.179,9.3-2.094,14.187-.9,1.5.368,3.928,1.173,3.944,2.7.014,1.351-1.893,2.189-3.046,2.768C222.56,346.632,216.737,348.73,214.858,354.586Z" fill="#e6cbb2" fill-rule="evenodd"/>
        <path id="Path_790" data-name="Path 790" d="M251.394,352.3a121.072,121.072,0,0,1-12.663,1.938c.807-2.867,1.372-6.349,3.322-8.1a3.962,3.962,0,0,1,3.183-.968C248.873,345.548,250.311,349.191,251.394,352.3Z" fill="#e6cbb2" fill-rule="evenodd"/>
        <path id="Path_791" data-name="Path 791" d="M116.108,296.043c.014-.079.07-.038.069,0a162.314,162.314,0,0,0,49.479,12.385c19.3,1.61,40.385.521,58.958-1.314,18.5-1.829,36.241-4.993,53.975-7.889,8.605-1.4,17.624-3.063,26.85-4.083a94.612,94.612,0,0,1,14.6-.69c2.443.116,4.8.313,7.127.622,2.182.291,4.429.4,6.228,1.453a1.885,1.885,0,0,1-.415.9,117.091,117.091,0,0,1-7.889,10.449c-.426.5-.893,1.335-1.315,1.453a12.834,12.834,0,0,1-2.629,0c-5.877,0-11.461-.961-16.538-1.66a37.72,37.72,0,0,0-9.619-.485,16,16,0,0,0-7.543,2.838c-2.084,1.464-4.048,3.563-3.875,6.572.169,2.953,2.429,4.757,4.22,6.159,3.905,3.053,8.536,5.3,12.941,7.82a9.477,9.477,0,0,1-1.453,1.107c-1.421,1.005-2.967,2.053-4.568,2.976a112.371,112.371,0,0,0-16.538-6.506,292.639,292.639,0,0,0-35.915-10.1c-6.431-1.294-13.107-2.177-20.068-2.906a191.044,191.044,0,0,0-43.457.484,171.466,171.466,0,0,0-36.814,9.2,2.116,2.116,0,0,1-.968-.623,134.756,134.756,0,0,1-19.1-20.067C119.834,301.532,117.91,298.738,116.108,296.043Z" fill="#e6cbb2" fill-rule="evenodd"/>
      </g>
    </g>
    <g id="Layer_2" data-name="Layer 2">
      <path id="Path_11012" data-name="Path 11012" d="M297,237.77a124.577,124.577,0,0,1-39.351,43.759c-24.837,16.75-49.827,18.855-60.891,19.546-1.1,8.274-1.9,16.558-2.995,24.833,15.343-1.273,47.809-5.242,78.71-28.5,16.1-12.119,26.931-26.149,33.816-36.425C303.071,253.261,300.214,245.495,297,237.77Z" fill="#2e578a" fill-rule="evenodd"/>
      <path id="Path_11013" data-name="Path 11013" d="M257.434,170.229c-1.17,9.763-6.222,32.134-23.159,52.766a99.3,99.3,0,0,1-31.3,25.13c.157,8.118.4,15.98.56,24.1,8.324-2.768,34.366-13.495,51.06-45.278,7.346-13.987,14.5-27.8,15.113-36.791C265.391,183.526,261.747,176.857,257.434,170.229Z" fill="#2e578a" fill-rule="evenodd"/>
      <path id="Path_11014" data-name="Path 11014" d="M186.588,130.118A79.6,79.6,0,0,1,123.5,182.794q-2.736,11.6-5.471,23.206c12.695-2.9,37.591-8.085,58.559-24.493,12.994-10.167,18.232-22.462,24.206-31.007Z" fill="#2e578a" fill-rule="evenodd"/>
      <g id="Group_3788" data-name="Group 3788">
        <g id="Group_3785" data-name="Group 3785">
          <path id="Path_11015" data-name="Path 11015" d="M236.755,176.081a7.612,7.612,0,0,1-1.743,4.886c-.095.117-.2.234-.3.343a6.92,6.92,0,0,1-5.04,2.21,7.269,7.269,0,0,1-7.075-7.439,6.606,6.606,0,0,1,.03-.679c.073-.831.557-1.02.87-1.749a10.335,10.335,0,0,1,.5-1.448c.16-.248.168-.8.35-1.026a6.93,6.93,0,0,1,5.324-2.538A7.271,7.271,0,0,1,236.755,176.081Z" fill="#d3a375"/>
          <path id="Path_11016" data-name="Path 11016" d="M238.923,174.339c1.949,3.4,4.234,7.491,6.631,2.9a132.617,132.617,0,0,0,9.551-23.705c1.714-6.083-2.871-7.075-6.027-.556C243.777,163.938,237.17,171.282,238.923,174.339Z" fill="#efbba8"/>
          <path id="Path_11017" data-name="Path 11017" d="M251.688,153.788c8.865,1.839-.253-19.885-3.247-25.527-1.187-2.234-.771-5.473-1.714-5.384-1.042.1-3.81,2.37-2.771,4.736.51,1.163,1.526,1.7,2.14,4.491C247.772,139.729,246.385,152.688,251.688,153.788Z" fill="#efbba8"/>
          <g id="Group_3778" data-name="Group 3778">
            <path id="Path_11018" data-name="Path 11018" d="M250.375,119.235c-.239-2.382-1.521-4.929-1.89-4.869-.334.053-.337.282-.324.744a2.818,2.818,0,0,0-.261-.477c-1.13-1.635-1.442-2.751-1.656-2.762a.433.433,0,0,0-.413.2c-.218-.367-.486-.7-.8-.3-.255.334-.251,1.55.15,3.459.3,1.422,1.422,2.862.963,4.448a9.761,9.761,0,0,0-1.453-3.758c-.467-.848-.4-1.9-.769-1.693-1.262,1.475,1.706,5.525.74,9-.495.661-1.161-.4-1.833-.97-.579-.488-2.573-.953-2.1-.02a19.5,19.5,0,0,0,1.793,1.5c.907.943,1.018,3.069,1.26,4.075.571,2.379,4.311,1.328,4.654,1.176C247.885,126.974,250.877,124.213,250.375,119.235Z" fill="#efbba8"/>
          </g>
          <path id="Path_11019" data-name="Path 11019" d="M255.47,154.579c-1.48,5.74-7.833,19.488-9.132,24.222a3.322,3.322,0,0,0-.2,1.488c-1.232.963-8.971-8.745-8.971-8.745l2.778-3.107s6.455-11.684,7.593-13.646V153.7s.263-.518.7-1.269c-.117-.737-.482-2.838-.832-5.39a54.306,54.306,0,0,1-.65-10.445c1.482.437,4.326-.277,4.706-1.714C254.646,141.684,257.17,147.949,255.47,154.579Z" fill="#dcb793"/>
          <path id="Path_11020" data-name="Path 11020" d="M243.872,176.942c-.808-2.883,2.354-8.248,3.976-10.322a8.185,8.185,0,0,1-5.2,1.5c3.494-3.814,5.959-8.9,8.286-13.632-.882.54-1.677.591-2.414,1.021a35.732,35.732,0,0,1,3.392-4.084,10.8,10.8,0,0,1-4.508-4.383c.35,2.552.715,4.653.832,5.39-.438.751-.7,1.269-.7,1.269v1.087c-1.138,1.962-7.593,13.646-7.593,13.646l-2.778,3.107s3.261,4.091,5.888,6.7Q243.456,177.591,243.872,176.942Z" fill="#dcb793"/>
          <path id="Path_11021" data-name="Path 11021" d="M225.073,172.639c.081.517-2.008,1.576-3.943,2.569a109.366,109.366,0,0,1,8.181,11.8c.751-.075,1.511-.166,2.285-.295a22.587,22.587,0,0,0,8.776-3.214c-.122-.528-.238-1.058-.364-1.586-.745-3.131-1.835-6.283-2.521-9.473-2.037-.258-4.123-.532-4.219-1.061-.092-.483-.478-2.3-.8-3.788-.246-1.151-.454-2.108-.454-2.108l-7.836,1.3s.428,2.786.689,4.546C224.969,171.948,225.046,172.434,225.073,172.639Z" fill="#efbba8"/>
          <path id="Path_11022" data-name="Path 11022" d="M252.053,323.876s1.326,7.716,1.136,10.52c.19.454.417.265.417.265l.985-7.339Z" fill="#366196"/>
          <path id="Path_11023" data-name="Path 11023" d="M261.064,332.2c2.533,1.409,3.793,3.58,3.373,4.95-.327,1.065-1.665,1.621-4.223,1.007-4.23-1.015-3.648-1.581-4.133-4.863s-2.188-5.714-3.769-8.145,1.224-5,2.739-5.782S261.064,332.2,261.064,332.2Z" fill="#366196"/>
          <path id="Path_11024" data-name="Path 11024" d="M216.457,151.585l14.362-3.54a97.489,97.489,0,0,0-3.171-10.824,8.454,8.454,0,0,0-15.526,6.6A81.611,81.611,0,0,0,216.457,151.585Z" fill="#5e4c2a"/>
          <path id="Path_11025" data-name="Path 11025" d="M211.522,151.976a13.592,13.592,0,1,0,26.392-6.505c-1.816-7.373-10.043-10.838-17.331-9.042-3,.739-5.113,2.67-5.225,6.273C211.254,143.713,210.453,147.637,211.522,151.976Z" fill="#7a6236"/>
          <path id="Path_11026" data-name="Path 11026" d="M235.653,152.178c1.9-3.123,3.185.572,2.964,2.577-.365,3.3-2.642,4.486-5.677,4.731Z" fill="#efbb96"/>
          <path id="Path_11027" data-name="Path 11027" d="M216.751,156.836c-3.132-1.883-2.554,1.987-1.427,3.659,1.856,2.756,4.423,2.745,7.226,1.551Z" fill="#efbb96"/>
          <path id="Path_11028" data-name="Path 11028" d="M232.472,167.6c-1.245,3.6-3.827,5.862-5.915,5.2a3.4,3.4,0,0,1-1.661-1.348l-.025-.112c-.261-1.76-.689-4.546-.689-4.546l7.836-1.3S232.226,166.444,232.472,167.6Z" fill="#efbb96"/>
          <path id="Path_11029" data-name="Path 11029" d="M236.4,154.114c1.734,7.041-3.33,14.34-6.564,15.137s-11.113-3.313-12.848-10.353-2.743-14.089,6.277-16.312S234.665,147.076,236.4,154.114Z" fill="#efbba8"/>
          <path id="Path_11030" data-name="Path 11030" d="M217.757,146.7c-.492-4.352,2.206-7.575,5.962-7.687,5.263-.159,17.576,3.674,12.4,13.921-2.506-9.108-17.242-2.719-17.874-5.836Z" fill="#896c3e"/>
          <path id="Path_11031" data-name="Path 11031" d="M217.971,145.211c-3.634-.055-6.99,5.179-5.621,8.449.768,1.833,2.5,2.821,4.37,4.056-.127-1.723-.825-4.867,1.207-8.178.819-1.336.264-2.357.16-3.857Z" fill="#896c3e"/>
          <path id="Path_11032" data-name="Path 11032" d="M229.048,160.317c.1.392-.422.856-1.16,1.038s-1.411.011-1.508-.381.53-.421,1.266-.6S228.952,159.925,229.048,160.317Z" fill="#efbb96"/>
          <path id="Path_11033" data-name="Path 11033" d="M220.878,140.591c1.887,1.727,1.66,3.361.967,5.4,3.53-.175,9.491.275,11.739,2.068C233.588,144.669,228.649,138.676,220.878,140.591Z" fill="#917244"/>
          <path id="Path_11034" data-name="Path 11034" d="M214.412,147.487c.424,1.321,1.281,1.58,2.445,1.7-.885,1.7-2.015,4.744-1.639,6.258C213.543,154.677,211.706,150.884,214.412,147.487Z" fill="#917244"/>
          <g id="Group_3780" data-name="Group 3780">
            <path id="Path_11035" data-name="Path 11035" d="M228.092,162.032c-4.086,1.006-7.6-1.808-6.854,1.213s5.589,5.776,8.406,5.082,5.826-5.385,5.083-8.406S232.179,161.025,228.092,162.032Z" fill="#efbba8"/>
            <g id="Group_3779" data-name="Group 3779">
              <path id="Path_11036" data-name="Path 11036" d="M232.368,161.44c.011.142.017.31.025.5,0,.091-.008.2-.013.308s-.01.215-.02.334a5.507,5.507,0,0,1-.189,1.037c0,.01,0,.016-.006.027a.3.3,0,0,1-.021.074,4.022,4.022,0,0,1-2.835,2.9c-2.854.673-4.748-2-5.172-3.056.024,0,.107-.018.242-.046.721-.089,2.642-.621,3.77-.886a41.433,41.433,0,0,0,4.022-1.12C232.276,161.475,232.348,161.451,232.368,161.44Z" fill="#f76e80"/>
              <path id="Path_11037" data-name="Path 11037" d="M232.034,161.7a5.175,5.175,0,0,1-.055.632s.007.013,0,.018a4.24,4.24,0,0,1-2.928,3.8,3.893,3.893,0,0,1-3.977-1.648,7.355,7.355,0,0,1-.549-.818,8.545,8.545,0,0,0,3.882-.213A9.226,9.226,0,0,0,232.034,161.7Z" fill="#44060f"/>
              <path id="Path_11038" data-name="Path 11038" d="M230.031,165.74a5.32,5.32,0,0,0,1.849-1.947,3.3,3.3,0,0,0-.466-.175,4.773,4.773,0,0,0-2.374.084,4.11,4.11,0,0,0-2.493,1.689,1.731,1.731,0,0,0-.2.517A3.972,3.972,0,0,0,230.031,165.74Z" fill="#750414"/>
              <path id="Path_11039" data-name="Path 11039" d="M232.034,161.7a3.48,3.48,0,0,1-.759,1.433,5.605,5.605,0,0,1-2.8,1.512c-1.315.333-3.336-.07-3.946-.958a8.679,8.679,0,0,0,3.882-.213A9.226,9.226,0,0,0,232.034,161.7Z" fill="#f4f4f4"/>
              <path id="Path_11040" data-name="Path 11040" d="M228.407,163.473a8.679,8.679,0,0,1-3.882.213,3.125,3.125,0,0,0,1.948.982,8.5,8.5,0,0,1,2.915-1.262,4.765,4.765,0,0,1,1.807-.2c.026-.027.056-.05.08-.074a3.48,3.48,0,0,0,.759-1.433A9.226,9.226,0,0,1,228.407,163.473Z" fill="#eaedef"/>
              <path id="Path_11041" data-name="Path 11041" d="M232.368,161.44c.011.142.017.31.025.5,0,.091-.008.2-.013.308s-.01.215-.02.334c-.048.291-.1.622-.189,1.037,0,.01,0,.016-.006.027a.3.3,0,0,1-.021.074,4.022,4.022,0,0,1-2.835,2.9c-2.854.673-4.748-2-5.172-3.056.024,0,.107-.018.242-.046a1.212,1.212,0,0,1,.143.165,5.271,5.271,0,0,0,1.212,1.2,7.909,7.909,0,0,0,.809.51,5.09,5.09,0,0,0,1.025.4,3.047,3.047,0,0,0,.8.1,2.861,2.861,0,0,0,1.9-.8,5.268,5.268,0,0,0,.647-.7,5.09,5.09,0,0,0,.489-.767,5.37,5.37,0,0,0,.593-1.743.972.972,0,0,1,.166-.363C232.276,161.475,232.348,161.451,232.368,161.44Z" fill="#f77980"/>
              <path id="Path_11042" data-name="Path 11042" d="M232.05,161.692q.16-.123.318-.252c-.2.076-.4.147-.6.215Z" fill="#f76480"/>
              <path id="Path_11043" data-name="Path 11043" d="M224.137,163.568c.13-.022.259-.046.388-.071.062.077.126.154.189.23C224.52,163.679,224.327,163.624,224.137,163.568Z" fill="#f76480"/>
            </g>
          </g>
          <g id="Group_3783" data-name="Group 3783">
            <path id="Path_11044" data-name="Path 11044" d="M235.5,152.146a6.219,6.219,0,0,1-1.731,5.622c-1.4,1.552-4.248-.275-6.739.339-2.507.618-4.2,3.554-6.163,2.816a6.2,6.2,0,0,1-4.107-4.159c-.916-3.719,2.535-7.767,7.71-9.042S234.584,148.427,235.5,152.146Z" fill="#efbba8"/>
            <g id="Group_3781" data-name="Group 3781">
              <path id="Path_11045" data-name="Path 11045" d="M233.638,150.816a4.686,4.686,0,0,0-2.571-2.044c-1.089-.312-2.19.144-3.291.072-.729-.049-.765,1.127-.034,1.173.972.062,1.919-.265,2.891-.168A5.959,5.959,0,0,1,233.55,151c.094.071.127-.121.088-.181Z" fill="#501f23"/>
            </g>
            <path id="Path_11046" data-name="Path 11046" d="M233.413,152.933c-2.165-.572-4.2,1.729-4.4,4.143l.281.083a3.54,3.54,0,0,1,.877-2.056,3.922,3.922,0,0,1,1.116-.928,3.275,3.275,0,0,1,1.385-.4,1.68,1.68,0,0,1,1.927,1.375A1.556,1.556,0,0,0,233.413,152.933Z" fill="#501f23"/>
            <path id="Path_11047" data-name="Path 11047" d="M224.9,158.1l-.212.194a3.549,3.549,0,0,0-1.714-1.44,3.789,3.789,0,0,0-1.4-.327,3.337,3.337,0,0,0-1.42.261,1.71,1.71,0,0,0-1.109,2.106,1.567,1.567,0,0,1,.069-2.515C220.785,154.9,223.637,156.034,224.9,158.1Z" fill="#501f23"/>
            <g id="Group_3782" data-name="Group 3782">
              <path id="Path_11048" data-name="Path 11048" d="M217.741,154.77a4.689,4.689,0,0,1,1.25-3.038c.8-.8,1.983-.94,2.909-1.54.615-.4,1.215.612.6,1.007-.819.529-1.8.705-2.6,1.264a5.939,5.939,0,0,0-1.988,2.423c-.049.1-.171-.044-.166-.116Z" fill="#501f23"/>
            </g>
          </g>
          <path id="Path_11049" data-name="Path 11049" d="M238.054,226.474c.974.317,4.724,16.171.9,27.291-6.237,18.12-15.984,41.143-19.907,38.315-2.481-.693-3.608-2.192-2.412-4.426,2.062-3.852,2.667-13.233,2.355-17.26a83.878,83.878,0,0,1,.933-22.286c1.141-6.21,3.816-11.505,8.266-13.24C235.523,232.005,231.071,227.185,238.054,226.474Z" fill="#efbb96"/>
          <path id="Path_11050" data-name="Path 11050" d="M244.308,179.02a3.872,3.872,0,0,1-.71-.294,10.831,10.831,0,0,1-2.518-2.059c-.3-.313-.6-.633-.9-.95l-23.325,9.242c3.834,5.655,10.531,20.766,8.444,24.867s-12.365,17.653-1.164,22.29,27.249-.178,19.761-21.754c-2.222-7.526,2.5-15.412,4.279-22.6C249.385,182.9,246.492,181.286,244.308,179.02Z" fill="#efbba8"/>
          <path id="Path_11051" data-name="Path 11051" d="M250.671,275.45c-2.211,1.465-4.07,1.224-4.865-1.452-1.372-4.61-7.753-12.29-10.889-15.127a89.966,89.966,0,0,1-15.507-17.833c-3.719-5.682-5.711-11.9-3.9-16.819,2.976-8.111,5.5-8.22,9.795-14.39.541-.33,2.546,2.807,5.23,7.869.408.78.839,1.6,1.284,2.473.459.89.934,1.83,1.414,2.8,0,.008.009.014.009.021,5.476,11.044,12.369,26.776,16.045,38.132C251.9,269.147,252.9,274.982,250.671,275.45Z" fill="#efbba8"/>
          <path id="Path_11052" data-name="Path 11052" d="M244.432,269.385c-3.21,7.846-4.457,15.059,1.07,28.077s8.228,18.505,9.477,24.746c1.069,3.032,6.081,7.37,4.459-.357-7.827-37.268-6.883-43.8-7.8-50.6C250.858,265.518,244.432,269.385,244.432,269.385Z" fill="#efbba8"/>
          <path id="Path_11053" data-name="Path 11053" d="M255.051,319.362c-2.165,1.483-.612,3.932-.213,4.581,2.556,4.153,3.577,6.336,4.11,8.786s2.831,1.373,2.724.415.09-2.916-2.234-11.293Z" fill="#efbba8"/>
          <path id="Path_11054" data-name="Path 11054" d="M259.9,337.064c.5,1.005,2.921.846,3.6.133.975-1.029-.168-2.585-1.422-2.567C261.209,334.645,259.4,336.047,259.9,337.064Z" fill="#2e578a"/>
          <path id="Path_11055" data-name="Path 11055" d="M185.091,268.224s-6.111-2.539-7.787-3.9c-.4-.038-.4.231-.4.231l4.576,4.288Z" fill="#366196"/>
          <path id="Path_11056" data-name="Path 11056" d="M174.287,271.791c-2.315,1.49-4.4,1.6-5.037.661-.494-.729-.1-2.075,1.727-3.93,3.017-3.065,3.051-2.339,5.409-1.329a16.1,16.1,0,0,0,7.753.7c2.432-.262,2.493,3.165,2.141,4.757S174.287,271.791,174.287,271.791Z" fill="#366196"/>
          <path id="Path_11057" data-name="Path 11057" d="M224.82,287.03c-3.187-6.035-7.072-10.172-18.446-11.2s-17.2-2.815-21.863-4.467c-2.527-.419-8.1,1.864-2.274,3.845,28.078,9.562,29.827,13.46,34.661,15.623C220.981,292.659,224.82,287.03,224.82,287.03Z" fill="#efbb96"/>
          <path id="Path_11058" data-name="Path 11058" d="M186.28,272.649c.271-2.431-2.157-2.2-2.793-2.148a20.326,20.326,0,0,1-8.352-.694c-1.857-.613-2.461,1.754-1.791,2.079s2.266,1.643,8.893,3.323Z" fill="#efbb96"/>
          <path id="Path_11059" data-name="Path 11059" d="M221.109,177.755c.48,3.885,1.327,10.375-3.346,8.143A132.473,132.473,0,0,1,195.9,172.671c-5.024-3.835-1.951-7.381,4.485-4.06C211.2,174.19,220.676,174.257,221.109,177.755Z" fill="#efbba8"/>
          <path id="Path_11060" data-name="Path 11060" d="M198.779,170.823c-5.986,6.792-11.734-16.056-12.725-22.366-.393-2.5-2.67-4.84-1.862-5.334.892-.547,5.654-.718,5.256,1.836a7.738,7.738,0,0,0,.787,5.164C193.472,157.228,202.36,166.76,198.779,170.823Z" fill="#efbba8"/>
          <g id="Group_3784" data-name="Group 3784">
            <path id="Path_11061" data-name="Path 11061" d="M187.729,147.719c.293-.23,2.976-3.041,1.143-4.661-.776-.686-2.6-1.781-3.009-3.024a19.356,19.356,0,0,0-.482-2.286c-.6-.855-1.126,1.123-.966,1.863.184.859.813,1.948,0,2.075-3.521-.775-5.706-5.3-7.6-4.872-.362.23.606.661,1.136,1.471a9.774,9.774,0,0,0,2.637,3.047c-1.616-.339-2.36-2.006-3.477-2.937-1.5-1.249-2.569-1.823-2.984-1.755-.506.083-.332.478-.11.843a.433.433,0,0,0-.376.27c-.09.193.749.993,1.663,2.757a2.971,2.971,0,0,0,.3.454c-.4-.228-.6-.333-.809-.063-.226.3,1.423,2.624,3.414,3.953C182.366,147.631,186.208,146.283,187.729,147.719Z" fill="#efbba8"/>
          </g>
          <path id="Path_11062" data-name="Path 11062" d="M249.088,256.275a6.71,6.71,0,0,1-1.065,1.13,18.881,18.881,0,0,1-6.565,3.333c-7.066,2.209-16.11,2.2-16.789-1.984,3.676-8.745-10.365-18.111-10.371-30.137,0-7.783,5.513-12,10.815-18.6l9.716-1.933s7.862-1.3,9.066,2.276c6.039,12.631,3.516,27.759,1.627,34.353C244.682,247.646,247.228,253.889,249.088,256.275Z" fill="#fff"/>
          <path id="Path_11063" data-name="Path 11063" d="M220.026,234.88c1.79,4.99-3.457,12.6-7.347,12.6.63,5.769,8.306,11.918,14.162,13.79,1-.8,2.386-7.435,2.43-8.477.407-9.934.876-19.864,1.343-29.795Z" fill="#f4f4f4"/>
          <path id="Path_11064" data-name="Path 11064" d="M248.023,257.4a18.881,18.881,0,0,1-6.565,3.333,20.617,20.617,0,0,1-6.483-5.149c-6.148-7.411-9.992-18.235-11.094-27.732-.255-2.194-1.009-7.329,1.838-8.182C233.364,217.38,244.172,246.508,248.023,257.4Z" fill="#f4f4f4"/>
          <path id="Path_11065" data-name="Path 11065" d="M247.82,191.39c-2.189,6.221-4.392,14.143-3.546,18.008.5,1.065-1.882,1.714-1.882,1.714s-9,.795-14.236.175c-1.941-.226-3.371-.642-3.626-1.372-.94-2.69.176-3.559.176-3.559l-.57-.97s-.015-.86.044-2.049c.043-.941-3.15-9.942-5.419-14.507l-.007-.008a9.683,9.683,0,0,0-1.539-2.472c.948-1.619,3.267-6,3.238-8.964a3.253,3.253,0,0,0-.54-1.926c.277-.087.576-.189.876-.306.241-.094.488-.2.729-.3.2-.088.4-.175.592-.27,1.114-.51,2.026-1.013,2.026-1.013-.087,1.6,4.026,3.23,7.972,5.535a30.757,30.757,0,0,1,2.962,1.955c.2.139.386.292.576.445-.35-2.276.008-3.938-.372-6.229a14.978,14.978,0,0,0-1-3.348c.473-.058.889-.123,1.269-.182a8.092,8.092,0,0,1,1.866-.19,1.523,1.523,0,0,1,.913.372c.824.722,7.192,7.221,9.088,8.775S250,185.168,247.82,191.39Z" fill="#dcb793"/>
          <path id="Path_11066" data-name="Path 11066" d="M221.1,175.2s-.031.8-.1,2.028c-.2,3.909-.766,12.092-1.954,12.027a1.232,1.232,0,0,0-.285-.423l-.007-.008c-2.3-2.523-17.235-11.093-22.107-15.265-5.2-4.449-7.768-10.707-9.059-18.11.868.737,2.677.321,3.917-.452a3.632,3.632,0,0,0,.948-.81,108.734,108.734,0,0,1,8.884,13.471c.787.358,1.3.635,1.3.635l.627.89c2.057.948,15.725,5.74,15.725,5.74l.2.029,1.6.2Z" fill="#dcb793"/>
          <path id="Path_11067" data-name="Path 11067" d="M237.41,171.558a19.566,19.566,0,0,1-2.136,3.72,14.978,14.978,0,0,0-1-3.348A21.469,21.469,0,0,1,237.41,171.558Z" fill="#d3a375"/>
          <path id="Path_11068" data-name="Path 11068" d="M241.723,191.536a25.313,25.313,0,0,0-5.406,3.34A18.713,18.713,0,0,1,239,190.835c-4.916,2.021-10.386,5.332-14.712.745-1.515-1.606.442-14.827,1.428-16.071-1-.677-1.615-1.31-1.581-1.937,0,0-.914.5-2.027,1.018v0c-.191.095-.4.182-.592.27-.241.1-.488.205-.729.3l-1.6-.2c-3.041,1.707-7.4,3.713-9.9,2.611.466-.394,1.247-2.137,1.582-2.443-5.1-.292-9.379-2.313-13.989-3.676.861-.934,1.175-2.232,2.407-2.947-7.687,1.415-8.49-6.535-7.782-13.5-1.24.773-3.049,1.189-3.917.452,1.291,7.4,3.858,13.661,9.059,18.11,4.872,4.172,19.809,12.742,22.107,15.265l.007.008c2.269,4.565,5.462,13.566,5.419,14.507-.059,1.189-.044,2.049-.044,2.049l.57.97s-1.116.869-.176,3.559c.255.73,1.685,1.146,3.626,1.372a23.147,23.147,0,0,0,6.928-6.462c-2.268.795-4.58,1.7-7.045,1.648C229.5,202.3,238.258,195.161,241.723,191.536Z" fill="#dcb793"/>
          <path id="Path_11069" data-name="Path 11069" d="M235.97,181.754a51.573,51.573,0,0,1-9.378-5.98,2.649,2.649,0,0,1-.727-.827c-.9.154-1.769.341-2.564.489l-.194,1.811c2.33,2.369,5.488,3.414,8.613,4.272a13.325,13.325,0,0,0,1.954.4l-.013,0c1.647.5,3.755,2.913,3.848,3.918A23.018,23.018,0,0,0,235.97,181.754Z" fill="#d3a375"/>
          <path id="Path_11070" data-name="Path 11070" d="M235.646,181.507s-.234-.2-.634-.54c-1.787-1.532-8.629-7.177-10.639-8.7a9.586,9.586,0,0,1-.025-1.087c0,.121-.326.42-.4.53a4.088,4.088,0,0,0-.287.508,3.593,3.593,0,0,1-.986,1.452c-.388.294-.907.55-.953,1.1a8.166,8.166,0,0,0,2.443,2.306c.705-.421,1.732-.592,2.188-1.048a5.8,5.8,0,0,1-.568,2.006,40.761,40.761,0,0,0,8.926,3.282C235.3,181.441,235.646,181.507,235.646,181.507Z" fill="#dcb793"/>
          <path id="Path_11071" data-name="Path 11071" d="M237.323,178.422a9.983,9.983,0,0,1-.619,2.947c-.175.43-.46,1.334-.949,1.472a10.167,10.167,0,0,1-.685-1.779c.2.139.386.292.576.445-.35-2.276.008-3.938-.372-6.229a38.591,38.591,0,0,0-1.623-5.35,26.525,26.525,0,0,0,3.273,1.62,3.526,3.526,0,0,1-1.329,1.52c.488.044,1.327.358,1.721.175C237.295,174.972,237.44,176.7,237.323,178.422Z" fill="#d3a375"/>
        </g>
        <path id="Path_11072" data-name="Path 11072" d="M314.651,199.1a14.1,14.1,0,0,0,7.287-10.141c-2.647,4.545-4.815,5.875-9.359,5.875-8.158.544-15.41-4.792-23.7-3.264a27.661,27.661,0,0,0-18.59,11.914c-11.751,16.587-25.167,25.077-45.244,23.446-10.72-.871-19.954-5.945-30.732-2.172-6.654,2.331-13.225,6.966-20.6,5.741-8.217-1.364-12.814-10.286-21.958-9.518-7.893.663-10.163,6.706-14.856,12.288-4.4,5.234-8.008,3.615-9.523,1.722,1.672,4.863,8.814,5.826,13.068.709-1.367,3.85-4.959,7.836-8.407,7.092,5.94,2.814,11.529-4.325,15.178-8.113,4.785-4.967,10.682-4.15,16.3-.875,4.108,2.4,10.42,4.767,15.259,4.767,9.065,0,12-3.494,19.806-4.064,7.611-.556,29.043,12.463,51.513,5.142,5.409-1.763,9.368-4.669,15.32-11.891,10.153-12.319,7.871-22.944,21.258-27.145,9.291-2.916,14.041.759,22.439,2.129,6.878,1.122,9.891-.36,12.923-5.452A9.886,9.886,0,0,1,314.651,199.1Z" fill="#dcb793"/>
        <g id="Group_3787" data-name="Group 3787">
          <g id="Group_3786" data-name="Group 3786">
            <path id="Path_11073" data-name="Path 11073" d="M221.913,238.029c-3.592-.526-5.774-3.131-5.274-5.7l0-.025c.48-2.481,3.092-3.869,6.013-3.407a6.811,6.811,0,0,1,3.781,1.67q-.715.681-1.462,1.343a4.68,4.68,0,0,0-2.587-1.244,2.771,2.771,0,0,0-3.3,2.186l0,.025c-.233,1.6,1.031,3.1,3.009,3.387a4.083,4.083,0,0,0,2.307-.24q.018-.633.042-1.266-1.188-.13-2.381-.312.064-.84.139-1.677,2.274.354,4.534.514-.022,1.92.006,3.846A7.065,7.065,0,0,1,221.913,238.029Z" fill="#fff"/>
            <path id="Path_11074" data-name="Path 11074" d="M234.59,238.53c-3.467.233-6.1-1.946-6.109-4.453l0-.025c-.018-2.522,2.195-4.436,5.075-4.6a5.391,5.391,0,0,1,5.837,3.916l0,.024C239.96,235.826,238.057,238.289,234.59,238.53Zm2.488-4.816a3.146,3.146,0,0,0-3.389-2.482,2.755,2.755,0,0,0-2.81,2.837l0,.024a3.087,3.087,0,0,0,3.484,2.657,2.626,2.626,0,0,0,2.717-3.011Z" fill="#fff"/>
            <path id="Path_11075" data-name="Path 11075" d="M249.576,235.379q-.852-.756-1.662-1.537-2.094.672-4.254,1.181-.18,1.059-.381,2.119-1.19.261-2.4.474,1.2-4.731,1.962-9.5.908-.229,1.8-.491a53.887,53.887,0,0,0,7.245,6.9Q250.745,234.979,249.576,235.379Zm-5.188-5.261q-.2,1.535-.436,3.069,1.311-.327,2.6-.715Q245.424,231.317,244.388,230.118Z" fill="#fff"/>
            <path id="Path_11076" data-name="Path 11076" d="M253.416,233.91q-2-3.95-3.737-8,.921-.384,1.823-.8,1.517,3.176,3.2,6.287,2.326-1.1,4.531-2.4.489.736.99,1.467A56.845,56.845,0,0,1,253.416,233.91Z" fill="#fff"/>
          </g>
        </g>
      </g>
      <g id="Group_3791" data-name="Group 3791">
        <path id="Path_11077" data-name="Path 11077" d="M77.953,154.8c4.486-3.59,9.8-5.822,14.817-8.529a6.577,6.577,0,0,0-.339-.822,81.622,81.622,0,0,1-6.39-14.055,4.476,4.476,0,0,1-.2-.834c-.015-.1.073-.222.139-.4a4.311,4.311,0,0,1,.7.128,133.368,133.368,0,0,0,19.736,5.059,129.491,129.491,0,0,0,25.636,2.246c6.041-.011,12.075-.277,18.093-.889a175.756,175.756,0,0,0,34.665-6.931c.328-.1.653-.21.985-.3,1.117-.311,1.476-.215,2.051.613.777,1.118,1.527,2.248,2.285,3.375q5.077,7.552,10.154,15.107c.07.106.136.214.2.321.717,1.1.682,1.225-.679,1.75-1.773.683-3.546,1.368-5.339,2.009a190.547,190.547,0,0,1-30.782,8.18,184.287,184.287,0,0,1-25.7,2.735,168.091,168.091,0,0,1-50.572-5.851c-2.784-.759-5.528-1.61-8.286-2.429C78.788,155.176,78.461,155.008,77.953,154.8Z" fill="#366196"/>
        <g id="Group_3790" data-name="Group 3790">
          <g id="Group_3789" data-name="Group 3789">
            <path id="Path_11078" data-name="Path 11078" d="M120.543,143.115a2.938,2.938,0,0,0-1.9.17,2.053,2.053,0,0,0-1.129,1.415,2.909,2.909,0,0,0,.139,1.974,5.047,5.047,0,0,0,1.224,1.689c.538.493,1.137,1.019,1.8,1.571s1.3,1.059,1.877,1.527a6.007,6.007,0,0,1,1.421,1.617,2.847,2.847,0,0,1,.432,1.872,4.023,4.023,0,0,1-2.542,3.044,10.273,10.273,0,0,1-5.862.748,9.365,9.365,0,0,1-5.208-2.033c-1.127-1.037-1.523-2.08-1.244-3.048a2.913,2.913,0,0,1,1.7-1.991,4.729,4.729,0,0,1,2.906-.177,4.787,4.787,0,0,1,.865.268,3.512,3.512,0,0,0-1.346,1.941,2.448,2.448,0,0,0,.416,2.125,3.154,3.154,0,0,0,2.232,1.2,5.017,5.017,0,0,0,2.652-.27,1.89,1.89,0,0,0,1.287-1.4,2.251,2.251,0,0,0-.377-1.708,6.286,6.286,0,0,0-1.4-1.45c-.575-.442-1.191-.95-1.842-1.533a18.57,18.57,0,0,1-1.727-1.759,5.183,5.183,0,0,1-1.067-2.082,4.327,4.327,0,0,1,.072-2.419,3.947,3.947,0,0,1,2.56-2.648,8.158,8.158,0,0,1,4.556-.1,7.308,7.308,0,0,1,3.847,1.786,2.925,2.925,0,0,1,1.046,2.437,2.673,2.673,0,0,1-1.241,1.9,3.762,3.762,0,0,1-2.693.471,6.293,6.293,0,0,1-1.051-.251,3.152,3.152,0,0,0,1.648-2.029,2.15,2.15,0,0,0-.4-1.9A2.851,2.851,0,0,0,120.543,143.115Z" fill="#fff"/>
            <path id="Path_11079" data-name="Path 11079" d="M132.979,152.438c-.318,1.168-.577,2.207-.77,3.117a15.644,15.644,0,0,0-.336,2.8,3.773,3.773,0,0,0,.353,2.051,5.4,5.4,0,0,1-2.992-1.281,3.063,3.063,0,0,1-.656-2.385,17.072,17.072,0,0,1,.847-3.647c.489-1.531.8-2.564.939-3.1a17.222,17.222,0,0,0-2.882.507c0-.3.008-.518.024-.666a1.542,1.542,0,0,1,.964-1.385,5.85,5.85,0,0,1,2.31-.251q.29-1.479.342-2.133c.036-.437.064-.8.081-1.091s.032-.509.045-.655a3.918,3.918,0,0,1,2.189.9,2.368,2.368,0,0,1,.634,1.851,10,10,0,0,1-.169,1.319,5.628,5.628,0,0,0,3.019-.611,5.16,5.16,0,0,1,.053.589,1.639,1.639,0,0,1-.409,1.309,2.155,2.155,0,0,1-1.431.356c-.67-.008-1.183-.027-1.534-.049C133.5,150.451,133.3,151.27,132.979,152.438Z" fill="#fff"/>
            <path id="Path_11080" data-name="Path 11080" d="M141.47,155.424a2.343,2.343,0,0,0,.618,1.477,1.757,1.757,0,0,0,1.425.511,3.218,3.218,0,0,0,2.308-1.223,6.528,6.528,0,0,0,1.378-2.9,8.512,8.512,0,0,0,.128-3.255,18.375,18.375,0,0,0-.535-2.437c.476-.073.809-.123,1-.143a3.949,3.949,0,0,1,1.911.152,1.587,1.587,0,0,1,.9,1.247,25.793,25.793,0,0,1,.036,3.1,19.889,19.889,0,0,0,.272,4.325,5.4,5.4,0,0,0,1.484,2.756,6.2,6.2,0,0,1-3.295-.807,3.3,3.3,0,0,1-1.394-2.32,9.771,9.771,0,0,1-.073-1.066,5.106,5.106,0,0,1-2.137,3.186,6.735,6.735,0,0,1-3.668,1.33,4.56,4.56,0,0,1-3.1-.871,3.442,3.442,0,0,1-1.25-2.737,7.615,7.615,0,0,1,.735-3.479,7.937,7.937,0,0,1,2.327-2.907,6.072,6.072,0,0,1,3.453-1.351,7.2,7.2,0,0,1,2.334.245,7.366,7.366,0,0,0-3.662,3.053A6.734,6.734,0,0,0,141.47,155.424Z" fill="#fff"/>
            <path id="Path_11081" data-name="Path 11081" d="M159.108,146.606a3.142,3.142,0,0,1,1.749-1.767,2.022,2.022,0,0,1,1.729.206,3.072,3.072,0,0,1,1.151,1.5,2.8,2.8,0,0,1,.011,2.077,2.257,2.257,0,0,1-1.7,1.387,2.678,2.678,0,0,1-.865.037,2.479,2.479,0,0,0,.09-2.043.641.641,0,0,0-.841-.474,1.364,1.364,0,0,0-.8.757,5.689,5.689,0,0,0-.543,1.667,9.852,9.852,0,0,0-.079,2.525,13.691,13.691,0,0,0,.632,3.138c.043.133.267.69.682,1.677-.568.125-.935.2-1.1.224a4.815,4.815,0,0,1-2.348-.063,1.685,1.685,0,0,1-1.043-1.214,31.167,31.167,0,0,1-.282-3.125,23.068,23.068,0,0,0-.62-4.286,11.223,11.223,0,0,0-1.162-2.795,5.274,5.274,0,0,1,2.741.818,3.47,3.47,0,0,1,1.281,1.8,10.542,10.542,0,0,1,.444,2.183A10.041,10.041,0,0,1,159.108,146.606Z" fill="#fff"/>
            <path id="Path_11082" data-name="Path 11082" d="M170.171,146.99q.462,1.918.888,3.4a21.149,21.149,0,0,0,1.107,2.956,5.559,5.559,0,0,0,1.343,2.011,5.593,5.593,0,0,1-3.318-.411,4.333,4.333,0,0,1-1.773-2.181,20.719,20.719,0,0,1-1.063-3.856c-.331-1.66-.577-2.768-.721-3.34a15.622,15.622,0,0,0-2.284,1.533q-.221-.42-.307-.637a1.469,1.469,0,0,1,.16-1.657,5,5,0,0,1,1.9-1.115c-.325-1.016-.583-1.734-.77-2.162s-.346-.78-.478-1.06-.226-.492-.289-.633a3.794,3.794,0,0,1,2.363-.054,2.833,2.833,0,0,1,1.49,1.515,11.963,11.963,0,0,1,.519,1.349,4.665,4.665,0,0,0,2.34-1.85,6.4,6.4,0,0,1,.347.561,1.964,1.964,0,0,1,.307,1.471,1.818,1.818,0,0,1-1.079.937c-.6.261-1.054.444-1.376.56C169.627,144.827,169.862,145.712,170.171,146.99Z" fill="#fff"/>
          </g>
        </g>
      </g>
      <g id="Group_3792" data-name="Group 3792">
        <path id="Path_11083" data-name="Path 11083" d="M209.306,96.451c.456,1.245-.009,2.666-.232,4.119-.778,5.075-2.924,12.593-8.126,17.474a54.331,54.331,0,0,0,5.691,8.756c.7.9,1.854,1.632,1.955,2.835-7.851-5.236-11.961-12.52-14.246-19.3a32.894,32.894,0,0,1-.006-22.145,13.314,13.314,0,0,1,2.861,4.761,35.224,35.224,0,0,1,2.9,16.323c.085.094.038.213.165.3C201.551,105.222,205.636,99.133,209.306,96.451Z" fill="#366196" fill-rule="evenodd"/>
        <path id="Path_11084" data-name="Path 11084" d="M156.574,302.534a9.059,9.059,0,0,0-2.094,1.673c-4.339,3.79-9.783,6.8-16.086,6.771a26.5,26.5,0,0,1,9.891-9.891c3.669-2.279,7.737-4.273,12.325-4.573.847,1.617.892,4.074.7,6.473-.626,7.784-5.205,18.56-10.9,22.269-.132-.019-.114-.106-.09-.2l-.288-.107C149.884,318.627,152.709,309.213,156.574,302.534Z" fill="#2e578a" fill-rule="evenodd"/>
        <path id="Path_11085" data-name="Path 11085" d="M126.877,117.177h.459c2.609,2.953,3.761,10.894,1.073,14.71-5.519-1.172-9.683-3.7-11.186-8.887,4.222-.439,6.5,2.383,8.887,4.291A13.622,13.622,0,0,1,126.877,117.177Z" fill="#2e578a" fill-rule="evenodd"/>
        <path id="Path_11086" data-name="Path 11086" d="M100.288,208.141c1.82,2.182,4.35,3.682,7.51,5.283a12,12,0,0,1-2.66.642,16.729,16.729,0,0,0-8.974,6.841c-.408.6-1.069,1.163-1.014,1.959a5.965,5.965,0,0,0,4.37.554c4.533-.9,9.254-4.532,10.912-8.788,5.789,1.986,11.748,3.084,16.685,1.652.549-.159,1.65-.082,1.74-.963-1.144-.794-2.566-.115-3.944-.178a39.231,39.231,0,0,1-13.327-3.639,66.694,66.694,0,0,1-8.924-5.55C101.9,206.791,101,207.162,100.288,208.141Z" fill="#2e578a" fill-rule="evenodd"/>
        <path id="Path_11087" data-name="Path 11087" d="M284.584,213.937l.193-.166a10.678,10.678,0,0,1,1.8,8.508c3.55-2.374,7.762-4.738,11.327-3.4-1.4,4.743-7.536,8.457-11.986,8.663a5.12,5.12,0,0,1-2.411-.268c-.843-.712-.967-2.867-1.047-4.129a16.91,16.91,0,0,1,.029-4.051C282.856,217.169,283.917,215.537,284.584,213.937Z" fill="#2e578a" fill-rule="evenodd"/>
        <path id="Path_11088" data-name="Path 11088" d="M352.625,334.466l.012-.394a35.251,35.251,0,0,0-19.578-7.7,43.464,43.464,0,0,0-24.442,5.14c-.4.228-.924.579-1.34.876-.4.284-1.164.481-.955,1.152a16.567,16.567,0,0,0,3.311-.946,64.986,64.986,0,0,1,10.715-2.683c1.891,4.2,5.2,7.637,8.727,10.511a36.813,36.813,0,0,0,7.067,4.815,7.022,7.022,0,0,0,2.861.878,31.948,31.948,0,0,0-9.8-13.827C335.854,335.059,345.271,336.551,352.625,334.466Z" fill="#2e578a" fill-rule="evenodd"/>
        <path id="Path_11089" data-name="Path 11089" d="M305.629,286.071c-1.223-6.759,1.091-11.935,5.5-16.139a13.188,13.188,0,0,1,5.07-3.53c1.064,4.35-.221,7.569-1.508,10.787,4.9-3.25,12.971-5.99,18.085-5.294-.051.892-1.171,2.124-2.1,3.225C325.843,280.861,314.865,287.566,305.629,286.071Z" fill="#366196" fill-rule="evenodd"/>
        <path id="Path_11090" data-name="Path 11090" d="M197.76,334.2c1.921,3.337,1.462,8.656-.245,11.735a7.3,7.3,0,0,1-2.811,3.178c-1.92-2.2-1.61-7.918-.367-10.635a12.808,12.808,0,0,1-7.946,1.223,5.978,5.978,0,0,1,1.589-2.2C190.053,335.557,193.971,333.574,197.76,334.2Z" fill="#366196" fill-rule="evenodd"/>
        <path id="Path_11091" data-name="Path 11091" d="M107.946,173.192c2.585-.805,5.644.33,7.266,1.473-.563-1.966-.461-5.369.6-6.868.517.03.833.572,1.17.99,1.594,1.979,2.946,6.678.442,9.059a9.187,9.187,0,0,1-7.923-2.358A5.4,5.4,0,0,1,107.946,173.192Z" fill="#366196" fill-rule="evenodd"/>
        <path id="Path_11092" data-name="Path 11092" d="M329.053,230.7c.434-1.195,2.557-1.743,3.84-2.064,5.265-1.315,11.023-.477,15.163.518,1.546-4.128,5.139-9.322,11.3-10.793a5.462,5.462,0,0,1,3.732.068c.159,1.221-.761,2.33-1.327,3.336a16.928,16.928,0,0,1-10.413,8.085c2.331,1.313,5.922,2.322,8.262,4.551-.3,1.106-1.4,1.8-2.2,2.653-3-1.441-5.959-3.266-9.327-4.363a46.907,46.907,0,0,0-10.407-2.236,30.46,30.46,0,0,0-6.64.4C330.438,230.931,329.539,231.355,329.053,230.7Z" fill="#366196" fill-rule="evenodd"/>
      </g>
      <g id="Group_3795" data-name="Group 3795">
        <path id="Path_11093" data-name="Path 11093" d="M123.2,182.205c2.133.629,4.16,1.252,6.2,1.824a174.565,174.565,0,0,0,22.558,4.688,180.449,180.449,0,0,0,26.051,1.815c19.867-.07,39.268-2.976,57.983-9.853a116.172,116.172,0,0,0,19.808-9.4c.523-.313,1.027-.656,1.633-1.045l12.27,19.925a131.905,131.905,0,0,1-15.033,8.863,158.144,158.144,0,0,1-39.779,14.054,182.466,182.466,0,0,1-26.459,3.674,171.849,171.849,0,0,1-25.5-.2A139.867,139.867,0,0,1,124,208.057c-1.6-.615-3.188-1.277-4.769-1.947-1.4-.594-1.609-1.023-1.267-2.46q1.876-7.875,3.756-15.748c.37-1.55.735-3.1,1.117-4.65C122.921,182.908,123.069,182.579,123.2,182.205Z" fill="#366196"/>
        <g id="Group_3794" data-name="Group 3794">
          <g id="Group_3793" data-name="Group 3793">
            <path id="Path_11094" data-name="Path 11094" d="M148.552,197.8a3.435,3.435,0,0,1,2.571-.841,2.107,2.107,0,0,1,1.528,1.033,3.084,3.084,0,0,1,.3,1.942,3.016,3.016,0,0,1-1.058,1.924,2.528,2.528,0,0,1-2.288.514,2.765,2.765,0,0,1-.826-.355,2.755,2.755,0,0,0,1.112-1.887.651.651,0,0,0-.552-.839,1.508,1.508,0,0,0-1.135.352,6.241,6.241,0,0,0-1.344,1.349,10.685,10.685,0,0,0-1.31,2.4,14.789,14.789,0,0,0-.918,3.29c-.023.147-.081.775-.161,1.892-.584-.107-.959-.182-1.121-.222a4.525,4.525,0,0,1-2.148-.994,1.72,1.72,0,0,1-.407-1.615,33.444,33.444,0,0,1,1.2-3.2,27.241,27.241,0,0,0,1.462-4.492,12.183,12.183,0,0,0,.236-3.282,5.413,5.413,0,0,1,2.254,2.066,3.635,3.635,0,0,1,.331,2.328,11.917,11.917,0,0,1-.651,2.308A10.7,10.7,0,0,1,148.552,197.8Z" fill="#fff"/>
            <path id="Path_11095" data-name="Path 11095" d="M159.383,205.768a11.748,11.748,0,0,1-2.438-.586,6.385,6.385,0,0,0-.087.679,4.158,4.158,0,0,0,.593,2.877,2.744,2.744,0,0,0,1.919,1.193,4.229,4.229,0,0,0,2.23-.313,5.1,5.1,0,0,0,1.879-1.4c.629.181.938.482.925.909a6.688,6.688,0,0,1-6.244,2.3,6.259,6.259,0,0,1-3.868-2.016,5.092,5.092,0,0,1-1.26-4.237,7.638,7.638,0,0,1,1.278-3.44,7.1,7.1,0,0,1,2.988-2.443,7.362,7.362,0,0,1,4.09-.628,5.2,5.2,0,0,1,3.136,1.233,3.1,3.1,0,0,1,.914,2.412,3.151,3.151,0,0,1-1.817,2.932A7.4,7.4,0,0,1,159.383,205.768Zm1.533-5.79a2.478,2.478,0,0,0-2.289,1.1,8.007,8.007,0,0,0-1.492,3.2l.389.058a4.475,4.475,0,0,0,3.4-.549,2.966,2.966,0,0,0,1.223-2.255,1.56,1.56,0,0,0-.272-1.021A1.29,1.29,0,0,0,160.916,199.978Z" fill="#fff"/>
            <path id="Path_11096" data-name="Path 11096" d="M171.249,208.06a2.945,2.945,0,0,0,.487,1.71,1.6,1.6,0,0,0,1.327.7,2.969,2.969,0,0,0,2.32-1.165,8.056,8.056,0,0,0,1.626-3.1,10.975,10.975,0,0,0,.485-3.607,22.452,22.452,0,0,0-.253-2.768c.489-.03.831-.047,1.027-.048a3.615,3.615,0,0,1,1.9.389,1.739,1.739,0,0,1,.729,1.482q.027.419-.372,3.419a23.969,23.969,0,0,0-.268,4.8,6.23,6.23,0,0,0,1.089,3.164,5.211,5.211,0,0,1-3.035-1.17,3.819,3.819,0,0,1-1.091-2.7c-.01-.206,0-.6.04-1.192a5.954,5.954,0,0,1-2.362,3.359,5.794,5.794,0,0,1-3.59,1.18,4.027,4.027,0,0,1-2.891-1.245,4.377,4.377,0,0,1-1.055-3.18,9.215,9.215,0,0,1,.908-3.843,8.151,8.151,0,0,1,2.507-3.059,5.6,5.6,0,0,1,3.592-1.187,6.515,6.515,0,0,1,2.325.516,7.245,7.245,0,0,0-3.955,3.047A8.043,8.043,0,0,0,171.249,208.06Z" fill="#fff"/>
            <path id="Path_11097" data-name="Path 11097" d="M185.03,210.739a7.447,7.447,0,0,1-.217-1.259c-.062-.572-.015-2.837.159-6.795a78.7,78.7,0,0,0,.083-8.133,9.56,9.56,0,0,0-.5-2.838,4.177,4.177,0,0,1,2.454,1.163,4.451,4.451,0,0,1,.888,2.458c.068.643.065,2.75.005,6.325a60.039,60.039,0,0,0,.339,8.607q.093.7.376,1.964c-1.613.07-2.65-.165-3.1-.668A2.331,2.331,0,0,1,185.03,210.739Z" fill="#fff"/>
            <path id="Path_11098" data-name="Path 11098" d="M194.454,196.464c-1.608.22-2.492-.217-2.633-1.263a5.011,5.011,0,0,1,.135-1.59,8.931,8.931,0,0,1,1.109-.228c1.566-.205,2.429.193,2.606,1.237a4.979,4.979,0,0,1-.087,1.594A8.117,8.117,0,0,1,194.454,196.464Zm-1.547,11.376a23.161,23.161,0,0,1-.131-3.361,25.6,25.6,0,0,0-.186-3.776,11.707,11.707,0,0,0-.448-2.034c.346-.069.669-.124.971-.162a3.337,3.337,0,0,1,1.981.171,1.839,1.839,0,0,1,.787,1.369q.057.326.015,3.506a27.69,27.69,0,0,0,.32,5.192,6.731,6.731,0,0,0,.8,2.551,4.865,4.865,0,0,1-2.976-.955A4.251,4.251,0,0,1,192.907,207.84Z" fill="#fff"/>
            <path id="Path_11099" data-name="Path 11099" d="M204.044,198.12a1.893,1.893,0,0,0-1.082.641,1.333,1.333,0,0,0-.26,1.232,2.157,2.157,0,0,0,.886,1.262,5.771,5.771,0,0,0,1.662.834q.943.3,1.915.614a6.942,6.942,0,0,1,1.811.888,3.12,3.12,0,0,1,1.181,1.45,2.962,2.962,0,0,1-.792,2.939,6.439,6.439,0,0,1-3.619,1.909,7.236,7.236,0,0,1-3.9-.081c-1.022-.37-1.6-.909-1.754-1.6a2.061,2.061,0,0,1,.377-1.8,2.677,2.677,0,0,1,1.691-.965,3.426,3.426,0,0,1,1.108-.031,2.073,2.073,0,0,0-.428,1.7,1.832,1.832,0,0,0,.848,1.208,2.135,2.135,0,0,0,1.569.205,2.668,2.668,0,0,0,1.424-.718,1.153,1.153,0,0,0,.338-1.159,1.839,1.839,0,0,0-.723-1.028,4.725,4.725,0,0,0-1.276-.641q-.725-.243-1.579-.569c-.567-.217-1.1-.449-1.588-.695a4.165,4.165,0,0,1-1.312-1.038,3.423,3.423,0,0,1-.758-1.557,2.967,2.967,0,0,1,.864-2.765,5.962,5.962,0,0,1,3.192-1.657,5.228,5.228,0,0,1,3.146.057,2.258,2.258,0,0,1,1.186,3.275,2.309,2.309,0,0,1-1.568,1.093,4.4,4.4,0,0,1-1.248.074,2.87,2.87,0,0,0,.574-1.109,2.187,2.187,0,0,0,.017-1.1,1.127,1.127,0,0,0-.689-.76A1.92,1.92,0,0,0,204.044,198.12Z" fill="#fff"/>
            <path id="Path_11100" data-name="Path 11100" d="M213.222,192.387c-1.524.456-2.445.155-2.739-.858a5.116,5.116,0,0,1-.11-1.593,8.822,8.822,0,0,1,1.039-.389c1.486-.436,2.381-.17,2.711.836a5.041,5.041,0,0,1,.156,1.589A7.819,7.819,0,0,1,213.222,192.387Zm.219,11.475a23.8,23.8,0,0,1-.636-3.3,26.182,26.182,0,0,0-.748-3.705,11.974,11.974,0,0,0-.742-1.944c.324-.12.63-.223.917-.305a3.209,3.209,0,0,1,1.946-.125,1.843,1.843,0,0,1,.97,1.236q.105.313.546,3.464a28.1,28.1,0,0,0,1.1,5.085,6.848,6.848,0,0,0,1.167,2.4,4.73,4.73,0,0,1-3.037-.5A4.286,4.286,0,0,1,213.441,203.862Z" fill="#fff"/>
            <path id="Path_11101" data-name="Path 11101" d="M225.846,189.982a2.371,2.371,0,0,1,2.142-.038,3.7,3.7,0,0,1,1.471,1.737,22.793,22.793,0,0,1,1.229,3.686,20.9,20.9,0,0,0,1.133,3.465,3.221,3.221,0,0,0,1.032,1.355,2.727,2.727,0,0,0,1.427.345c-.194.1-.48.239-.854.4a5.945,5.945,0,0,1-3.066.686,2.271,2.271,0,0,1-1.678-1.484,19.064,19.064,0,0,1-.856-3.092,19.422,19.422,0,0,0-1-3.417c-.393-.887-.879-1.21-1.464-.975a1.988,1.988,0,0,0-.917,1,7.207,7.207,0,0,0-.631,1.98,9.46,9.46,0,0,0-.021,2.822,11.606,11.606,0,0,0,.809,3.123,12.763,12.763,0,0,0,1.069,2.134c-.5.217-.836.354-1,.412a3.847,3.847,0,0,1-2.154.292,1.712,1.712,0,0,1-1.138-1.15q-.159-.413-.727-3.341a29.783,29.783,0,0,0-1.184-4.571,13.094,13.094,0,0,0-1.495-2.9,4.683,4.683,0,0,1,2.761.56,3.662,3.662,0,0,1,1.429,1.754,15.884,15.884,0,0,1,.768,2.689,10.5,10.5,0,0,1,.75-4.76A4.624,4.624,0,0,1,225.846,189.982Z" fill="#fff"/>
            <path id="Path_11102" data-name="Path 11102" d="M237.431,184.684a4.133,4.133,0,0,1,.61-.283.793.793,0,0,1,.976.391,6.547,6.547,0,0,0-2.322,4.2,7.145,7.145,0,0,0,.7,4.54c.846,1.549,1.827,2.048,2.913,1.483a2.383,2.383,0,0,0,1.213-1.841,12.1,12.1,0,0,0-1.2-6.185c-.827-1.995-1.042-3.456-.668-4.383a4.326,4.326,0,0,1,.853-1.338,26.926,26.926,0,0,0,1.558,3.172c3.089,5,4.926,9.054,5.236,12.286A6.882,6.882,0,0,1,243.162,204a5.262,5.262,0,0,1-3.387.645,2.723,2.723,0,0,1-2.02-1.269,2.137,2.137,0,0,1-.113-1.922,3.273,3.273,0,0,1,1.7-1.591,3.819,3.819,0,0,1,1.2-.35,1.722,1.722,0,0,0-.045,1.923,2.019,2.019,0,0,0,2.659.785,3.244,3.244,0,0,0,1.117-.891,3.545,3.545,0,0,0,.585-1.424,6.107,6.107,0,0,0,.04-2.03,18.328,18.328,0,0,0-2.482-6.266,6.273,6.273,0,0,1-.372,3.668,4.615,4.615,0,0,1-2.13,2.4,3.677,3.677,0,0,1-3.3.186,5.214,5.214,0,0,1-2.445-2.492,8.039,8.039,0,0,1-.857-4.4,7.317,7.317,0,0,1,1.848-4.507A8.238,8.238,0,0,1,237.431,184.684Z" fill="#fff"/>
          </g>
        </g>
      </g>
      <g id="Group_3802" data-name="Group 3802">
        <g id="Group_3796" data-name="Group 3796">
          <path id="Path_11103" data-name="Path 11103" d="M359.316,294.627a50.441,50.441,0,0,1-5.051,6.436c-1.8,2-3.7,3.919-5.668,6a70.761,70.761,0,0,1,8.236,15.922,2.148,2.148,0,0,1-1.607-.055,89.575,89.575,0,0,0-15.786-2.841,149.629,149.629,0,0,0-15.7-.274c-11.666.365-23.07,2.5-34.441,4.915-9.4,2-18.778,4.094-28.27,5.63a200.632,200.632,0,0,1-22.162,2.619A110.267,110.267,0,0,1,206.6,330.1a103.765,103.765,0,0,1-11.909-3.773c-.3-.114-.586-.261-.934-.417,1-8.287,1.995-16.539,2.995-24.833,2.149.544,4.12,1.054,6.1,1.544a69.457,69.457,0,0,0,11.364,1.839c3.545.274,7.092.6,10.644.725a120.1,120.1,0,0,0,14.217-.435c9.733-.824,19.235-2.909,28.713-5.139,10.114-2.379,20.252-4.646,30.538-6.161a143.808,143.808,0,0,1,17.588-1.539c4.782-.113,9.565-.336,14.347-.339,3.925,0,7.86.115,11.773.414A91.931,91.931,0,0,1,359.316,294.627Z" fill="#366196"/>
        </g>
        <g id="Group_3801" data-name="Group 3801">
          <g id="Group_3798" data-name="Group 3798">
            <g id="Group_3797" data-name="Group 3797">
              <path id="Path_11104" data-name="Path 11104" d="M255.667,310.783a3.651,3.651,0,0,1,.638-.008.82.82,0,0,1,.727.756,5.538,5.538,0,0,0-3.4,2.871,7.271,7.271,0,0,0-.775,4.434c.254,1.768.911,2.636,1.971,2.567a1.953,1.953,0,0,0,1.568-1.186,13.34,13.34,0,0,0,1.029-6.145c-.033-2.161.282-3.583.948-4.28a3.935,3.935,0,0,1,1.244-.882,29.419,29.419,0,0,0,.2,3.531q1.272,8.727.049,13.356c-.815,3.079-2.622,4.816-5.423,4.991a3.85,3.85,0,0,1-2.789-.813,3.235,3.235,0,0,1-1.246-2.014,2.222,2.222,0,0,1,.416-1.8,2.289,2.289,0,0,1,1.795-.735,2.862,2.862,0,0,1,1.056.181,1.729,1.729,0,0,0-.583,1.736,2.274,2.274,0,0,0,.649,1.317,1.51,1.51,0,0,0,1.2.5,2.208,2.208,0,0,0,1.124-.363,3.125,3.125,0,0,0,.883-1.068,6.76,6.76,0,0,0,.659-1.843,21.071,21.071,0,0,0,.017-6.739,6.451,6.451,0,0,1-1.478,3.207,3.519,3.519,0,0,1-2.447,1.32,3.188,3.188,0,0,1-2.743-1.224,6.589,6.589,0,0,1-1.356-3.331,8.286,8.286,0,0,1,.484-4.374,5.824,5.824,0,0,1,2.974-3.293A7.183,7.183,0,0,1,255.667,310.783Z" fill="#fff"/>
              <path id="Path_11105" data-name="Path 11105" d="M270.252,308.365a2.559,2.559,0,0,1,2.408.792,5.416,5.416,0,0,1,1.417,3.2,10.367,10.367,0,0,1-.331,4.609,6.843,6.843,0,0,1-2.631,3.8,6.39,6.39,0,0,1-2.409,1.014,4.225,4.225,0,0,1-3.512-.827,5.741,5.741,0,0,1-2.021-3.967,8.952,8.952,0,0,1,.64-5.064A6.257,6.257,0,0,1,267,308.645a.77.77,0,0,1,.467.054c.15.067.234.151.249.251a6.486,6.486,0,0,0-2.014,4.718,8.994,8.994,0,0,1,.813-2.307,5.844,5.844,0,0,1,1.184-1.606A5.612,5.612,0,0,1,270.252,308.365Zm-1.117,1.855q-1.416.291-2.247,2.393a7.682,7.682,0,0,0-.556,3.985c.384,2.625,1.261,3.809,2.625,3.531.972-.2,1.671-1,2.1-2.384a10.035,10.035,0,0,0,.29-4.432C271,311.014,270.267,309.987,269.135,310.22Z" fill="#fff"/>
              <path id="Path_11106" data-name="Path 11106" d="M279.747,314.8a3.035,3.035,0,0,0,.624,1.56,1.127,1.127,0,0,0,1.172.391,2.858,2.858,0,0,0,1.773-1.616,9.992,9.992,0,0,0,1.033-3.358,12.683,12.683,0,0,0,.035-3.643,22.18,22.18,0,0,0-.53-2.676c.432-.124.734-.2.908-.24a2.781,2.781,0,0,1,1.737.06,1.62,1.62,0,0,1,.782,1.353q.061.41-.031,3.442a28.521,28.521,0,0,0,.167,4.79,6.77,6.77,0,0,0,1.135,2.99,3.746,3.746,0,0,1-2.572-.719,3.865,3.865,0,0,1-1.152-2.482q-.043-.3-.084-1.181a7.15,7.15,0,0,1-1.6,3.748,5.2,5.2,0,0,1-2.765,1.907,2.742,2.742,0,0,1-2.487-.534,4.343,4.343,0,0,1-1.328-2.821,10.919,10.919,0,0,1,.146-3.957,9.009,9.009,0,0,1,1.662-3.6,5.1,5.1,0,0,1,2.967-1.995,4.839,4.839,0,0,1,2.117.019,7.316,7.316,0,0,0-3.056,3.827A9.452,9.452,0,0,0,279.747,314.8Z" fill="#fff"/>
              <path id="Path_11107" data-name="Path 11107" d="M291.444,315.183a8.532,8.532,0,0,1-.248-1.236q-.125-.846-.247-6.782a77.953,77.953,0,0,0-.439-8.1,9.329,9.329,0,0,0-.676-2.769,3.617,3.617,0,0,1,2.425.924,4.4,4.4,0,0,1,.962,2.393q.141.958.278,6.316a75.741,75.741,0,0,0,.607,8.581c.069.465.192,1.114.374,1.947-1.328.131-2.192-.021-2.587-.489A2.351,2.351,0,0,1,291.444,315.183Z" fill="#fff"/>
              <path id="Path_11108" data-name="Path 11108" d="M301.167,303.916a1.491,1.491,0,0,0-1.028.481,1.352,1.352,0,0,0-.313,1.191,2.445,2.445,0,0,0,.715,1.37,6.269,6.269,0,0,0,1.419,1.086q.81.462,1.638.967a6.544,6.544,0,0,1,1.5,1.274,3.757,3.757,0,0,1,.875,1.71,2.872,2.872,0,0,1-.966,2.682,4.94,4.94,0,0,1-3.2,1.168,6.033,6.033,0,0,1-3.263-.587,2.444,2.444,0,0,1-1.413-1.744,2.249,2.249,0,0,1,.395-1.766,2.035,2.035,0,0,1,1.506-.8,2.457,2.457,0,0,1,.962.1,2.182,2.182,0,0,0-.468,1.637,2.076,2.076,0,0,0,.651,1.306,1.75,1.75,0,0,0,1.314.428,1.978,1.978,0,0,0,1.259-.467,1.152,1.152,0,0,0,.381-1.08,2.153,2.153,0,0,0-.537-1.15,4.358,4.358,0,0,0-1.054-.852c-.408-.237-.853-.5-1.334-.794s-.933-.583-1.351-.879a4.382,4.382,0,0,1-1.105-1.159,3.857,3.857,0,0,1-.611-1.613,3.012,3.012,0,0,1,.9-2.687,4.532,4.532,0,0,1,3.034-1.257,4.331,4.331,0,0,1,2.894.645,2.657,2.657,0,0,1,1.134,1.76,2.271,2.271,0,0,1-.373,1.724,1.8,1.8,0,0,1-1.5.735,3.943,3.943,0,0,1-1.117-.161,2.636,2.636,0,0,0,.6-.991,2.335,2.335,0,0,0,.106-1.082,1.275,1.275,0,0,0-.564-.879A1.674,1.674,0,0,0,301.167,303.916Z" fill="#fff"/>
            </g>
          </g>
          <path id="Path_11109" data-name="Path 11109" d="M202.971,248.125c.479.091.756.124,1.021.2a80.6,80.6,0,0,0,17.443,2.559,175.372,175.372,0,0,0,34.619-1.942,176.708,176.708,0,0,0,28.541-6.558,99.709,99.709,0,0,0,11.551-4.451c.788-.367.9-.345,1.246.514,1.2,3,2.391,6,3.584,9q2.425,6.1,4.847,12.195c.162.408.287.831.464,1.346-.541.281-.994.537-1.463.758a127.665,127.665,0,0,1-26.334,8.861,200.939,200.939,0,0,1-33.872,4.669,159.724,159.724,0,0,1-33.532-1.346c-2.22-.349-4.421-.817-6.622-1.274-.958-.2-1.076-.383-1.1-1.323q-.245-10.674-.47-21.348C202.885,249.421,202.94,248.857,202.971,248.125Z" fill="#366196"/>
          <g id="Group_3800" data-name="Group 3800">
            <g id="Group_3799" data-name="Group 3799">
              <path id="Path_11110" data-name="Path 11110" d="M241.9,257.756a4.422,4.422,0,0,1-.959,1.972,29.29,29.29,0,0,1-2.2,2.6q-1.315,1.393-2.734,2.949a21.367,21.367,0,0,0-2.633,3.6,11.747,11.747,0,0,0-1.553,4.184,7.989,7.989,0,0,0-.066,1.929,7.958,7.958,0,0,1-3.186-1.782,2.008,2.008,0,0,1-.575-1.743c.158-.8,1.285-2.132,3.23-4.1a37.423,37.423,0,0,1-.154-4.468c.026-2.009.042-3.762.022-5.266a12.533,12.533,0,0,0-.413-3.48,6.407,6.407,0,0,1,2.221.054,2.013,2.013,0,0,1,1.1.633,2.751,2.751,0,0,1,.394,1.449c.045.685.07,1.245.068,1.681-.054,1.437-.077,2.238-.109,2.4s-.089.82-.158,1.987-.087,1.942-.077,2.32c4.037-4.316,5.8-7.515,6.063-9.185C241.387,256.3,241.976,257.038,241.9,257.756Z" fill="#fff"/>
              <path id="Path_11111" data-name="Path 11111" d="M252.281,256.817A3.123,3.123,0,0,1,254.766,258a5.881,5.881,0,0,1,1.351,3.389,8.49,8.49,0,0,1-.675,4.558,6.155,6.155,0,0,1-3.581,3.353,8.394,8.394,0,0,1-3.164.5,6.248,6.248,0,0,1-4.231-1.7,5.264,5.264,0,0,1-1.54-4.431,8.151,8.151,0,0,1,1.877-4.761,6.864,6.864,0,0,1,4.026-2.462.9.9,0,0,1,.479.152c.148.1.223.2.224.3a6.407,6.407,0,0,0-3.006,4.192,8.871,8.871,0,0,1,1.323-2.077,6.085,6.085,0,0,1,1.541-1.325A6.289,6.289,0,0,1,252.281,256.817Zm-1.42,1.632a3.538,3.538,0,0,0-2.82,1.888,6.885,6.885,0,0,0-1.345,3.791c-.046,2.672.828,4.068,2.563,4.1a3.089,3.089,0,0,0,2.868-1.94,8.2,8.2,0,0,0,.814-4.355C252.785,259.582,252.107,258.439,250.861,258.449Z" fill="#fff"/>
              <path id="Path_11112" data-name="Path 11112" d="M266.663,254.674a3.452,3.452,0,0,1,1.867-.078,1.772,1.772,0,0,1,1.057,1.3c.071.224.24,1.25.5,3.081a26.884,26.884,0,0,0,.987,4.611,10.138,10.138,0,0,0,1.605,3.134,5.219,5.219,0,0,1-3.2-.666,3.73,3.73,0,0,1-1.428-2.119,22.607,22.607,0,0,1-.4-2.465,9.243,9.243,0,0,1-1.31,4.632,4.371,4.371,0,0,1-2.8,2.277c-2.094.354-3.372-.733-3.76-3.138a18.672,18.672,0,0,1-.122-3.394,19.448,19.448,0,0,0-.11-3.307,8.78,8.78,0,0,0-.661-2.2,6.832,6.832,0,0,1,2.847.044,2.008,2.008,0,0,1,1.235,1.688,16.235,16.235,0,0,1,.1,3.005,15.688,15.688,0,0,0,.165,3.373c.226,1.063.695,1.535,1.4,1.4a1.87,1.87,0,0,0,1.057-.83,6.432,6.432,0,0,0,.881-1.838,9.05,9.05,0,0,0,.359-2.662,11.656,11.656,0,0,0-.4-3.054,23.5,23.5,0,0,0-.794-2.514C266.178,254.814,266.486,254.72,266.663,254.674Z" fill="#fff"/>
              <path id="Path_11113" data-name="Path 11113" d="M277.459,252.335a3.224,3.224,0,0,1,1.371-2.141,1.775,1.775,0,0,1,1.667-.043,3.24,3.24,0,0,1,1.337,1.386,3.2,3.2,0,0,1,.351,2.165,2.38,2.38,0,0,1-2.214,1.949,2.923,2.923,0,0,0-.242-2.176c-.211-.42-.5-.539-.874-.365a1.426,1.426,0,0,0-.636.933,6.845,6.845,0,0,0-.252,1.869,11.83,11.83,0,0,0,.321,2.713,15.5,15.5,0,0,0,1.1,3.23c.063.134.364.684.92,1.646-.525.252-.867.4-1.019.466a4.161,4.161,0,0,1-2.266.4,1.65,1.65,0,0,1-1.188-1.117c-.111-.272-.355-1.385-.749-3.336a28.6,28.6,0,0,0-1.239-4.555,13.6,13.6,0,0,0-1.515-2.878,4.65,4.65,0,0,1,2.711.5,3.787,3.787,0,0,1,1.49,1.744,12.769,12.769,0,0,1,.762,2.271A12.266,12.266,0,0,1,277.459,252.335Z" fill="#fff"/>
            </g>
          </g>
        </g>
      </g>
    </g>
  </g>
</svg>
