<svg xmlns="http://www.w3.org/2000/svg" width="63.546" height="49.929" viewBox="0 0 63.546 49.929">
  <g id="residential_project_bed" data-name="residential project bed" transform="translate(-2.25 -5.625)">
    <path id="Path_10067" data-name="Path 10067" d="M62.7,14.625h-.057a3.1,3.1,0,0,0-3.092,3.092.315.315,0,0,1-.312.312H8.8a.315.315,0,0,1-.312-.312A3.1,3.1,0,0,0,5.4,14.625H5.342A3.1,3.1,0,0,0,2.25,17.717V43.306A3.1,3.1,0,0,0,5.342,46.4H5.4a3.1,3.1,0,0,0,3.092-3.092v-.879a.569.569,0,0,1,.567-.567H58.987a.569.569,0,0,1,.567.567v.879A3.1,3.1,0,0,0,62.647,46.4H62.7A3.1,3.1,0,0,0,65.8,43.306V17.717A3.1,3.1,0,0,0,62.7,14.625Z" transform="translate(0 9.156)" fill="#d3a375"/>
    <path id="Path_10068" data-name="Path 10068" d="M6.478,24.632H9.67a.569.569,0,0,0,.567-.567V22.221a2.276,2.276,0,0,1,2.269-2.269h13.83a2.276,2.276,0,0,1,2.269,2.269v1.844a.569.569,0,0,0,.567.567h3.4a.569.569,0,0,0,.567-.567V22.221a2.276,2.276,0,0,1,2.269-2.269h13.83a2.276,2.276,0,0,1,2.269,2.269v1.844a.569.569,0,0,0,.567.567h3.191A1.138,1.138,0,0,0,56.407,23.5V10.164a4.552,4.552,0,0,0-4.539-4.539H9.883a4.552,4.552,0,0,0-4.539,4.539V23.5A1.138,1.138,0,0,0,6.478,24.632Z" transform="translate(3.147)" fill="#d3a375"/>
  </g>
</svg>
