<svg xmlns="http://www.w3.org/2000/svg" width="284.517" height="253.866" viewBox="0 0 284.517 253.866">
  <g id="work_interior_office_chair" data-name="work interior office chair" transform="translate(-211.999 -232.567)">
    <g id="Layer_2" data-name="Layer 2" transform="translate(212 264.613)">
      <g id="Group_2699" data-name="Group 2699" transform="translate(0 0)">
        <g id="Group_2698" data-name="Group 2698" transform="translate(0 0)">
          <path id="Path_7380" data-name="Path 7380" d="M215.3,352.324l73.218,86.161a13.792,13.792,0,0,0,22.274-1.717l86.4-140.631c6.787-11.047-3.958-24.539-16.212-20.357l-159.614,54.47A13.853,13.853,0,0,0,215.3,352.324Z" transform="translate(-212 -275)" fill="#e9d1ba"/>
          <path id="Path_7381" data-name="Path 7381" d="M457.048,301.341l69.315,89.344a13.853,13.853,0,0,1-6.2,21.509l-154.95,56.218c-12.171,4.416-23.172-8.868-16.6-20.042l85.636-145.562A13.794,13.794,0,0,1,457.048,301.341Z" transform="translate(-244.76 -280.109)" fill="#d3a375" opacity="0.5" style="mix-blend-mode: multiply;isolation: isolate"/>
        </g>
      </g>
    </g>
    <g id="Layer_1" data-name="Layer 1" transform="translate(289.939 233.588)">
      <g id="Group_2705" data-name="Group 2705" transform="translate(0)">
        <rect id="Rectangle_148" data-name="Rectangle 148" width="14.879" height="8.099" transform="translate(56.166 31.898)" fill="#fff" stroke="#333" stroke-miterlimit="10" stroke-width="2"/>
        <path id="Path_7382" data-name="Path 7382" d="M419.305,257.731c0-6.686-3.955-8.381-9.511-9.417-5.17-.964-14.408-.7-15.671-.664-1.264-.04-10.5-.3-15.672.664-5.556,1.036-9.512,2.731-9.512,9.417s-.093,9.512.942,12.431,2.449,7.063,10.36,8.947a64.386,64.386,0,0,0,27.765,0c7.91-1.884,9.323-6.027,10.358-8.947S419.305,264.418,419.305,257.731Z" transform="translate(-330.571 -247.588)" fill="#fff" stroke="#333" stroke-miterlimit="10" stroke-width="2"/>
        <path id="Path_7383" data-name="Path 7383" d="M427.145,347.2c5.463-11.772,6.027-31.266,6.027-31.266-1.977-16.2-9.323-17.234-17.422-18.835-7.143-1.412-21.9-1.725-25.282-1.779v-.011l-.354,0-.355,0v.011c-3.385.054-18.139.367-25.282,1.779-8.1,1.6-15.445,2.637-17.423,18.835,0,0,.565,19.494,6.028,31.266s1.035,19.117.564,20.907-2.92,13-.848,19.117L389.759,390v.054l.355-.027.354.027V390l36.96-2.772c2.071-6.121-.377-17.328-.849-19.117S421.684,358.976,427.145,347.2Z" transform="translate(-326.768 -255.883)" fill="#fff" stroke="#333" stroke-miterlimit="10" stroke-width="2"/>
        <path id="Rectangle_149" data-name="Rectangle 149" d="M2.792,0H15.006A2.793,2.793,0,0,1,17.8,2.793V4.708a0,0,0,0,1,0,0H0a0,0,0,0,1,0,0V2.792A2.792,2.792,0,0,1,2.792,0Z" transform="translate(2.487 97.443)" fill="#fff" stroke="#333" stroke-miterlimit="10" stroke-width="2"/>
        <path id="Path_7384" data-name="Path 7384" d="M328.133,371.5l3.673,5.624c0,4.794,2.165,35.681,2.165,35.681s-.188,5.255,6.969,6.824l-2.26-43.888,2.26-4.518Z" transform="translate(-323.48 -269.077)" fill="#fff" stroke="#333" stroke-miterlimit="10" stroke-width="2"/>
        <path id="Path_7385" data-name="Path 7385" d="M426.94,326.827c2.919-17.235-4.8-19.777-9.417-20.907-4.19-1.026-22.35-1.509-25.659-1.589v-.012l-.26.006-.261-.006v.012c-3.311.08-21.47.563-25.659,1.589-4.614,1.13-12.337,3.672-9.417,20.907s6.875,25.9,7.346,30.512-2.072,17.422-2.543,21.66.057,8.317,1.582,10.421l28.6,2.145v.054l.355-.027.354.027v-.054l28.6-2.145c1.525-2.1,2.052-6.183,1.582-10.421s-3.014-17.045-2.543-21.66S424.02,344.061,426.94,326.827Z" transform="translate(-328.258 -257.448)" fill="#fff" stroke="#333" stroke-miterlimit="10" stroke-width="1"/>
        <path id="Rectangle_150" data-name="Rectangle 150" d="M0,0H17.8a0,0,0,0,1,0,0V1.915a2.793,2.793,0,0,1-2.793,2.793H2.792A2.792,2.792,0,0,1,0,1.916V0A0,0,0,0,1,0,0Z" transform="translate(124.203 102.151) rotate(180)" fill="#fff" stroke="#333" stroke-miterlimit="10" stroke-width="2"/>
        <path id="Path_7386" data-name="Path 7386" d="M466.4,371.488l-2.562,5.648c0,4.794-2.165,35.681-2.165,35.681s.188,5.255-6.969,6.824l2.26-43.888-.573-4.481Z" transform="translate(-345.479 -269.084)" fill="#fff" stroke="#333" stroke-miterlimit="10" stroke-width="2"/>
        <path id="Path_7387" data-name="Path 7387" d="M437.172,426.51l-48.143,7.931-48.145-7.931s-1.412,4.521,8.193,8.193c8.9,3.4,36,3.41,39.952,3.393,3.952.017,31.054.008,39.951-3.393C438.585,431.031,437.172,426.51,437.172,426.51Z" transform="translate(-325.683 -278.685)" fill="#fff" stroke="#333" stroke-miterlimit="10" stroke-width="2"/>
        <rect id="Rectangle_151" data-name="Rectangle 151" width="10.027" height="11.395" transform="matrix(0.97, 0.245, -0.245, 0.97, 42.523, 150.468)" fill="#fff" stroke="#333" stroke-miterlimit="10" stroke-width="1"/>
        <path id="Rectangle_152" data-name="Rectangle 152" d="M0,0H12.122a0,0,0,0,1,0,0V7.093a4.3,4.3,0,0,1-4.3,4.3H4.3A4.3,4.3,0,0,1,0,7.093V0A0,0,0,0,1,0,0Z" transform="translate(39.514 157.228) rotate(14.161)" fill="#fff" stroke="#333" stroke-miterlimit="10" stroke-width="1"/>
        <g id="Group_2702" data-name="Group 2702" transform="translate(0 159.414)">
          <rect id="Rectangle_153" data-name="Rectangle 153" width="8.947" height="42.47" transform="translate(59.512)" fill="#fff" stroke="#333" stroke-miterlimit="10" stroke-width="2"/>
          <path id="Path_7388" data-name="Path 7388" d="M447.276,518.2v7.217h-4.742v-2.526a2.278,2.278,0,0,0-1.72-1.668c-1.438-.315-49.41-14.475-49.41-14.475h-9.659S335.2,520.9,333.8,521.217a2.266,2.266,0,0,0-1.669,1.668v2.526h-4.6V518.2l54.93-22.91v-4.871h9.366v4.871Z" transform="translate(-323.376 -449.205)" fill="#fff" stroke="#333" stroke-miterlimit="10" stroke-width="2"/>
          <g id="Group_2700" data-name="Group 2700" transform="translate(0 76.208)">
            <rect id="Rectangle_154" data-name="Rectangle 154" width="5.182" height="1.712" transform="translate(3.762)" fill="#fff" stroke="#333" stroke-miterlimit="10" stroke-width="1"/>
            <path id="Path_7389" data-name="Path 7389" d="M325.707,534.243H331.9l.548,4.339a10.634,10.634,0,0,1-.359,3.192h-9.541s-.631-4.548,2.992-5.819Z" transform="translate(-322.501 -533.03)" fill="#fff" stroke="#333" stroke-miterlimit="10" stroke-width="2"/>
            <path id="Path_7390" data-name="Path 7390" d="M332.55,540.956a4.225,4.225,0,1,1-4.225-4.225A4.225,4.225,0,0,1,332.55,540.956Z" transform="translate(-322.779 -533.463)" fill="#fff" stroke="#333" stroke-miterlimit="10" stroke-width="1"/>
            <path id="Path_7391" data-name="Path 7391" d="M332.111,541.073a3.668,3.668,0,1,1-3.668-3.668A3.669,3.669,0,0,1,332.111,541.073Z" transform="translate(-322.896 -533.58)" fill="#fff" stroke="#333" stroke-miterlimit="10" stroke-width="2"/>
          </g>
          <g id="Group_2701" data-name="Group 2701" transform="translate(118.114 76.208)">
            <rect id="Rectangle_155" data-name="Rectangle 155" width="5.182" height="1.712" transform="translate(6.183 1.712) rotate(180)" fill="#fff" stroke="#333" stroke-miterlimit="10" stroke-width="1"/>
            <path id="Path_7392" data-name="Path 7392" d="M472.2,534.243h-6.189l-.548,4.339a10.634,10.634,0,0,0,.359,3.192h9.541s.631-4.548-2.992-5.819Z" transform="translate(-465.462 -533.03)" fill="#fff" stroke="#333" stroke-miterlimit="10" stroke-width="2"/>
            <path id="Path_7393" data-name="Path 7393" d="M465.671,540.956a4.225,4.225,0,1,0,4.226-4.225A4.226,4.226,0,0,0,465.671,540.956Z" transform="translate(-465.498 -533.463)" fill="#fff" stroke="#333" stroke-miterlimit="10" stroke-width="1"/>
            <path id="Path_7394" data-name="Path 7394" d="M466.345,541.073a3.669,3.669,0,1,0,3.669-3.668A3.669,3.669,0,0,0,466.345,541.073Z" transform="translate(-465.615 -533.58)" fill="#fff" stroke="#333" stroke-miterlimit="10" stroke-width="2"/>
          </g>
        </g>
        <path id="Path_7395" data-name="Path 7395" d="M438.79,416.659c0-1.978-3.231-12.989-20.374-11.468-15.5,1.375-27.652,1.785-29.842,1.851-2.19-.065-14.344-.476-29.843-1.851-17.143-1.521-20.373,9.49-20.373,11.468s-3.2,11.3,18.457,13.466c19.383,1.938,29.784,1.69,31.759,1.616,1.975.074,12.376.322,31.757-1.616C441.992,427.96,438.79,418.636,438.79,416.659Z" transform="translate(-325.228 -274.955)" fill="#fff" stroke="#333" stroke-miterlimit="10" stroke-width="2"/>
        <path id="Path_7396" data-name="Path 7396" d="M433.25,412.38c0,1.253-19.653,2.27-43.9,2.27s-43.9-1.016-43.9-2.27,19.654-2.269,43.9-2.269S433.25,411.127,433.25,412.38Z" transform="translate(-326.49 -275.835)" fill="#fff" stroke="#333" stroke-miterlimit="10" stroke-width="1"/>
        <path id="Path_7397" data-name="Path 7397" d="M401.6,510.176" transform="translate(-336.249 -293.226)" fill="#fff" stroke="#333" stroke-miterlimit="10" stroke-width="3"/>
        <path id="Path_7398" data-name="Path 7398" d="M401.6,490.871" transform="translate(-336.249 -289.871)" fill="#fff" stroke="#333" stroke-miterlimit="10" stroke-width="3"/>
        <path id="Path_7399" data-name="Path 7399" d="M377.96,319.321c14.9-.467,26.282-.474,31.429-.19a7.569,7.569,0,0,1,4.733,1.7c1.863,1.668,2.882,4.742,1.894,7.005-.93,2.129-3.411,3.022-5.869,3.6-9.79,2.288-25.4.961-31.239.378a6.985,6.985,0,0,1-4.544-3.408,6.651,6.651,0,0,1-.189-5.869A6.524,6.524,0,0,1,377.96,319.321Z" transform="translate(-331.376 -259.989)" fill="#fff" stroke="#333" stroke-miterlimit="10" stroke-width="1"/>
        <path id="Path_7400" data-name="Path 7400" d="M381.9,345.8c12.174-.382,21.476-.387,25.682-.155a6.185,6.185,0,0,1,3.868,1.393,5.378,5.378,0,0,1,1.547,5.724c-.76,1.741-2.787,2.47-4.8,2.94-8,1.87-20.753.786-25.528.31a5.708,5.708,0,0,1-3.713-2.785,5.435,5.435,0,0,1-.155-4.8A5.335,5.335,0,0,1,381.9,345.8Z" transform="translate(-332.199 -264.603)" fill="#fff" stroke="#333" stroke-miterlimit="10" stroke-width="1"/>
        <path id="Path_7401" data-name="Path 7401" d="M387.145,369.337c8.021-.251,14.149-.255,16.92-.1a4.073,4.073,0,0,1,2.548.918,3.542,3.542,0,0,1,1.02,3.771c-.5,1.147-1.836,1.628-3.16,1.937-5.27,1.232-13.672.518-16.817.2a3.759,3.759,0,0,1-2.446-1.835,3.581,3.581,0,0,1-.1-3.159A3.516,3.516,0,0,1,387.145,369.337Z" transform="translate(-333.325 -268.712)" fill="#fff" stroke="#333" stroke-miterlimit="10" stroke-width="1"/>
        <g id="Group_2704" data-name="Group 2704" transform="translate(58.837 240.883)">
          <g id="Group_2703" data-name="Group 2703">
            <rect id="Rectangle_156" data-name="Rectangle 156" width="5.699" height="2.512" transform="translate(2.285)" fill="#fff" stroke="#333" stroke-miterlimit="10" stroke-width="1"/>
            <rect id="Rectangle_157" data-name="Rectangle 157" width="7.39" height="6.566" transform="translate(1.423 2.227)" fill="#fff" stroke="#333" stroke-miterlimit="10" stroke-width="2"/>
            <path id="Path_7402" data-name="Path 7402" d="M395.138,541.838s-3.454,4.882.4,8.736h1.142v-8.736Z" transform="translate(-393.715 -539.612)" fill="#fff" stroke="#333" stroke-miterlimit="10" stroke-width="2"/>
            <path id="Path_7403" data-name="Path 7403" d="M404.13,541.838s3.454,4.882-.4,8.736h-1.142v-8.736Z" transform="translate(-395.257 -539.612)" fill="#fff" stroke="#333" stroke-miterlimit="10" stroke-width="2"/>
          </g>
        </g>
        <rect id="Rectangle_158" data-name="Rectangle 158" width="5.745" height="24.4" transform="translate(61.099 216.951)" fill="#fff" stroke="#333" stroke-miterlimit="10" stroke-width="2"/>
      </g>
    </g>
  </g>
</svg>
